M48
; DRILL file {KiCad 9.0.1} date 2025-08-04T21:34:27+0200
; FORMAT={-:-/ absolute / metric / decimal}
; #@! TF.CreationDate,2025-08-04T21:34:27+02:00
; #@! TF.GenerationSoftware,Kicad,Pcbnew,9.0.1
; #@! TF.FileFunction,Plated,1,4,PTH
FMAT,2
METRIC
; #@! TA.AperFunction,Plated,PTH,ViaDrill
T1C0.300
; #@! TA.AperFunction,Plated,PTH,ComponentDrill
T2C1.000
%
G90
G05
T1
X204.47Y-97.79
X204.47Y-98.425
X204.47Y-99.06
X204.47Y-103.505
X204.47Y-104.14
X204.47Y-104.775
X205.47Y-102.425
X205.47Y-108.0
X205.537Y-100.176
X206.47Y-98.425
X206.47Y-104.0
X206.576Y-105.999
X207.47Y-102.425
X207.476Y-97.434
X208.076Y-105.622
X208.552Y-107.475
X209.426Y-108.703
X209.448Y-102.231
X210.82Y-100.33
X210.82Y-102.87
X210.82Y-105.41
X210.82Y-106.68
X210.82Y-107.95
X211.455Y-100.33
X211.455Y-102.87
X211.455Y-105.41
X211.455Y-106.68
X211.455Y-107.95
X213.36Y-101.6
X213.36Y-102.87
X213.36Y-105.41
X213.868Y-109.22
X215.092Y-101.492
X215.143Y-100.362
X215.9Y-106.68
X215.9Y-109.22
X216.226Y-105.368
X216.408Y-99.06
X216.577Y-102.926
X217.424Y-109.22
X218.366Y-103.978
X218.42Y-102.996
X219.71Y-107.95
X220.345Y-107.95
X220.98Y-100.928
X220.98Y-107.95
X221.06Y-105.963
X221.113Y-105.118
X221.138Y-100.084
X221.255Y-99.234
X221.265Y-104.305
X221.265Y-98.425
X221.265Y-103.505
X222.504Y-109.22
X223.52Y-94.996
X223.52Y-109.22
X226.096Y-99.291
X226.934Y-98.367
X227.695Y-109.068
X227.735Y-95.885
X227.762Y-94.939
X229.235Y-100.965
X229.616Y-104.14
X230.505Y-104.775
X230.557Y-105.358
X231.775Y-99.06
X231.775Y-105.41
X232.41Y-99.06
X233.045Y-99.06
X233.045Y-101.6
X233.045Y-104.14
X234.696Y-101.092
X235.204Y-102.108
X235.235Y-95.885
X235.248Y-95.015
X235.288Y-109.0
X240.331Y-102.22
X241.585Y-100.024
X241.59Y-102.24
X241.709Y-99.19
X241.774Y-98.379
X241.793Y-100.818
X241.824Y-105.161
X241.833Y-103.497
X241.843Y-104.361
X241.875Y-105.96
T2
X207.01Y-95.885
X209.55Y-95.885
X212.09Y-95.885
X214.63Y-95.885
X217.17Y-95.885
X219.71Y-95.885
M30
