%TF.GenerationSoftware,KiCad,Pcbnew,9.0.1*%
%TF.CreationDate,2025-08-04T21:34:24+02:00*%
%TF.ProjectId,rev1.0,72657631-2e30-42e6-9b69-6361645f7063,rev?*%
%TF.SameCoordinates,Original*%
%TF.FileFunction,Soldermask,Bot*%
%TF.FilePolarity,Negative*%
%FSLAX46Y46*%
G04 Gerber Fmt 4.6, Leading zero omitted, Abs format (unit mm)*
G04 Created by KiCad (PCBNEW 9.0.1) date 2025-08-04 21:34:24*
%MOMM*%
%LPD*%
G01*
G04 APERTURE LIST*
G04 Aperture macros list*
%AMRoundRect*
0 Rectangle with rounded corners*
0 $1 Rounding radius*
0 $2 $3 $4 $5 $6 $7 $8 $9 X,Y pos of 4 corners*
0 Add a 4 corners polygon primitive as box body*
4,1,4,$2,$3,$4,$5,$6,$7,$8,$9,$2,$3,0*
0 Add four circle primitives for the rounded corners*
1,1,$1+$1,$2,$3*
1,1,$1+$1,$4,$5*
1,1,$1+$1,$6,$7*
1,1,$1+$1,$8,$9*
0 Add four rect primitives between the rounded corners*
20,1,$1+$1,$2,$3,$4,$5,0*
20,1,$1+$1,$4,$5,$6,$7,0*
20,1,$1+$1,$6,$7,$8,$9,0*
20,1,$1+$1,$8,$9,$2,$3,0*%
G04 Aperture macros list end*
%ADD10RoundRect,0.090000X0.210000X1.060000X-0.210000X1.060000X-0.210000X-1.060000X0.210000X-1.060000X0*%
%ADD11R,1.700000X1.700000*%
%ADD12C,1.700000*%
%ADD13RoundRect,0.225000X0.225000X0.250000X-0.225000X0.250000X-0.225000X-0.250000X0.225000X-0.250000X0*%
%ADD14RoundRect,0.150000X-0.825000X-0.150000X0.825000X-0.150000X0.825000X0.150000X-0.825000X0.150000X0*%
%ADD15RoundRect,0.150000X0.825000X0.150000X-0.825000X0.150000X-0.825000X-0.150000X0.825000X-0.150000X0*%
%ADD16RoundRect,0.225000X-0.225000X-0.250000X0.225000X-0.250000X0.225000X0.250000X-0.225000X0.250000X0*%
G04 APERTURE END LIST*
D10*
%TO.C,J4*%
X208470000Y-98425000D03*
X209470000Y-102425000D03*
X206470000Y-98425000D03*
X207470000Y-102425000D03*
X204470000Y-98425000D03*
X205470000Y-102425000D03*
%TD*%
%TO.C,J3*%
X208470000Y-104000000D03*
X209470000Y-108000000D03*
X206470000Y-104000000D03*
X207470000Y-108000000D03*
X204470000Y-104000000D03*
X205470000Y-108000000D03*
%TD*%
D11*
%TO.C,J1*%
X207010000Y-95885000D03*
D12*
X209550000Y-95885000D03*
X212090000Y-95885000D03*
X214630000Y-95885000D03*
X217170000Y-95885000D03*
X219710000Y-95885000D03*
%TD*%
D13*
%TO.C,C3*%
X222530000Y-107950000D03*
X220980000Y-107950000D03*
%TD*%
D14*
%TO.C,U2*%
X222535000Y-105975000D03*
X222535000Y-104705000D03*
X222535000Y-103435000D03*
X222535000Y-102165000D03*
X222535000Y-100895000D03*
X222535000Y-99625000D03*
X222535000Y-98355000D03*
X222535000Y-97085000D03*
X227485000Y-97085000D03*
X227485000Y-98355000D03*
X227485000Y-99625000D03*
X227485000Y-100895000D03*
X227485000Y-102165000D03*
X227485000Y-103435000D03*
X227485000Y-104705000D03*
X227485000Y-105975000D03*
%TD*%
D15*
%TO.C,U1*%
X237995000Y-99060000D03*
X237995000Y-100330000D03*
X237995000Y-101600000D03*
X237995000Y-102870000D03*
X237995000Y-104140000D03*
X237995000Y-105410000D03*
X237995000Y-106680000D03*
X237995000Y-107950000D03*
X233045000Y-107950000D03*
X233045000Y-106680000D03*
X233045000Y-105410000D03*
X233045000Y-104140000D03*
X233045000Y-102870000D03*
X233045000Y-101600000D03*
X233045000Y-100330000D03*
X233045000Y-99060000D03*
%TD*%
D13*
%TO.C,C1*%
X234595000Y-97300684D03*
X233045000Y-97300684D03*
%TD*%
D14*
%TO.C,U3*%
X213360000Y-107950000D03*
X213360000Y-106680000D03*
X213360000Y-105410000D03*
X213360000Y-104140000D03*
X213360000Y-102870000D03*
X213360000Y-101600000D03*
X213360000Y-100330000D03*
X213360000Y-99060000D03*
X218310000Y-99060000D03*
X218310000Y-100330000D03*
X218310000Y-101600000D03*
X218310000Y-102870000D03*
X218310000Y-104140000D03*
X218310000Y-105410000D03*
X218310000Y-106680000D03*
X218310000Y-107950000D03*
%TD*%
D16*
%TO.C,C2*%
X226345000Y-107950000D03*
X227895000Y-107950000D03*
%TD*%
M02*
