%TF.GenerationSoftware,KiCad,Pcbnew,9.0.1*%
%TF.CreationDate,2025-08-04T21:34:24+02:00*%
%TF.ProjectId,rev1.0,72657631-2e30-42e6-9b69-6361645f7063,rev?*%
%TF.SameCoordinates,Original*%
%TF.FileFunction,Copper,L2,Inr*%
%TF.FilePolarity,Positive*%
%FSLAX46Y46*%
G04 Gerber Fmt 4.6, Leading zero omitted, Abs format (unit mm)*
G04 Created by KiCad (PCBNEW 9.0.1) date 2025-08-04 21:34:24*
%MOMM*%
%LPD*%
G01*
G04 APERTURE LIST*
%TA.AperFunction,ComponentPad*%
%ADD10R,1.700000X1.700000*%
%TD*%
%TA.AperFunction,ComponentPad*%
%ADD11C,1.700000*%
%TD*%
%TA.AperFunction,ViaPad*%
%ADD12C,0.600000*%
%TD*%
%TA.AperFunction,Conductor*%
%ADD13C,0.200000*%
%TD*%
G04 APERTURE END LIST*
D10*
%TO.N,PISO out*%
%TO.C,J1*%
X207010000Y-95885000D03*
D11*
%TO.N,SIPO in*%
X209550000Y-95885000D03*
%TO.N,Clock*%
X212090000Y-95885000D03*
%TO.N,Shift{slash}load*%
X214630000Y-95885000D03*
%TO.N,VCC*%
X217170000Y-95885000D03*
%TO.N,GND*%
X219710000Y-95885000D03*
%TD*%
D12*
%TO.N,GND*%
X208551832Y-107475378D03*
%TO.N,VCC*%
X205536535Y-100176279D03*
X206576293Y-105998922D03*
%TO.N,GND*%
X205470000Y-108000000D03*
X205470000Y-102425000D03*
%TO.N,SIPO in*%
X209447842Y-102230743D03*
%TO.N,GND*%
X207476294Y-97433704D03*
%TO.N,VCC*%
X211455000Y-100330000D03*
X210820000Y-100330000D03*
X211455000Y-102870000D03*
X210820000Y-102870000D03*
X210820000Y-105410000D03*
X211455000Y-105410000D03*
X210820000Y-106680000D03*
X211455000Y-106680000D03*
X210820000Y-107950000D03*
X211455000Y-107950000D03*
%TO.N,SIPO out*%
X209426139Y-108703471D03*
%TO.N,VCC*%
X204470000Y-104775000D03*
X204470000Y-97790000D03*
X204470000Y-99060000D03*
X204470000Y-98425000D03*
X204470000Y-103505000D03*
X204470000Y-104140000D03*
%TO.N,Clock*%
X206470000Y-104000000D03*
X208075732Y-105622014D03*
%TO.N,Shift{slash}load*%
X207470000Y-102425000D03*
%TO.N,Clock*%
X206470000Y-98425000D03*
%TO.N,VCC*%
X230556764Y-105358236D03*
X220345000Y-107950000D03*
X233045000Y-99060000D03*
X241589833Y-102239631D03*
X223520000Y-94996000D03*
X220980000Y-107950000D03*
X226934011Y-98367396D03*
X232410000Y-99060000D03*
X217424000Y-109220000D03*
X219710000Y-107950000D03*
X213868000Y-109220000D03*
X231775000Y-99060000D03*
X230505000Y-104775000D03*
%TO.N,GND*%
X235235000Y-95885000D03*
X235204000Y-102108000D03*
X227735000Y-95885000D03*
X229616000Y-104140000D03*
X227695226Y-109068412D03*
X227761953Y-94939361D03*
X235287856Y-109000215D03*
X235248499Y-95015136D03*
X234696000Y-101092000D03*
X223520000Y-109220000D03*
X222504000Y-109220000D03*
X215900000Y-109220000D03*
X240330558Y-102219643D03*
%TO.N,Net-(RN1-R4.2)*%
X213360000Y-105410000D03*
%TO.N,Net-(RN2-R3.2)*%
X218419793Y-102996024D03*
X215143489Y-100361727D03*
%TO.N,Net-(RN2-R2.2)*%
X218365909Y-103978347D03*
X215091735Y-101491698D03*
%TO.N,Net-(RN2-R4.2)*%
X216408000Y-99060000D03*
%TO.N,Net-(RN2-R1.2)*%
X216576921Y-102926367D03*
%TO.N,SIPO in*%
X233045000Y-101600000D03*
%TO.N,SIPO out*%
X221265000Y-98425000D03*
%TO.N,Net-(RN3-R1.1)*%
X241793421Y-100818455D03*
%TO.N,Net-(RN3-R2.1)*%
X241585000Y-100023904D03*
%TO.N,Net-(RN3-R3.1)*%
X241708754Y-99190257D03*
%TO.N,Net-(RN3-R4.1)*%
X241773873Y-98379399D03*
%TO.N,Net-(RN6-R3.1)*%
X241843353Y-104361437D03*
%TO.N,Net-(RN6-R4.1)*%
X241832882Y-103497403D03*
%TO.N,Net-(RN6-R2.1)*%
X241824311Y-105161213D03*
%TO.N,Net-(RN6-R1.1)*%
X241874969Y-105959610D03*
%TO.N,Net-(RN4-R4.1)*%
X220980000Y-100928346D03*
%TO.N,Net-(RN4-R2.1)*%
X221255220Y-99234227D03*
%TO.N,Net-(RN4-R3.1)*%
X221137989Y-100084157D03*
%TO.N,Net-(RN5-R1.1)*%
X221265000Y-103505000D03*
%TO.N,Net-(RN5-R3.1)*%
X221112634Y-105118470D03*
%TO.N,Net-(RN5-R2.1)*%
X221264999Y-104305000D03*
%TO.N,Net-(RN5-R4.1)*%
X221060000Y-105963162D03*
%TO.N,Clock*%
X231775000Y-105410000D03*
X226095889Y-99290867D03*
%TO.N,Shift{slash}load*%
X233045000Y-104140000D03*
X229235000Y-100965000D03*
%TO.N,Net-(RN1-R2.2)*%
X215900000Y-106680000D03*
X213360000Y-102870000D03*
%TO.N,Net-(RN1-R1.2)*%
X213360000Y-101600000D03*
%TO.N,Net-(RN1-R3.2)*%
X216226140Y-105368169D03*
%TD*%
D13*
%TO.N,SIPO in*%
X209447842Y-95987158D02*
X209550000Y-95885000D01*
X209447842Y-102235000D02*
X209447842Y-95987158D01*
X232410000Y-102235000D02*
X209447842Y-102235000D01*
X233045000Y-101600000D02*
X232410000Y-102235000D01*
%TO.N,Shift{slash}load*%
X228600000Y-101600000D02*
X217508084Y-101600000D01*
X229235000Y-100965000D02*
X228600000Y-101600000D01*
X214630000Y-98721916D02*
X214630000Y-95885000D01*
X217508084Y-101600000D02*
X214630000Y-98721916D01*
%TO.N,Net-(RN1-R2.2)*%
X213360000Y-104140000D02*
X215900000Y-106680000D01*
X213360000Y-102870000D02*
X213360000Y-104140000D01*
%TD*%
%TA.AperFunction,Conductor*%
%TO.N,VCC*%
G36*
X216598684Y-94499407D02*
G01*
X216634648Y-94548907D01*
X216634648Y-94610093D01*
X216598684Y-94659593D01*
X216585438Y-94667710D01*
X216462446Y-94730376D01*
X216462442Y-94730378D01*
X216408282Y-94769728D01*
X217040591Y-95402037D01*
X216977007Y-95419075D01*
X216862993Y-95484901D01*
X216769901Y-95577993D01*
X216704075Y-95692007D01*
X216687037Y-95755591D01*
X216054728Y-95123282D01*
X216015378Y-95177442D01*
X216015376Y-95177446D01*
X215918904Y-95366784D01*
X215862985Y-95538887D01*
X215827021Y-95588387D01*
X215768830Y-95607294D01*
X215710639Y-95588387D01*
X215674676Y-95538887D01*
X215649876Y-95462561D01*
X215649874Y-95462558D01*
X215649873Y-95462557D01*
X215649873Y-95462555D01*
X215571232Y-95308212D01*
X215469414Y-95168072D01*
X215346928Y-95045586D01*
X215206788Y-94943768D01*
X215206787Y-94943767D01*
X215206785Y-94943766D01*
X215052441Y-94865125D01*
X215052438Y-94865123D01*
X214887706Y-94811598D01*
X214887702Y-94811597D01*
X214716614Y-94784500D01*
X214716611Y-94784500D01*
X214543389Y-94784500D01*
X214543386Y-94784500D01*
X214372297Y-94811597D01*
X214372293Y-94811598D01*
X214207561Y-94865123D01*
X214207558Y-94865125D01*
X214053214Y-94943766D01*
X213913073Y-95045585D01*
X213790585Y-95168073D01*
X213688766Y-95308214D01*
X213610125Y-95462558D01*
X213610123Y-95462561D01*
X213556598Y-95627293D01*
X213556597Y-95627297D01*
X213529500Y-95798385D01*
X213529500Y-95971614D01*
X213556597Y-96142702D01*
X213556598Y-96142706D01*
X213610123Y-96307438D01*
X213610125Y-96307441D01*
X213675373Y-96435500D01*
X213688768Y-96461788D01*
X213790586Y-96601928D01*
X213913072Y-96724414D01*
X214053212Y-96826232D01*
X214207555Y-96904873D01*
X214207557Y-96904873D01*
X214207558Y-96904874D01*
X214211087Y-96906021D01*
X214260589Y-96941982D01*
X214279500Y-97000172D01*
X214279500Y-98768060D01*
X214298130Y-98837588D01*
X214300790Y-98847515D01*
X214300790Y-98847517D01*
X214303383Y-98857198D01*
X214303384Y-98857200D01*
X214303385Y-98857203D01*
X214303386Y-98857204D01*
X214349530Y-98937128D01*
X214810413Y-99398010D01*
X215070128Y-99657725D01*
X215097905Y-99712242D01*
X215088334Y-99772674D01*
X215045069Y-99815939D01*
X215025748Y-99823355D01*
X214931004Y-99848742D01*
X214931000Y-99848744D01*
X214805478Y-99921214D01*
X214702976Y-100023716D01*
X214630506Y-100149237D01*
X214630505Y-100149242D01*
X214592989Y-100289252D01*
X214592989Y-100434202D01*
X214597763Y-100452017D01*
X214630506Y-100574216D01*
X214702976Y-100699737D01*
X214702978Y-100699739D01*
X214702980Y-100699742D01*
X214805474Y-100802236D01*
X214805476Y-100802237D01*
X214805478Y-100802239D01*
X214846695Y-100826036D01*
X214887636Y-100871506D01*
X214894032Y-100932356D01*
X214863439Y-100985344D01*
X214846696Y-100997508D01*
X214753722Y-101051187D01*
X214651222Y-101153687D01*
X214578752Y-101279208D01*
X214549731Y-101387515D01*
X214541235Y-101419223D01*
X214541235Y-101564173D01*
X214573293Y-101683814D01*
X214578752Y-101704185D01*
X214597120Y-101735999D01*
X214609842Y-101795848D01*
X214584956Y-101851743D01*
X214531968Y-101882336D01*
X214511384Y-101884500D01*
X213982707Y-101884500D01*
X213924516Y-101865593D01*
X213888552Y-101816093D01*
X213887080Y-101759878D01*
X213910500Y-101672475D01*
X213910500Y-101527525D01*
X213872984Y-101387515D01*
X213872982Y-101387512D01*
X213872982Y-101387510D01*
X213800512Y-101261989D01*
X213800510Y-101261987D01*
X213800509Y-101261985D01*
X213698015Y-101159491D01*
X213698012Y-101159489D01*
X213698010Y-101159487D01*
X213572488Y-101087017D01*
X213572489Y-101087017D01*
X213542896Y-101079087D01*
X213432475Y-101049500D01*
X213287525Y-101049500D01*
X213225790Y-101066041D01*
X213147510Y-101087017D01*
X213021989Y-101159487D01*
X212919487Y-101261989D01*
X212847017Y-101387510D01*
X212822775Y-101477982D01*
X212809500Y-101527525D01*
X212809500Y-101672475D01*
X212832919Y-101759878D01*
X212829718Y-101820978D01*
X212791213Y-101868528D01*
X212737293Y-101884500D01*
X209921131Y-101884500D01*
X209913533Y-101882031D01*
X209905644Y-101883281D01*
X209884988Y-101872756D01*
X209862940Y-101865593D01*
X209851127Y-101855504D01*
X209827338Y-101831715D01*
X209799561Y-101777198D01*
X209798342Y-101761711D01*
X209798342Y-97033370D01*
X209817249Y-96975179D01*
X209866746Y-96939216D01*
X209972445Y-96904873D01*
X210126788Y-96826232D01*
X210266928Y-96724414D01*
X210389414Y-96601928D01*
X210491232Y-96461788D01*
X210569873Y-96307445D01*
X210569874Y-96307440D01*
X210569876Y-96307438D01*
X210623401Y-96142706D01*
X210623402Y-96142702D01*
X210650500Y-95971614D01*
X210650500Y-95798385D01*
X210989500Y-95798385D01*
X210989500Y-95971614D01*
X211016597Y-96142702D01*
X211016598Y-96142706D01*
X211070123Y-96307438D01*
X211070125Y-96307441D01*
X211135373Y-96435500D01*
X211148768Y-96461788D01*
X211250586Y-96601928D01*
X211373072Y-96724414D01*
X211513212Y-96826232D01*
X211667555Y-96904873D01*
X211667557Y-96904873D01*
X211667558Y-96904874D01*
X211667561Y-96904876D01*
X211832293Y-96958401D01*
X211832297Y-96958402D01*
X212003386Y-96985500D01*
X212003389Y-96985500D01*
X212176614Y-96985500D01*
X212347702Y-96958402D01*
X212347706Y-96958401D01*
X212512438Y-96904876D01*
X212512440Y-96904874D01*
X212512445Y-96904873D01*
X212666788Y-96826232D01*
X212806928Y-96724414D01*
X212929414Y-96601928D01*
X213031232Y-96461788D01*
X213109873Y-96307445D01*
X213109874Y-96307440D01*
X213109876Y-96307438D01*
X213163401Y-96142706D01*
X213163402Y-96142702D01*
X213190500Y-95971614D01*
X213190500Y-95798385D01*
X213163402Y-95627297D01*
X213163401Y-95627293D01*
X213109876Y-95462561D01*
X213109874Y-95462558D01*
X213109873Y-95462557D01*
X213109873Y-95462555D01*
X213031232Y-95308212D01*
X212929414Y-95168072D01*
X212806928Y-95045586D01*
X212666788Y-94943768D01*
X212666787Y-94943767D01*
X212666785Y-94943766D01*
X212512441Y-94865125D01*
X212512438Y-94865123D01*
X212347706Y-94811598D01*
X212347702Y-94811597D01*
X212176614Y-94784500D01*
X212176611Y-94784500D01*
X212003389Y-94784500D01*
X212003386Y-94784500D01*
X211832297Y-94811597D01*
X211832293Y-94811598D01*
X211667561Y-94865123D01*
X211667558Y-94865125D01*
X211513214Y-94943766D01*
X211373073Y-95045585D01*
X211250585Y-95168073D01*
X211148766Y-95308214D01*
X211070125Y-95462558D01*
X211070123Y-95462561D01*
X211016598Y-95627293D01*
X211016597Y-95627297D01*
X210989500Y-95798385D01*
X210650500Y-95798385D01*
X210623402Y-95627297D01*
X210623401Y-95627293D01*
X210569876Y-95462561D01*
X210569874Y-95462558D01*
X210569873Y-95462557D01*
X210569873Y-95462555D01*
X210491232Y-95308212D01*
X210389414Y-95168072D01*
X210266928Y-95045586D01*
X210126788Y-94943768D01*
X210126787Y-94943767D01*
X210126785Y-94943766D01*
X209972441Y-94865125D01*
X209972438Y-94865123D01*
X209807706Y-94811598D01*
X209807702Y-94811597D01*
X209636614Y-94784500D01*
X209636611Y-94784500D01*
X209463389Y-94784500D01*
X209463386Y-94784500D01*
X209292297Y-94811597D01*
X209292293Y-94811598D01*
X209127561Y-94865123D01*
X209127558Y-94865125D01*
X208973214Y-94943766D01*
X208833073Y-95045585D01*
X208710585Y-95168073D01*
X208608766Y-95308214D01*
X208530125Y-95462558D01*
X208530123Y-95462561D01*
X208476598Y-95627293D01*
X208476597Y-95627297D01*
X208449500Y-95798385D01*
X208449500Y-95971614D01*
X208476597Y-96142702D01*
X208476598Y-96142706D01*
X208530123Y-96307438D01*
X208530125Y-96307441D01*
X208595373Y-96435500D01*
X208608768Y-96461788D01*
X208710586Y-96601928D01*
X208833072Y-96724414D01*
X208973212Y-96826232D01*
X209043287Y-96861936D01*
X209086551Y-96905199D01*
X209097342Y-96950145D01*
X209097342Y-101761711D01*
X209078435Y-101819902D01*
X209068346Y-101831714D01*
X209007333Y-101892727D01*
X209007329Y-101892732D01*
X208934859Y-102018253D01*
X208897342Y-102158268D01*
X208897342Y-102303217D01*
X208934859Y-102443232D01*
X209007329Y-102568753D01*
X209007331Y-102568755D01*
X209007333Y-102568758D01*
X209109827Y-102671252D01*
X209109829Y-102671253D01*
X209109831Y-102671255D01*
X209235353Y-102743725D01*
X209235354Y-102743725D01*
X209235357Y-102743727D01*
X209375367Y-102781243D01*
X209375368Y-102781243D01*
X209520316Y-102781243D01*
X209520317Y-102781243D01*
X209660327Y-102743727D01*
X209660329Y-102743725D01*
X209660331Y-102743725D01*
X209785852Y-102671255D01*
X209785852Y-102671254D01*
X209785857Y-102671252D01*
X209819624Y-102637485D01*
X209842614Y-102614496D01*
X209897131Y-102586719D01*
X209912617Y-102585500D01*
X212737293Y-102585500D01*
X212795484Y-102604407D01*
X212831448Y-102653907D01*
X212832919Y-102710121D01*
X212809500Y-102797525D01*
X212809500Y-102942475D01*
X212824604Y-102998842D01*
X212847017Y-103082489D01*
X212919487Y-103208010D01*
X212919489Y-103208012D01*
X212919491Y-103208015D01*
X212980505Y-103269029D01*
X213008281Y-103323544D01*
X213009500Y-103339031D01*
X213009500Y-104186143D01*
X213021927Y-104232524D01*
X213033385Y-104275285D01*
X213033386Y-104275288D01*
X213079530Y-104355212D01*
X213079532Y-104355214D01*
X213414814Y-104690497D01*
X213442591Y-104745013D01*
X213433020Y-104805445D01*
X213389755Y-104848710D01*
X213344810Y-104859500D01*
X213287525Y-104859500D01*
X213225790Y-104876041D01*
X213147510Y-104897017D01*
X213021989Y-104969487D01*
X212919487Y-105071989D01*
X212847017Y-105197510D01*
X212837323Y-105233688D01*
X212809500Y-105337525D01*
X212809500Y-105482475D01*
X212831599Y-105564948D01*
X212847017Y-105622489D01*
X212919487Y-105748010D01*
X212919489Y-105748012D01*
X212919491Y-105748015D01*
X213021985Y-105850509D01*
X213021987Y-105850510D01*
X213021989Y-105850512D01*
X213147511Y-105922982D01*
X213147512Y-105922982D01*
X213147515Y-105922984D01*
X213287525Y-105960500D01*
X213287526Y-105960500D01*
X213432474Y-105960500D01*
X213432475Y-105960500D01*
X213572485Y-105922984D01*
X213572487Y-105922982D01*
X213572489Y-105922982D01*
X213698010Y-105850512D01*
X213698010Y-105850511D01*
X213698015Y-105850509D01*
X213800509Y-105748015D01*
X213824663Y-105706179D01*
X213872982Y-105622489D01*
X213872982Y-105622487D01*
X213872984Y-105622485D01*
X213910500Y-105482475D01*
X213910500Y-105425190D01*
X213929407Y-105366999D01*
X213978907Y-105331035D01*
X214040093Y-105331035D01*
X214079504Y-105355186D01*
X215320504Y-106596186D01*
X215348281Y-106650703D01*
X215349500Y-106666190D01*
X215349500Y-106752475D01*
X215379087Y-106862896D01*
X215387017Y-106892489D01*
X215459487Y-107018010D01*
X215459489Y-107018012D01*
X215459491Y-107018015D01*
X215561985Y-107120509D01*
X215561987Y-107120510D01*
X215561989Y-107120512D01*
X215687511Y-107192982D01*
X215687512Y-107192982D01*
X215687515Y-107192984D01*
X215827525Y-107230500D01*
X215827526Y-107230500D01*
X215972474Y-107230500D01*
X215972475Y-107230500D01*
X216112485Y-107192984D01*
X216112487Y-107192982D01*
X216112489Y-107192982D01*
X216238010Y-107120512D01*
X216238010Y-107120511D01*
X216238015Y-107120509D01*
X216340509Y-107018015D01*
X216351626Y-106998760D01*
X216412982Y-106892489D01*
X216412982Y-106892487D01*
X216412984Y-106892485D01*
X216450500Y-106752475D01*
X216450500Y-106607525D01*
X216412984Y-106467515D01*
X216412982Y-106467512D01*
X216412982Y-106467510D01*
X216340512Y-106341989D01*
X216340510Y-106341987D01*
X216340509Y-106341985D01*
X216238015Y-106239491D01*
X216238012Y-106239489D01*
X216238010Y-106239487D01*
X216112488Y-106167017D01*
X216112489Y-106167017D01*
X216082896Y-106159087D01*
X215972475Y-106129500D01*
X215972474Y-106129500D01*
X215886190Y-106129500D01*
X215827999Y-106110593D01*
X215816186Y-106100504D01*
X215011376Y-105295694D01*
X215675640Y-105295694D01*
X215675640Y-105440644D01*
X215704819Y-105549539D01*
X215713157Y-105580658D01*
X215785627Y-105706179D01*
X215785629Y-105706181D01*
X215785631Y-105706184D01*
X215888125Y-105808678D01*
X215888127Y-105808679D01*
X215888129Y-105808681D01*
X216013651Y-105881151D01*
X216013652Y-105881151D01*
X216013655Y-105881153D01*
X216153665Y-105918669D01*
X216153666Y-105918669D01*
X216298614Y-105918669D01*
X216298615Y-105918669D01*
X216403044Y-105890687D01*
X220509500Y-105890687D01*
X220509500Y-106035636D01*
X220547017Y-106175651D01*
X220619487Y-106301172D01*
X220619489Y-106301174D01*
X220619491Y-106301177D01*
X220721985Y-106403671D01*
X220721987Y-106403672D01*
X220721989Y-106403674D01*
X220847511Y-106476144D01*
X220847512Y-106476144D01*
X220847515Y-106476146D01*
X220987525Y-106513662D01*
X220987526Y-106513662D01*
X221132474Y-106513662D01*
X221132475Y-106513662D01*
X221272485Y-106476146D01*
X221272487Y-106476144D01*
X221272489Y-106476144D01*
X221398010Y-106403674D01*
X221398010Y-106403673D01*
X221398015Y-106403671D01*
X221500509Y-106301177D01*
X221572984Y-106175647D01*
X221610500Y-106035637D01*
X221610500Y-105890687D01*
X221572984Y-105750677D01*
X221572982Y-105750674D01*
X221572982Y-105750672D01*
X221497265Y-105619527D01*
X221499416Y-105618284D01*
X221482562Y-105570722D01*
X221499925Y-105512052D01*
X221511519Y-105498108D01*
X221553143Y-105456485D01*
X221621825Y-105337525D01*
X231224500Y-105337525D01*
X231224500Y-105482475D01*
X231246599Y-105564948D01*
X231262017Y-105622489D01*
X231334487Y-105748010D01*
X231334489Y-105748012D01*
X231334491Y-105748015D01*
X231436985Y-105850509D01*
X231436987Y-105850510D01*
X231436989Y-105850512D01*
X231562511Y-105922982D01*
X231562512Y-105922982D01*
X231562515Y-105922984D01*
X231702525Y-105960500D01*
X231702526Y-105960500D01*
X231847474Y-105960500D01*
X231847475Y-105960500D01*
X231987485Y-105922984D01*
X231987487Y-105922982D01*
X231987489Y-105922982D01*
X232113010Y-105850512D01*
X232113010Y-105850511D01*
X232113015Y-105850509D01*
X232215509Y-105748015D01*
X232239663Y-105706179D01*
X232287982Y-105622489D01*
X232287982Y-105622487D01*
X232287984Y-105622485D01*
X232325500Y-105482475D01*
X232325500Y-105337525D01*
X232287984Y-105197515D01*
X232287982Y-105197512D01*
X232287982Y-105197510D01*
X232215512Y-105071989D01*
X232215510Y-105071987D01*
X232215509Y-105071985D01*
X232113015Y-104969491D01*
X232113012Y-104969489D01*
X232113010Y-104969487D01*
X231987488Y-104897017D01*
X231987489Y-104897017D01*
X231957896Y-104889087D01*
X231847475Y-104859500D01*
X231702525Y-104859500D01*
X231640790Y-104876041D01*
X231562510Y-104897017D01*
X231436989Y-104969487D01*
X231334487Y-105071989D01*
X231262017Y-105197510D01*
X231252323Y-105233688D01*
X231224500Y-105337525D01*
X221621825Y-105337525D01*
X221625618Y-105330955D01*
X221635067Y-105295694D01*
X221651681Y-105233687D01*
X221663134Y-105190945D01*
X221663134Y-105045995D01*
X221625618Y-104905985D01*
X221625616Y-104905982D01*
X221625616Y-104905980D01*
X221596589Y-104855704D01*
X221583867Y-104795856D01*
X221608754Y-104739960D01*
X221612303Y-104736219D01*
X221705508Y-104643015D01*
X221745399Y-104573922D01*
X221777981Y-104517489D01*
X221777981Y-104517487D01*
X221777983Y-104517485D01*
X221815499Y-104377475D01*
X221815499Y-104232525D01*
X221777983Y-104092515D01*
X221763555Y-104067525D01*
X229065500Y-104067525D01*
X229065500Y-104212475D01*
X229082330Y-104275285D01*
X229103017Y-104352489D01*
X229175487Y-104478010D01*
X229175489Y-104478012D01*
X229175491Y-104478015D01*
X229277985Y-104580509D01*
X229277987Y-104580510D01*
X229277989Y-104580512D01*
X229403511Y-104652982D01*
X229403512Y-104652982D01*
X229403515Y-104652984D01*
X229543525Y-104690500D01*
X229543526Y-104690500D01*
X229688474Y-104690500D01*
X229688475Y-104690500D01*
X229828485Y-104652984D01*
X229828487Y-104652982D01*
X229828489Y-104652982D01*
X229954010Y-104580512D01*
X229954010Y-104580511D01*
X229954015Y-104580509D01*
X230056509Y-104478015D01*
X230056512Y-104478010D01*
X230128982Y-104352489D01*
X230128982Y-104352487D01*
X230128984Y-104352485D01*
X230166500Y-104212475D01*
X230166500Y-104067525D01*
X232494500Y-104067525D01*
X232494500Y-104212475D01*
X232511330Y-104275285D01*
X232532017Y-104352489D01*
X232604487Y-104478010D01*
X232604489Y-104478012D01*
X232604491Y-104478015D01*
X232706985Y-104580509D01*
X232706987Y-104580510D01*
X232706989Y-104580512D01*
X232832511Y-104652982D01*
X232832512Y-104652982D01*
X232832515Y-104652984D01*
X232972525Y-104690500D01*
X232972526Y-104690500D01*
X233117474Y-104690500D01*
X233117475Y-104690500D01*
X233257485Y-104652984D01*
X233257487Y-104652982D01*
X233257489Y-104652982D01*
X233383010Y-104580512D01*
X233383010Y-104580511D01*
X233383015Y-104580509D01*
X233485509Y-104478015D01*
X233485512Y-104478010D01*
X233557982Y-104352489D01*
X233557982Y-104352487D01*
X233557984Y-104352485D01*
X233595500Y-104212475D01*
X233595500Y-104067525D01*
X233557984Y-103927515D01*
X233557982Y-103927512D01*
X233557982Y-103927510D01*
X233485512Y-103801989D01*
X233485510Y-103801987D01*
X233485509Y-103801985D01*
X233383015Y-103699491D01*
X233383012Y-103699489D01*
X233383010Y-103699487D01*
X233257488Y-103627017D01*
X233257489Y-103627017D01*
X233227896Y-103619087D01*
X233117475Y-103589500D01*
X232972525Y-103589500D01*
X232910790Y-103606041D01*
X232832510Y-103627017D01*
X232706989Y-103699487D01*
X232604487Y-103801989D01*
X232532017Y-103927510D01*
X232506318Y-104023421D01*
X232494500Y-104067525D01*
X230166500Y-104067525D01*
X230128984Y-103927515D01*
X230128982Y-103927512D01*
X230128982Y-103927510D01*
X230056512Y-103801989D01*
X230056510Y-103801987D01*
X230056509Y-103801985D01*
X229954015Y-103699491D01*
X229954012Y-103699489D01*
X229954010Y-103699487D01*
X229828488Y-103627017D01*
X229828489Y-103627017D01*
X229798896Y-103619087D01*
X229688475Y-103589500D01*
X229543525Y-103589500D01*
X229481790Y-103606041D01*
X229403510Y-103627017D01*
X229277989Y-103699487D01*
X229175487Y-103801989D01*
X229103017Y-103927510D01*
X229077318Y-104023421D01*
X229065500Y-104067525D01*
X221763555Y-104067525D01*
X221705508Y-103966985D01*
X221702309Y-103963786D01*
X221696810Y-103954178D01*
X221691858Y-103930444D01*
X221683766Y-103907594D01*
X221685717Y-103901006D01*
X221684314Y-103894282D01*
X221694257Y-103872172D01*
X221701142Y-103848928D01*
X221704197Y-103844723D01*
X221705501Y-103843022D01*
X221705509Y-103843015D01*
X221709898Y-103835413D01*
X221777982Y-103717489D01*
X221777982Y-103717487D01*
X221777984Y-103717485D01*
X221815500Y-103577475D01*
X221815500Y-103432525D01*
X221777984Y-103292515D01*
X221777982Y-103292512D01*
X221777982Y-103292510D01*
X221705512Y-103166989D01*
X221705510Y-103166987D01*
X221705509Y-103166985D01*
X221603015Y-103064491D01*
X221603012Y-103064489D01*
X221603010Y-103064487D01*
X221477488Y-102992017D01*
X221477489Y-102992017D01*
X221415847Y-102975500D01*
X221337475Y-102954500D01*
X221192525Y-102954500D01*
X221130790Y-102971041D01*
X221052510Y-102992017D01*
X220926989Y-103064487D01*
X220824487Y-103166989D01*
X220752017Y-103292510D01*
X220739552Y-103339031D01*
X220714500Y-103432525D01*
X220714500Y-103577475D01*
X220731344Y-103640336D01*
X220752017Y-103717489D01*
X220824487Y-103843009D01*
X220824489Y-103843011D01*
X220824491Y-103843015D01*
X220824493Y-103843017D01*
X220825808Y-103844731D01*
X220826326Y-103846195D01*
X220827735Y-103848635D01*
X220827282Y-103848896D01*
X220846232Y-103902407D01*
X220828855Y-103961073D01*
X220825815Y-103965257D01*
X220824491Y-103966982D01*
X220752016Y-104092510D01*
X220726927Y-104186143D01*
X220714499Y-104232525D01*
X220714499Y-104377475D01*
X220731389Y-104440509D01*
X220752016Y-104517489D01*
X220781043Y-104567764D01*
X220793765Y-104627612D01*
X220768879Y-104683508D01*
X220765311Y-104687267D01*
X220672125Y-104780453D01*
X220672121Y-104780459D01*
X220599651Y-104905980D01*
X220599650Y-104905985D01*
X220562134Y-105045995D01*
X220562134Y-105190945D01*
X220573587Y-105233687D01*
X220599651Y-105330959D01*
X220675369Y-105462105D01*
X220673217Y-105463347D01*
X220690072Y-105510916D01*
X220672704Y-105569585D01*
X220661110Y-105583527D01*
X220619491Y-105625145D01*
X220619487Y-105625151D01*
X220547017Y-105750672D01*
X220509500Y-105890687D01*
X216403044Y-105890687D01*
X216438625Y-105881153D01*
X216438627Y-105881151D01*
X216438629Y-105881151D01*
X216519432Y-105834499D01*
X216564155Y-105808678D01*
X216666649Y-105706184D01*
X216673402Y-105694488D01*
X216739122Y-105580658D01*
X216739122Y-105580656D01*
X216739124Y-105580654D01*
X216776640Y-105440644D01*
X216776640Y-105295694D01*
X216739124Y-105155684D01*
X216739122Y-105155681D01*
X216739122Y-105155679D01*
X216666652Y-105030158D01*
X216666650Y-105030156D01*
X216666649Y-105030154D01*
X216564155Y-104927660D01*
X216564152Y-104927658D01*
X216564150Y-104927656D01*
X216438628Y-104855186D01*
X216438629Y-104855186D01*
X216409036Y-104847256D01*
X216298615Y-104817669D01*
X216153665Y-104817669D01*
X216133046Y-104823194D01*
X216013650Y-104855186D01*
X215888129Y-104927656D01*
X215785627Y-105030158D01*
X215713157Y-105155679D01*
X215678774Y-105283999D01*
X215675640Y-105295694D01*
X215011376Y-105295694D01*
X213739496Y-104023814D01*
X213711719Y-103969297D01*
X213710500Y-103953810D01*
X213710500Y-103339031D01*
X213729407Y-103280840D01*
X213739490Y-103269033D01*
X213800509Y-103208015D01*
X213800512Y-103208010D01*
X213872982Y-103082489D01*
X213872982Y-103082487D01*
X213872984Y-103082485D01*
X213910500Y-102942475D01*
X213910500Y-102797525D01*
X213887080Y-102710121D01*
X213890282Y-102649022D01*
X213928787Y-102601472D01*
X213982707Y-102585500D01*
X215969318Y-102585500D01*
X216027509Y-102604407D01*
X216063473Y-102653907D01*
X216064945Y-102710124D01*
X216063938Y-102713878D01*
X216063937Y-102713882D01*
X216026421Y-102853892D01*
X216026421Y-102998842D01*
X216045086Y-103068499D01*
X216063938Y-103138856D01*
X216136408Y-103264377D01*
X216136410Y-103264379D01*
X216136412Y-103264382D01*
X216238906Y-103366876D01*
X216238908Y-103366877D01*
X216238910Y-103366879D01*
X216364432Y-103439349D01*
X216364433Y-103439349D01*
X216364436Y-103439351D01*
X216504446Y-103476867D01*
X216504447Y-103476867D01*
X216649395Y-103476867D01*
X216649396Y-103476867D01*
X216789406Y-103439351D01*
X216789408Y-103439349D01*
X216789410Y-103439349D01*
X216914931Y-103366879D01*
X216914931Y-103366878D01*
X216914936Y-103366876D01*
X217017430Y-103264382D01*
X217049686Y-103208513D01*
X217089903Y-103138856D01*
X217089903Y-103138854D01*
X217089905Y-103138852D01*
X217127421Y-102998842D01*
X217127421Y-102853892D01*
X217089905Y-102713882D01*
X217089903Y-102713878D01*
X217088897Y-102710124D01*
X217092099Y-102649022D01*
X217130604Y-102601472D01*
X217184524Y-102585500D01*
X217849674Y-102585500D01*
X217907865Y-102604407D01*
X217943829Y-102653907D01*
X217943829Y-102715093D01*
X217935410Y-102734001D01*
X217906810Y-102783536D01*
X217906809Y-102783538D01*
X217906809Y-102783539D01*
X217903061Y-102797527D01*
X217869293Y-102923549D01*
X217869293Y-103068498D01*
X217906810Y-103208513D01*
X217979280Y-103334034D01*
X217979282Y-103334036D01*
X217979284Y-103334039D01*
X218035881Y-103390636D01*
X218063657Y-103445151D01*
X218054086Y-103505583D01*
X218031717Y-103532484D01*
X218032483Y-103533250D01*
X218027896Y-103537836D01*
X218027894Y-103537838D01*
X217976232Y-103589500D01*
X217925397Y-103640335D01*
X217925396Y-103640336D01*
X217852926Y-103765857D01*
X217830746Y-103848635D01*
X217815409Y-103905872D01*
X217815409Y-104050822D01*
X217826581Y-104092515D01*
X217852926Y-104190836D01*
X217925396Y-104316357D01*
X217925398Y-104316359D01*
X217925400Y-104316362D01*
X218027894Y-104418856D01*
X218027896Y-104418857D01*
X218027898Y-104418859D01*
X218153420Y-104491329D01*
X218153421Y-104491329D01*
X218153424Y-104491331D01*
X218293434Y-104528847D01*
X218293435Y-104528847D01*
X218438383Y-104528847D01*
X218438384Y-104528847D01*
X218578394Y-104491331D01*
X218578396Y-104491329D01*
X218578398Y-104491329D01*
X218703919Y-104418859D01*
X218703919Y-104418858D01*
X218703924Y-104418856D01*
X218806418Y-104316362D01*
X218806421Y-104316357D01*
X218878891Y-104190836D01*
X218878891Y-104190834D01*
X218878893Y-104190832D01*
X218916409Y-104050822D01*
X218916409Y-103905872D01*
X218878893Y-103765862D01*
X218878891Y-103765859D01*
X218878891Y-103765857D01*
X218806421Y-103640336D01*
X218806419Y-103640334D01*
X218806418Y-103640332D01*
X218749819Y-103583733D01*
X218722044Y-103529219D01*
X218731615Y-103468787D01*
X218753987Y-103441889D01*
X218753219Y-103441121D01*
X218757805Y-103436534D01*
X218757808Y-103436533D01*
X218860302Y-103334039D01*
X218866361Y-103323544D01*
X218932775Y-103208513D01*
X218932775Y-103208511D01*
X218932777Y-103208509D01*
X218970293Y-103068499D01*
X218970293Y-102923549D01*
X218932777Y-102783539D01*
X218904175Y-102734000D01*
X218891454Y-102674152D01*
X218916340Y-102618257D01*
X218969328Y-102587664D01*
X218989912Y-102585500D01*
X232456142Y-102585500D01*
X232456144Y-102585500D01*
X232545288Y-102561614D01*
X232545291Y-102561612D01*
X232555851Y-102555516D01*
X232576457Y-102543618D01*
X232625212Y-102515470D01*
X232848565Y-102292117D01*
X232961187Y-102179496D01*
X233015703Y-102151719D01*
X233031190Y-102150500D01*
X233117474Y-102150500D01*
X233117475Y-102150500D01*
X233257485Y-102112984D01*
X233257487Y-102112982D01*
X233257489Y-102112982D01*
X233383010Y-102040512D01*
X233383010Y-102040511D01*
X233383015Y-102040509D01*
X233485509Y-101938015D01*
X233500520Y-101912016D01*
X233557982Y-101812489D01*
X233557982Y-101812487D01*
X233557984Y-101812485D01*
X233595500Y-101672475D01*
X233595500Y-101527525D01*
X233557984Y-101387515D01*
X233557982Y-101387512D01*
X233557982Y-101387510D01*
X233485512Y-101261989D01*
X233485510Y-101261987D01*
X233485509Y-101261985D01*
X233383015Y-101159491D01*
X233383012Y-101159489D01*
X233383010Y-101159487D01*
X233277848Y-101098772D01*
X233277847Y-101098772D01*
X233257487Y-101087017D01*
X233257486Y-101087016D01*
X233257485Y-101087016D01*
X233117475Y-101049500D01*
X232972525Y-101049500D01*
X232910790Y-101066041D01*
X232832510Y-101087017D01*
X232706989Y-101159487D01*
X232604487Y-101261989D01*
X232532017Y-101387510D01*
X232494500Y-101527525D01*
X232494500Y-101613810D01*
X232475593Y-101672001D01*
X232465504Y-101683814D01*
X232293814Y-101855504D01*
X232239297Y-101883281D01*
X232223810Y-101884500D01*
X229050189Y-101884500D01*
X228991998Y-101865593D01*
X228956034Y-101816093D01*
X228956034Y-101754907D01*
X228980186Y-101715496D01*
X229151187Y-101544496D01*
X229205703Y-101516719D01*
X229221190Y-101515500D01*
X229307474Y-101515500D01*
X229307475Y-101515500D01*
X229447485Y-101477984D01*
X229447487Y-101477982D01*
X229447489Y-101477982D01*
X229573010Y-101405512D01*
X229573010Y-101405511D01*
X229573015Y-101405509D01*
X229675509Y-101303015D01*
X229689254Y-101279208D01*
X229747982Y-101177489D01*
X229747982Y-101177487D01*
X229747984Y-101177485D01*
X229785500Y-101037475D01*
X229785500Y-101019525D01*
X234145500Y-101019525D01*
X234145500Y-101164475D01*
X234164003Y-101233528D01*
X234183017Y-101304489D01*
X234255487Y-101430010D01*
X234255489Y-101430012D01*
X234255491Y-101430015D01*
X234357985Y-101532509D01*
X234357987Y-101532510D01*
X234357989Y-101532512D01*
X234483511Y-101604982D01*
X234483512Y-101604982D01*
X234483515Y-101604984D01*
X234623525Y-101642500D01*
X234623526Y-101642500D01*
X234665621Y-101642500D01*
X234723812Y-101661407D01*
X234759776Y-101710907D01*
X234759776Y-101772093D01*
X234751357Y-101791000D01*
X234691017Y-101895510D01*
X234653500Y-102035525D01*
X234653500Y-102180474D01*
X234691017Y-102320489D01*
X234763487Y-102446010D01*
X234763489Y-102446012D01*
X234763491Y-102446015D01*
X234865985Y-102548509D01*
X234865987Y-102548510D01*
X234865989Y-102548512D01*
X234991511Y-102620982D01*
X234991512Y-102620982D01*
X234991515Y-102620984D01*
X235131525Y-102658500D01*
X235131526Y-102658500D01*
X235276474Y-102658500D01*
X235276475Y-102658500D01*
X235416485Y-102620984D01*
X235416487Y-102620982D01*
X235416489Y-102620982D01*
X235542010Y-102548512D01*
X235542010Y-102548511D01*
X235542015Y-102548509D01*
X235644509Y-102446015D01*
X235646118Y-102443228D01*
X235716982Y-102320489D01*
X235716982Y-102320487D01*
X235716984Y-102320485D01*
X235754500Y-102180475D01*
X235754500Y-102147168D01*
X239780058Y-102147168D01*
X239780058Y-102292118D01*
X239787659Y-102320485D01*
X239817575Y-102432132D01*
X239890045Y-102557653D01*
X239890047Y-102557655D01*
X239890049Y-102557658D01*
X239992543Y-102660152D01*
X239992545Y-102660153D01*
X239992547Y-102660155D01*
X240118069Y-102732625D01*
X240118070Y-102732625D01*
X240118073Y-102732627D01*
X240258083Y-102770143D01*
X240258084Y-102770143D01*
X240403032Y-102770143D01*
X240403033Y-102770143D01*
X240543043Y-102732627D01*
X240543045Y-102732625D01*
X240543047Y-102732625D01*
X240668568Y-102660155D01*
X240668568Y-102660154D01*
X240668573Y-102660152D01*
X240771067Y-102557658D01*
X240772304Y-102555515D01*
X240843540Y-102432132D01*
X240843540Y-102432130D01*
X240843542Y-102432128D01*
X240881058Y-102292118D01*
X240881058Y-102147168D01*
X240843542Y-102007158D01*
X240843540Y-102007155D01*
X240843540Y-102007153D01*
X240771070Y-101881632D01*
X240771068Y-101881630D01*
X240771067Y-101881628D01*
X240668573Y-101779134D01*
X240668570Y-101779132D01*
X240668568Y-101779130D01*
X240543046Y-101706660D01*
X240543047Y-101706660D01*
X240457785Y-101683814D01*
X240403033Y-101669143D01*
X240258083Y-101669143D01*
X240203331Y-101683814D01*
X240118068Y-101706660D01*
X239992547Y-101779130D01*
X239890045Y-101881632D01*
X239817575Y-102007153D01*
X239796184Y-102086985D01*
X239780058Y-102147168D01*
X235754500Y-102147168D01*
X235754500Y-102035525D01*
X235716984Y-101895515D01*
X235716982Y-101895512D01*
X235716982Y-101895510D01*
X235644512Y-101769989D01*
X235644510Y-101769987D01*
X235644509Y-101769985D01*
X235542015Y-101667491D01*
X235542012Y-101667489D01*
X235542010Y-101667487D01*
X235416488Y-101595017D01*
X235416489Y-101595017D01*
X235386896Y-101587087D01*
X235276475Y-101557500D01*
X235234379Y-101557500D01*
X235176188Y-101538593D01*
X235140224Y-101489093D01*
X235140224Y-101427907D01*
X235148643Y-101409000D01*
X235208982Y-101304489D01*
X235208982Y-101304487D01*
X235208984Y-101304485D01*
X235246500Y-101164475D01*
X235246500Y-101019525D01*
X235208984Y-100879515D01*
X235208982Y-100879512D01*
X235208982Y-100879510D01*
X235136512Y-100753989D01*
X235136510Y-100753987D01*
X235136509Y-100753985D01*
X235034015Y-100651491D01*
X235034012Y-100651489D01*
X235034010Y-100651487D01*
X234908488Y-100579017D01*
X234908489Y-100579017D01*
X234871154Y-100569013D01*
X234768475Y-100541500D01*
X234623525Y-100541500D01*
X234561790Y-100558041D01*
X234483510Y-100579017D01*
X234357989Y-100651487D01*
X234255487Y-100753989D01*
X234183017Y-100879510D01*
X234150512Y-101000821D01*
X234145500Y-101019525D01*
X229785500Y-101019525D01*
X229785500Y-100892525D01*
X229747984Y-100752515D01*
X229747982Y-100752512D01*
X229747982Y-100752510D01*
X229675512Y-100626989D01*
X229675510Y-100626987D01*
X229675509Y-100626985D01*
X229573015Y-100524491D01*
X229573012Y-100524489D01*
X229573010Y-100524487D01*
X229447488Y-100452017D01*
X229447489Y-100452017D01*
X229380999Y-100434201D01*
X229307475Y-100414500D01*
X229162525Y-100414500D01*
X229131449Y-100422827D01*
X229022510Y-100452017D01*
X228896989Y-100524487D01*
X228794487Y-100626989D01*
X228722017Y-100752510D01*
X228684500Y-100892525D01*
X228684500Y-100978810D01*
X228665593Y-101037001D01*
X228655504Y-101048814D01*
X228483814Y-101220504D01*
X228429297Y-101248281D01*
X228413810Y-101249500D01*
X221592885Y-101249500D01*
X221534694Y-101230593D01*
X221498730Y-101181093D01*
X221497259Y-101124876D01*
X221504254Y-101098772D01*
X221530500Y-101000821D01*
X221530500Y-100855871D01*
X221492984Y-100715861D01*
X221454683Y-100649523D01*
X221441962Y-100589675D01*
X221466848Y-100533780D01*
X221471575Y-100529414D01*
X221471415Y-100529254D01*
X221476001Y-100524667D01*
X221476004Y-100524666D01*
X221578498Y-100422172D01*
X221578561Y-100422063D01*
X221650971Y-100296646D01*
X221650971Y-100296644D01*
X221650973Y-100296642D01*
X221688489Y-100156632D01*
X221688489Y-100011682D01*
X221650973Y-99871672D01*
X221650970Y-99871667D01*
X221595738Y-99776002D01*
X221583017Y-99716154D01*
X221607904Y-99660258D01*
X221611453Y-99656517D01*
X221695729Y-99572242D01*
X221721115Y-99528272D01*
X221768202Y-99446716D01*
X221768203Y-99446713D01*
X221768204Y-99446712D01*
X221805720Y-99306702D01*
X221805720Y-99218392D01*
X225545389Y-99218392D01*
X225545389Y-99363342D01*
X225567729Y-99446716D01*
X225582906Y-99503356D01*
X225655376Y-99628877D01*
X225655378Y-99628879D01*
X225655380Y-99628882D01*
X225757874Y-99731376D01*
X225757876Y-99731377D01*
X225757878Y-99731379D01*
X225883400Y-99803849D01*
X225883401Y-99803849D01*
X225883404Y-99803851D01*
X226023414Y-99841367D01*
X226023415Y-99841367D01*
X226168363Y-99841367D01*
X226168364Y-99841367D01*
X226308374Y-99803851D01*
X226308376Y-99803849D01*
X226308378Y-99803849D01*
X226433899Y-99731379D01*
X226433899Y-99731378D01*
X226433904Y-99731376D01*
X226536398Y-99628882D01*
X226578802Y-99555436D01*
X226608871Y-99503356D01*
X226608871Y-99503354D01*
X226608873Y-99503352D01*
X226646389Y-99363342D01*
X226646389Y-99218392D01*
X226608873Y-99078382D01*
X226608871Y-99078379D01*
X226608871Y-99078377D01*
X226536401Y-98952856D01*
X226536399Y-98952854D01*
X226536398Y-98952852D01*
X226433904Y-98850358D01*
X226433901Y-98850356D01*
X226433899Y-98850354D01*
X226308377Y-98777884D01*
X226308378Y-98777884D01*
X226256432Y-98763965D01*
X226168364Y-98740367D01*
X226023414Y-98740367D01*
X225966314Y-98755667D01*
X225883399Y-98777884D01*
X225757878Y-98850354D01*
X225655376Y-98952856D01*
X225582906Y-99078377D01*
X225560566Y-99161752D01*
X225545389Y-99218392D01*
X221805720Y-99218392D01*
X221805720Y-99161752D01*
X221768204Y-99021742D01*
X221768202Y-99021739D01*
X221768202Y-99021737D01*
X221695734Y-98896219D01*
X221695000Y-98895263D01*
X221694711Y-98894448D01*
X221692485Y-98890592D01*
X221693199Y-98890179D01*
X221674573Y-98837588D01*
X221691947Y-98778921D01*
X221703536Y-98764987D01*
X221705509Y-98763015D01*
X221705510Y-98763012D01*
X221705512Y-98763011D01*
X221777982Y-98637489D01*
X221777982Y-98637487D01*
X221777984Y-98637485D01*
X221815500Y-98497475D01*
X221815500Y-98352525D01*
X221777984Y-98212515D01*
X221777982Y-98212512D01*
X221777982Y-98212510D01*
X221705512Y-98086989D01*
X221705510Y-98086987D01*
X221705509Y-98086985D01*
X221603015Y-97984491D01*
X221603012Y-97984489D01*
X221603010Y-97984487D01*
X221477488Y-97912017D01*
X221477489Y-97912017D01*
X221447896Y-97904087D01*
X221337475Y-97874500D01*
X221192525Y-97874500D01*
X221130790Y-97891041D01*
X221052510Y-97912017D01*
X220926989Y-97984487D01*
X220824487Y-98086989D01*
X220752017Y-98212510D01*
X220752016Y-98212515D01*
X220714500Y-98352525D01*
X220714500Y-98497475D01*
X220727775Y-98547016D01*
X220752017Y-98637489D01*
X220824488Y-98763011D01*
X220825220Y-98763965D01*
X220825507Y-98764777D01*
X220827735Y-98768635D01*
X220827020Y-98769047D01*
X220845646Y-98821640D01*
X220828270Y-98880307D01*
X220816689Y-98894233D01*
X220814711Y-98896210D01*
X220742237Y-99021737D01*
X220727059Y-99078382D01*
X220704720Y-99161752D01*
X220704720Y-99306702D01*
X220719897Y-99363341D01*
X220742236Y-99446713D01*
X220797470Y-99542381D01*
X220810191Y-99602230D01*
X220785304Y-99658125D01*
X220781737Y-99661884D01*
X220697480Y-99746141D01*
X220697476Y-99746146D01*
X220625006Y-99871667D01*
X220587489Y-100011682D01*
X220587489Y-100156631D01*
X220625006Y-100296646D01*
X220663304Y-100362979D01*
X220676026Y-100422827D01*
X220651139Y-100478723D01*
X220646415Y-100483090D01*
X220646574Y-100483249D01*
X220641987Y-100487835D01*
X220641985Y-100487837D01*
X220588322Y-100541500D01*
X220539488Y-100590334D01*
X220539487Y-100590335D01*
X220467017Y-100715856D01*
X220429500Y-100855871D01*
X220429500Y-101000823D01*
X220462741Y-101124876D01*
X220459540Y-101185978D01*
X220421035Y-101233528D01*
X220367115Y-101249500D01*
X217694273Y-101249500D01*
X217636082Y-101230593D01*
X217624269Y-101220504D01*
X216324979Y-99921214D01*
X216157932Y-99754166D01*
X216130156Y-99699651D01*
X216139727Y-99639219D01*
X216182992Y-99595954D01*
X216243424Y-99586383D01*
X216253554Y-99588535D01*
X216335525Y-99610500D01*
X216335526Y-99610500D01*
X216480474Y-99610500D01*
X216480475Y-99610500D01*
X216620485Y-99572984D01*
X216620487Y-99572982D01*
X216620489Y-99572982D01*
X216746010Y-99500512D01*
X216746010Y-99500511D01*
X216746015Y-99500509D01*
X216848509Y-99398015D01*
X216901229Y-99306702D01*
X216920982Y-99272489D01*
X216920982Y-99272487D01*
X216920984Y-99272485D01*
X216958500Y-99132475D01*
X216958500Y-98987525D01*
X216920984Y-98847515D01*
X216920982Y-98847512D01*
X216920982Y-98847510D01*
X216848512Y-98721989D01*
X216848510Y-98721987D01*
X216848509Y-98721985D01*
X216746015Y-98619491D01*
X216746012Y-98619489D01*
X216746010Y-98619487D01*
X216620488Y-98547017D01*
X216620489Y-98547017D01*
X216578351Y-98535726D01*
X216480475Y-98509500D01*
X216335525Y-98509500D01*
X216273790Y-98526041D01*
X216195510Y-98547017D01*
X216069989Y-98619487D01*
X215967487Y-98721989D01*
X215895017Y-98847510D01*
X215857500Y-98987525D01*
X215857500Y-99132474D01*
X215879462Y-99214439D01*
X215876259Y-99275541D01*
X215837754Y-99323091D01*
X215778653Y-99338926D01*
X215721532Y-99316999D01*
X215713838Y-99310072D01*
X215009496Y-98605730D01*
X214981719Y-98551213D01*
X214980500Y-98535726D01*
X214980500Y-97000177D01*
X214987968Y-96977190D01*
X214992246Y-96953404D01*
X214996984Y-96949441D01*
X214999407Y-96941986D01*
X215036402Y-96911050D01*
X215042480Y-96908110D01*
X215052445Y-96904873D01*
X215206788Y-96826232D01*
X215346928Y-96724414D01*
X215469414Y-96601928D01*
X215571232Y-96461788D01*
X215649873Y-96307445D01*
X215674675Y-96231111D01*
X215710639Y-96181612D01*
X215768830Y-96162705D01*
X215827021Y-96181612D01*
X215862985Y-96231112D01*
X215918904Y-96403215D01*
X216015376Y-96592553D01*
X216015380Y-96592559D01*
X216054728Y-96646716D01*
X216054729Y-96646716D01*
X216687037Y-96014407D01*
X216704075Y-96077993D01*
X216769901Y-96192007D01*
X216862993Y-96285099D01*
X216977007Y-96350925D01*
X217040589Y-96367962D01*
X216408282Y-97000269D01*
X216408282Y-97000270D01*
X216462440Y-97039619D01*
X216462446Y-97039623D01*
X216651784Y-97136095D01*
X216853878Y-97201759D01*
X217063750Y-97235000D01*
X217276250Y-97235000D01*
X217486121Y-97201759D01*
X217688215Y-97136095D01*
X217877556Y-97039620D01*
X217931716Y-97000270D01*
X217299408Y-96367962D01*
X217362993Y-96350925D01*
X217477007Y-96285099D01*
X217570099Y-96192007D01*
X217635925Y-96077993D01*
X217652962Y-96014408D01*
X218285270Y-96646716D01*
X218324620Y-96592556D01*
X218421096Y-96403213D01*
X218477014Y-96231113D01*
X218512978Y-96181613D01*
X218571168Y-96162705D01*
X218629359Y-96181612D01*
X218665323Y-96231111D01*
X218690125Y-96307441D01*
X218755373Y-96435500D01*
X218768768Y-96461788D01*
X218870586Y-96601928D01*
X218993072Y-96724414D01*
X219133212Y-96826232D01*
X219287555Y-96904873D01*
X219287557Y-96904873D01*
X219287558Y-96904874D01*
X219287561Y-96904876D01*
X219452293Y-96958401D01*
X219452297Y-96958402D01*
X219623386Y-96985500D01*
X219623389Y-96985500D01*
X219796614Y-96985500D01*
X219967702Y-96958402D01*
X219967706Y-96958401D01*
X220132438Y-96904876D01*
X220132440Y-96904874D01*
X220132445Y-96904873D01*
X220286788Y-96826232D01*
X220426928Y-96724414D01*
X220549414Y-96601928D01*
X220651232Y-96461788D01*
X220729873Y-96307445D01*
X220729874Y-96307440D01*
X220729876Y-96307438D01*
X220783401Y-96142706D01*
X220783402Y-96142702D01*
X220810500Y-95971614D01*
X220810500Y-95798385D01*
X220783402Y-95627297D01*
X220783401Y-95627293D01*
X220729876Y-95462561D01*
X220729874Y-95462558D01*
X220729873Y-95462557D01*
X220729873Y-95462555D01*
X220651232Y-95308212D01*
X220549414Y-95168072D01*
X220426928Y-95045586D01*
X220286788Y-94943768D01*
X220286787Y-94943767D01*
X220286785Y-94943766D01*
X220132441Y-94865125D01*
X220132438Y-94865123D01*
X219967706Y-94811598D01*
X219967702Y-94811597D01*
X219796614Y-94784500D01*
X219796611Y-94784500D01*
X219623389Y-94784500D01*
X219623386Y-94784500D01*
X219452297Y-94811597D01*
X219452293Y-94811598D01*
X219287561Y-94865123D01*
X219287558Y-94865125D01*
X219133214Y-94943766D01*
X218993073Y-95045585D01*
X218870585Y-95168073D01*
X218768766Y-95308214D01*
X218690125Y-95462558D01*
X218665323Y-95538888D01*
X218629359Y-95588388D01*
X218571167Y-95607294D01*
X218512977Y-95588386D01*
X218477014Y-95538886D01*
X218421096Y-95366786D01*
X218324623Y-95177446D01*
X218324619Y-95177440D01*
X218285270Y-95123282D01*
X218285269Y-95123282D01*
X217652962Y-95755589D01*
X217635925Y-95692007D01*
X217570099Y-95577993D01*
X217477007Y-95484901D01*
X217362993Y-95419075D01*
X217299407Y-95402037D01*
X217931716Y-94769729D01*
X217931716Y-94769728D01*
X217877559Y-94730380D01*
X217877553Y-94730376D01*
X217754562Y-94667710D01*
X217711298Y-94624445D01*
X217701726Y-94564013D01*
X217729503Y-94509497D01*
X217784020Y-94481719D01*
X217799507Y-94480500D01*
X227219741Y-94480500D01*
X227277932Y-94499407D01*
X227313896Y-94548907D01*
X227313896Y-94610093D01*
X227305477Y-94629000D01*
X227248970Y-94726871D01*
X227214799Y-94854397D01*
X227211453Y-94866886D01*
X227211453Y-95011836D01*
X227225338Y-95063655D01*
X227248970Y-95151850D01*
X227321440Y-95277371D01*
X227321442Y-95277373D01*
X227321444Y-95277376D01*
X227372769Y-95328701D01*
X227400545Y-95383216D01*
X227390974Y-95443648D01*
X227372768Y-95468706D01*
X227294492Y-95546983D01*
X227294487Y-95546989D01*
X227222017Y-95672510D01*
X227188289Y-95798385D01*
X227184500Y-95812525D01*
X227184500Y-95957475D01*
X227214087Y-96067896D01*
X227222017Y-96097489D01*
X227294487Y-96223010D01*
X227294489Y-96223012D01*
X227294491Y-96223015D01*
X227396985Y-96325509D01*
X227396987Y-96325510D01*
X227396989Y-96325512D01*
X227522511Y-96397982D01*
X227522512Y-96397982D01*
X227522515Y-96397984D01*
X227662525Y-96435500D01*
X227662526Y-96435500D01*
X227807474Y-96435500D01*
X227807475Y-96435500D01*
X227947485Y-96397984D01*
X227947487Y-96397982D01*
X227947489Y-96397982D01*
X228073010Y-96325512D01*
X228073010Y-96325511D01*
X228073015Y-96325509D01*
X228175509Y-96223015D01*
X228221878Y-96142702D01*
X228247982Y-96097489D01*
X228247982Y-96097487D01*
X228247984Y-96097485D01*
X228285500Y-95957475D01*
X228285500Y-95812525D01*
X228247984Y-95672515D01*
X228247982Y-95672512D01*
X228247982Y-95672510D01*
X228175512Y-95546989D01*
X228175510Y-95546987D01*
X228175509Y-95546985D01*
X228124182Y-95495658D01*
X228096407Y-95441144D01*
X228105978Y-95380712D01*
X228124181Y-95355656D01*
X228202462Y-95277376D01*
X228260159Y-95177442D01*
X228274935Y-95151850D01*
X228274935Y-95151848D01*
X228274937Y-95151846D01*
X228312453Y-95011836D01*
X228312453Y-94866886D01*
X228274937Y-94726876D01*
X228274935Y-94726873D01*
X228274935Y-94726871D01*
X228218429Y-94629000D01*
X228205707Y-94569152D01*
X228230594Y-94513256D01*
X228283582Y-94482663D01*
X228304165Y-94480500D01*
X234765604Y-94480500D01*
X234823795Y-94499407D01*
X234859759Y-94548907D01*
X234859759Y-94610093D01*
X234835609Y-94649501D01*
X234817401Y-94667710D01*
X234807987Y-94677124D01*
X234807986Y-94677125D01*
X234735516Y-94802646D01*
X234721649Y-94854399D01*
X234697999Y-94942661D01*
X234697999Y-95087611D01*
X234727586Y-95198032D01*
X234735516Y-95227625D01*
X234807986Y-95353146D01*
X234807988Y-95353148D01*
X234807990Y-95353151D01*
X234828155Y-95373316D01*
X234855931Y-95427831D01*
X234846360Y-95488263D01*
X234828154Y-95513321D01*
X234794492Y-95546983D01*
X234794487Y-95546989D01*
X234722017Y-95672510D01*
X234688289Y-95798385D01*
X234684500Y-95812525D01*
X234684500Y-95957475D01*
X234714087Y-96067896D01*
X234722017Y-96097489D01*
X234794487Y-96223010D01*
X234794489Y-96223012D01*
X234794491Y-96223015D01*
X234896985Y-96325509D01*
X234896987Y-96325510D01*
X234896989Y-96325512D01*
X235022511Y-96397982D01*
X235022512Y-96397982D01*
X235022515Y-96397984D01*
X235162525Y-96435500D01*
X235162526Y-96435500D01*
X235307474Y-96435500D01*
X235307475Y-96435500D01*
X235447485Y-96397984D01*
X235447487Y-96397982D01*
X235447489Y-96397982D01*
X235573010Y-96325512D01*
X235573010Y-96325511D01*
X235573015Y-96325509D01*
X235675509Y-96223015D01*
X235721878Y-96142702D01*
X235747982Y-96097489D01*
X235747982Y-96097487D01*
X235747984Y-96097485D01*
X235785500Y-95957475D01*
X235785500Y-95812525D01*
X235747984Y-95672515D01*
X235747982Y-95672512D01*
X235747982Y-95672510D01*
X235675512Y-95546989D01*
X235675510Y-95546987D01*
X235675509Y-95546985D01*
X235655342Y-95526818D01*
X235627567Y-95472304D01*
X235637138Y-95411872D01*
X235655342Y-95386816D01*
X235689008Y-95353151D01*
X235696485Y-95340201D01*
X235761481Y-95227625D01*
X235761481Y-95227623D01*
X235761483Y-95227621D01*
X235798999Y-95087611D01*
X235798999Y-94942661D01*
X235761483Y-94802651D01*
X235761481Y-94802648D01*
X235761481Y-94802646D01*
X235689011Y-94677125D01*
X235689009Y-94677123D01*
X235689008Y-94677121D01*
X235661388Y-94649501D01*
X235633613Y-94594987D01*
X235643184Y-94534555D01*
X235686449Y-94491290D01*
X235731394Y-94480500D01*
X239655570Y-94480500D01*
X239713761Y-94499407D01*
X239749725Y-94548907D01*
X239749725Y-94610093D01*
X239713761Y-94659591D01*
X239674931Y-94687803D01*
X239654918Y-94702344D01*
X239482344Y-94874918D01*
X239338892Y-95072362D01*
X239228096Y-95289814D01*
X239152677Y-95521928D01*
X239114500Y-95762969D01*
X239114500Y-96007030D01*
X239152677Y-96248071D01*
X239228096Y-96480185D01*
X239338892Y-96697637D01*
X239358347Y-96724414D01*
X239482345Y-96895083D01*
X239654917Y-97067655D01*
X239749117Y-97136095D01*
X239852362Y-97211107D01*
X239961088Y-97266505D01*
X240069815Y-97321904D01*
X240301924Y-97397321D01*
X240301925Y-97397321D01*
X240301928Y-97397322D01*
X240542970Y-97435500D01*
X240542973Y-97435500D01*
X240787030Y-97435500D01*
X241028071Y-97397322D01*
X241028072Y-97397321D01*
X241028076Y-97397321D01*
X241260185Y-97321904D01*
X241477639Y-97211106D01*
X241675083Y-97067655D01*
X241847655Y-96895083D01*
X241890408Y-96836238D01*
X241939907Y-96800275D01*
X242001093Y-96800275D01*
X242050593Y-96836239D01*
X242069500Y-96894430D01*
X242069500Y-97759673D01*
X242050593Y-97817864D01*
X242001093Y-97853828D01*
X241944877Y-97855300D01*
X241846348Y-97828899D01*
X241701398Y-97828899D01*
X241639663Y-97845440D01*
X241561383Y-97866416D01*
X241435862Y-97938886D01*
X241333360Y-98041388D01*
X241260890Y-98166909D01*
X241223373Y-98306924D01*
X241223373Y-98451873D01*
X241260889Y-98591885D01*
X241320896Y-98695819D01*
X241333617Y-98755667D01*
X241308730Y-98811563D01*
X241305164Y-98815321D01*
X241268244Y-98852241D01*
X241195771Y-98977767D01*
X241183989Y-99021737D01*
X241158254Y-99117782D01*
X241158254Y-99262732D01*
X241161686Y-99275541D01*
X241195771Y-99402746D01*
X241242656Y-99483952D01*
X241255378Y-99543800D01*
X241230491Y-99599696D01*
X241226924Y-99603455D01*
X241144491Y-99685888D01*
X241144487Y-99685893D01*
X241072017Y-99811414D01*
X241055871Y-99871672D01*
X241034500Y-99951429D01*
X241034500Y-100096379D01*
X241048665Y-100149242D01*
X241072017Y-100236393D01*
X241144487Y-100361914D01*
X241144489Y-100361916D01*
X241144491Y-100361919D01*
X241246985Y-100464413D01*
X241247630Y-100464785D01*
X241247989Y-100465184D01*
X241252131Y-100468362D01*
X241251542Y-100469129D01*
X241288573Y-100510253D01*
X241294970Y-100571103D01*
X241283873Y-100600016D01*
X241280440Y-100605963D01*
X241280437Y-100605968D01*
X241250993Y-100715856D01*
X241242921Y-100745980D01*
X241242921Y-100890930D01*
X241266443Y-100978714D01*
X241280438Y-101030944D01*
X241352908Y-101156465D01*
X241352910Y-101156467D01*
X241352912Y-101156470D01*
X241455406Y-101258964D01*
X241455408Y-101258965D01*
X241455410Y-101258967D01*
X241580932Y-101331437D01*
X241580933Y-101331437D01*
X241580936Y-101331439D01*
X241720946Y-101368955D01*
X241720947Y-101368955D01*
X241865897Y-101368955D01*
X241865897Y-101368954D01*
X241944876Y-101347792D01*
X242005978Y-101350993D01*
X242053528Y-101389498D01*
X242069500Y-101443418D01*
X242069500Y-102861865D01*
X242050593Y-102920056D01*
X242001093Y-102956020D01*
X241944878Y-102957492D01*
X241905357Y-102946903D01*
X241760407Y-102946903D01*
X241720889Y-102957492D01*
X241620392Y-102984420D01*
X241494871Y-103056890D01*
X241392369Y-103159392D01*
X241319899Y-103284913D01*
X241317862Y-103292515D01*
X241282382Y-103424928D01*
X241282382Y-103569878D01*
X241287640Y-103589500D01*
X241319899Y-103709892D01*
X241392369Y-103835413D01*
X241392371Y-103835415D01*
X241392373Y-103835418D01*
X241421608Y-103864653D01*
X241449384Y-103919168D01*
X241439813Y-103979600D01*
X241421608Y-104004657D01*
X241402843Y-104023421D01*
X241330370Y-104148947D01*
X241320403Y-104186144D01*
X241292853Y-104288962D01*
X241292853Y-104433912D01*
X241308238Y-104491329D01*
X241330370Y-104573926D01*
X241403185Y-104700043D01*
X241415907Y-104759891D01*
X241391021Y-104815787D01*
X241387457Y-104819542D01*
X241383804Y-104823194D01*
X241383798Y-104823202D01*
X241311328Y-104948723D01*
X241273811Y-105088738D01*
X241273811Y-105233687D01*
X241311328Y-105373702D01*
X241383798Y-105499223D01*
X241383800Y-105499225D01*
X241383802Y-105499228D01*
X241406993Y-105522419D01*
X241434769Y-105576934D01*
X241425198Y-105637366D01*
X241422724Y-105641921D01*
X241361986Y-105747120D01*
X241361033Y-105750677D01*
X241324469Y-105887135D01*
X241324469Y-106032085D01*
X241325421Y-106035637D01*
X241361986Y-106172099D01*
X241434456Y-106297620D01*
X241434458Y-106297622D01*
X241434460Y-106297625D01*
X241536954Y-106400119D01*
X241536956Y-106400120D01*
X241536958Y-106400122D01*
X241662480Y-106472592D01*
X241662481Y-106472592D01*
X241662484Y-106472594D01*
X241802494Y-106510110D01*
X241802495Y-106510110D01*
X241947445Y-106510110D01*
X241953878Y-106509263D01*
X241954144Y-106511286D01*
X242005965Y-106513994D01*
X242053520Y-106552492D01*
X242069500Y-106606424D01*
X242069500Y-106940569D01*
X242050593Y-106998760D01*
X242001093Y-107034724D01*
X241939907Y-107034724D01*
X241890408Y-106998760D01*
X241847659Y-106939922D01*
X241847657Y-106939920D01*
X241847655Y-106939917D01*
X241675083Y-106767345D01*
X241514539Y-106650703D01*
X241477637Y-106623892D01*
X241260185Y-106513096D01*
X241028071Y-106437677D01*
X240787030Y-106399500D01*
X240787027Y-106399500D01*
X240542973Y-106399500D01*
X240542970Y-106399500D01*
X240301928Y-106437677D01*
X240069814Y-106513096D01*
X239852362Y-106623892D01*
X239654918Y-106767344D01*
X239482344Y-106939918D01*
X239338892Y-107137362D01*
X239228096Y-107354814D01*
X239152677Y-107586928D01*
X239114500Y-107827969D01*
X239114500Y-108072030D01*
X239152677Y-108313071D01*
X239228096Y-108545185D01*
X239338892Y-108762637D01*
X239406668Y-108855922D01*
X239482345Y-108960083D01*
X239654917Y-109132655D01*
X239713761Y-109175408D01*
X239749725Y-109224907D01*
X239749725Y-109286093D01*
X239713761Y-109335593D01*
X239655570Y-109354500D01*
X235890269Y-109354500D01*
X235832078Y-109335593D01*
X235796114Y-109286093D01*
X235796114Y-109224907D01*
X235798803Y-109217619D01*
X235800838Y-109212704D01*
X235800838Y-109212702D01*
X235800840Y-109212700D01*
X235838356Y-109072690D01*
X235838356Y-108927740D01*
X235800840Y-108787730D01*
X235800838Y-108787727D01*
X235800838Y-108787725D01*
X235728368Y-108662204D01*
X235728366Y-108662202D01*
X235728365Y-108662200D01*
X235625871Y-108559706D01*
X235625868Y-108559704D01*
X235625866Y-108559702D01*
X235500344Y-108487232D01*
X235500345Y-108487232D01*
X235470752Y-108479302D01*
X235360331Y-108449715D01*
X235215381Y-108449715D01*
X235153646Y-108466256D01*
X235075366Y-108487232D01*
X234949845Y-108559702D01*
X234847343Y-108662204D01*
X234774873Y-108787725D01*
X234774872Y-108787730D01*
X234737356Y-108927740D01*
X234737356Y-109072690D01*
X234753424Y-109132655D01*
X234774873Y-109212704D01*
X234776909Y-109217619D01*
X234781706Y-109278616D01*
X234749734Y-109330783D01*
X234693205Y-109354195D01*
X234685443Y-109354500D01*
X228317508Y-109354500D01*
X228259317Y-109335593D01*
X228223353Y-109286093D01*
X228221881Y-109229877D01*
X228236476Y-109175407D01*
X228245726Y-109140887D01*
X228245726Y-108995937D01*
X228208210Y-108855927D01*
X228208208Y-108855924D01*
X228208208Y-108855922D01*
X228135738Y-108730401D01*
X228135736Y-108730399D01*
X228135735Y-108730397D01*
X228033241Y-108627903D01*
X228033238Y-108627901D01*
X228033236Y-108627899D01*
X227907714Y-108555429D01*
X227907715Y-108555429D01*
X227869484Y-108545185D01*
X227767701Y-108517912D01*
X227622751Y-108517912D01*
X227561016Y-108534453D01*
X227482736Y-108555429D01*
X227357215Y-108627899D01*
X227254713Y-108730401D01*
X227182243Y-108855922D01*
X227160463Y-108937206D01*
X227144726Y-108995937D01*
X227144726Y-109140887D01*
X227153976Y-109175407D01*
X227168571Y-109229877D01*
X227165368Y-109290978D01*
X227126863Y-109338528D01*
X227072944Y-109354500D01*
X224169500Y-109354500D01*
X224111309Y-109335593D01*
X224075345Y-109286093D01*
X224070500Y-109255500D01*
X224070500Y-109147525D01*
X224068721Y-109140886D01*
X224032984Y-109007515D01*
X224032982Y-109007512D01*
X224032982Y-109007510D01*
X223960512Y-108881989D01*
X223960510Y-108881987D01*
X223960509Y-108881985D01*
X223858015Y-108779491D01*
X223858012Y-108779489D01*
X223858010Y-108779487D01*
X223732488Y-108707017D01*
X223732489Y-108707017D01*
X223702896Y-108699087D01*
X223592475Y-108669500D01*
X223447525Y-108669500D01*
X223385790Y-108686041D01*
X223307510Y-108707017D01*
X223181989Y-108779487D01*
X223181988Y-108779488D01*
X223181985Y-108779490D01*
X223181985Y-108779491D01*
X223082001Y-108879474D01*
X223027487Y-108907250D01*
X222967055Y-108897679D01*
X222941999Y-108879475D01*
X222842015Y-108779491D01*
X222842012Y-108779489D01*
X222842010Y-108779487D01*
X222716488Y-108707017D01*
X222716489Y-108707017D01*
X222686896Y-108699087D01*
X222576475Y-108669500D01*
X222431525Y-108669500D01*
X222369790Y-108686041D01*
X222291510Y-108707017D01*
X222165989Y-108779487D01*
X222063487Y-108881989D01*
X221991017Y-109007510D01*
X221953500Y-109147525D01*
X221953500Y-109255500D01*
X221934593Y-109313691D01*
X221885093Y-109349655D01*
X221854500Y-109354500D01*
X216549500Y-109354500D01*
X216491309Y-109335593D01*
X216455345Y-109286093D01*
X216450500Y-109255500D01*
X216450500Y-109147525D01*
X216448721Y-109140886D01*
X216412984Y-109007515D01*
X216412982Y-109007512D01*
X216412982Y-109007510D01*
X216340512Y-108881989D01*
X216340510Y-108881987D01*
X216340509Y-108881985D01*
X216238015Y-108779491D01*
X216238012Y-108779489D01*
X216238010Y-108779487D01*
X216112488Y-108707017D01*
X216112489Y-108707017D01*
X216082896Y-108699087D01*
X215972475Y-108669500D01*
X215827525Y-108669500D01*
X215765790Y-108686041D01*
X215687510Y-108707017D01*
X215561989Y-108779487D01*
X215459487Y-108881989D01*
X215387017Y-109007510D01*
X215349500Y-109147525D01*
X215349500Y-109255500D01*
X215330593Y-109313691D01*
X215281093Y-109349655D01*
X215250500Y-109354500D01*
X209768996Y-109354500D01*
X209710805Y-109335593D01*
X209674841Y-109286093D01*
X209674841Y-109224907D01*
X209710805Y-109175407D01*
X209719490Y-109169766D01*
X209764154Y-109143980D01*
X209866648Y-109041486D01*
X209913646Y-108960083D01*
X209939121Y-108915960D01*
X209939121Y-108915958D01*
X209939123Y-108915956D01*
X209976639Y-108775946D01*
X209976639Y-108630996D01*
X209939123Y-108490986D01*
X209939121Y-108490983D01*
X209939121Y-108490981D01*
X209866651Y-108365460D01*
X209866649Y-108365458D01*
X209866648Y-108365456D01*
X209764154Y-108262962D01*
X209764151Y-108262960D01*
X209764149Y-108262958D01*
X209638627Y-108190488D01*
X209638628Y-108190488D01*
X209589361Y-108177287D01*
X209498614Y-108152971D01*
X209353664Y-108152971D01*
X209320177Y-108161944D01*
X209213649Y-108190488D01*
X209088128Y-108262958D01*
X208985626Y-108365460D01*
X208913156Y-108490981D01*
X208875639Y-108630996D01*
X208875639Y-108775945D01*
X208913156Y-108915960D01*
X208985626Y-109041481D01*
X208985628Y-109041483D01*
X208985630Y-109041486D01*
X209088124Y-109143980D01*
X209132782Y-109169763D01*
X209173723Y-109215233D01*
X209180119Y-109276083D01*
X209149526Y-109329071D01*
X209093630Y-109353958D01*
X209083282Y-109354500D01*
X203838893Y-109354500D01*
X203831125Y-109354195D01*
X203623055Y-109337819D01*
X203607712Y-109335389D01*
X203408558Y-109287576D01*
X203393784Y-109282775D01*
X203204570Y-109204401D01*
X203190727Y-109197348D01*
X203016096Y-109090333D01*
X203003529Y-109081202D01*
X202907145Y-108998882D01*
X202847790Y-108948188D01*
X202836811Y-108937209D01*
X202703795Y-108781467D01*
X202694666Y-108768903D01*
X202690827Y-108762639D01*
X202587649Y-108594269D01*
X202580598Y-108580429D01*
X202572014Y-108559706D01*
X202502224Y-108391215D01*
X202497423Y-108376441D01*
X202470178Y-108262958D01*
X202449608Y-108177279D01*
X202447181Y-108161951D01*
X202430805Y-107953887D01*
X202430500Y-107946119D01*
X202430500Y-107927525D01*
X204919500Y-107927525D01*
X204919500Y-108072474D01*
X204957017Y-108212489D01*
X205029487Y-108338010D01*
X205029489Y-108338012D01*
X205029491Y-108338015D01*
X205131985Y-108440509D01*
X205131987Y-108440510D01*
X205131989Y-108440512D01*
X205257511Y-108512982D01*
X205257512Y-108512982D01*
X205257515Y-108512984D01*
X205397525Y-108550500D01*
X205397526Y-108550500D01*
X205542474Y-108550500D01*
X205542475Y-108550500D01*
X205682485Y-108512984D01*
X205682487Y-108512982D01*
X205682489Y-108512982D01*
X205808010Y-108440512D01*
X205808010Y-108440511D01*
X205808015Y-108440509D01*
X205910509Y-108338015D01*
X205924908Y-108313076D01*
X205982982Y-108212489D01*
X205982982Y-108212487D01*
X205982984Y-108212485D01*
X206020500Y-108072475D01*
X206020500Y-107927525D01*
X205982984Y-107787515D01*
X205982982Y-107787512D01*
X205982982Y-107787510D01*
X205910512Y-107661989D01*
X205910510Y-107661987D01*
X205910509Y-107661985D01*
X205808015Y-107559491D01*
X205808012Y-107559489D01*
X205808010Y-107559487D01*
X205682491Y-107487019D01*
X205682486Y-107487016D01*
X205612480Y-107468258D01*
X205542475Y-107449500D01*
X205397525Y-107449500D01*
X205335790Y-107466041D01*
X205257510Y-107487017D01*
X205131989Y-107559487D01*
X205029487Y-107661989D01*
X204957017Y-107787510D01*
X204919500Y-107927525D01*
X202430500Y-107927525D01*
X202430500Y-107402903D01*
X208001332Y-107402903D01*
X208001332Y-107547853D01*
X208030919Y-107658274D01*
X208038849Y-107687867D01*
X208111319Y-107813388D01*
X208111321Y-107813390D01*
X208111323Y-107813393D01*
X208213817Y-107915887D01*
X208213819Y-107915888D01*
X208213821Y-107915890D01*
X208339343Y-107988360D01*
X208339344Y-107988360D01*
X208339347Y-107988362D01*
X208479357Y-108025878D01*
X208479358Y-108025878D01*
X208624306Y-108025878D01*
X208624307Y-108025878D01*
X208764317Y-107988362D01*
X208764319Y-107988360D01*
X208764321Y-107988360D01*
X208889842Y-107915890D01*
X208889842Y-107915889D01*
X208889847Y-107915887D01*
X208992341Y-107813393D01*
X209064816Y-107687863D01*
X209102332Y-107547853D01*
X209102332Y-107402903D01*
X209064816Y-107262893D01*
X209064814Y-107262890D01*
X209064814Y-107262888D01*
X208992344Y-107137367D01*
X208992342Y-107137365D01*
X208992341Y-107137363D01*
X208889847Y-107034869D01*
X208889844Y-107034867D01*
X208889842Y-107034865D01*
X208764320Y-106962395D01*
X208764321Y-106962395D01*
X208734728Y-106954465D01*
X208624307Y-106924878D01*
X208479357Y-106924878D01*
X208423231Y-106939917D01*
X208339342Y-106962395D01*
X208213821Y-107034865D01*
X208111319Y-107137367D01*
X208038849Y-107262888D01*
X208014217Y-107354815D01*
X208001332Y-107402903D01*
X202430500Y-107402903D01*
X202430500Y-105549539D01*
X207525232Y-105549539D01*
X207525232Y-105694489D01*
X207540286Y-105750672D01*
X207562749Y-105834503D01*
X207635219Y-105960024D01*
X207635221Y-105960026D01*
X207635223Y-105960029D01*
X207737717Y-106062523D01*
X207737719Y-106062524D01*
X207737721Y-106062526D01*
X207863243Y-106134996D01*
X207863244Y-106134996D01*
X207863247Y-106134998D01*
X208003257Y-106172514D01*
X208003258Y-106172514D01*
X208148206Y-106172514D01*
X208148207Y-106172514D01*
X208288217Y-106134998D01*
X208288219Y-106134996D01*
X208288221Y-106134996D01*
X208413742Y-106062526D01*
X208413742Y-106062525D01*
X208413747Y-106062523D01*
X208516241Y-105960029D01*
X208556276Y-105890687D01*
X208588714Y-105834503D01*
X208588714Y-105834501D01*
X208588716Y-105834499D01*
X208626232Y-105694489D01*
X208626232Y-105549539D01*
X208588716Y-105409529D01*
X208588714Y-105409526D01*
X208588714Y-105409524D01*
X208516244Y-105284003D01*
X208516242Y-105284001D01*
X208516241Y-105283999D01*
X208413747Y-105181505D01*
X208413744Y-105181503D01*
X208413742Y-105181501D01*
X208288220Y-105109031D01*
X208288221Y-105109031D01*
X208212487Y-105088738D01*
X208148207Y-105071514D01*
X208003257Y-105071514D01*
X207964362Y-105081936D01*
X207863242Y-105109031D01*
X207737721Y-105181501D01*
X207635219Y-105284003D01*
X207562749Y-105409524D01*
X207550167Y-105456480D01*
X207525232Y-105549539D01*
X202430500Y-105549539D01*
X202430500Y-103927525D01*
X205919500Y-103927525D01*
X205919500Y-104072475D01*
X205924870Y-104092515D01*
X205957017Y-104212489D01*
X206029487Y-104338010D01*
X206029489Y-104338012D01*
X206029491Y-104338015D01*
X206131985Y-104440509D01*
X206131987Y-104440510D01*
X206131989Y-104440512D01*
X206257511Y-104512982D01*
X206257512Y-104512982D01*
X206257515Y-104512984D01*
X206397525Y-104550500D01*
X206397526Y-104550500D01*
X206542474Y-104550500D01*
X206542475Y-104550500D01*
X206682485Y-104512984D01*
X206682487Y-104512982D01*
X206682489Y-104512982D01*
X206808010Y-104440512D01*
X206808010Y-104440511D01*
X206808015Y-104440509D01*
X206910509Y-104338015D01*
X206910512Y-104338010D01*
X206982982Y-104212489D01*
X206982982Y-104212487D01*
X206982984Y-104212485D01*
X207020500Y-104072475D01*
X207020500Y-103927525D01*
X206982984Y-103787515D01*
X206982982Y-103787512D01*
X206982982Y-103787510D01*
X206910512Y-103661989D01*
X206910510Y-103661987D01*
X206910509Y-103661985D01*
X206808015Y-103559491D01*
X206808012Y-103559489D01*
X206808010Y-103559487D01*
X206682488Y-103487017D01*
X206682489Y-103487017D01*
X206614454Y-103468787D01*
X206542475Y-103449500D01*
X206397525Y-103449500D01*
X206335790Y-103466041D01*
X206257510Y-103487017D01*
X206131989Y-103559487D01*
X206029487Y-103661989D01*
X205957017Y-103787510D01*
X205926606Y-103901006D01*
X205919500Y-103927525D01*
X202430500Y-103927525D01*
X202430500Y-102352525D01*
X204919500Y-102352525D01*
X204919500Y-102497475D01*
X204943087Y-102585500D01*
X204957017Y-102637489D01*
X205029487Y-102763010D01*
X205029489Y-102763012D01*
X205029491Y-102763015D01*
X205131985Y-102865509D01*
X205131987Y-102865510D01*
X205131989Y-102865512D01*
X205257511Y-102937982D01*
X205257512Y-102937982D01*
X205257515Y-102937984D01*
X205397525Y-102975500D01*
X205397526Y-102975500D01*
X205542474Y-102975500D01*
X205542475Y-102975500D01*
X205682485Y-102937984D01*
X205682487Y-102937982D01*
X205682489Y-102937982D01*
X205808010Y-102865512D01*
X205808010Y-102865511D01*
X205808015Y-102865509D01*
X205910509Y-102763015D01*
X205963489Y-102671251D01*
X205982982Y-102637489D01*
X205982982Y-102637487D01*
X205982984Y-102637485D01*
X206020500Y-102497475D01*
X206020500Y-102352525D01*
X206919500Y-102352525D01*
X206919500Y-102497475D01*
X206943087Y-102585500D01*
X206957017Y-102637489D01*
X207029487Y-102763010D01*
X207029489Y-102763012D01*
X207029491Y-102763015D01*
X207131985Y-102865509D01*
X207131987Y-102865510D01*
X207131989Y-102865512D01*
X207257511Y-102937982D01*
X207257512Y-102937982D01*
X207257515Y-102937984D01*
X207397525Y-102975500D01*
X207397526Y-102975500D01*
X207542474Y-102975500D01*
X207542475Y-102975500D01*
X207682485Y-102937984D01*
X207682487Y-102937982D01*
X207682489Y-102937982D01*
X207808010Y-102865512D01*
X207808010Y-102865511D01*
X207808015Y-102865509D01*
X207910509Y-102763015D01*
X207963489Y-102671251D01*
X207982982Y-102637489D01*
X207982982Y-102637487D01*
X207982984Y-102637485D01*
X208020500Y-102497475D01*
X208020500Y-102352525D01*
X207982984Y-102212515D01*
X207982982Y-102212512D01*
X207982982Y-102212510D01*
X207910512Y-102086989D01*
X207910510Y-102086987D01*
X207910509Y-102086985D01*
X207808015Y-101984491D01*
X207808012Y-101984489D01*
X207808010Y-101984487D01*
X207682488Y-101912017D01*
X207682489Y-101912017D01*
X207610498Y-101892727D01*
X207542475Y-101874500D01*
X207397525Y-101874500D01*
X207360205Y-101884500D01*
X207257510Y-101912017D01*
X207131989Y-101984487D01*
X207029487Y-102086989D01*
X206957017Y-102212510D01*
X206957016Y-102212515D01*
X206919500Y-102352525D01*
X206020500Y-102352525D01*
X205982984Y-102212515D01*
X205982982Y-102212512D01*
X205982982Y-102212510D01*
X205910512Y-102086989D01*
X205910510Y-102086987D01*
X205910509Y-102086985D01*
X205808015Y-101984491D01*
X205808012Y-101984489D01*
X205808010Y-101984487D01*
X205682488Y-101912017D01*
X205682489Y-101912017D01*
X205610498Y-101892727D01*
X205542475Y-101874500D01*
X205397525Y-101874500D01*
X205360205Y-101884500D01*
X205257510Y-101912017D01*
X205131989Y-101984487D01*
X205029487Y-102086989D01*
X204957017Y-102212510D01*
X204957016Y-102212515D01*
X204919500Y-102352525D01*
X202430500Y-102352525D01*
X202430500Y-98352525D01*
X205919500Y-98352525D01*
X205919500Y-98497475D01*
X205932775Y-98547016D01*
X205957017Y-98637489D01*
X206029487Y-98763010D01*
X206029489Y-98763012D01*
X206029491Y-98763015D01*
X206131985Y-98865509D01*
X206131987Y-98865510D01*
X206131989Y-98865512D01*
X206257511Y-98937982D01*
X206257512Y-98937982D01*
X206257515Y-98937984D01*
X206397525Y-98975500D01*
X206397526Y-98975500D01*
X206542474Y-98975500D01*
X206542475Y-98975500D01*
X206682485Y-98937984D01*
X206682487Y-98937982D01*
X206682489Y-98937982D01*
X206808010Y-98865512D01*
X206808010Y-98865511D01*
X206808015Y-98865509D01*
X206910509Y-98763015D01*
X206910512Y-98763010D01*
X206982982Y-98637489D01*
X206982982Y-98637487D01*
X206982984Y-98637485D01*
X207020500Y-98497475D01*
X207020500Y-98352525D01*
X206982984Y-98212515D01*
X206982982Y-98212512D01*
X206982982Y-98212510D01*
X206910512Y-98086989D01*
X206910510Y-98086987D01*
X206910509Y-98086985D01*
X206808015Y-97984491D01*
X206808012Y-97984489D01*
X206808010Y-97984487D01*
X206682488Y-97912017D01*
X206682489Y-97912017D01*
X206652896Y-97904087D01*
X206542475Y-97874500D01*
X206397525Y-97874500D01*
X206335790Y-97891041D01*
X206257510Y-97912017D01*
X206131989Y-97984487D01*
X206029487Y-98086989D01*
X205957017Y-98212510D01*
X205957016Y-98212515D01*
X205919500Y-98352525D01*
X202430500Y-98352525D01*
X202430500Y-96894430D01*
X202449407Y-96836239D01*
X202498907Y-96800275D01*
X202560093Y-96800275D01*
X202609591Y-96836238D01*
X202652345Y-96895083D01*
X202824917Y-97067655D01*
X202919117Y-97136095D01*
X203022362Y-97211107D01*
X203131088Y-97266505D01*
X203239815Y-97321904D01*
X203471924Y-97397321D01*
X203471925Y-97397321D01*
X203471928Y-97397322D01*
X203712970Y-97435500D01*
X203712973Y-97435500D01*
X203957030Y-97435500D01*
X204198071Y-97397322D01*
X204198072Y-97397321D01*
X204198076Y-97397321D01*
X204430185Y-97321904D01*
X204647639Y-97211106D01*
X204845083Y-97067655D01*
X205017655Y-96895083D01*
X205161106Y-96697639D01*
X205271904Y-96480185D01*
X205347321Y-96248076D01*
X205347322Y-96248071D01*
X205385500Y-96007030D01*
X205385500Y-95762969D01*
X205347322Y-95521928D01*
X205347321Y-95521924D01*
X205271904Y-95289815D01*
X205161106Y-95072361D01*
X205116036Y-95010327D01*
X205909500Y-95010327D01*
X205909500Y-96759672D01*
X205909501Y-96759684D01*
X205924033Y-96832736D01*
X205924035Y-96832742D01*
X205979397Y-96915599D01*
X205979400Y-96915602D01*
X206035976Y-96953404D01*
X206062260Y-96970966D01*
X206117808Y-96982015D01*
X206135315Y-96985498D01*
X206135320Y-96985498D01*
X206135326Y-96985500D01*
X206927929Y-96985500D01*
X206986120Y-97004407D01*
X207022084Y-97053907D01*
X207022084Y-97115093D01*
X207013666Y-97134000D01*
X206963310Y-97221217D01*
X206925794Y-97361229D01*
X206925794Y-97506178D01*
X206963311Y-97646193D01*
X207035781Y-97771714D01*
X207035783Y-97771716D01*
X207035785Y-97771719D01*
X207138279Y-97874213D01*
X207138281Y-97874214D01*
X207138283Y-97874216D01*
X207263805Y-97946686D01*
X207263806Y-97946686D01*
X207263809Y-97946688D01*
X207403819Y-97984204D01*
X207403820Y-97984204D01*
X207548768Y-97984204D01*
X207548769Y-97984204D01*
X207688779Y-97946688D01*
X207688781Y-97946686D01*
X207688783Y-97946686D01*
X207814304Y-97874216D01*
X207814304Y-97874215D01*
X207814309Y-97874213D01*
X207916803Y-97771719D01*
X207989278Y-97646189D01*
X208026794Y-97506179D01*
X208026794Y-97361229D01*
X207989278Y-97221219D01*
X207922597Y-97105725D01*
X207909876Y-97045878D01*
X207934762Y-96989983D01*
X207953334Y-96973910D01*
X208040597Y-96915604D01*
X208040597Y-96915603D01*
X208040601Y-96915601D01*
X208095966Y-96832740D01*
X208110500Y-96759674D01*
X208110500Y-95010326D01*
X208095966Y-94937260D01*
X208054311Y-94874918D01*
X208040602Y-94854400D01*
X208040599Y-94854397D01*
X207957742Y-94799035D01*
X207957740Y-94799034D01*
X207957737Y-94799033D01*
X207957736Y-94799033D01*
X207884684Y-94784501D01*
X207884674Y-94784500D01*
X206135326Y-94784500D01*
X206135325Y-94784500D01*
X206135315Y-94784501D01*
X206062263Y-94799033D01*
X206062257Y-94799035D01*
X205979400Y-94854397D01*
X205979397Y-94854400D01*
X205924035Y-94937257D01*
X205924033Y-94937263D01*
X205909501Y-95010315D01*
X205909500Y-95010327D01*
X205116036Y-95010327D01*
X205017655Y-94874917D01*
X204845083Y-94702345D01*
X204786238Y-94659591D01*
X204750275Y-94610093D01*
X204750275Y-94548907D01*
X204786239Y-94499407D01*
X204844430Y-94480500D01*
X216540493Y-94480500D01*
X216598684Y-94499407D01*
G37*
%TD.AperFunction*%
%TD*%
M02*
