%TF.GenerationSoftware,KiCad,Pcbnew,9.0.1*%
%TF.CreationDate,2025-08-04T21:34:24+02:00*%
%TF.ProjectId,rev1.0,72657631-2e30-42e6-9b69-6361645f7063,rev?*%
%TF.SameCoordinates,Original*%
%TF.FileFunction,Soldermask,Top*%
%TF.FilePolarity,Negative*%
%FSLAX46Y46*%
G04 Gerber Fmt 4.6, Leading zero omitted, Abs format (unit mm)*
G04 Created by KiCad (PCBNEW 9.0.1) date 2025-08-04 21:34:24*
%MOMM*%
%LPD*%
G01*
G04 APERTURE LIST*
G04 Aperture macros list*
%AMRoundRect*
0 Rectangle with rounded corners*
0 $1 Rounding radius*
0 $2 $3 $4 $5 $6 $7 $8 $9 X,Y pos of 4 corners*
0 Add a 4 corners polygon primitive as box body*
4,1,4,$2,$3,$4,$5,$6,$7,$8,$9,$2,$3,0*
0 Add four circle primitives for the rounded corners*
1,1,$1+$1,$2,$3*
1,1,$1+$1,$4,$5*
1,1,$1+$1,$6,$7*
1,1,$1+$1,$8,$9*
0 Add four rect primitives between the rounded corners*
20,1,$1+$1,$2,$3,$4,$5,0*
20,1,$1+$1,$4,$5,$6,$7,0*
20,1,$1+$1,$6,$7,$8,$9,0*
20,1,$1+$1,$8,$9,$2,$3,0*%
G04 Aperture macros list end*
%ADD10RoundRect,0.150000X-0.825000X-0.150000X0.825000X-0.150000X0.825000X0.150000X-0.825000X0.150000X0*%
%ADD11R,0.900000X0.400000*%
%ADD12RoundRect,0.150000X-0.350000X-1.350000X0.350000X-1.350000X0.350000X1.350000X-0.350000X1.350000X0*%
%ADD13R,1.700000X1.700000*%
%ADD14C,1.700000*%
G04 APERTURE END LIST*
D10*
%TO.C,SW2*%
X210820000Y-99060000D03*
X210820000Y-100330000D03*
X210820000Y-101600000D03*
X210820000Y-102870000D03*
X210820000Y-104140000D03*
X210820000Y-105410000D03*
X210820000Y-106680000D03*
X210820000Y-107950000D03*
X215770000Y-107950000D03*
X215770000Y-106680000D03*
X215770000Y-105410000D03*
X215770000Y-104140000D03*
X215770000Y-102870000D03*
X215770000Y-101600000D03*
X215770000Y-100330000D03*
X215770000Y-99060000D03*
%TD*%
D11*
%TO.C,RN5*%
X221265000Y-103505000D03*
X221265000Y-104305000D03*
X221265000Y-105105000D03*
X221265000Y-105905000D03*
X222965000Y-105905000D03*
X222965000Y-105105000D03*
X222965000Y-104305000D03*
X222965000Y-103505000D03*
%TD*%
%TO.C,RN6*%
X241555000Y-105905000D03*
X241555000Y-105105000D03*
X241555000Y-104305000D03*
X241555000Y-103505000D03*
X239855000Y-103505000D03*
X239855000Y-104305000D03*
X239855000Y-105105000D03*
X239855000Y-105905000D03*
%TD*%
D12*
%TO.C,DIS1*%
X238235000Y-107885000D03*
X236735000Y-107885000D03*
X235235000Y-107885000D03*
X233735000Y-107885000D03*
X232235000Y-107885000D03*
X230735000Y-107885000D03*
X229235000Y-107885000D03*
X227735000Y-107885000D03*
X226235000Y-107885000D03*
X224735000Y-107885000D03*
X224735000Y-95885000D03*
X226235000Y-95885000D03*
X227735000Y-95885000D03*
X229235000Y-95885000D03*
X230735000Y-95885000D03*
X232235000Y-95885000D03*
X233735000Y-95885000D03*
X235235000Y-95885000D03*
X236735000Y-95885000D03*
X238235000Y-95885000D03*
%TD*%
D13*
%TO.C,J1*%
X207010000Y-95885000D03*
D14*
X209550000Y-95885000D03*
X212090000Y-95885000D03*
X214630000Y-95885000D03*
X217170000Y-95885000D03*
X219710000Y-95885000D03*
%TD*%
D11*
%TO.C,RN1*%
X219505000Y-107175000D03*
X219505000Y-106375000D03*
X219505000Y-105575000D03*
X219505000Y-104775000D03*
X217805000Y-104775000D03*
X217805000Y-105575000D03*
X217805000Y-106375000D03*
X217805000Y-107175000D03*
%TD*%
%TO.C,RN4*%
X221265000Y-98425000D03*
X221265000Y-99225000D03*
X221265000Y-100025000D03*
X221265000Y-100825000D03*
X222965000Y-100825000D03*
X222965000Y-100025000D03*
X222965000Y-99225000D03*
X222965000Y-98425000D03*
%TD*%
%TO.C,RN2*%
X219710000Y-102235000D03*
X219710000Y-101435000D03*
X219710000Y-100635000D03*
X219710000Y-99835000D03*
X218010000Y-99835000D03*
X218010000Y-100635000D03*
X218010000Y-101435000D03*
X218010000Y-102235000D03*
%TD*%
%TO.C,RN3*%
X241555000Y-100825000D03*
X241555000Y-100025000D03*
X241555000Y-99225000D03*
X241555000Y-98425000D03*
X239855000Y-98425000D03*
X239855000Y-99225000D03*
X239855000Y-100025000D03*
X239855000Y-100825000D03*
%TD*%
M02*
