%TF.GenerationSoftware,KiCad,Pcbnew,9.0.1*%
%TF.CreationDate,2025-08-04T21:34:24+02:00*%
%TF.ProjectId,rev1.0,72657631-2e30-42e6-9b69-6361645f7063,rev?*%
%TF.SameCoordinates,Original*%
%TF.FileFunction,Legend,Bot*%
%TF.FilePolarity,Positive*%
%FSLAX46Y46*%
G04 Gerber Fmt 4.6, Leading zero omitted, Abs format (unit mm)*
G04 Created by KiCad (PCBNEW 9.0.1) date 2025-08-04 21:34:24*
%MOMM*%
%LPD*%
G01*
G04 APERTURE LIST*
%ADD10C,0.100000*%
%ADD11C,0.120000*%
G04 APERTURE END LIST*
D10*
X229781384Y-99076578D02*
X229781384Y-99743244D01*
X229781384Y-99743244D02*
X230781384Y-99314673D01*
X230114717Y-100552768D02*
X230781384Y-100552768D01*
X229733765Y-100314673D02*
X230448050Y-100076578D01*
X230448050Y-100076578D02*
X230448050Y-100695625D01*
X230781384Y-101076578D02*
X229781384Y-101076578D01*
X230257574Y-101076578D02*
X230257574Y-101648006D01*
X230781384Y-101648006D02*
X229781384Y-101648006D01*
X230686145Y-102695625D02*
X230733765Y-102648006D01*
X230733765Y-102648006D02*
X230781384Y-102505149D01*
X230781384Y-102505149D02*
X230781384Y-102409911D01*
X230781384Y-102409911D02*
X230733765Y-102267054D01*
X230733765Y-102267054D02*
X230638526Y-102171816D01*
X230638526Y-102171816D02*
X230543288Y-102124197D01*
X230543288Y-102124197D02*
X230352812Y-102076578D01*
X230352812Y-102076578D02*
X230209955Y-102076578D01*
X230209955Y-102076578D02*
X230019479Y-102124197D01*
X230019479Y-102124197D02*
X229924241Y-102171816D01*
X229924241Y-102171816D02*
X229829003Y-102267054D01*
X229829003Y-102267054D02*
X229781384Y-102409911D01*
X229781384Y-102409911D02*
X229781384Y-102505149D01*
X229781384Y-102505149D02*
X229829003Y-102648006D01*
X229829003Y-102648006D02*
X229876622Y-102695625D01*
X229781384Y-103600387D02*
X229781384Y-103124197D01*
X229781384Y-103124197D02*
X230257574Y-103076578D01*
X230257574Y-103076578D02*
X230209955Y-103124197D01*
X230209955Y-103124197D02*
X230162336Y-103219435D01*
X230162336Y-103219435D02*
X230162336Y-103457530D01*
X230162336Y-103457530D02*
X230209955Y-103552768D01*
X230209955Y-103552768D02*
X230257574Y-103600387D01*
X230257574Y-103600387D02*
X230352812Y-103648006D01*
X230352812Y-103648006D02*
X230590907Y-103648006D01*
X230590907Y-103648006D02*
X230686145Y-103600387D01*
X230686145Y-103600387D02*
X230733765Y-103552768D01*
X230733765Y-103552768D02*
X230781384Y-103457530D01*
X230781384Y-103457530D02*
X230781384Y-103219435D01*
X230781384Y-103219435D02*
X230733765Y-103124197D01*
X230733765Y-103124197D02*
X230686145Y-103076578D01*
X230781384Y-104124197D02*
X230781384Y-104314673D01*
X230781384Y-104314673D02*
X230733765Y-104409911D01*
X230733765Y-104409911D02*
X230686145Y-104457530D01*
X230686145Y-104457530D02*
X230543288Y-104552768D01*
X230543288Y-104552768D02*
X230352812Y-104600387D01*
X230352812Y-104600387D02*
X229971860Y-104600387D01*
X229971860Y-104600387D02*
X229876622Y-104552768D01*
X229876622Y-104552768D02*
X229829003Y-104505149D01*
X229829003Y-104505149D02*
X229781384Y-104409911D01*
X229781384Y-104409911D02*
X229781384Y-104219435D01*
X229781384Y-104219435D02*
X229829003Y-104124197D01*
X229829003Y-104124197D02*
X229876622Y-104076578D01*
X229876622Y-104076578D02*
X229971860Y-104028959D01*
X229971860Y-104028959D02*
X230209955Y-104028959D01*
X230209955Y-104028959D02*
X230305193Y-104076578D01*
X230305193Y-104076578D02*
X230352812Y-104124197D01*
X230352812Y-104124197D02*
X230400431Y-104219435D01*
X230400431Y-104219435D02*
X230400431Y-104409911D01*
X230400431Y-104409911D02*
X230352812Y-104505149D01*
X230352812Y-104505149D02*
X230305193Y-104552768D01*
X230305193Y-104552768D02*
X230209955Y-104600387D01*
X229781384Y-105505149D02*
X229781384Y-105028959D01*
X229781384Y-105028959D02*
X230257574Y-104981340D01*
X230257574Y-104981340D02*
X230209955Y-105028959D01*
X230209955Y-105028959D02*
X230162336Y-105124197D01*
X230162336Y-105124197D02*
X230162336Y-105362292D01*
X230162336Y-105362292D02*
X230209955Y-105457530D01*
X230209955Y-105457530D02*
X230257574Y-105505149D01*
X230257574Y-105505149D02*
X230352812Y-105552768D01*
X230352812Y-105552768D02*
X230590907Y-105552768D01*
X230590907Y-105552768D02*
X230686145Y-105505149D01*
X230686145Y-105505149D02*
X230733765Y-105457530D01*
X230733765Y-105457530D02*
X230781384Y-105362292D01*
X230781384Y-105362292D02*
X230781384Y-105124197D01*
X230781384Y-105124197D02*
X230733765Y-105028959D01*
X230733765Y-105028959D02*
X230686145Y-104981340D01*
X238351352Y-95991313D02*
X238265638Y-96019885D01*
X238265638Y-96019885D02*
X238237067Y-96048456D01*
X238237067Y-96048456D02*
X238208495Y-96105599D01*
X238208495Y-96105599D02*
X238208495Y-96191313D01*
X238208495Y-96191313D02*
X238237067Y-96248456D01*
X238237067Y-96248456D02*
X238265638Y-96277028D01*
X238265638Y-96277028D02*
X238322781Y-96305599D01*
X238322781Y-96305599D02*
X238551352Y-96305599D01*
X238551352Y-96305599D02*
X238551352Y-95705599D01*
X238551352Y-95705599D02*
X238351352Y-95705599D01*
X238351352Y-95705599D02*
X238294210Y-95734170D01*
X238294210Y-95734170D02*
X238265638Y-95762742D01*
X238265638Y-95762742D02*
X238237067Y-95819885D01*
X238237067Y-95819885D02*
X238237067Y-95877028D01*
X238237067Y-95877028D02*
X238265638Y-95934170D01*
X238265638Y-95934170D02*
X238294210Y-95962742D01*
X238294210Y-95962742D02*
X238351352Y-95991313D01*
X238351352Y-95991313D02*
X238551352Y-95991313D01*
X238008495Y-95905599D02*
X237865638Y-96305599D01*
X237722781Y-95905599D02*
X237865638Y-96305599D01*
X237865638Y-96305599D02*
X237922781Y-96448456D01*
X237922781Y-96448456D02*
X237951352Y-96477028D01*
X237951352Y-96477028D02*
X238008495Y-96505599D01*
X237037066Y-96305599D02*
X237037066Y-95705599D01*
X236808495Y-95905599D02*
X236665638Y-96305599D01*
X236665638Y-96305599D02*
X236522781Y-95905599D01*
X236065638Y-96277028D02*
X236122781Y-96305599D01*
X236122781Y-96305599D02*
X236237067Y-96305599D01*
X236237067Y-96305599D02*
X236294209Y-96277028D01*
X236294209Y-96277028D02*
X236322781Y-96219885D01*
X236322781Y-96219885D02*
X236322781Y-95991313D01*
X236322781Y-95991313D02*
X236294209Y-95934170D01*
X236294209Y-95934170D02*
X236237067Y-95905599D01*
X236237067Y-95905599D02*
X236122781Y-95905599D01*
X236122781Y-95905599D02*
X236065638Y-95934170D01*
X236065638Y-95934170D02*
X236037067Y-95991313D01*
X236037067Y-95991313D02*
X236037067Y-96048456D01*
X236037067Y-96048456D02*
X236322781Y-96105599D01*
X235779923Y-96305599D02*
X235779923Y-95905599D01*
X235779923Y-96019885D02*
X235751352Y-95962742D01*
X235751352Y-95962742D02*
X235722781Y-95934170D01*
X235722781Y-95934170D02*
X235665638Y-95905599D01*
X235665638Y-95905599D02*
X235608495Y-95905599D01*
X234951351Y-96305599D02*
X234951351Y-95705599D01*
X234694209Y-96277028D02*
X234637066Y-96305599D01*
X234637066Y-96305599D02*
X234522780Y-96305599D01*
X234522780Y-96305599D02*
X234465637Y-96277028D01*
X234465637Y-96277028D02*
X234437066Y-96219885D01*
X234437066Y-96219885D02*
X234437066Y-96191313D01*
X234437066Y-96191313D02*
X234465637Y-96134170D01*
X234465637Y-96134170D02*
X234522780Y-96105599D01*
X234522780Y-96105599D02*
X234608495Y-96105599D01*
X234608495Y-96105599D02*
X234665637Y-96077028D01*
X234665637Y-96077028D02*
X234694209Y-96019885D01*
X234694209Y-96019885D02*
X234694209Y-95991313D01*
X234694209Y-95991313D02*
X234665637Y-95934170D01*
X234665637Y-95934170D02*
X234608495Y-95905599D01*
X234608495Y-95905599D02*
X234522780Y-95905599D01*
X234522780Y-95905599D02*
X234465637Y-95934170D01*
X233922781Y-96277028D02*
X233979923Y-96305599D01*
X233979923Y-96305599D02*
X234094209Y-96305599D01*
X234094209Y-96305599D02*
X234151352Y-96277028D01*
X234151352Y-96277028D02*
X234179923Y-96248456D01*
X234179923Y-96248456D02*
X234208495Y-96191313D01*
X234208495Y-96191313D02*
X234208495Y-96019885D01*
X234208495Y-96019885D02*
X234179923Y-95962742D01*
X234179923Y-95962742D02*
X234151352Y-95934170D01*
X234151352Y-95934170D02*
X234094209Y-95905599D01*
X234094209Y-95905599D02*
X233979923Y-95905599D01*
X233979923Y-95905599D02*
X233922781Y-95934170D01*
X233408495Y-96305599D02*
X233408495Y-95991313D01*
X233408495Y-95991313D02*
X233437066Y-95934170D01*
X233437066Y-95934170D02*
X233494209Y-95905599D01*
X233494209Y-95905599D02*
X233608495Y-95905599D01*
X233608495Y-95905599D02*
X233665637Y-95934170D01*
X233408495Y-96277028D02*
X233465637Y-96305599D01*
X233465637Y-96305599D02*
X233608495Y-96305599D01*
X233608495Y-96305599D02*
X233665637Y-96277028D01*
X233665637Y-96277028D02*
X233694209Y-96219885D01*
X233694209Y-96219885D02*
X233694209Y-96162742D01*
X233694209Y-96162742D02*
X233665637Y-96105599D01*
X233665637Y-96105599D02*
X233608495Y-96077028D01*
X233608495Y-96077028D02*
X233465637Y-96077028D01*
X233465637Y-96077028D02*
X233408495Y-96048456D01*
X233122780Y-96305599D02*
X233122780Y-95905599D01*
X233122780Y-96019885D02*
X233094209Y-95962742D01*
X233094209Y-95962742D02*
X233065638Y-95934170D01*
X233065638Y-95934170D02*
X233008495Y-95905599D01*
X233008495Y-95905599D02*
X232951352Y-95905599D01*
X232751351Y-96305599D02*
X232751351Y-95905599D01*
X232751351Y-95705599D02*
X232779923Y-95734170D01*
X232779923Y-95734170D02*
X232751351Y-95762742D01*
X232751351Y-95762742D02*
X232722780Y-95734170D01*
X232722780Y-95734170D02*
X232751351Y-95705599D01*
X232751351Y-95705599D02*
X232751351Y-95762742D01*
X232379923Y-96305599D02*
X232437066Y-96277028D01*
X232437066Y-96277028D02*
X232465637Y-96248456D01*
X232465637Y-96248456D02*
X232494209Y-96191313D01*
X232494209Y-96191313D02*
X232494209Y-96019885D01*
X232494209Y-96019885D02*
X232465637Y-95962742D01*
X232465637Y-95962742D02*
X232437066Y-95934170D01*
X232437066Y-95934170D02*
X232379923Y-95905599D01*
X232379923Y-95905599D02*
X232294209Y-95905599D01*
X232294209Y-95905599D02*
X232237066Y-95934170D01*
X232237066Y-95934170D02*
X232208495Y-95962742D01*
X232208495Y-95962742D02*
X232179923Y-96019885D01*
X232179923Y-96019885D02*
X232179923Y-96191313D01*
X232179923Y-96191313D02*
X232208495Y-96248456D01*
X232208495Y-96248456D02*
X232237066Y-96277028D01*
X232237066Y-96277028D02*
X232294209Y-96305599D01*
X232294209Y-96305599D02*
X232379923Y-96305599D01*
X232008495Y-95905599D02*
X231779923Y-95905599D01*
X231922780Y-95705599D02*
X231922780Y-96219885D01*
X231922780Y-96219885D02*
X231894209Y-96277028D01*
X231894209Y-96277028D02*
X231837066Y-96305599D01*
X231837066Y-96305599D02*
X231779923Y-96305599D01*
X231151352Y-96277028D02*
X231065638Y-96305599D01*
X231065638Y-96305599D02*
X230922780Y-96305599D01*
X230922780Y-96305599D02*
X230865638Y-96277028D01*
X230865638Y-96277028D02*
X230837066Y-96248456D01*
X230837066Y-96248456D02*
X230808495Y-96191313D01*
X230808495Y-96191313D02*
X230808495Y-96134170D01*
X230808495Y-96134170D02*
X230837066Y-96077028D01*
X230837066Y-96077028D02*
X230865638Y-96048456D01*
X230865638Y-96048456D02*
X230922780Y-96019885D01*
X230922780Y-96019885D02*
X231037066Y-95991313D01*
X231037066Y-95991313D02*
X231094209Y-95962742D01*
X231094209Y-95962742D02*
X231122780Y-95934170D01*
X231122780Y-95934170D02*
X231151352Y-95877028D01*
X231151352Y-95877028D02*
X231151352Y-95819885D01*
X231151352Y-95819885D02*
X231122780Y-95762742D01*
X231122780Y-95762742D02*
X231094209Y-95734170D01*
X231094209Y-95734170D02*
X231037066Y-95705599D01*
X231037066Y-95705599D02*
X230894209Y-95705599D01*
X230894209Y-95705599D02*
X230808495Y-95734170D01*
X230237066Y-95905599D02*
X230608494Y-96305599D01*
X230465637Y-96305599D02*
X230522780Y-96277028D01*
X230522780Y-96277028D02*
X230551351Y-96248456D01*
X230551351Y-96248456D02*
X230579923Y-96191313D01*
X230579923Y-96191313D02*
X230579923Y-96019885D01*
X230579923Y-96019885D02*
X230551351Y-95962742D01*
X230551351Y-95962742D02*
X230522780Y-95934170D01*
X230522780Y-95934170D02*
X230465637Y-95905599D01*
X230465637Y-95905599D02*
X230379923Y-95905599D01*
X230379923Y-95905599D02*
X230322780Y-95934170D01*
X230322780Y-95934170D02*
X230294209Y-95962742D01*
X230294209Y-95962742D02*
X230265637Y-96019885D01*
X230265637Y-96019885D02*
X230265637Y-96191313D01*
X230265637Y-96191313D02*
X230294209Y-96248456D01*
X230294209Y-96248456D02*
X230322780Y-96277028D01*
X230322780Y-96277028D02*
X230379923Y-96305599D01*
X230379923Y-96305599D02*
X230465637Y-96305599D01*
X230008494Y-96305599D02*
X230008494Y-95705599D01*
X230008494Y-95934170D02*
X229951352Y-95905599D01*
X229951352Y-95905599D02*
X229837066Y-95905599D01*
X229837066Y-95905599D02*
X229779923Y-95934170D01*
X229779923Y-95934170D02*
X229751352Y-95962742D01*
X229751352Y-95962742D02*
X229722780Y-96019885D01*
X229722780Y-96019885D02*
X229722780Y-96191313D01*
X229722780Y-96191313D02*
X229751352Y-96248456D01*
X229751352Y-96248456D02*
X229779923Y-96277028D01*
X229779923Y-96277028D02*
X229837066Y-96305599D01*
X229837066Y-96305599D02*
X229951352Y-96305599D01*
X229951352Y-96305599D02*
X230008494Y-96277028D01*
X229208495Y-96305599D02*
X229208495Y-95991313D01*
X229208495Y-95991313D02*
X229237066Y-95934170D01*
X229237066Y-95934170D02*
X229294209Y-95905599D01*
X229294209Y-95905599D02*
X229408495Y-95905599D01*
X229408495Y-95905599D02*
X229465637Y-95934170D01*
X229208495Y-96277028D02*
X229265637Y-96305599D01*
X229265637Y-96305599D02*
X229408495Y-96305599D01*
X229408495Y-96305599D02*
X229465637Y-96277028D01*
X229465637Y-96277028D02*
X229494209Y-96219885D01*
X229494209Y-96219885D02*
X229494209Y-96162742D01*
X229494209Y-96162742D02*
X229465637Y-96105599D01*
X229465637Y-96105599D02*
X229408495Y-96077028D01*
X229408495Y-96077028D02*
X229265637Y-96077028D01*
X229265637Y-96077028D02*
X229208495Y-96048456D01*
X228922780Y-96305599D02*
X228922780Y-95705599D01*
X228865638Y-96077028D02*
X228694209Y-96305599D01*
X228694209Y-95905599D02*
X228922780Y-96134170D01*
X228437066Y-96305599D02*
X228437066Y-95705599D01*
X228379924Y-96077028D02*
X228208495Y-96305599D01*
X228208495Y-95905599D02*
X228437066Y-96134170D01*
X238834971Y-94240647D02*
X238263543Y-94240647D01*
X238549257Y-95240647D02*
X238549257Y-94240647D01*
X237930209Y-95240647D02*
X237930209Y-94573980D01*
X237930209Y-94240647D02*
X237977828Y-94288266D01*
X237977828Y-94288266D02*
X237930209Y-94335885D01*
X237930209Y-94335885D02*
X237882590Y-94288266D01*
X237882590Y-94288266D02*
X237930209Y-94240647D01*
X237930209Y-94240647D02*
X237930209Y-94335885D01*
X237454019Y-95240647D02*
X237454019Y-94573980D01*
X237454019Y-94669218D02*
X237406400Y-94621599D01*
X237406400Y-94621599D02*
X237311162Y-94573980D01*
X237311162Y-94573980D02*
X237168305Y-94573980D01*
X237168305Y-94573980D02*
X237073067Y-94621599D01*
X237073067Y-94621599D02*
X237025448Y-94716837D01*
X237025448Y-94716837D02*
X237025448Y-95240647D01*
X237025448Y-94716837D02*
X236977829Y-94621599D01*
X236977829Y-94621599D02*
X236882591Y-94573980D01*
X236882591Y-94573980D02*
X236739734Y-94573980D01*
X236739734Y-94573980D02*
X236644495Y-94621599D01*
X236644495Y-94621599D02*
X236596876Y-94716837D01*
X236596876Y-94716837D02*
X236596876Y-95240647D01*
X235739734Y-95193028D02*
X235834972Y-95240647D01*
X235834972Y-95240647D02*
X236025448Y-95240647D01*
X236025448Y-95240647D02*
X236120686Y-95193028D01*
X236120686Y-95193028D02*
X236168305Y-95097789D01*
X236168305Y-95097789D02*
X236168305Y-94716837D01*
X236168305Y-94716837D02*
X236120686Y-94621599D01*
X236120686Y-94621599D02*
X236025448Y-94573980D01*
X236025448Y-94573980D02*
X235834972Y-94573980D01*
X235834972Y-94573980D02*
X235739734Y-94621599D01*
X235739734Y-94621599D02*
X235692115Y-94716837D01*
X235692115Y-94716837D02*
X235692115Y-94812075D01*
X235692115Y-94812075D02*
X236168305Y-94907313D01*
X235358781Y-94240647D02*
X234692115Y-94240647D01*
X234692115Y-94240647D02*
X235358781Y-95240647D01*
X235358781Y-95240647D02*
X234692115Y-95240647D01*
X234168305Y-95240647D02*
X234263543Y-95193028D01*
X234263543Y-95193028D02*
X234311162Y-95145408D01*
X234311162Y-95145408D02*
X234358781Y-95050170D01*
X234358781Y-95050170D02*
X234358781Y-94764456D01*
X234358781Y-94764456D02*
X234311162Y-94669218D01*
X234311162Y-94669218D02*
X234263543Y-94621599D01*
X234263543Y-94621599D02*
X234168305Y-94573980D01*
X234168305Y-94573980D02*
X234025448Y-94573980D01*
X234025448Y-94573980D02*
X233930210Y-94621599D01*
X233930210Y-94621599D02*
X233882591Y-94669218D01*
X233882591Y-94669218D02*
X233834972Y-94764456D01*
X233834972Y-94764456D02*
X233834972Y-95050170D01*
X233834972Y-95050170D02*
X233882591Y-95145408D01*
X233882591Y-95145408D02*
X233930210Y-95193028D01*
X233930210Y-95193028D02*
X234025448Y-95240647D01*
X234025448Y-95240647D02*
X234168305Y-95240647D01*
X233406400Y-94573980D02*
X233406400Y-95240647D01*
X233406400Y-94669218D02*
X233358781Y-94621599D01*
X233358781Y-94621599D02*
X233263543Y-94573980D01*
X233263543Y-94573980D02*
X233120686Y-94573980D01*
X233120686Y-94573980D02*
X233025448Y-94621599D01*
X233025448Y-94621599D02*
X232977829Y-94716837D01*
X232977829Y-94716837D02*
X232977829Y-95240647D01*
X232120686Y-95193028D02*
X232215924Y-95240647D01*
X232215924Y-95240647D02*
X232406400Y-95240647D01*
X232406400Y-95240647D02*
X232501638Y-95193028D01*
X232501638Y-95193028D02*
X232549257Y-95097789D01*
X232549257Y-95097789D02*
X232549257Y-94716837D01*
X232549257Y-94716837D02*
X232501638Y-94621599D01*
X232501638Y-94621599D02*
X232406400Y-94573980D01*
X232406400Y-94573980D02*
X232215924Y-94573980D01*
X232215924Y-94573980D02*
X232120686Y-94621599D01*
X232120686Y-94621599D02*
X232073067Y-94716837D01*
X232073067Y-94716837D02*
X232073067Y-94812075D01*
X232073067Y-94812075D02*
X232549257Y-94907313D01*
X230454019Y-95193028D02*
X230549257Y-95240647D01*
X230549257Y-95240647D02*
X230739733Y-95240647D01*
X230739733Y-95240647D02*
X230834971Y-95193028D01*
X230834971Y-95193028D02*
X230882590Y-95145408D01*
X230882590Y-95145408D02*
X230930209Y-95050170D01*
X230930209Y-95050170D02*
X230930209Y-94764456D01*
X230930209Y-94764456D02*
X230882590Y-94669218D01*
X230882590Y-94669218D02*
X230834971Y-94621599D01*
X230834971Y-94621599D02*
X230739733Y-94573980D01*
X230739733Y-94573980D02*
X230549257Y-94573980D01*
X230549257Y-94573980D02*
X230454019Y-94621599D01*
X229882590Y-95240647D02*
X229977828Y-95193028D01*
X229977828Y-95193028D02*
X230025447Y-95097789D01*
X230025447Y-95097789D02*
X230025447Y-94240647D01*
X229358780Y-95240647D02*
X229454018Y-95193028D01*
X229454018Y-95193028D02*
X229501637Y-95145408D01*
X229501637Y-95145408D02*
X229549256Y-95050170D01*
X229549256Y-95050170D02*
X229549256Y-94764456D01*
X229549256Y-94764456D02*
X229501637Y-94669218D01*
X229501637Y-94669218D02*
X229454018Y-94621599D01*
X229454018Y-94621599D02*
X229358780Y-94573980D01*
X229358780Y-94573980D02*
X229215923Y-94573980D01*
X229215923Y-94573980D02*
X229120685Y-94621599D01*
X229120685Y-94621599D02*
X229073066Y-94669218D01*
X229073066Y-94669218D02*
X229025447Y-94764456D01*
X229025447Y-94764456D02*
X229025447Y-95050170D01*
X229025447Y-95050170D02*
X229073066Y-95145408D01*
X229073066Y-95145408D02*
X229120685Y-95193028D01*
X229120685Y-95193028D02*
X229215923Y-95240647D01*
X229215923Y-95240647D02*
X229358780Y-95240647D01*
X228168304Y-95193028D02*
X228263542Y-95240647D01*
X228263542Y-95240647D02*
X228454018Y-95240647D01*
X228454018Y-95240647D02*
X228549256Y-95193028D01*
X228549256Y-95193028D02*
X228596875Y-95145408D01*
X228596875Y-95145408D02*
X228644494Y-95050170D01*
X228644494Y-95050170D02*
X228644494Y-94764456D01*
X228644494Y-94764456D02*
X228596875Y-94669218D01*
X228596875Y-94669218D02*
X228549256Y-94621599D01*
X228549256Y-94621599D02*
X228454018Y-94573980D01*
X228454018Y-94573980D02*
X228263542Y-94573980D01*
X228263542Y-94573980D02*
X228168304Y-94621599D01*
X227739732Y-95240647D02*
X227739732Y-94240647D01*
X227644494Y-94859694D02*
X227358780Y-95240647D01*
X227358780Y-94573980D02*
X227739732Y-94954932D01*
X225596875Y-95240647D02*
X225930208Y-94764456D01*
X226168303Y-95240647D02*
X226168303Y-94240647D01*
X226168303Y-94240647D02*
X225787351Y-94240647D01*
X225787351Y-94240647D02*
X225692113Y-94288266D01*
X225692113Y-94288266D02*
X225644494Y-94335885D01*
X225644494Y-94335885D02*
X225596875Y-94431123D01*
X225596875Y-94431123D02*
X225596875Y-94573980D01*
X225596875Y-94573980D02*
X225644494Y-94669218D01*
X225644494Y-94669218D02*
X225692113Y-94716837D01*
X225692113Y-94716837D02*
X225787351Y-94764456D01*
X225787351Y-94764456D02*
X226168303Y-94764456D01*
X225168303Y-94716837D02*
X224834970Y-94716837D01*
X224692113Y-95240647D02*
X225168303Y-95240647D01*
X225168303Y-95240647D02*
X225168303Y-94240647D01*
X225168303Y-94240647D02*
X224692113Y-94240647D01*
X224406398Y-94240647D02*
X224073065Y-95240647D01*
X224073065Y-95240647D02*
X223739732Y-94240647D01*
X222120684Y-95240647D02*
X222692112Y-95240647D01*
X222406398Y-95240647D02*
X222406398Y-94240647D01*
X222406398Y-94240647D02*
X222501636Y-94383504D01*
X222501636Y-94383504D02*
X222596874Y-94478742D01*
X222596874Y-94478742D02*
X222692112Y-94526361D01*
X221692112Y-95145408D02*
X221644493Y-95193028D01*
X221644493Y-95193028D02*
X221692112Y-95240647D01*
X221692112Y-95240647D02*
X221739731Y-95193028D01*
X221739731Y-95193028D02*
X221692112Y-95145408D01*
X221692112Y-95145408D02*
X221692112Y-95240647D01*
X220692113Y-95240647D02*
X221263541Y-95240647D01*
X220977827Y-95240647D02*
X220977827Y-94240647D01*
X220977827Y-94240647D02*
X221073065Y-94383504D01*
X221073065Y-94383504D02*
X221168303Y-94478742D01*
X221168303Y-94478742D02*
X221263541Y-94526361D01*
X218263075Y-97395092D02*
X217796408Y-97395092D01*
X217796408Y-97395092D02*
X218096408Y-98095092D01*
X217229741Y-97628425D02*
X217229741Y-98095092D01*
X217396408Y-97361759D02*
X217563074Y-97861759D01*
X217563074Y-97861759D02*
X217129741Y-97861759D01*
X216863074Y-98095092D02*
X216863074Y-97395092D01*
X216863074Y-97728425D02*
X216463074Y-97728425D01*
X216463074Y-98095092D02*
X216463074Y-97395092D01*
X215729741Y-98028425D02*
X215763074Y-98061759D01*
X215763074Y-98061759D02*
X215863074Y-98095092D01*
X215863074Y-98095092D02*
X215929741Y-98095092D01*
X215929741Y-98095092D02*
X216029741Y-98061759D01*
X216029741Y-98061759D02*
X216096408Y-97995092D01*
X216096408Y-97995092D02*
X216129741Y-97928425D01*
X216129741Y-97928425D02*
X216163074Y-97795092D01*
X216163074Y-97795092D02*
X216163074Y-97695092D01*
X216163074Y-97695092D02*
X216129741Y-97561759D01*
X216129741Y-97561759D02*
X216096408Y-97495092D01*
X216096408Y-97495092D02*
X216029741Y-97428425D01*
X216029741Y-97428425D02*
X215929741Y-97395092D01*
X215929741Y-97395092D02*
X215863074Y-97395092D01*
X215863074Y-97395092D02*
X215763074Y-97428425D01*
X215763074Y-97428425D02*
X215729741Y-97461759D01*
X215063074Y-98095092D02*
X215463074Y-98095092D01*
X215263074Y-98095092D02*
X215263074Y-97395092D01*
X215263074Y-97395092D02*
X215329741Y-97495092D01*
X215329741Y-97495092D02*
X215396408Y-97561759D01*
X215396408Y-97561759D02*
X215463074Y-97595092D01*
X214463074Y-97395092D02*
X214596407Y-97395092D01*
X214596407Y-97395092D02*
X214663074Y-97428425D01*
X214663074Y-97428425D02*
X214696407Y-97461759D01*
X214696407Y-97461759D02*
X214763074Y-97561759D01*
X214763074Y-97561759D02*
X214796407Y-97695092D01*
X214796407Y-97695092D02*
X214796407Y-97961759D01*
X214796407Y-97961759D02*
X214763074Y-98028425D01*
X214763074Y-98028425D02*
X214729741Y-98061759D01*
X214729741Y-98061759D02*
X214663074Y-98095092D01*
X214663074Y-98095092D02*
X214529741Y-98095092D01*
X214529741Y-98095092D02*
X214463074Y-98061759D01*
X214463074Y-98061759D02*
X214429741Y-98028425D01*
X214429741Y-98028425D02*
X214396407Y-97961759D01*
X214396407Y-97961759D02*
X214396407Y-97795092D01*
X214396407Y-97795092D02*
X214429741Y-97728425D01*
X214429741Y-97728425D02*
X214463074Y-97695092D01*
X214463074Y-97695092D02*
X214529741Y-97661759D01*
X214529741Y-97661759D02*
X214663074Y-97661759D01*
X214663074Y-97661759D02*
X214729741Y-97695092D01*
X214729741Y-97695092D02*
X214763074Y-97728425D01*
X214763074Y-97728425D02*
X214796407Y-97795092D01*
X213763074Y-97395092D02*
X214096407Y-97395092D01*
X214096407Y-97395092D02*
X214129740Y-97728425D01*
X214129740Y-97728425D02*
X214096407Y-97695092D01*
X214096407Y-97695092D02*
X214029740Y-97661759D01*
X214029740Y-97661759D02*
X213863074Y-97661759D01*
X213863074Y-97661759D02*
X213796407Y-97695092D01*
X213796407Y-97695092D02*
X213763074Y-97728425D01*
X213763074Y-97728425D02*
X213729740Y-97795092D01*
X213729740Y-97795092D02*
X213729740Y-97961759D01*
X213729740Y-97961759D02*
X213763074Y-98028425D01*
X213763074Y-98028425D02*
X213796407Y-98061759D01*
X213796407Y-98061759D02*
X213863074Y-98095092D01*
X213863074Y-98095092D02*
X214029740Y-98095092D01*
X214029740Y-98095092D02*
X214096407Y-98061759D01*
X214096407Y-98061759D02*
X214129740Y-98028425D01*
X207303333Y-99882419D02*
X207303333Y-100596704D01*
X207303333Y-100596704D02*
X207350952Y-100739561D01*
X207350952Y-100739561D02*
X207446190Y-100834800D01*
X207446190Y-100834800D02*
X207589047Y-100882419D01*
X207589047Y-100882419D02*
X207684285Y-100882419D01*
X206398571Y-100215752D02*
X206398571Y-100882419D01*
X206636666Y-99834800D02*
X206874761Y-100549085D01*
X206874761Y-100549085D02*
X206255714Y-100549085D01*
X207303333Y-105457419D02*
X207303333Y-106171704D01*
X207303333Y-106171704D02*
X207350952Y-106314561D01*
X207350952Y-106314561D02*
X207446190Y-106409800D01*
X207446190Y-106409800D02*
X207589047Y-106457419D01*
X207589047Y-106457419D02*
X207684285Y-106457419D01*
X206922380Y-105457419D02*
X206303333Y-105457419D01*
X206303333Y-105457419D02*
X206636666Y-105838371D01*
X206636666Y-105838371D02*
X206493809Y-105838371D01*
X206493809Y-105838371D02*
X206398571Y-105885990D01*
X206398571Y-105885990D02*
X206350952Y-105933609D01*
X206350952Y-105933609D02*
X206303333Y-106028847D01*
X206303333Y-106028847D02*
X206303333Y-106266942D01*
X206303333Y-106266942D02*
X206350952Y-106362180D01*
X206350952Y-106362180D02*
X206398571Y-106409800D01*
X206398571Y-106409800D02*
X206493809Y-106457419D01*
X206493809Y-106457419D02*
X206779523Y-106457419D01*
X206779523Y-106457419D02*
X206874761Y-106409800D01*
X206874761Y-106409800D02*
X206922380Y-106362180D01*
%TO.C,J4*%
X211470000Y-99425000D02*
X210470000Y-98425000D01*
X211470000Y-98425000D02*
X202470000Y-98425000D01*
X202470000Y-102425000D01*
X211470000Y-102425000D01*
X211470000Y-98425000D01*
%TO.C,J3*%
X211470000Y-105000000D02*
X210470000Y-104000000D01*
X211470000Y-104000000D02*
X202470000Y-104000000D01*
X202470000Y-108000000D01*
X211470000Y-108000000D01*
X211470000Y-104000000D01*
D11*
%TO.C,C3*%
X221895580Y-107440000D02*
X221614420Y-107440000D01*
X221895580Y-108460000D02*
X221614420Y-108460000D01*
%TO.C,U2*%
X225010000Y-96470000D02*
X223060000Y-96470000D01*
X225010000Y-96470000D02*
X226960000Y-96470000D01*
X225010000Y-106590000D02*
X223060000Y-106590000D01*
X225010000Y-106590000D02*
X226960000Y-106590000D01*
X222550000Y-106865000D02*
X222070000Y-106865000D01*
X222310000Y-106535000D01*
X222550000Y-106865000D01*
G36*
X222550000Y-106865000D02*
G01*
X222070000Y-106865000D01*
X222310000Y-106535000D01*
X222550000Y-106865000D01*
G37*
%TO.C,U1*%
X235520000Y-98445000D02*
X233570000Y-98445000D01*
X235520000Y-98445000D02*
X237470000Y-98445000D01*
X235520000Y-108565000D02*
X233570000Y-108565000D01*
X235520000Y-108565000D02*
X237470000Y-108565000D01*
X238220000Y-98500000D02*
X237980000Y-98170000D01*
X238460000Y-98170000D01*
X238220000Y-98500000D01*
G36*
X238220000Y-98500000D02*
G01*
X237980000Y-98170000D01*
X238460000Y-98170000D01*
X238220000Y-98500000D01*
G37*
%TO.C,C1*%
X233960580Y-96790684D02*
X233679420Y-96790684D01*
X233960580Y-97810684D02*
X233679420Y-97810684D01*
%TO.C,U3*%
X215835000Y-98445000D02*
X213885000Y-98445000D01*
X215835000Y-98445000D02*
X217785000Y-98445000D01*
X215835000Y-108565000D02*
X213885000Y-108565000D01*
X215835000Y-108565000D02*
X217785000Y-108565000D01*
X213375000Y-108840000D02*
X212895000Y-108840000D01*
X213135000Y-108510000D01*
X213375000Y-108840000D01*
G36*
X213375000Y-108840000D02*
G01*
X212895000Y-108840000D01*
X213135000Y-108510000D01*
X213375000Y-108840000D01*
G37*
%TO.C,C2*%
X226979420Y-107440000D02*
X227260580Y-107440000D01*
X226979420Y-108460000D02*
X227260580Y-108460000D01*
%TD*%
M02*
