%TF.GenerationSoftware,KiCad,Pcbnew,9.0.1*%
%TF.CreationDate,2025-06-22T03:23:01+02:00*%
%TF.ProjectId,Arduino socket,41726475-696e-46f2-9073-6f636b65742e,rev?*%
%TF.SameCoordinates,Original*%
%TF.FileFunction,Legend,Top*%
%TF.FilePolarity,Positive*%
%FSLAX46Y46*%
G04 Gerber Fmt 4.6, Leading zero omitted, Abs format (unit mm)*
G04 Created by KiCad (PCBNEW 9.0.1) date 2025-06-22 03:23:01*
%MOMM*%
%LPD*%
G01*
G04 APERTURE LIST*
%ADD10C,0.100000*%
%ADD11C,0.300000*%
%ADD12C,0.150000*%
%ADD13C,0.000000*%
%ADD14C,0.120000*%
G04 APERTURE END LIST*
D10*
X129564455Y-91898466D02*
X129564455Y-92465133D01*
X129564455Y-92465133D02*
X129531122Y-92531800D01*
X129531122Y-92531800D02*
X129497789Y-92565133D01*
X129497789Y-92565133D02*
X129431122Y-92598466D01*
X129431122Y-92598466D02*
X129331122Y-92598466D01*
X129331122Y-92598466D02*
X129264455Y-92565133D01*
X129564455Y-92331800D02*
X129497789Y-92365133D01*
X129497789Y-92365133D02*
X129364455Y-92365133D01*
X129364455Y-92365133D02*
X129297789Y-92331800D01*
X129297789Y-92331800D02*
X129264455Y-92298466D01*
X129264455Y-92298466D02*
X129231122Y-92231800D01*
X129231122Y-92231800D02*
X129231122Y-92031800D01*
X129231122Y-92031800D02*
X129264455Y-91965133D01*
X129264455Y-91965133D02*
X129297789Y-91931800D01*
X129297789Y-91931800D02*
X129364455Y-91898466D01*
X129364455Y-91898466D02*
X129497789Y-91898466D01*
X129497789Y-91898466D02*
X129564455Y-91931800D01*
X129897788Y-91898466D02*
X129897788Y-92365133D01*
X129897788Y-91965133D02*
X129931122Y-91931800D01*
X129931122Y-91931800D02*
X129997788Y-91898466D01*
X129997788Y-91898466D02*
X130097788Y-91898466D01*
X130097788Y-91898466D02*
X130164455Y-91931800D01*
X130164455Y-91931800D02*
X130197788Y-91998466D01*
X130197788Y-91998466D02*
X130197788Y-92365133D01*
X130831121Y-92365133D02*
X130831121Y-91665133D01*
X130831121Y-92331800D02*
X130764455Y-92365133D01*
X130764455Y-92365133D02*
X130631121Y-92365133D01*
X130631121Y-92365133D02*
X130564455Y-92331800D01*
X130564455Y-92331800D02*
X130531121Y-92298466D01*
X130531121Y-92298466D02*
X130497788Y-92231800D01*
X130497788Y-92231800D02*
X130497788Y-92031800D01*
X130497788Y-92031800D02*
X130531121Y-91965133D01*
X130531121Y-91965133D02*
X130564455Y-91931800D01*
X130564455Y-91931800D02*
X130631121Y-91898466D01*
X130631121Y-91898466D02*
X130764455Y-91898466D01*
X130764455Y-91898466D02*
X130831121Y-91931800D01*
X139758211Y-92365133D02*
X139691545Y-92331800D01*
X139691545Y-92331800D02*
X139658211Y-92298466D01*
X139658211Y-92298466D02*
X139624878Y-92231800D01*
X139624878Y-92231800D02*
X139624878Y-92031800D01*
X139624878Y-92031800D02*
X139658211Y-91965133D01*
X139658211Y-91965133D02*
X139691545Y-91931800D01*
X139691545Y-91931800D02*
X139758211Y-91898466D01*
X139758211Y-91898466D02*
X139858211Y-91898466D01*
X139858211Y-91898466D02*
X139924878Y-91931800D01*
X139924878Y-91931800D02*
X139958211Y-91965133D01*
X139958211Y-91965133D02*
X139991545Y-92031800D01*
X139991545Y-92031800D02*
X139991545Y-92231800D01*
X139991545Y-92231800D02*
X139958211Y-92298466D01*
X139958211Y-92298466D02*
X139924878Y-92331800D01*
X139924878Y-92331800D02*
X139858211Y-92365133D01*
X139858211Y-92365133D02*
X139758211Y-92365133D01*
X140591544Y-91898466D02*
X140591544Y-92365133D01*
X140291544Y-91898466D02*
X140291544Y-92265133D01*
X140291544Y-92265133D02*
X140324878Y-92331800D01*
X140324878Y-92331800D02*
X140391544Y-92365133D01*
X140391544Y-92365133D02*
X140491544Y-92365133D01*
X140491544Y-92365133D02*
X140558211Y-92331800D01*
X140558211Y-92331800D02*
X140591544Y-92298466D01*
X140824877Y-91898466D02*
X141091544Y-91898466D01*
X140924877Y-91665133D02*
X140924877Y-92265133D01*
X140924877Y-92265133D02*
X140958211Y-92331800D01*
X140958211Y-92331800D02*
X141024877Y-92365133D01*
X141024877Y-92365133D02*
X141091544Y-92365133D01*
X137551543Y-92331800D02*
X137484877Y-92365133D01*
X137484877Y-92365133D02*
X137351543Y-92365133D01*
X137351543Y-92365133D02*
X137284877Y-92331800D01*
X137284877Y-92331800D02*
X137251543Y-92298466D01*
X137251543Y-92298466D02*
X137218210Y-92231800D01*
X137218210Y-92231800D02*
X137218210Y-92031800D01*
X137218210Y-92031800D02*
X137251543Y-91965133D01*
X137251543Y-91965133D02*
X137284877Y-91931800D01*
X137284877Y-91931800D02*
X137351543Y-91898466D01*
X137351543Y-91898466D02*
X137484877Y-91898466D01*
X137484877Y-91898466D02*
X137551543Y-91931800D01*
X137951543Y-92365133D02*
X137884877Y-92331800D01*
X137884877Y-92331800D02*
X137851543Y-92265133D01*
X137851543Y-92265133D02*
X137851543Y-91665133D01*
X138218210Y-92365133D02*
X138218210Y-91665133D01*
X138284877Y-92098466D02*
X138484877Y-92365133D01*
X138484877Y-91898466D02*
X138218210Y-92165133D01*
X142390211Y-92365133D02*
X142390211Y-91898466D01*
X142390211Y-91665133D02*
X142356878Y-91698466D01*
X142356878Y-91698466D02*
X142390211Y-91731800D01*
X142390211Y-91731800D02*
X142423545Y-91698466D01*
X142423545Y-91698466D02*
X142390211Y-91665133D01*
X142390211Y-91665133D02*
X142390211Y-91731800D01*
X142723544Y-91898466D02*
X142723544Y-92365133D01*
X142723544Y-91965133D02*
X142756878Y-91931800D01*
X142756878Y-91931800D02*
X142823544Y-91898466D01*
X142823544Y-91898466D02*
X142923544Y-91898466D01*
X142923544Y-91898466D02*
X142990211Y-91931800D01*
X142990211Y-91931800D02*
X143023544Y-91998466D01*
X143023544Y-91998466D02*
X143023544Y-92365133D01*
X134078211Y-92365133D02*
X134011545Y-92331800D01*
X134011545Y-92331800D02*
X133978211Y-92265133D01*
X133978211Y-92265133D02*
X133978211Y-91665133D01*
X134444878Y-92365133D02*
X134378212Y-92331800D01*
X134378212Y-92331800D02*
X134344878Y-92298466D01*
X134344878Y-92298466D02*
X134311545Y-92231800D01*
X134311545Y-92231800D02*
X134311545Y-92031800D01*
X134311545Y-92031800D02*
X134344878Y-91965133D01*
X134344878Y-91965133D02*
X134378212Y-91931800D01*
X134378212Y-91931800D02*
X134444878Y-91898466D01*
X134444878Y-91898466D02*
X134544878Y-91898466D01*
X134544878Y-91898466D02*
X134611545Y-91931800D01*
X134611545Y-91931800D02*
X134644878Y-91965133D01*
X134644878Y-91965133D02*
X134678212Y-92031800D01*
X134678212Y-92031800D02*
X134678212Y-92231800D01*
X134678212Y-92231800D02*
X134644878Y-92298466D01*
X134644878Y-92298466D02*
X134611545Y-92331800D01*
X134611545Y-92331800D02*
X134544878Y-92365133D01*
X134544878Y-92365133D02*
X134444878Y-92365133D01*
X135278211Y-92365133D02*
X135278211Y-91998466D01*
X135278211Y-91998466D02*
X135244878Y-91931800D01*
X135244878Y-91931800D02*
X135178211Y-91898466D01*
X135178211Y-91898466D02*
X135044878Y-91898466D01*
X135044878Y-91898466D02*
X134978211Y-91931800D01*
X135278211Y-92331800D02*
X135211545Y-92365133D01*
X135211545Y-92365133D02*
X135044878Y-92365133D01*
X135044878Y-92365133D02*
X134978211Y-92331800D01*
X134978211Y-92331800D02*
X134944878Y-92265133D01*
X134944878Y-92265133D02*
X134944878Y-92198466D01*
X134944878Y-92198466D02*
X134978211Y-92131800D01*
X134978211Y-92131800D02*
X135044878Y-92098466D01*
X135044878Y-92098466D02*
X135211545Y-92098466D01*
X135211545Y-92098466D02*
X135278211Y-92065133D01*
X135911544Y-92365133D02*
X135911544Y-91665133D01*
X135911544Y-92331800D02*
X135844878Y-92365133D01*
X135844878Y-92365133D02*
X135711544Y-92365133D01*
X135711544Y-92365133D02*
X135644878Y-92331800D01*
X135644878Y-92331800D02*
X135611544Y-92298466D01*
X135611544Y-92298466D02*
X135578211Y-92231800D01*
X135578211Y-92231800D02*
X135578211Y-92031800D01*
X135578211Y-92031800D02*
X135611544Y-91965133D01*
X135611544Y-91965133D02*
X135644878Y-91931800D01*
X135644878Y-91931800D02*
X135711544Y-91898466D01*
X135711544Y-91898466D02*
X135844878Y-91898466D01*
X135844878Y-91898466D02*
X135911544Y-91931800D01*
X131904878Y-91898466D02*
X132071544Y-92365133D01*
X132071544Y-92365133D02*
X132238211Y-91898466D01*
X132804877Y-92331800D02*
X132738211Y-92365133D01*
X132738211Y-92365133D02*
X132604877Y-92365133D01*
X132604877Y-92365133D02*
X132538211Y-92331800D01*
X132538211Y-92331800D02*
X132504877Y-92298466D01*
X132504877Y-92298466D02*
X132471544Y-92231800D01*
X132471544Y-92231800D02*
X132471544Y-92031800D01*
X132471544Y-92031800D02*
X132504877Y-91965133D01*
X132504877Y-91965133D02*
X132538211Y-91931800D01*
X132538211Y-91931800D02*
X132604877Y-91898466D01*
X132604877Y-91898466D02*
X132738211Y-91898466D01*
X132738211Y-91898466D02*
X132804877Y-91931800D01*
X133404877Y-92331800D02*
X133338211Y-92365133D01*
X133338211Y-92365133D02*
X133204877Y-92365133D01*
X133204877Y-92365133D02*
X133138211Y-92331800D01*
X133138211Y-92331800D02*
X133104877Y-92298466D01*
X133104877Y-92298466D02*
X133071544Y-92231800D01*
X133071544Y-92231800D02*
X133071544Y-92031800D01*
X133071544Y-92031800D02*
X133104877Y-91965133D01*
X133104877Y-91965133D02*
X133138211Y-91931800D01*
X133138211Y-91931800D02*
X133204877Y-91898466D01*
X133204877Y-91898466D02*
X133338211Y-91898466D01*
X133338211Y-91898466D02*
X133404877Y-91931800D01*
D11*
X122001429Y-60827819D02*
X122001429Y-61684962D01*
X122001429Y-61256391D02*
X120501429Y-61256391D01*
X120501429Y-61256391D02*
X120715715Y-61399248D01*
X120715715Y-61399248D02*
X120858572Y-61542105D01*
X120858572Y-61542105D02*
X120930001Y-61684962D01*
X120644286Y-60256391D02*
X120572858Y-60184963D01*
X120572858Y-60184963D02*
X120501429Y-60042106D01*
X120501429Y-60042106D02*
X120501429Y-59684963D01*
X120501429Y-59684963D02*
X120572858Y-59542106D01*
X120572858Y-59542106D02*
X120644286Y-59470677D01*
X120644286Y-59470677D02*
X120787143Y-59399248D01*
X120787143Y-59399248D02*
X120930001Y-59399248D01*
X120930001Y-59399248D02*
X121144286Y-59470677D01*
X121144286Y-59470677D02*
X122001429Y-60327820D01*
X122001429Y-60327820D02*
X122001429Y-59399248D01*
X120501429Y-58970677D02*
X122001429Y-58470677D01*
X122001429Y-58470677D02*
X120501429Y-57970677D01*
X123340257Y-60889774D02*
X123268828Y-61032632D01*
X123268828Y-61032632D02*
X123268828Y-61246917D01*
X123268828Y-61246917D02*
X123340257Y-61461203D01*
X123340257Y-61461203D02*
X123483114Y-61604060D01*
X123483114Y-61604060D02*
X123625971Y-61675489D01*
X123625971Y-61675489D02*
X123911685Y-61746917D01*
X123911685Y-61746917D02*
X124125971Y-61746917D01*
X124125971Y-61746917D02*
X124411685Y-61675489D01*
X124411685Y-61675489D02*
X124554542Y-61604060D01*
X124554542Y-61604060D02*
X124697400Y-61461203D01*
X124697400Y-61461203D02*
X124768828Y-61246917D01*
X124768828Y-61246917D02*
X124768828Y-61104060D01*
X124768828Y-61104060D02*
X124697400Y-60889774D01*
X124697400Y-60889774D02*
X124625971Y-60818346D01*
X124625971Y-60818346D02*
X124125971Y-60818346D01*
X124125971Y-60818346D02*
X124125971Y-61104060D01*
X124768828Y-60175489D02*
X123268828Y-60175489D01*
X123268828Y-60175489D02*
X124768828Y-59318346D01*
X124768828Y-59318346D02*
X123268828Y-59318346D01*
X124768828Y-58604060D02*
X123268828Y-58604060D01*
X123268828Y-58604060D02*
X123268828Y-58246917D01*
X123268828Y-58246917D02*
X123340257Y-58032631D01*
X123340257Y-58032631D02*
X123483114Y-57889774D01*
X123483114Y-57889774D02*
X123625971Y-57818345D01*
X123625971Y-57818345D02*
X123911685Y-57746917D01*
X123911685Y-57746917D02*
X124125971Y-57746917D01*
X124125971Y-57746917D02*
X124411685Y-57818345D01*
X124411685Y-57818345D02*
X124554542Y-57889774D01*
X124554542Y-57889774D02*
X124697400Y-58032631D01*
X124697400Y-58032631D02*
X124768828Y-58246917D01*
X124768828Y-58246917D02*
X124768828Y-58604060D01*
D12*
X112522095Y-56344819D02*
X112522095Y-57154342D01*
X112522095Y-57154342D02*
X112569714Y-57249580D01*
X112569714Y-57249580D02*
X112617333Y-57297200D01*
X112617333Y-57297200D02*
X112712571Y-57344819D01*
X112712571Y-57344819D02*
X112903047Y-57344819D01*
X112903047Y-57344819D02*
X112998285Y-57297200D01*
X112998285Y-57297200D02*
X113045904Y-57249580D01*
X113045904Y-57249580D02*
X113093523Y-57154342D01*
X113093523Y-57154342D02*
X113093523Y-56344819D01*
X114093523Y-57344819D02*
X113522095Y-57344819D01*
X113807809Y-57344819D02*
X113807809Y-56344819D01*
X113807809Y-56344819D02*
X113712571Y-56487676D01*
X113712571Y-56487676D02*
X113617333Y-56582914D01*
X113617333Y-56582914D02*
X113522095Y-56630533D01*
X144472819Y-98190333D02*
X145187104Y-98190333D01*
X145187104Y-98190333D02*
X145329961Y-98237952D01*
X145329961Y-98237952D02*
X145425200Y-98333190D01*
X145425200Y-98333190D02*
X145472819Y-98476047D01*
X145472819Y-98476047D02*
X145472819Y-98571285D01*
X145472819Y-97190333D02*
X145472819Y-97761761D01*
X145472819Y-97476047D02*
X144472819Y-97476047D01*
X144472819Y-97476047D02*
X144615676Y-97571285D01*
X144615676Y-97571285D02*
X144710914Y-97666523D01*
X144710914Y-97666523D02*
X144758533Y-97761761D01*
D13*
%TO.C,G\u002A\u002A\u002A*%
G36*
X133004718Y-69363332D02*
G01*
X133004718Y-69499757D01*
X133141144Y-69499757D01*
X133277570Y-69499757D01*
X133277570Y-69636183D01*
X133277570Y-69772609D01*
X133141144Y-69772609D01*
X133004718Y-69772609D01*
X133004718Y-69921437D01*
X133004718Y-70070265D01*
X133141144Y-70070265D01*
X133277570Y-70070265D01*
X133277570Y-69921437D01*
X133277570Y-69772609D01*
X133562824Y-69772609D01*
X133848078Y-69772609D01*
X133848078Y-69636183D01*
X133848078Y-69499757D01*
X133984503Y-69499757D01*
X134120929Y-69499757D01*
X134120929Y-69785011D01*
X134120929Y-70070265D01*
X134269757Y-70070265D01*
X134418585Y-70070265D01*
X134418585Y-70206691D01*
X134418585Y-70343117D01*
X134269757Y-70343117D01*
X134120929Y-70343117D01*
X134120929Y-70479542D01*
X134120929Y-70615968D01*
X133984503Y-70615968D01*
X133848078Y-70615968D01*
X133848078Y-70343117D01*
X133848078Y-70070265D01*
X133711652Y-70070265D01*
X133575226Y-70070265D01*
X133575226Y-70206691D01*
X133575226Y-70343117D01*
X133289972Y-70343117D01*
X133004718Y-70343117D01*
X133004718Y-70479542D01*
X133004718Y-70615968D01*
X133289972Y-70615968D01*
X133575226Y-70615968D01*
X133575226Y-71186476D01*
X133575226Y-71756984D01*
X133848078Y-71756984D01*
X134120929Y-71756984D01*
X134120929Y-71893410D01*
X134120929Y-72029835D01*
X133984503Y-72029835D01*
X133848078Y-72029835D01*
X133848078Y-72178664D01*
X133848078Y-72327492D01*
X133984503Y-72327492D01*
X134120929Y-72327492D01*
X134120929Y-72178664D01*
X134120929Y-72029835D01*
X134269757Y-72029835D01*
X134418585Y-72029835D01*
X134418585Y-71893410D01*
X134418585Y-71756984D01*
X134555011Y-71756984D01*
X134691437Y-71756984D01*
X134691437Y-72042238D01*
X134691437Y-72327492D01*
X134827863Y-72327492D01*
X134964289Y-72327492D01*
X135261945Y-72327492D01*
X135398371Y-72327492D01*
X135534796Y-72327492D01*
X135534796Y-72042238D01*
X135534796Y-71756984D01*
X135398371Y-71756984D01*
X135261945Y-71756984D01*
X135261945Y-72042238D01*
X135261945Y-72327492D01*
X134964289Y-72327492D01*
X134964289Y-72042238D01*
X134964289Y-71756984D01*
X135113117Y-71756984D01*
X135261945Y-71756984D01*
X135261945Y-71620558D01*
X135261945Y-71484132D01*
X135398371Y-71484132D01*
X135534796Y-71484132D01*
X135534796Y-71335304D01*
X135534796Y-71186476D01*
X135249542Y-71186476D01*
X134964289Y-71186476D01*
X134964289Y-71050050D01*
X134964289Y-70913625D01*
X135113117Y-70913625D01*
X135261945Y-70913625D01*
X135261945Y-70764796D01*
X135261945Y-70615968D01*
X135398371Y-70615968D01*
X135534796Y-70615968D01*
X135534796Y-70764796D01*
X135534796Y-70913625D01*
X135683625Y-70913625D01*
X135832453Y-70913625D01*
X135832453Y-71050050D01*
X135832453Y-71186476D01*
X135968878Y-71186476D01*
X136105304Y-71186476D01*
X136105304Y-71050050D01*
X136105304Y-70913625D01*
X136526984Y-70913625D01*
X136948664Y-70913625D01*
X136948664Y-71050050D01*
X136948664Y-71186476D01*
X136812238Y-71186476D01*
X136675812Y-71186476D01*
X136675812Y-71608156D01*
X136675812Y-72029835D01*
X136812238Y-72029835D01*
X136948664Y-72029835D01*
X136948664Y-71893410D01*
X136948664Y-71756984D01*
X137233917Y-71756984D01*
X137519171Y-71756984D01*
X137519171Y-71893410D01*
X137519171Y-72029835D01*
X137655597Y-72029835D01*
X137792023Y-72029835D01*
X137792023Y-72178664D01*
X137792023Y-72327492D01*
X137940851Y-72327492D01*
X138089679Y-72327492D01*
X138089679Y-72463917D01*
X138089679Y-72600343D01*
X138226105Y-72600343D01*
X138362531Y-72600343D01*
X138362531Y-72463917D01*
X138362531Y-72327492D01*
X138498957Y-72327492D01*
X138635382Y-72327492D01*
X138635382Y-72463917D01*
X138635382Y-72600343D01*
X138784210Y-72600343D01*
X138933039Y-72600343D01*
X138933039Y-72463917D01*
X138933039Y-72327492D01*
X139069464Y-72327492D01*
X139205890Y-72327492D01*
X139205890Y-72178664D01*
X139205890Y-72029835D01*
X139627570Y-72029835D01*
X140049250Y-72029835D01*
X140049250Y-71893410D01*
X140049250Y-71756984D01*
X139912824Y-71756984D01*
X139776398Y-71756984D01*
X139776398Y-71335304D01*
X139776398Y-70913625D01*
X139627570Y-70913625D01*
X139478742Y-70913625D01*
X139478742Y-71050050D01*
X139478742Y-71186476D01*
X139342316Y-71186476D01*
X139205890Y-71186476D01*
X139205890Y-71335304D01*
X139205890Y-71484132D01*
X138920636Y-71484132D01*
X138635382Y-71484132D01*
X138635382Y-71756984D01*
X138635382Y-72029835D01*
X138498957Y-72029835D01*
X138362531Y-72029835D01*
X138362531Y-72178664D01*
X138362531Y-72327492D01*
X138226105Y-72327492D01*
X138089679Y-72327492D01*
X138089679Y-72042238D01*
X138089679Y-71756984D01*
X138226105Y-71756984D01*
X138362531Y-71756984D01*
X138362531Y-71186476D01*
X138362531Y-70615968D01*
X138498957Y-70615968D01*
X138635382Y-70615968D01*
X138635382Y-70764796D01*
X138635382Y-70913625D01*
X138784210Y-70913625D01*
X138933039Y-70913625D01*
X138933039Y-70764796D01*
X138933039Y-70615968D01*
X139205890Y-70615968D01*
X139478742Y-70615968D01*
X139478742Y-70479542D01*
X139478742Y-70343117D01*
X139627570Y-70343117D01*
X139776398Y-70343117D01*
X139776398Y-70479542D01*
X139776398Y-70615968D01*
X139912824Y-70615968D01*
X140049250Y-70615968D01*
X140049250Y-70479542D01*
X140049250Y-70343117D01*
X140198078Y-70343117D01*
X140346906Y-70343117D01*
X140346906Y-70628371D01*
X140346906Y-70913625D01*
X140198078Y-70913625D01*
X140049250Y-70913625D01*
X140049250Y-71050050D01*
X140049250Y-71186476D01*
X140198078Y-71186476D01*
X140346906Y-71186476D01*
X140346906Y-71471730D01*
X140346906Y-71756984D01*
X140483332Y-71756984D01*
X140619757Y-71756984D01*
X140619757Y-71471730D01*
X140619757Y-71186476D01*
X140756183Y-71186476D01*
X140892609Y-71186476D01*
X140892609Y-71335304D01*
X140892609Y-71484132D01*
X141041437Y-71484132D01*
X141190265Y-71484132D01*
X141190265Y-71620558D01*
X141190265Y-71756984D01*
X141463117Y-71756984D01*
X141735968Y-71756984D01*
X141735968Y-72042238D01*
X141735968Y-72327492D01*
X142170050Y-72327492D01*
X142604132Y-72327492D01*
X142604132Y-72463917D01*
X142604132Y-72600343D01*
X142740558Y-72600343D01*
X142876984Y-72600343D01*
X142876984Y-71893410D01*
X143149835Y-71893410D01*
X143149835Y-72029835D01*
X143298664Y-72029835D01*
X143447492Y-72029835D01*
X143447492Y-71893410D01*
X143447492Y-71756984D01*
X143583917Y-71756984D01*
X143720343Y-71756984D01*
X143720343Y-71620558D01*
X143720343Y-71484132D01*
X143583917Y-71484132D01*
X143447492Y-71484132D01*
X143447492Y-71620558D01*
X143447492Y-71756984D01*
X143298664Y-71756984D01*
X143149835Y-71756984D01*
X143149835Y-71893410D01*
X142876984Y-71893410D01*
X142876984Y-71756984D01*
X142876984Y-71186476D01*
X143298664Y-71186476D01*
X143720343Y-71186476D01*
X143720343Y-71050050D01*
X143720343Y-70913625D01*
X143435089Y-70913625D01*
X143149835Y-70913625D01*
X143149835Y-70628371D01*
X143149835Y-70615968D01*
X143447492Y-70615968D01*
X143583917Y-70615968D01*
X143720343Y-70615968D01*
X143720343Y-70194289D01*
X143720343Y-69772609D01*
X143583917Y-69772609D01*
X143447492Y-69772609D01*
X143447492Y-70194289D01*
X143447492Y-70615968D01*
X143149835Y-70615968D01*
X143149835Y-70343117D01*
X143013410Y-70343117D01*
X142876984Y-70343117D01*
X142876984Y-70206691D01*
X142876984Y-70194289D01*
X142876984Y-70070265D01*
X143013410Y-70070265D01*
X143149835Y-70070265D01*
X143149835Y-69921437D01*
X143149835Y-69772609D01*
X143298664Y-69772609D01*
X143447492Y-69772609D01*
X143447492Y-69636183D01*
X143447492Y-69499757D01*
X143583917Y-69499757D01*
X143720343Y-69499757D01*
X143720343Y-69363332D01*
X143720343Y-69226906D01*
X143869171Y-69226906D01*
X144018000Y-69226906D01*
X144018000Y-70913625D01*
X144018000Y-72600343D01*
X143869171Y-72600343D01*
X143720343Y-72600343D01*
X143720343Y-72749171D01*
X143720343Y-72898000D01*
X143435089Y-72898000D01*
X143149835Y-72898000D01*
X143149835Y-72749171D01*
X143149835Y-72600343D01*
X143013410Y-72600343D01*
X142876984Y-72600343D01*
X142876984Y-72749171D01*
X142876984Y-72898000D01*
X142740558Y-72898000D01*
X142604132Y-72898000D01*
X142604132Y-72749171D01*
X142604132Y-72600343D01*
X142455304Y-72600343D01*
X142306476Y-72600343D01*
X142306476Y-72749171D01*
X142306476Y-72898000D01*
X141884796Y-72898000D01*
X141463117Y-72898000D01*
X141463117Y-72749171D01*
X141463117Y-72600343D01*
X141326691Y-72600343D01*
X141190265Y-72600343D01*
X141190265Y-72463917D01*
X141190265Y-72327492D01*
X141326691Y-72327492D01*
X141463117Y-72327492D01*
X141463117Y-72178664D01*
X141463117Y-72029835D01*
X141326691Y-72029835D01*
X141190265Y-72029835D01*
X141190265Y-72178664D01*
X141190265Y-72327492D01*
X140768585Y-72327492D01*
X140346906Y-72327492D01*
X140346906Y-72612746D01*
X140346906Y-72898000D01*
X139912824Y-72898000D01*
X139478742Y-72898000D01*
X139478742Y-72749171D01*
X139478742Y-72600343D01*
X139627570Y-72600343D01*
X139776398Y-72600343D01*
X139776398Y-72463917D01*
X139776398Y-72327492D01*
X140049250Y-72327492D01*
X140198078Y-72327492D01*
X140346906Y-72327492D01*
X140346906Y-72178664D01*
X140346906Y-72029835D01*
X140619757Y-72029835D01*
X140756183Y-72029835D01*
X140892609Y-72029835D01*
X140892609Y-71893410D01*
X140892609Y-71756984D01*
X140756183Y-71756984D01*
X140619757Y-71756984D01*
X140619757Y-71893410D01*
X140619757Y-72029835D01*
X140346906Y-72029835D01*
X140198078Y-72029835D01*
X140049250Y-72029835D01*
X140049250Y-72178664D01*
X140049250Y-72327492D01*
X139776398Y-72327492D01*
X139627570Y-72327492D01*
X139478742Y-72327492D01*
X139478742Y-72463917D01*
X139478742Y-72600343D01*
X139342316Y-72600343D01*
X139205890Y-72600343D01*
X139205890Y-72749171D01*
X139205890Y-72898000D01*
X138920636Y-72898000D01*
X138635382Y-72898000D01*
X138635382Y-72749171D01*
X138635382Y-72600343D01*
X138498957Y-72600343D01*
X138362531Y-72600343D01*
X138362531Y-72749171D01*
X138362531Y-72898000D01*
X138226105Y-72898000D01*
X138089679Y-72898000D01*
X138089679Y-72749171D01*
X138089679Y-72600343D01*
X137940851Y-72600343D01*
X137792023Y-72600343D01*
X137792023Y-72749171D01*
X137792023Y-72898000D01*
X137370343Y-72898000D01*
X136948664Y-72898000D01*
X136948664Y-72749171D01*
X136948664Y-72600343D01*
X136812238Y-72600343D01*
X136675812Y-72600343D01*
X136675812Y-72749171D01*
X136675812Y-72898000D01*
X136254132Y-72898000D01*
X135832453Y-72898000D01*
X135832453Y-72612746D01*
X135832453Y-72327492D01*
X135968878Y-72327492D01*
X136105304Y-72327492D01*
X136105304Y-72463917D01*
X136105304Y-72600343D01*
X136390558Y-72600343D01*
X136675812Y-72600343D01*
X136675812Y-72463917D01*
X136675812Y-72327492D01*
X136526984Y-72327492D01*
X136378156Y-72327492D01*
X136378156Y-72178664D01*
X136378156Y-72029835D01*
X136241730Y-72029835D01*
X136105304Y-72029835D01*
X136105304Y-71893410D01*
X136105304Y-71756984D01*
X135968878Y-71756984D01*
X135832453Y-71756984D01*
X135832453Y-72042238D01*
X135832453Y-72327492D01*
X135683625Y-72327492D01*
X135534796Y-72327492D01*
X135534796Y-72612746D01*
X135534796Y-72898000D01*
X135398371Y-72898000D01*
X135261945Y-72898000D01*
X135261945Y-72749171D01*
X135261945Y-72600343D01*
X134976691Y-72600343D01*
X134691437Y-72600343D01*
X134691437Y-72463917D01*
X134691437Y-72327492D01*
X134406183Y-72327492D01*
X134120929Y-72327492D01*
X134120929Y-72612746D01*
X134120929Y-72898000D01*
X133699250Y-72898000D01*
X133277570Y-72898000D01*
X133277570Y-71905812D01*
X133277570Y-70913625D01*
X132297785Y-70913625D01*
X131318000Y-70913625D01*
X131318000Y-70764796D01*
X131318000Y-70615968D01*
X131454425Y-70615968D01*
X131590851Y-70615968D01*
X131590851Y-70479542D01*
X131590851Y-70343117D01*
X131876105Y-70343117D01*
X132161359Y-70343117D01*
X132161359Y-70479542D01*
X132161359Y-70615968D01*
X132434210Y-70615968D01*
X132707062Y-70615968D01*
X132707062Y-69921437D01*
X132707062Y-69226906D01*
X132855890Y-69226906D01*
X133004718Y-69226906D01*
X133004718Y-69363332D01*
G37*
G36*
X131863703Y-68085890D02*
G01*
X131863703Y-68358742D01*
X131727277Y-68358742D01*
X131590851Y-68358742D01*
X131590851Y-68507570D01*
X131590851Y-68656398D01*
X131727277Y-68656398D01*
X131863703Y-68656398D01*
X131863703Y-69078078D01*
X131863703Y-69499757D01*
X132012531Y-69499757D01*
X132161359Y-69499757D01*
X132161359Y-69363332D01*
X132161359Y-69226906D01*
X132297785Y-69226906D01*
X132434210Y-69226906D01*
X132434210Y-69648585D01*
X132434210Y-70070265D01*
X132012531Y-70070265D01*
X131590851Y-70070265D01*
X131590851Y-70206691D01*
X131590851Y-70343117D01*
X131454425Y-70343117D01*
X131318000Y-70343117D01*
X131318000Y-70057863D01*
X131318000Y-69772609D01*
X131590851Y-69772609D01*
X131863703Y-69772609D01*
X131863703Y-69636183D01*
X131863703Y-69499757D01*
X131590851Y-69499757D01*
X131318000Y-69499757D01*
X131318000Y-69363332D01*
X131318000Y-69226906D01*
X131454425Y-69226906D01*
X131590851Y-69226906D01*
X131590851Y-69078078D01*
X131590851Y-68929250D01*
X131454425Y-68929250D01*
X131318000Y-68929250D01*
X131318000Y-68507570D01*
X131318000Y-68085890D01*
X131454425Y-68085890D01*
X131590851Y-68085890D01*
X131590851Y-67949464D01*
X131590851Y-67813039D01*
X131727277Y-67813039D01*
X131863703Y-67813039D01*
X131863703Y-68085890D01*
G37*
G36*
X144018000Y-65406984D02*
G01*
X144018000Y-65828664D01*
X143869171Y-65828664D01*
X143720343Y-65828664D01*
X143720343Y-65965089D01*
X143720343Y-66101515D01*
X143435089Y-66101515D01*
X143149835Y-66101515D01*
X143149835Y-66386769D01*
X143149835Y-66672023D01*
X143298664Y-66672023D01*
X143447492Y-66672023D01*
X143447492Y-66820851D01*
X143447492Y-66969679D01*
X143583917Y-66969679D01*
X143720343Y-66969679D01*
X143720343Y-66535597D01*
X143720343Y-66101515D01*
X143869171Y-66101515D01*
X144018000Y-66101515D01*
X144018000Y-67515382D01*
X144018000Y-68929250D01*
X143869171Y-68929250D01*
X143720343Y-68929250D01*
X143720343Y-69078078D01*
X143720343Y-69226906D01*
X143583917Y-69226906D01*
X143447492Y-69226906D01*
X143447492Y-69363332D01*
X143447492Y-69499757D01*
X143162238Y-69499757D01*
X142876984Y-69499757D01*
X142876984Y-69214503D01*
X142876984Y-68929250D01*
X143013410Y-68929250D01*
X143149835Y-68929250D01*
X143149835Y-68792824D01*
X143149835Y-68656398D01*
X143298664Y-68656398D01*
X143447492Y-68656398D01*
X143447492Y-68792824D01*
X143447492Y-68929250D01*
X143583917Y-68929250D01*
X143720343Y-68929250D01*
X143720343Y-68222316D01*
X143720343Y-67515382D01*
X143435089Y-67515382D01*
X143149835Y-67515382D01*
X143149835Y-67378957D01*
X143149835Y-67242531D01*
X143013410Y-67242531D01*
X142876984Y-67242531D01*
X142876984Y-67527785D01*
X142876984Y-67813039D01*
X142455304Y-67813039D01*
X142033625Y-67813039D01*
X142033625Y-67664210D01*
X142033625Y-67515382D01*
X141884796Y-67515382D01*
X141735968Y-67515382D01*
X141735968Y-67664210D01*
X141735968Y-67813039D01*
X141599542Y-67813039D01*
X141463117Y-67813039D01*
X141463117Y-67949464D01*
X141463117Y-68085890D01*
X141599542Y-68085890D01*
X141735968Y-68085890D01*
X141735968Y-68222316D01*
X141735968Y-68358742D01*
X141463117Y-68358742D01*
X141190265Y-68358742D01*
X141190265Y-68222316D01*
X141190265Y-68085890D01*
X140905011Y-68085890D01*
X140619757Y-68085890D01*
X140619757Y-67949464D01*
X140619757Y-67813039D01*
X140756183Y-67813039D01*
X140892609Y-67813039D01*
X140892609Y-67527785D01*
X140892609Y-67242531D01*
X141041437Y-67242531D01*
X141190265Y-67242531D01*
X141190265Y-67106105D01*
X141190265Y-66969679D01*
X141326691Y-66969679D01*
X141463117Y-66969679D01*
X141463117Y-67106105D01*
X141463117Y-67242531D01*
X141326691Y-67242531D01*
X141190265Y-67242531D01*
X141190265Y-67378957D01*
X141190265Y-67515382D01*
X141463117Y-67515382D01*
X141735968Y-67515382D01*
X141735968Y-67378957D01*
X141735968Y-67242531D01*
X141884796Y-67242531D01*
X142033625Y-67242531D01*
X142033625Y-67378957D01*
X142033625Y-67515382D01*
X142318878Y-67515382D01*
X142604132Y-67515382D01*
X142604132Y-67378957D01*
X142604132Y-67242531D01*
X142740558Y-67242531D01*
X142876984Y-67242531D01*
X142876984Y-66535597D01*
X142876984Y-65828664D01*
X142740558Y-65828664D01*
X142604132Y-65828664D01*
X142604132Y-65692238D01*
X142604132Y-65555812D01*
X142740558Y-65555812D01*
X142876984Y-65555812D01*
X142876984Y-65692238D01*
X142876984Y-65828664D01*
X143013410Y-65828664D01*
X143149835Y-65828664D01*
X143149835Y-65692238D01*
X143149835Y-65555812D01*
X143298664Y-65555812D01*
X143447492Y-65555812D01*
X143447492Y-65692238D01*
X143447492Y-65828664D01*
X143583917Y-65828664D01*
X143720343Y-65828664D01*
X143720343Y-65406984D01*
X143720343Y-64985304D01*
X143869171Y-64985304D01*
X144018000Y-64985304D01*
X144018000Y-65406984D01*
G37*
G36*
X132161359Y-66684425D02*
G01*
X132161359Y-66969679D01*
X132297785Y-66969679D01*
X132434210Y-66969679D01*
X132434210Y-67106105D01*
X132434210Y-67242531D01*
X132297785Y-67242531D01*
X132161359Y-67242531D01*
X132161359Y-67378957D01*
X132161359Y-67515382D01*
X132012531Y-67515382D01*
X131863703Y-67515382D01*
X131863703Y-67378957D01*
X131863703Y-67242531D01*
X131727277Y-67242531D01*
X131590851Y-67242531D01*
X131590851Y-67527785D01*
X131590851Y-67813039D01*
X131454425Y-67813039D01*
X131318000Y-67813039D01*
X131318000Y-67527785D01*
X131318000Y-67242531D01*
X131454425Y-67242531D01*
X131590851Y-67242531D01*
X131590851Y-66820851D01*
X131590851Y-66399171D01*
X131876105Y-66399171D01*
X132161359Y-66399171D01*
X132161359Y-66684425D01*
G37*
G36*
X138635382Y-60619679D02*
G01*
X138635382Y-61041359D01*
X138498957Y-61041359D01*
X138362531Y-61041359D01*
X138362531Y-61177785D01*
X138362531Y-61314210D01*
X138498957Y-61314210D01*
X138635382Y-61314210D01*
X138635382Y-61177785D01*
X138635382Y-61041359D01*
X138784210Y-61041359D01*
X138933039Y-61041359D01*
X138933039Y-61177785D01*
X138933039Y-61314210D01*
X139069464Y-61314210D01*
X139205890Y-61314210D01*
X139205890Y-60892531D01*
X139205890Y-60470851D01*
X139776398Y-60470851D01*
X140346906Y-60470851D01*
X140346906Y-60607277D01*
X140346906Y-60743703D01*
X140483332Y-60743703D01*
X140619757Y-60743703D01*
X140619757Y-60470851D01*
X140619757Y-60198000D01*
X141041437Y-60198000D01*
X141463117Y-60198000D01*
X141463117Y-60334425D01*
X141463117Y-60470851D01*
X141599542Y-60470851D01*
X141735968Y-60470851D01*
X141735968Y-60334425D01*
X141735968Y-60198000D01*
X141884796Y-60198000D01*
X142033625Y-60198000D01*
X142033625Y-61177785D01*
X142033625Y-62157570D01*
X143025812Y-62157570D01*
X144018000Y-62157570D01*
X144018000Y-62728078D01*
X144018000Y-63298585D01*
X143869171Y-63298585D01*
X143720343Y-63298585D01*
X143720343Y-62876906D01*
X143720343Y-62455226D01*
X143583917Y-62455226D01*
X143447492Y-62455226D01*
X143447492Y-62591652D01*
X143447492Y-62728078D01*
X143298664Y-62728078D01*
X143149835Y-62728078D01*
X143149835Y-63013332D01*
X143149835Y-63298585D01*
X143298664Y-63298585D01*
X143447492Y-63298585D01*
X143447492Y-63435011D01*
X143447492Y-63571437D01*
X143732746Y-63571437D01*
X144018000Y-63571437D01*
X144018000Y-63993117D01*
X144018000Y-64414796D01*
X143869171Y-64414796D01*
X143720343Y-64414796D01*
X143720343Y-64129542D01*
X143720343Y-63844289D01*
X143583917Y-63844289D01*
X143447492Y-63844289D01*
X143447492Y-64414796D01*
X143447492Y-64985304D01*
X143298664Y-64985304D01*
X143149835Y-64985304D01*
X143149835Y-65121730D01*
X143149835Y-65258156D01*
X143013410Y-65258156D01*
X142876984Y-65258156D01*
X142876984Y-65121730D01*
X142876984Y-64985304D01*
X143013410Y-64985304D01*
X143149835Y-64985304D01*
X143149835Y-64848878D01*
X143149835Y-64712453D01*
X143013410Y-64712453D01*
X142876984Y-64712453D01*
X142876984Y-64848878D01*
X142876984Y-64985304D01*
X142740558Y-64985304D01*
X142604132Y-64985304D01*
X142604132Y-65121730D01*
X142604132Y-65258156D01*
X142455304Y-65258156D01*
X142306476Y-65258156D01*
X142306476Y-65121730D01*
X142306476Y-64985304D01*
X142170050Y-64985304D01*
X142033625Y-64985304D01*
X142033625Y-65406984D01*
X142033625Y-65828664D01*
X141884796Y-65828664D01*
X141735968Y-65828664D01*
X141735968Y-65270558D01*
X141735968Y-64712453D01*
X142021222Y-64712453D01*
X142306476Y-64712453D01*
X142306476Y-64848878D01*
X142306476Y-64985304D01*
X142455304Y-64985304D01*
X142604132Y-64985304D01*
X142604132Y-64848878D01*
X142604132Y-64700050D01*
X142604132Y-64414796D01*
X142876984Y-64414796D01*
X143013410Y-64414796D01*
X143149835Y-64414796D01*
X143149835Y-64278371D01*
X143149835Y-64141945D01*
X143013410Y-64141945D01*
X142876984Y-64141945D01*
X142876984Y-64278371D01*
X142876984Y-64414796D01*
X142604132Y-64414796D01*
X142455304Y-64414796D01*
X142306476Y-64414796D01*
X142306476Y-64278371D01*
X142306476Y-64141945D01*
X142455304Y-64141945D01*
X142604132Y-64141945D01*
X142604132Y-63856691D01*
X142604132Y-63844289D01*
X142876984Y-63844289D01*
X143013410Y-63844289D01*
X143149835Y-63844289D01*
X143149835Y-63707863D01*
X143149835Y-63571437D01*
X143013410Y-63571437D01*
X142876984Y-63571437D01*
X142876984Y-63707863D01*
X142876984Y-63844289D01*
X142604132Y-63844289D01*
X142604132Y-63707863D01*
X142604132Y-63571437D01*
X142170050Y-63571437D01*
X141735968Y-63571437D01*
X141735968Y-63707863D01*
X141735968Y-63844289D01*
X141599542Y-63844289D01*
X141463117Y-63844289D01*
X141463117Y-63993117D01*
X141463117Y-64141945D01*
X141326691Y-64141945D01*
X141190265Y-64141945D01*
X141190265Y-64278371D01*
X141190265Y-64414796D01*
X141326691Y-64414796D01*
X141463117Y-64414796D01*
X141463117Y-64278371D01*
X141463117Y-64141945D01*
X141599542Y-64141945D01*
X141735968Y-64141945D01*
X141735968Y-64427199D01*
X141735968Y-64712453D01*
X141599542Y-64712453D01*
X141463117Y-64712453D01*
X141463117Y-64848878D01*
X141463117Y-64985304D01*
X141326691Y-64985304D01*
X141190265Y-64985304D01*
X141190265Y-65121730D01*
X141190265Y-65258156D01*
X141326691Y-65258156D01*
X141463117Y-65258156D01*
X141463117Y-65679835D01*
X141463117Y-66101515D01*
X141326691Y-66101515D01*
X141190265Y-66101515D01*
X141190265Y-66535597D01*
X141190265Y-66969679D01*
X140619757Y-66969679D01*
X140049250Y-66969679D01*
X140049250Y-66820851D01*
X140049250Y-66672023D01*
X139912824Y-66672023D01*
X139776398Y-66672023D01*
X139776398Y-66386769D01*
X139776398Y-66101515D01*
X139627570Y-66101515D01*
X139478742Y-66101515D01*
X139478742Y-65828664D01*
X139776398Y-65828664D01*
X140061652Y-65828664D01*
X140346906Y-65828664D01*
X140346906Y-66250343D01*
X140346906Y-66672023D01*
X140483332Y-66672023D01*
X140619757Y-66672023D01*
X140619757Y-66535597D01*
X140619757Y-66399171D01*
X140756183Y-66399171D01*
X140892609Y-66399171D01*
X140892609Y-66250343D01*
X140892609Y-66101515D01*
X141041437Y-66101515D01*
X141190265Y-66101515D01*
X141190265Y-65828664D01*
X141190265Y-65555812D01*
X141041437Y-65555812D01*
X140892609Y-65555812D01*
X140892609Y-65828664D01*
X140892609Y-66101515D01*
X140756183Y-66101515D01*
X140619757Y-66101515D01*
X140619757Y-65828664D01*
X140619757Y-65555812D01*
X140198078Y-65555812D01*
X139776398Y-65555812D01*
X139776398Y-65692238D01*
X139776398Y-65828664D01*
X139478742Y-65828664D01*
X139478742Y-65692238D01*
X139478742Y-65679835D01*
X139478742Y-65258156D01*
X139342316Y-65258156D01*
X139205890Y-65258156D01*
X139205890Y-65543410D01*
X139205890Y-65828664D01*
X138920636Y-65828664D01*
X138635382Y-65828664D01*
X138635382Y-65965089D01*
X138635382Y-66101515D01*
X138498957Y-66101515D01*
X138362531Y-66101515D01*
X138362531Y-65679835D01*
X138362531Y-65258156D01*
X138498957Y-65258156D01*
X138635382Y-65258156D01*
X138635382Y-65121730D01*
X138635382Y-64985304D01*
X138213703Y-64985304D01*
X137792023Y-64985304D01*
X137792023Y-65121730D01*
X137792023Y-65258156D01*
X137940851Y-65258156D01*
X138089679Y-65258156D01*
X138089679Y-65406984D01*
X138089679Y-65555812D01*
X137519171Y-65555812D01*
X136948664Y-65555812D01*
X136948664Y-65406984D01*
X136948664Y-65258156D01*
X137233917Y-65258156D01*
X137519171Y-65258156D01*
X137519171Y-65121730D01*
X137519171Y-64985304D01*
X137370343Y-64985304D01*
X137221515Y-64985304D01*
X137221515Y-64848878D01*
X137221515Y-64712453D01*
X137085089Y-64712453D01*
X136948664Y-64712453D01*
X136948664Y-64848878D01*
X136948664Y-64985304D01*
X136812238Y-64985304D01*
X136675812Y-64985304D01*
X136675812Y-64848878D01*
X136675812Y-64712453D01*
X136526984Y-64712453D01*
X136378156Y-64712453D01*
X136378156Y-64848878D01*
X136378156Y-64985304D01*
X136526984Y-64985304D01*
X136675812Y-64985304D01*
X136675812Y-65270558D01*
X136675812Y-65555812D01*
X136812238Y-65555812D01*
X136948664Y-65555812D01*
X136948664Y-65692238D01*
X136948664Y-65828664D01*
X136812238Y-65828664D01*
X136675812Y-65828664D01*
X136675812Y-65965089D01*
X136675812Y-66101515D01*
X136526984Y-66101515D01*
X136378156Y-66101515D01*
X136378156Y-65965089D01*
X136378156Y-65828664D01*
X135956476Y-65828664D01*
X135534796Y-65828664D01*
X135534796Y-65692238D01*
X135534796Y-65555812D01*
X135398371Y-65555812D01*
X135261945Y-65555812D01*
X135261945Y-65406984D01*
X135261945Y-65258156D01*
X135547199Y-65258156D01*
X135832453Y-65258156D01*
X135832453Y-65406984D01*
X135832453Y-65555812D01*
X135968878Y-65555812D01*
X136105304Y-65555812D01*
X136105304Y-65270558D01*
X136105304Y-64985304D01*
X135820050Y-64985304D01*
X135534796Y-64985304D01*
X135534796Y-64848878D01*
X135534796Y-64712453D01*
X135398371Y-64712453D01*
X135261945Y-64712453D01*
X135261945Y-64848878D01*
X135261945Y-64985304D01*
X135113117Y-64985304D01*
X134964289Y-64985304D01*
X134964289Y-65270558D01*
X134964289Y-65555812D01*
X134827863Y-65555812D01*
X134691437Y-65555812D01*
X134691437Y-65692238D01*
X134691437Y-65828664D01*
X134555011Y-65828664D01*
X134418585Y-65828664D01*
X134418585Y-65543410D01*
X134418585Y-65258156D01*
X134555011Y-65258156D01*
X134691437Y-65258156D01*
X134691437Y-65121730D01*
X134691437Y-64985304D01*
X134555011Y-64985304D01*
X134418585Y-64985304D01*
X134418585Y-64848878D01*
X134418585Y-64712453D01*
X134555011Y-64712453D01*
X134691437Y-64712453D01*
X134691437Y-64563625D01*
X134691437Y-64414796D01*
X134827863Y-64414796D01*
X134964289Y-64414796D01*
X134964289Y-64278371D01*
X134964289Y-64141945D01*
X134691437Y-64141945D01*
X134418585Y-64141945D01*
X134418585Y-64278371D01*
X134418585Y-64414796D01*
X134269757Y-64414796D01*
X134120929Y-64414796D01*
X134120929Y-64700050D01*
X134120929Y-64985304D01*
X133984503Y-64985304D01*
X133848078Y-64985304D01*
X133848078Y-64848878D01*
X133848078Y-64712453D01*
X133711652Y-64712453D01*
X133575226Y-64712453D01*
X133575226Y-64848878D01*
X133575226Y-64985304D01*
X133426398Y-64985304D01*
X133277570Y-64985304D01*
X133277570Y-64848878D01*
X133277570Y-64712453D01*
X133141144Y-64712453D01*
X133004718Y-64712453D01*
X133004718Y-64848878D01*
X133004718Y-64985304D01*
X132855890Y-64985304D01*
X132707062Y-64985304D01*
X132707062Y-64700050D01*
X132707062Y-64414796D01*
X132992316Y-64414796D01*
X133277570Y-64414796D01*
X133277570Y-64278371D01*
X133277570Y-64141945D01*
X133699250Y-64141945D01*
X134120929Y-64141945D01*
X134120929Y-63993117D01*
X134120929Y-63844289D01*
X134269757Y-63844289D01*
X134418585Y-63844289D01*
X134418585Y-63707863D01*
X134418585Y-63571437D01*
X134555011Y-63571437D01*
X134691437Y-63571437D01*
X134691437Y-63707863D01*
X134691437Y-63844289D01*
X135113117Y-63844289D01*
X135534796Y-63844289D01*
X135534796Y-63993117D01*
X135534796Y-64141945D01*
X135398371Y-64141945D01*
X135261945Y-64141945D01*
X135261945Y-64278371D01*
X135261945Y-64414796D01*
X136105304Y-64414796D01*
X136948664Y-64414796D01*
X136948664Y-64278371D01*
X136948664Y-64141945D01*
X137233917Y-64141945D01*
X137519171Y-64141945D01*
X137519171Y-63993117D01*
X137519171Y-63844289D01*
X137655597Y-63844289D01*
X137792023Y-63844289D01*
X137792023Y-64129542D01*
X137792023Y-64414796D01*
X137655597Y-64414796D01*
X137519171Y-64414796D01*
X137519171Y-64563625D01*
X137519171Y-64712453D01*
X137804425Y-64712453D01*
X138089679Y-64712453D01*
X138089679Y-64563625D01*
X138089679Y-64414796D01*
X138226105Y-64414796D01*
X138362531Y-64414796D01*
X138362531Y-64563625D01*
X138362531Y-64712453D01*
X138647785Y-64712453D01*
X138933039Y-64712453D01*
X138933039Y-64848878D01*
X138933039Y-64985304D01*
X139354718Y-64985304D01*
X139776398Y-64985304D01*
X139776398Y-65121730D01*
X139776398Y-65258156D01*
X140061652Y-65258156D01*
X140346906Y-65258156D01*
X140346906Y-65121730D01*
X140346906Y-64985304D01*
X140483332Y-64985304D01*
X140619757Y-64985304D01*
X140619757Y-65121730D01*
X140619757Y-65258156D01*
X140756183Y-65258156D01*
X140892609Y-65258156D01*
X140892609Y-65121730D01*
X140892609Y-64985304D01*
X141041437Y-64985304D01*
X141190265Y-64985304D01*
X141190265Y-64848878D01*
X141190265Y-64712453D01*
X140905011Y-64712453D01*
X140619757Y-64712453D01*
X140619757Y-64427199D01*
X140619757Y-64141945D01*
X140756183Y-64141945D01*
X140892609Y-64141945D01*
X140892609Y-63571437D01*
X141190265Y-63571437D01*
X141463117Y-63571437D01*
X141735968Y-63571437D01*
X141735968Y-63435011D01*
X141735968Y-63298585D01*
X141463117Y-63298585D01*
X141190265Y-63298585D01*
X141190265Y-63435011D01*
X141190265Y-63571437D01*
X140892609Y-63571437D01*
X140892609Y-63435011D01*
X140892609Y-63000929D01*
X140756183Y-63000929D01*
X140619757Y-63000929D01*
X140619757Y-63149757D01*
X140619757Y-63298585D01*
X140483332Y-63298585D01*
X140346906Y-63298585D01*
X140346906Y-63720265D01*
X140346906Y-64141945D01*
X140198078Y-64141945D01*
X140049250Y-64141945D01*
X140049250Y-63993117D01*
X140049250Y-63844289D01*
X139912824Y-63844289D01*
X139776398Y-63844289D01*
X139776398Y-63707863D01*
X139776398Y-63571437D01*
X139491144Y-63571437D01*
X139205890Y-63571437D01*
X139205890Y-63435011D01*
X139205890Y-63298585D01*
X139342316Y-63298585D01*
X139478742Y-63298585D01*
X139478742Y-63149757D01*
X139478742Y-63000929D01*
X139627570Y-63000929D01*
X139776398Y-63000929D01*
X139776398Y-63149757D01*
X139776398Y-63298585D01*
X140061652Y-63298585D01*
X140346906Y-63298585D01*
X140346906Y-63149757D01*
X140346906Y-63000929D01*
X140483332Y-63000929D01*
X140619757Y-63000929D01*
X140619757Y-62864503D01*
X140619757Y-62728078D01*
X140905011Y-62728078D01*
X141190265Y-62728078D01*
X141190265Y-62864503D01*
X141190265Y-63000929D01*
X141611945Y-63000929D01*
X142033625Y-63000929D01*
X142033625Y-63149757D01*
X142033625Y-63298585D01*
X142455304Y-63298585D01*
X142876984Y-63298585D01*
X142876984Y-63013332D01*
X142876984Y-62728078D01*
X142740558Y-62728078D01*
X142604132Y-62728078D01*
X142604132Y-62591652D01*
X142604132Y-62455226D01*
X142318878Y-62455226D01*
X142033625Y-62455226D01*
X142033625Y-62591652D01*
X142033625Y-62728078D01*
X141611945Y-62728078D01*
X141190265Y-62728078D01*
X141190265Y-62591652D01*
X141190265Y-62455226D01*
X141463117Y-62455226D01*
X141599542Y-62455226D01*
X141735968Y-62455226D01*
X141735968Y-62169972D01*
X141735968Y-61884718D01*
X141599542Y-61884718D01*
X141463117Y-61884718D01*
X141463117Y-62169972D01*
X141463117Y-62455226D01*
X141190265Y-62455226D01*
X140905011Y-62455226D01*
X140619757Y-62455226D01*
X140619757Y-62169972D01*
X140619757Y-62157570D01*
X140892609Y-62157570D01*
X141041437Y-62157570D01*
X141190265Y-62157570D01*
X141190265Y-62021144D01*
X141190265Y-61884718D01*
X141041437Y-61884718D01*
X140892609Y-61884718D01*
X140892609Y-62021144D01*
X140892609Y-62157570D01*
X140619757Y-62157570D01*
X140619757Y-62021144D01*
X140619757Y-61884718D01*
X140483332Y-61884718D01*
X140346906Y-61884718D01*
X140346906Y-62442824D01*
X140346906Y-63000929D01*
X140198078Y-63000929D01*
X140049250Y-63000929D01*
X140049250Y-62728078D01*
X140049250Y-62455226D01*
X139491144Y-62455226D01*
X138933039Y-62455226D01*
X138933039Y-62442824D01*
X138933039Y-62169972D01*
X138933039Y-61884718D01*
X139069464Y-61884718D01*
X139205890Y-61884718D01*
X139205890Y-62021144D01*
X139205890Y-62157570D01*
X139342316Y-62157570D01*
X139478742Y-62157570D01*
X139478742Y-61872316D01*
X139478742Y-61587062D01*
X139627570Y-61587062D01*
X139776398Y-61587062D01*
X139776398Y-61872316D01*
X139776398Y-62157570D01*
X139912824Y-62157570D01*
X140049250Y-62157570D01*
X140049250Y-61872316D01*
X140049250Y-61587062D01*
X140198078Y-61587062D01*
X140346906Y-61587062D01*
X140346906Y-61450636D01*
X140346906Y-61314210D01*
X140483332Y-61314210D01*
X140619757Y-61314210D01*
X140619757Y-61450636D01*
X140619757Y-61587062D01*
X141177863Y-61587062D01*
X141735968Y-61587062D01*
X141735968Y-61314210D01*
X141735968Y-61041359D01*
X141599542Y-61041359D01*
X141463117Y-61041359D01*
X141463117Y-60756105D01*
X141463117Y-60470851D01*
X141326691Y-60470851D01*
X141190265Y-60470851D01*
X141190265Y-60892531D01*
X141190265Y-61314210D01*
X140905011Y-61314210D01*
X140619757Y-61314210D01*
X140619757Y-61177785D01*
X140619757Y-61041359D01*
X140756183Y-61041359D01*
X140892609Y-61041359D01*
X140892609Y-60892531D01*
X140892609Y-60743703D01*
X140756183Y-60743703D01*
X140619757Y-60743703D01*
X140619757Y-60892531D01*
X140619757Y-61041359D01*
X140334503Y-61041359D01*
X140049250Y-61041359D01*
X140049250Y-60892531D01*
X140049250Y-60743703D01*
X139912824Y-60743703D01*
X139776398Y-60743703D01*
X139776398Y-60892531D01*
X139776398Y-61041359D01*
X139912824Y-61041359D01*
X140049250Y-61041359D01*
X140049250Y-61177785D01*
X140049250Y-61314210D01*
X139763996Y-61314210D01*
X139478742Y-61314210D01*
X139478742Y-61450636D01*
X139478742Y-61587062D01*
X138920636Y-61587062D01*
X138362531Y-61587062D01*
X138362531Y-61450636D01*
X138362531Y-61314210D01*
X138226105Y-61314210D01*
X138089679Y-61314210D01*
X138089679Y-61177785D01*
X138089679Y-61041359D01*
X138226105Y-61041359D01*
X138362531Y-61041359D01*
X138362531Y-60756105D01*
X138362531Y-60470851D01*
X138226105Y-60470851D01*
X138089679Y-60470851D01*
X138089679Y-60756105D01*
X138089679Y-61041359D01*
X137940851Y-61041359D01*
X137792023Y-61041359D01*
X137792023Y-60756105D01*
X137792023Y-60619679D01*
X137792023Y-60198000D01*
X138213703Y-60198000D01*
X138635382Y-60198000D01*
X138635382Y-60619679D01*
G37*
G36*
X131863703Y-65965089D02*
G01*
X131863703Y-66101515D01*
X131727277Y-66101515D01*
X131590851Y-66101515D01*
X131590851Y-66250343D01*
X131590851Y-66399171D01*
X131454425Y-66399171D01*
X131318000Y-66399171D01*
X131318000Y-66250343D01*
X131318000Y-66101515D01*
X131454425Y-66101515D01*
X131590851Y-66101515D01*
X131590851Y-65965089D01*
X131590851Y-65828664D01*
X131727277Y-65828664D01*
X131863703Y-65828664D01*
X131863703Y-65965089D01*
G37*
G36*
X132161359Y-64848878D02*
G01*
X132161359Y-64985304D01*
X132297785Y-64985304D01*
X132434210Y-64985304D01*
X132434210Y-65121730D01*
X132434210Y-65258156D01*
X132148957Y-65258156D01*
X131863703Y-65258156D01*
X131863703Y-65406984D01*
X131863703Y-65555812D01*
X131727277Y-65555812D01*
X131590851Y-65555812D01*
X131590851Y-65692238D01*
X131590851Y-65828664D01*
X131454425Y-65828664D01*
X131318000Y-65828664D01*
X131318000Y-65692238D01*
X131318000Y-65555812D01*
X131454425Y-65555812D01*
X131590851Y-65555812D01*
X131590851Y-65270558D01*
X131590851Y-64985304D01*
X131727277Y-64985304D01*
X131863703Y-64985304D01*
X131863703Y-64848878D01*
X131863703Y-64712453D01*
X132012531Y-64712453D01*
X132161359Y-64712453D01*
X132161359Y-64848878D01*
G37*
G36*
X132434210Y-63707863D02*
G01*
X132434210Y-63844289D01*
X132297785Y-63844289D01*
X132161359Y-63844289D01*
X132161359Y-64129542D01*
X132161359Y-64414796D01*
X132012531Y-64414796D01*
X131863703Y-64414796D01*
X131863703Y-64563625D01*
X131863703Y-64712453D01*
X131727277Y-64712453D01*
X131590851Y-64712453D01*
X131590851Y-64427199D01*
X131590851Y-64141945D01*
X131454425Y-64141945D01*
X131318000Y-64141945D01*
X131318000Y-63993117D01*
X131318000Y-63844289D01*
X131739679Y-63844289D01*
X132161359Y-63844289D01*
X132161359Y-63707863D01*
X132161359Y-63571437D01*
X132297785Y-63571437D01*
X132434210Y-63571437D01*
X132434210Y-63707863D01*
G37*
G36*
X136105304Y-60334425D02*
G01*
X136105304Y-60470851D01*
X136241730Y-60470851D01*
X136378156Y-60470851D01*
X136378156Y-60334425D01*
X136378156Y-60198000D01*
X136526984Y-60198000D01*
X136675812Y-60198000D01*
X136675812Y-60334425D01*
X136675812Y-60470851D01*
X136526984Y-60470851D01*
X136378156Y-60470851D01*
X136378156Y-60607277D01*
X136378156Y-60743703D01*
X136663410Y-60743703D01*
X136948664Y-60743703D01*
X136948664Y-60470851D01*
X136948664Y-60198000D01*
X137233917Y-60198000D01*
X137519171Y-60198000D01*
X137519171Y-60334425D01*
X137519171Y-60470851D01*
X137370343Y-60470851D01*
X137221515Y-60470851D01*
X137221515Y-60607277D01*
X137221515Y-60743703D01*
X137085089Y-60743703D01*
X136948664Y-60743703D01*
X136948664Y-61165382D01*
X136948664Y-61587062D01*
X136812238Y-61587062D01*
X136675812Y-61587062D01*
X136675812Y-61735890D01*
X136675812Y-61884718D01*
X136526984Y-61884718D01*
X136378156Y-61884718D01*
X136378156Y-62021144D01*
X136378156Y-62157570D01*
X136526984Y-62157570D01*
X136675812Y-62157570D01*
X136675812Y-62021144D01*
X136675812Y-61884718D01*
X136812238Y-61884718D01*
X136948664Y-61884718D01*
X136948664Y-62021144D01*
X136948664Y-62157570D01*
X136812238Y-62157570D01*
X136675812Y-62157570D01*
X136675812Y-62306398D01*
X136675812Y-62455226D01*
X136812238Y-62455226D01*
X136948664Y-62455226D01*
X136948664Y-62591652D01*
X136948664Y-62728078D01*
X137085089Y-62728078D01*
X137221515Y-62728078D01*
X137221515Y-62864503D01*
X137221515Y-63000929D01*
X137370343Y-63000929D01*
X137519171Y-63000929D01*
X137519171Y-62864503D01*
X137519171Y-62728078D01*
X137940851Y-62728078D01*
X138362531Y-62728078D01*
X138362531Y-62306398D01*
X138362531Y-61884718D01*
X138498957Y-61884718D01*
X138635382Y-61884718D01*
X138635382Y-62442824D01*
X138635382Y-63000929D01*
X138920636Y-63000929D01*
X139205890Y-63000929D01*
X139205890Y-62864503D01*
X139205890Y-62728078D01*
X139342316Y-62728078D01*
X139478742Y-62728078D01*
X139478742Y-62864503D01*
X139478742Y-63000929D01*
X139342316Y-63000929D01*
X139205890Y-63000929D01*
X139205890Y-63149757D01*
X139205890Y-63298585D01*
X138647785Y-63298585D01*
X138089679Y-63298585D01*
X138089679Y-63149757D01*
X138089679Y-63000929D01*
X137940851Y-63000929D01*
X137792023Y-63000929D01*
X137792023Y-63149757D01*
X137792023Y-63298585D01*
X137655597Y-63298585D01*
X137519171Y-63298585D01*
X137519171Y-63435011D01*
X137519171Y-63571437D01*
X137370343Y-63571437D01*
X137221515Y-63571437D01*
X137221515Y-63435011D01*
X137221515Y-63298585D01*
X136948664Y-63298585D01*
X136675812Y-63298585D01*
X136675812Y-63013332D01*
X136675812Y-62728078D01*
X136526984Y-62728078D01*
X136378156Y-62728078D01*
X136378156Y-62591652D01*
X136378156Y-62455226D01*
X136241730Y-62455226D01*
X136105304Y-62455226D01*
X136105304Y-62169972D01*
X136105304Y-61884718D01*
X135968878Y-61884718D01*
X135832453Y-61884718D01*
X135832453Y-62021144D01*
X135832453Y-62157570D01*
X135683625Y-62157570D01*
X135534796Y-62157570D01*
X135534796Y-62021144D01*
X135534796Y-61884718D01*
X135398371Y-61884718D01*
X135261945Y-61884718D01*
X135261945Y-62442824D01*
X135261945Y-63000929D01*
X135398371Y-63000929D01*
X135534796Y-63000929D01*
X135534796Y-63149757D01*
X135534796Y-63298585D01*
X135249542Y-63298585D01*
X134964289Y-63298585D01*
X134964289Y-63149757D01*
X134964289Y-63000929D01*
X134827863Y-63000929D01*
X134691437Y-63000929D01*
X134691437Y-63149757D01*
X134691437Y-63298585D01*
X134555011Y-63298585D01*
X134418585Y-63298585D01*
X134418585Y-63435011D01*
X134418585Y-63571437D01*
X134269757Y-63571437D01*
X134120929Y-63571437D01*
X134120929Y-63707863D01*
X134120929Y-63844289D01*
X133984503Y-63844289D01*
X133848078Y-63844289D01*
X133848078Y-63571437D01*
X133848078Y-63298585D01*
X133711652Y-63298585D01*
X133575226Y-63298585D01*
X133575226Y-63000929D01*
X133848078Y-63000929D01*
X134133332Y-63000929D01*
X134418585Y-63000929D01*
X134418585Y-62864503D01*
X134418585Y-62728078D01*
X134691437Y-62728078D01*
X134827863Y-62728078D01*
X134964289Y-62728078D01*
X134964289Y-62306398D01*
X134964289Y-61884718D01*
X134827863Y-61884718D01*
X134691437Y-61884718D01*
X134691437Y-62306398D01*
X134691437Y-62728078D01*
X134418585Y-62728078D01*
X134269757Y-62728078D01*
X134120929Y-62728078D01*
X134120929Y-62591652D01*
X134120929Y-62455226D01*
X133984503Y-62455226D01*
X133848078Y-62455226D01*
X133848078Y-62728078D01*
X133848078Y-63000929D01*
X133575226Y-63000929D01*
X133575226Y-62876906D01*
X133575226Y-62728078D01*
X133575226Y-62455226D01*
X133711652Y-62455226D01*
X133848078Y-62455226D01*
X133848078Y-62306398D01*
X133848078Y-62021144D01*
X133848078Y-61587062D01*
X133984503Y-61587062D01*
X134120929Y-61587062D01*
X134120929Y-61872316D01*
X134120929Y-62157570D01*
X134269757Y-62157570D01*
X134418585Y-62157570D01*
X134418585Y-61599464D01*
X134418585Y-61041359D01*
X134555011Y-61041359D01*
X134691437Y-61041359D01*
X134691437Y-61314210D01*
X134691437Y-61587062D01*
X135398371Y-61587062D01*
X136105304Y-61587062D01*
X136378156Y-61587062D01*
X136526984Y-61587062D01*
X136675812Y-61587062D01*
X136675812Y-61450636D01*
X136675812Y-61314210D01*
X136526984Y-61314210D01*
X136378156Y-61314210D01*
X136378156Y-61450636D01*
X136378156Y-61587062D01*
X136105304Y-61587062D01*
X136105304Y-61450636D01*
X136105304Y-61314210D01*
X135968878Y-61314210D01*
X135832453Y-61314210D01*
X135832453Y-61177785D01*
X135832453Y-61041359D01*
X136105304Y-61041359D01*
X136241730Y-61041359D01*
X136378156Y-61041359D01*
X136378156Y-60892531D01*
X136378156Y-60743703D01*
X136241730Y-60743703D01*
X136105304Y-60743703D01*
X136105304Y-60892531D01*
X136105304Y-61041359D01*
X135832453Y-61041359D01*
X135683625Y-61041359D01*
X135534796Y-61041359D01*
X135534796Y-61177785D01*
X135534796Y-61314210D01*
X135398371Y-61314210D01*
X135261945Y-61314210D01*
X135261945Y-61177785D01*
X135261945Y-61041359D01*
X135398371Y-61041359D01*
X135534796Y-61041359D01*
X135534796Y-60892531D01*
X135534796Y-60743703D01*
X135398371Y-60743703D01*
X135261945Y-60743703D01*
X135261945Y-60892531D01*
X135261945Y-61041359D01*
X135113117Y-61041359D01*
X134964289Y-61041359D01*
X134964289Y-60892531D01*
X134964289Y-60743703D01*
X135113117Y-60743703D01*
X135261945Y-60743703D01*
X135261945Y-60607277D01*
X135261945Y-60470851D01*
X135398371Y-60470851D01*
X135534796Y-60470851D01*
X135534796Y-60607277D01*
X135534796Y-60743703D01*
X135683625Y-60743703D01*
X135832453Y-60743703D01*
X135832453Y-60470851D01*
X135832453Y-60198000D01*
X135968878Y-60198000D01*
X136105304Y-60198000D01*
X136105304Y-60334425D01*
G37*
G36*
X133848078Y-60334425D02*
G01*
X133848078Y-60470851D01*
X133711652Y-60470851D01*
X133575226Y-60470851D01*
X133575226Y-60607277D01*
X133575226Y-60743703D01*
X133711652Y-60743703D01*
X133848078Y-60743703D01*
X133848078Y-60607277D01*
X133848078Y-60470851D01*
X133984503Y-60470851D01*
X134120929Y-60470851D01*
X134120929Y-60892531D01*
X134120929Y-61314210D01*
X133984503Y-61314210D01*
X133848078Y-61314210D01*
X133848078Y-61450636D01*
X133848078Y-61587062D01*
X133711652Y-61587062D01*
X133575226Y-61587062D01*
X133575226Y-62021144D01*
X133575226Y-62455226D01*
X133004718Y-62455226D01*
X132434210Y-62455226D01*
X132434210Y-62591652D01*
X132434210Y-62728078D01*
X132570636Y-62728078D01*
X132707062Y-62728078D01*
X132707062Y-62864503D01*
X132707062Y-63000929D01*
X132855890Y-63000929D01*
X133004718Y-63000929D01*
X133004718Y-63149757D01*
X133004718Y-63298585D01*
X132855890Y-63298585D01*
X132707062Y-63298585D01*
X132707062Y-63435011D01*
X132707062Y-63571437D01*
X132570636Y-63571437D01*
X132434210Y-63571437D01*
X132434210Y-63435011D01*
X132434210Y-63298585D01*
X132297785Y-63298585D01*
X132161359Y-63298585D01*
X132161359Y-63435011D01*
X132161359Y-63571437D01*
X132012531Y-63571437D01*
X131863703Y-63571437D01*
X131863703Y-63435011D01*
X131863703Y-63298585D01*
X132012531Y-63298585D01*
X132161359Y-63298585D01*
X132161359Y-63149757D01*
X132161359Y-63000929D01*
X132012531Y-63000929D01*
X131863703Y-63000929D01*
X131863703Y-63149757D01*
X131863703Y-63298585D01*
X131727277Y-63298585D01*
X131590851Y-63298585D01*
X131590851Y-63149757D01*
X131590851Y-63013332D01*
X131590851Y-62728078D01*
X131454425Y-62728078D01*
X131318000Y-62728078D01*
X131318000Y-62442824D01*
X131318000Y-62157570D01*
X132297785Y-62157570D01*
X133277570Y-62157570D01*
X133277570Y-61177785D01*
X133277570Y-60198000D01*
X133562824Y-60198000D01*
X133848078Y-60198000D01*
X133848078Y-60334425D01*
G37*
G36*
X133004718Y-71893410D02*
G01*
X133004718Y-72600343D01*
X132297785Y-72600343D01*
X131590851Y-72600343D01*
X131590851Y-72327492D01*
X131863703Y-72327492D01*
X132285382Y-72327492D01*
X132707062Y-72327492D01*
X132707062Y-71905812D01*
X132707062Y-71484132D01*
X132285382Y-71484132D01*
X131863703Y-71484132D01*
X131863703Y-71905812D01*
X131863703Y-72327492D01*
X131590851Y-72327492D01*
X131590851Y-71905812D01*
X131590851Y-71893410D01*
X131590851Y-71186476D01*
X132297785Y-71186476D01*
X133004718Y-71186476D01*
X133004718Y-71893410D01*
G37*
G36*
X142604132Y-66535597D02*
G01*
X142604132Y-66969679D01*
X142170050Y-66969679D01*
X141735968Y-66969679D01*
X141735968Y-66672023D01*
X142033625Y-66672023D01*
X142170050Y-66672023D01*
X142306476Y-66672023D01*
X142306476Y-66535597D01*
X142306476Y-66399171D01*
X142170050Y-66399171D01*
X142033625Y-66399171D01*
X142033625Y-66535597D01*
X142033625Y-66672023D01*
X141735968Y-66672023D01*
X141735968Y-66535597D01*
X141735968Y-66101515D01*
X142170050Y-66101515D01*
X142604132Y-66101515D01*
X142604132Y-66535597D01*
G37*
G36*
X138089679Y-62021144D02*
G01*
X138089679Y-62455226D01*
X137655597Y-62455226D01*
X137221515Y-62455226D01*
X137221515Y-62157570D01*
X137519171Y-62157570D01*
X137655597Y-62157570D01*
X137792023Y-62157570D01*
X137792023Y-62021144D01*
X137792023Y-61884718D01*
X137655597Y-61884718D01*
X137519171Y-61884718D01*
X137519171Y-62021144D01*
X137519171Y-62157570D01*
X137221515Y-62157570D01*
X137221515Y-62021144D01*
X137221515Y-61587062D01*
X137655597Y-61587062D01*
X138089679Y-61587062D01*
X138089679Y-62021144D01*
G37*
G36*
X133004718Y-61177785D02*
G01*
X133004718Y-61884718D01*
X132297785Y-61884718D01*
X131590851Y-61884718D01*
X131590851Y-61587062D01*
X131863703Y-61587062D01*
X132285382Y-61587062D01*
X132707062Y-61587062D01*
X132707062Y-61165382D01*
X132707062Y-60743703D01*
X132285382Y-60743703D01*
X131863703Y-60743703D01*
X131863703Y-61165382D01*
X131863703Y-61587062D01*
X131590851Y-61587062D01*
X131590851Y-61177785D01*
X131590851Y-61165382D01*
X131590851Y-60470851D01*
X132297785Y-60470851D01*
X133004718Y-60470851D01*
X133004718Y-61177785D01*
G37*
G36*
X143720343Y-61177785D02*
G01*
X143720343Y-61884718D01*
X143013410Y-61884718D01*
X142306476Y-61884718D01*
X142306476Y-61587062D01*
X142604132Y-61587062D01*
X143025812Y-61587062D01*
X143447492Y-61587062D01*
X143447492Y-61165382D01*
X143447492Y-60743703D01*
X143025812Y-60743703D01*
X142604132Y-60743703D01*
X142604132Y-61165382D01*
X142604132Y-61587062D01*
X142306476Y-61587062D01*
X142306476Y-61177785D01*
X142306476Y-61165382D01*
X142306476Y-60470851D01*
X143013410Y-60470851D01*
X143720343Y-60470851D01*
X143720343Y-61177785D01*
G37*
G36*
X137519171Y-61177785D02*
G01*
X137519171Y-61314210D01*
X137370343Y-61314210D01*
X137221515Y-61314210D01*
X137221515Y-61177785D01*
X137221515Y-61041359D01*
X137370343Y-61041359D01*
X137519171Y-61041359D01*
X137519171Y-61177785D01*
G37*
G36*
X134964289Y-60334425D02*
G01*
X134964289Y-60470851D01*
X134691437Y-60470851D01*
X134418585Y-60470851D01*
X134418585Y-60334425D01*
X134418585Y-60198000D01*
X134691437Y-60198000D01*
X134964289Y-60198000D01*
X134964289Y-60334425D01*
G37*
G36*
X142604132Y-71893410D02*
G01*
X142604132Y-72029835D01*
X142455304Y-72029835D01*
X142306476Y-72029835D01*
X142306476Y-71893410D01*
X142306476Y-71756984D01*
X142455304Y-71756984D01*
X142604132Y-71756984D01*
X142604132Y-71893410D01*
G37*
G36*
X135534796Y-66113917D02*
G01*
X135534796Y-66399171D01*
X135820050Y-66399171D01*
X136105304Y-66399171D01*
X136105304Y-66535597D01*
X136105304Y-66672023D01*
X136241730Y-66672023D01*
X136378156Y-66672023D01*
X136378156Y-66535597D01*
X136378156Y-66399171D01*
X136526984Y-66399171D01*
X136675812Y-66399171D01*
X136675812Y-66250343D01*
X136675812Y-66101515D01*
X136812238Y-66101515D01*
X136948664Y-66101515D01*
X136948664Y-66386769D01*
X136948664Y-66672023D01*
X136812238Y-66672023D01*
X136675812Y-66672023D01*
X136675812Y-66820851D01*
X136675812Y-66969679D01*
X136812238Y-66969679D01*
X136948664Y-66969679D01*
X136948664Y-67106105D01*
X136948664Y-67242531D01*
X136663410Y-67242531D01*
X136378156Y-67242531D01*
X136378156Y-67378957D01*
X136378156Y-67515382D01*
X136241730Y-67515382D01*
X136105304Y-67515382D01*
X136105304Y-67664210D01*
X136105304Y-67813039D01*
X136241730Y-67813039D01*
X136378156Y-67813039D01*
X136378156Y-67664210D01*
X136378156Y-67515382D01*
X136526984Y-67515382D01*
X136675812Y-67515382D01*
X136675812Y-67664210D01*
X136675812Y-67813039D01*
X136948664Y-67813039D01*
X137221515Y-67813039D01*
X137221515Y-67664210D01*
X137221515Y-67515382D01*
X137085089Y-67515382D01*
X136948664Y-67515382D01*
X136948664Y-67378957D01*
X136948664Y-67242531D01*
X137233917Y-67242531D01*
X137519171Y-67242531D01*
X137519171Y-67527785D01*
X137519171Y-67813039D01*
X137370343Y-67813039D01*
X137221515Y-67813039D01*
X137221515Y-67949464D01*
X137221515Y-68085890D01*
X137085089Y-68085890D01*
X136948664Y-68085890D01*
X136948664Y-68222316D01*
X136948664Y-68358742D01*
X136663410Y-68358742D01*
X136378156Y-68358742D01*
X136378156Y-68222316D01*
X136378156Y-68085890D01*
X136241730Y-68085890D01*
X136105304Y-68085890D01*
X136105304Y-68222316D01*
X136105304Y-68358742D01*
X136241730Y-68358742D01*
X136378156Y-68358742D01*
X136378156Y-68507570D01*
X136378156Y-68656398D01*
X136663410Y-68656398D01*
X136948664Y-68656398D01*
X136948664Y-68507570D01*
X136948664Y-68358742D01*
X137233917Y-68358742D01*
X137519171Y-68358742D01*
X137519171Y-68085890D01*
X137519171Y-67813039D01*
X137655597Y-67813039D01*
X137792023Y-67813039D01*
X137792023Y-67949464D01*
X137792023Y-68085890D01*
X138077277Y-68085890D01*
X138362531Y-68085890D01*
X138362531Y-68222316D01*
X138362531Y-68358742D01*
X138498957Y-68358742D01*
X138635382Y-68358742D01*
X138635382Y-68222316D01*
X138635382Y-68085890D01*
X138784210Y-68085890D01*
X138933039Y-68085890D01*
X138933039Y-67800636D01*
X138933039Y-67515382D01*
X138784210Y-67515382D01*
X138635382Y-67515382D01*
X138635382Y-67664210D01*
X138635382Y-67813039D01*
X138213703Y-67813039D01*
X137792023Y-67813039D01*
X137792023Y-67527785D01*
X137792023Y-67242531D01*
X137940851Y-67242531D01*
X138089679Y-67242531D01*
X138089679Y-67378957D01*
X138089679Y-67515382D01*
X138226105Y-67515382D01*
X138362531Y-67515382D01*
X138362531Y-67378957D01*
X138362531Y-67242531D01*
X138498957Y-67242531D01*
X138635382Y-67242531D01*
X138635382Y-67106105D01*
X138635382Y-66969679D01*
X138784210Y-66969679D01*
X138933039Y-66969679D01*
X138933039Y-67242531D01*
X138933039Y-67515382D01*
X139069464Y-67515382D01*
X139205890Y-67515382D01*
X139205890Y-67378957D01*
X139205890Y-67242531D01*
X139342316Y-67242531D01*
X139478742Y-67242531D01*
X139478742Y-67378957D01*
X139478742Y-67515382D01*
X139627570Y-67515382D01*
X139776398Y-67515382D01*
X139776398Y-67242531D01*
X139776398Y-66969679D01*
X139912824Y-66969679D01*
X140049250Y-66969679D01*
X140049250Y-67106105D01*
X140049250Y-67242531D01*
X140334503Y-67242531D01*
X140619757Y-67242531D01*
X140619757Y-67378957D01*
X140619757Y-67515382D01*
X140483332Y-67515382D01*
X140346906Y-67515382D01*
X140346906Y-67937062D01*
X140346906Y-68358742D01*
X140198078Y-68358742D01*
X140049250Y-68358742D01*
X140049250Y-68507570D01*
X140049250Y-68656398D01*
X140198078Y-68656398D01*
X140346906Y-68656398D01*
X140346906Y-68507570D01*
X140346906Y-68358742D01*
X140483332Y-68358742D01*
X140619757Y-68358742D01*
X140619757Y-68643996D01*
X140619757Y-68929250D01*
X140756183Y-68929250D01*
X140892609Y-68929250D01*
X140892609Y-68643996D01*
X140892609Y-68358742D01*
X141041437Y-68358742D01*
X141190265Y-68358742D01*
X141190265Y-68643996D01*
X141190265Y-68929250D01*
X141326691Y-68929250D01*
X141463117Y-68929250D01*
X141463117Y-68792824D01*
X141463117Y-68656398D01*
X141599542Y-68656398D01*
X141735968Y-68656398D01*
X141735968Y-68507570D01*
X141735968Y-68358742D01*
X142021222Y-68358742D01*
X142306476Y-68358742D01*
X142306476Y-68643996D01*
X142306476Y-68929250D01*
X142170050Y-68929250D01*
X142033625Y-68929250D01*
X142033625Y-69078078D01*
X142033625Y-69226906D01*
X142170050Y-69226906D01*
X142306476Y-69226906D01*
X142306476Y-69078078D01*
X142306476Y-68929250D01*
X142455304Y-68929250D01*
X142604132Y-68929250D01*
X142604132Y-69078078D01*
X142604132Y-69226906D01*
X142455304Y-69226906D01*
X142306476Y-69226906D01*
X142306476Y-69363332D01*
X142306476Y-69499757D01*
X142170050Y-69499757D01*
X142033625Y-69499757D01*
X142033625Y-69636183D01*
X142033625Y-69772609D01*
X142318878Y-69772609D01*
X142604132Y-69772609D01*
X142604132Y-69636183D01*
X142604132Y-69499757D01*
X142740558Y-69499757D01*
X142876984Y-69499757D01*
X142876984Y-69636183D01*
X142876984Y-69772609D01*
X142740558Y-69772609D01*
X142604132Y-69772609D01*
X142604132Y-70057863D01*
X142604132Y-70343117D01*
X142455304Y-70343117D01*
X142306476Y-70343117D01*
X142306476Y-70206691D01*
X142306476Y-70070265D01*
X142170050Y-70070265D01*
X142033625Y-70070265D01*
X142033625Y-70206691D01*
X142033625Y-70343117D01*
X141884796Y-70343117D01*
X141735968Y-70343117D01*
X141735968Y-70206691D01*
X141735968Y-70070265D01*
X141884796Y-70070265D01*
X142033625Y-70070265D01*
X142033625Y-69921437D01*
X142033625Y-69772609D01*
X141884796Y-69772609D01*
X141735968Y-69772609D01*
X141735968Y-69350929D01*
X141735968Y-68929250D01*
X141884796Y-68929250D01*
X142033625Y-68929250D01*
X142033625Y-68792824D01*
X142033625Y-68656398D01*
X141884796Y-68656398D01*
X141735968Y-68656398D01*
X141735968Y-68792824D01*
X141735968Y-68929250D01*
X141599542Y-68929250D01*
X141463117Y-68929250D01*
X141463117Y-69772609D01*
X141463117Y-70615968D01*
X141326691Y-70615968D01*
X141190265Y-70615968D01*
X141190265Y-70764796D01*
X141190265Y-70913625D01*
X141326691Y-70913625D01*
X141463117Y-70913625D01*
X141463117Y-71198878D01*
X141463117Y-71484132D01*
X141326691Y-71484132D01*
X141190265Y-71484132D01*
X141190265Y-71335304D01*
X141190265Y-71186476D01*
X141041437Y-71186476D01*
X140892609Y-71186476D01*
X140892609Y-70901222D01*
X140892609Y-70615968D01*
X140756183Y-70615968D01*
X140619757Y-70615968D01*
X140619757Y-70343117D01*
X140892609Y-70343117D01*
X141041437Y-70343117D01*
X141190265Y-70343117D01*
X141190265Y-70206691D01*
X141190265Y-70070265D01*
X141041437Y-70070265D01*
X140892609Y-70070265D01*
X140892609Y-70206691D01*
X140892609Y-70343117D01*
X140619757Y-70343117D01*
X140619757Y-70206691D01*
X140619757Y-70070265D01*
X140756183Y-70070265D01*
X140892609Y-70070265D01*
X140892609Y-69785011D01*
X140892609Y-69499757D01*
X141041437Y-69499757D01*
X141190265Y-69499757D01*
X141190265Y-69214503D01*
X141190265Y-68929250D01*
X141041437Y-68929250D01*
X140892609Y-68929250D01*
X140892609Y-69214503D01*
X140892609Y-69499757D01*
X140756183Y-69499757D01*
X140619757Y-69499757D01*
X140619757Y-69214503D01*
X140619757Y-68929250D01*
X140483332Y-68929250D01*
X140346906Y-68929250D01*
X140346906Y-69499757D01*
X140346906Y-70070265D01*
X140061652Y-70070265D01*
X139776398Y-70070265D01*
X139776398Y-69921437D01*
X139776398Y-69772609D01*
X139491144Y-69772609D01*
X139205890Y-69772609D01*
X139205890Y-69636183D01*
X139205890Y-69499757D01*
X139627570Y-69499757D01*
X140049250Y-69499757D01*
X140049250Y-69078078D01*
X140049250Y-68656398D01*
X139912824Y-68656398D01*
X139776398Y-68656398D01*
X139776398Y-68371144D01*
X139776398Y-68085890D01*
X139912824Y-68085890D01*
X140049250Y-68085890D01*
X140049250Y-67800636D01*
X140049250Y-67515382D01*
X139912824Y-67515382D01*
X139776398Y-67515382D01*
X139776398Y-67664210D01*
X139776398Y-67813039D01*
X139491144Y-67813039D01*
X139205890Y-67813039D01*
X139205890Y-67949464D01*
X139205890Y-68085890D01*
X139069464Y-68085890D01*
X138933039Y-68085890D01*
X138933039Y-68222316D01*
X138933039Y-68358742D01*
X139069464Y-68358742D01*
X139205890Y-68358742D01*
X139205890Y-68222316D01*
X139205890Y-68085890D01*
X139342316Y-68085890D01*
X139478742Y-68085890D01*
X139478742Y-68222316D01*
X139478742Y-68358742D01*
X139342316Y-68358742D01*
X139205890Y-68358742D01*
X139205890Y-68507570D01*
X139205890Y-68656398D01*
X139342316Y-68656398D01*
X139478742Y-68656398D01*
X139478742Y-68941652D01*
X139478742Y-69226906D01*
X139342316Y-69226906D01*
X139205890Y-69226906D01*
X139205890Y-69078078D01*
X139205890Y-68929250D01*
X139069464Y-68929250D01*
X138933039Y-68929250D01*
X138933039Y-69350929D01*
X138933039Y-69772609D01*
X138647785Y-69772609D01*
X138362531Y-69772609D01*
X138362531Y-69921437D01*
X138362531Y-70070265D01*
X138226105Y-70070265D01*
X138089679Y-70070265D01*
X138089679Y-69921437D01*
X138089679Y-69772609D01*
X138226105Y-69772609D01*
X138362531Y-69772609D01*
X138362531Y-69636183D01*
X138362531Y-69499757D01*
X138077277Y-69499757D01*
X137792023Y-69499757D01*
X137792023Y-69214503D01*
X137792023Y-68929250D01*
X137940851Y-68929250D01*
X138089679Y-68929250D01*
X138089679Y-69078078D01*
X138089679Y-69226906D01*
X138226105Y-69226906D01*
X138362531Y-69226906D01*
X138362531Y-69363332D01*
X138362531Y-69499757D01*
X138498957Y-69499757D01*
X138635382Y-69499757D01*
X138635382Y-69078078D01*
X138635382Y-68656398D01*
X138362531Y-68656398D01*
X138089679Y-68656398D01*
X138089679Y-68507570D01*
X138089679Y-68358742D01*
X137804425Y-68358742D01*
X137519171Y-68358742D01*
X137519171Y-68507570D01*
X137519171Y-68656398D01*
X137655597Y-68656398D01*
X137792023Y-68656398D01*
X137792023Y-68792824D01*
X137792023Y-68929250D01*
X137655597Y-68929250D01*
X137519171Y-68929250D01*
X137519171Y-69214503D01*
X137519171Y-69499757D01*
X137233917Y-69499757D01*
X136948664Y-69499757D01*
X136948664Y-69363332D01*
X136948664Y-69226906D01*
X137085089Y-69226906D01*
X137221515Y-69226906D01*
X137221515Y-68941652D01*
X137221515Y-68656398D01*
X137085089Y-68656398D01*
X136948664Y-68656398D01*
X136948664Y-68941652D01*
X136948664Y-69226906D01*
X136812238Y-69226906D01*
X136675812Y-69226906D01*
X136675812Y-69499757D01*
X136675812Y-69772609D01*
X136390558Y-69772609D01*
X136105304Y-69772609D01*
X136105304Y-69921437D01*
X136105304Y-70070265D01*
X135968878Y-70070265D01*
X135832453Y-70070265D01*
X135832453Y-70206691D01*
X135832453Y-70343117D01*
X135547199Y-70343117D01*
X135261945Y-70343117D01*
X135261945Y-70479542D01*
X135261945Y-70615968D01*
X134976691Y-70615968D01*
X134691437Y-70615968D01*
X134691437Y-70901222D01*
X134691437Y-71186476D01*
X134827863Y-71186476D01*
X134964289Y-71186476D01*
X134964289Y-71471730D01*
X134964289Y-71756984D01*
X134827863Y-71756984D01*
X134691437Y-71756984D01*
X134691437Y-71620558D01*
X134691437Y-71484132D01*
X134406183Y-71484132D01*
X134120929Y-71484132D01*
X134120929Y-71335304D01*
X134120929Y-71186476D01*
X134269757Y-71186476D01*
X134418585Y-71186476D01*
X134418585Y-71050050D01*
X134418585Y-70913625D01*
X134269757Y-70913625D01*
X134120929Y-70913625D01*
X134120929Y-71050050D01*
X134120929Y-71186476D01*
X133984503Y-71186476D01*
X133848078Y-71186476D01*
X133848078Y-71050050D01*
X133848078Y-70913625D01*
X133984503Y-70913625D01*
X134120929Y-70913625D01*
X134120929Y-70764796D01*
X134120929Y-70615968D01*
X134269757Y-70615968D01*
X134418585Y-70615968D01*
X134418585Y-70479542D01*
X134418585Y-70343117D01*
X134840265Y-70343117D01*
X135261945Y-70343117D01*
X135261945Y-70206691D01*
X135261945Y-70070265D01*
X135113117Y-70070265D01*
X134964289Y-70070265D01*
X134964289Y-69921437D01*
X134964289Y-69772609D01*
X135113117Y-69772609D01*
X135261945Y-69772609D01*
X135261945Y-69921437D01*
X135261945Y-70070265D01*
X135398371Y-70070265D01*
X135534796Y-70070265D01*
X135534796Y-69921437D01*
X135534796Y-69772609D01*
X135820050Y-69772609D01*
X136105304Y-69772609D01*
X136105304Y-69636183D01*
X136105304Y-69499757D01*
X135968878Y-69499757D01*
X135832453Y-69499757D01*
X135832453Y-69363332D01*
X135832453Y-69226906D01*
X136105304Y-69226906D01*
X136390558Y-69226906D01*
X136675812Y-69226906D01*
X136675812Y-69078078D01*
X136675812Y-68941652D01*
X136675812Y-68929250D01*
X136390558Y-68929250D01*
X136105304Y-68929250D01*
X136105304Y-69078078D01*
X136105304Y-69226906D01*
X135832453Y-69226906D01*
X135547199Y-69226906D01*
X135261945Y-69226906D01*
X135261945Y-69363332D01*
X135261945Y-69499757D01*
X135113117Y-69499757D01*
X134964289Y-69499757D01*
X134964289Y-69636183D01*
X134964289Y-69772609D01*
X134691437Y-69772609D01*
X134418585Y-69772609D01*
X134418585Y-69350929D01*
X134418585Y-69078078D01*
X134418585Y-68929250D01*
X134269757Y-68929250D01*
X134120929Y-68929250D01*
X134120929Y-69078078D01*
X134120929Y-69226906D01*
X133562824Y-69226906D01*
X133004718Y-69226906D01*
X133004718Y-69078078D01*
X133004718Y-68929250D01*
X133141144Y-68929250D01*
X133277570Y-68929250D01*
X133277570Y-68792824D01*
X133575226Y-68792824D01*
X133575226Y-68929250D01*
X133711652Y-68929250D01*
X133848078Y-68929250D01*
X133848078Y-68792824D01*
X133848078Y-68656398D01*
X133984503Y-68656398D01*
X134120929Y-68656398D01*
X134120929Y-68507570D01*
X134120929Y-68358742D01*
X134269757Y-68358742D01*
X134418585Y-68358742D01*
X134418585Y-68507570D01*
X134418585Y-68656398D01*
X134555011Y-68656398D01*
X134691437Y-68656398D01*
X134691437Y-68792824D01*
X134691437Y-68929250D01*
X134827863Y-68929250D01*
X134964289Y-68929250D01*
X135261945Y-68929250D01*
X135547199Y-68929250D01*
X135832453Y-68929250D01*
X135832453Y-68792824D01*
X135832453Y-68656398D01*
X135547199Y-68656398D01*
X135261945Y-68656398D01*
X135261945Y-68792824D01*
X135261945Y-68929250D01*
X134964289Y-68929250D01*
X134964289Y-68792824D01*
X134964289Y-68643996D01*
X134964289Y-68358742D01*
X134827863Y-68358742D01*
X134691437Y-68358742D01*
X134691437Y-68085890D01*
X134691437Y-67813039D01*
X134555011Y-67813039D01*
X134418585Y-67813039D01*
X134418585Y-67949464D01*
X134418585Y-68085890D01*
X134269757Y-68085890D01*
X134120929Y-68085890D01*
X134120929Y-68222316D01*
X134120929Y-68358742D01*
X133984503Y-68358742D01*
X133848078Y-68358742D01*
X133848078Y-68507570D01*
X133848078Y-68656398D01*
X133711652Y-68656398D01*
X133575226Y-68656398D01*
X133575226Y-68792824D01*
X133277570Y-68792824D01*
X133277570Y-68656398D01*
X133141144Y-68656398D01*
X133004718Y-68656398D01*
X133004718Y-68792824D01*
X133004718Y-68929250D01*
X132583039Y-68929250D01*
X132161359Y-68929250D01*
X132161359Y-68792824D01*
X132161359Y-68656398D01*
X132012531Y-68656398D01*
X131863703Y-68656398D01*
X131863703Y-68507570D01*
X131863703Y-68358742D01*
X132148957Y-68358742D01*
X132434210Y-68358742D01*
X133004718Y-68358742D01*
X133141144Y-68358742D01*
X133277570Y-68358742D01*
X133277570Y-68222316D01*
X133277570Y-68085890D01*
X133141144Y-68085890D01*
X133004718Y-68085890D01*
X133004718Y-68222316D01*
X133004718Y-68358742D01*
X132434210Y-68358742D01*
X132434210Y-68222316D01*
X132434210Y-68085890D01*
X132570636Y-68085890D01*
X132707062Y-68085890D01*
X132707062Y-67949464D01*
X132707062Y-67813039D01*
X132434210Y-67813039D01*
X132161359Y-67813039D01*
X132161359Y-67664210D01*
X132161359Y-67515382D01*
X132583039Y-67515382D01*
X133004718Y-67515382D01*
X133004718Y-67378957D01*
X133004718Y-67242531D01*
X133141144Y-67242531D01*
X133277570Y-67242531D01*
X133277570Y-67378957D01*
X133277570Y-67515382D01*
X133141144Y-67515382D01*
X133004718Y-67515382D01*
X133004718Y-67664210D01*
X133004718Y-67813039D01*
X133141144Y-67813039D01*
X133277570Y-67813039D01*
X133277570Y-67949464D01*
X133277570Y-68085890D01*
X133562824Y-68085890D01*
X133848078Y-68085890D01*
X133848078Y-67949464D01*
X133848078Y-67813039D01*
X134133332Y-67813039D01*
X134418585Y-67813039D01*
X134418585Y-67664210D01*
X134418585Y-67515382D01*
X134133332Y-67515382D01*
X133848078Y-67515382D01*
X133848078Y-67378957D01*
X134964289Y-67378957D01*
X134964289Y-67515382D01*
X135113117Y-67515382D01*
X135261945Y-67515382D01*
X135261945Y-67664210D01*
X135261945Y-67813039D01*
X135113117Y-67813039D01*
X134964289Y-67813039D01*
X134964289Y-67949464D01*
X134964289Y-68085890D01*
X135113117Y-68085890D01*
X135261945Y-68085890D01*
X135261945Y-68222316D01*
X135261945Y-68358742D01*
X135547199Y-68358742D01*
X135832453Y-68358742D01*
X135832453Y-68222316D01*
X135832453Y-68085890D01*
X135683625Y-68085890D01*
X135534796Y-68085890D01*
X135534796Y-67800636D01*
X135534796Y-67515382D01*
X135683625Y-67515382D01*
X135832453Y-67515382D01*
X135832453Y-67378957D01*
X135832453Y-67242531D01*
X135968878Y-67242531D01*
X136105304Y-67242531D01*
X136105304Y-67106105D01*
X136105304Y-66969679D01*
X135968878Y-66969679D01*
X135832453Y-66969679D01*
X135832453Y-66820851D01*
X135832453Y-66672023D01*
X135683625Y-66672023D01*
X135534796Y-66672023D01*
X135534796Y-66957277D01*
X135534796Y-67242531D01*
X135249542Y-67242531D01*
X134964289Y-67242531D01*
X134964289Y-67378957D01*
X133848078Y-67378957D01*
X133848078Y-67242531D01*
X134133332Y-67242531D01*
X134418585Y-67242531D01*
X134418585Y-66969679D01*
X134964289Y-66969679D01*
X135113117Y-66969679D01*
X135261945Y-66969679D01*
X135261945Y-66820851D01*
X135261945Y-66672023D01*
X135113117Y-66672023D01*
X134964289Y-66672023D01*
X134964289Y-66820851D01*
X134964289Y-66969679D01*
X134418585Y-66969679D01*
X134418585Y-66957277D01*
X134418585Y-66820851D01*
X134418585Y-66672023D01*
X134269757Y-66672023D01*
X134120929Y-66672023D01*
X134120929Y-66820851D01*
X134120929Y-66969679D01*
X133984503Y-66969679D01*
X133848078Y-66969679D01*
X133848078Y-66820851D01*
X133848078Y-66672023D01*
X133984503Y-66672023D01*
X134120929Y-66672023D01*
X134120929Y-66386769D01*
X134120929Y-66101515D01*
X134269757Y-66101515D01*
X134418585Y-66101515D01*
X134418585Y-66250343D01*
X134418585Y-66399171D01*
X134555011Y-66399171D01*
X134691437Y-66399171D01*
X134964289Y-66399171D01*
X135113117Y-66399171D01*
X135261945Y-66399171D01*
X135261945Y-66250343D01*
X135261945Y-66101515D01*
X135113117Y-66101515D01*
X134964289Y-66101515D01*
X134964289Y-66250343D01*
X134964289Y-66399171D01*
X134691437Y-66399171D01*
X134691437Y-66250343D01*
X134691437Y-66113917D01*
X134691437Y-65828664D01*
X135113117Y-65828664D01*
X135534796Y-65828664D01*
X135534796Y-66113917D01*
G37*
G36*
X136675812Y-70479542D02*
G01*
X136675812Y-70615968D01*
X136254132Y-70615968D01*
X135832453Y-70615968D01*
X135832453Y-70479542D01*
X135832453Y-70343117D01*
X136254132Y-70343117D01*
X136675812Y-70343117D01*
X136675812Y-70479542D01*
G37*
G36*
X133848078Y-65121730D02*
G01*
X133848078Y-65258156D01*
X133984503Y-65258156D01*
X134120929Y-65258156D01*
X134120929Y-65121730D01*
X134120929Y-64985304D01*
X134269757Y-64985304D01*
X134418585Y-64985304D01*
X134418585Y-65121730D01*
X134418585Y-65258156D01*
X134269757Y-65258156D01*
X134120929Y-65258156D01*
X134120929Y-65679835D01*
X134120929Y-66101515D01*
X133984503Y-66101515D01*
X133848078Y-66101515D01*
X133848078Y-65679835D01*
X133848078Y-65258156D01*
X133711652Y-65258156D01*
X133575226Y-65258156D01*
X133575226Y-65121730D01*
X133575226Y-64985304D01*
X133711652Y-64985304D01*
X133848078Y-64985304D01*
X133848078Y-65121730D01*
G37*
G36*
X139478742Y-71620558D02*
G01*
X139478742Y-71756984D01*
X139342316Y-71756984D01*
X139205890Y-71756984D01*
X139205890Y-71620558D01*
X139205890Y-71484132D01*
X139342316Y-71484132D01*
X139478742Y-71484132D01*
X139478742Y-71620558D01*
G37*
G36*
X138089679Y-71050050D02*
G01*
X138089679Y-71484132D01*
X137655597Y-71484132D01*
X137221515Y-71484132D01*
X137221515Y-71186476D01*
X137519171Y-71186476D01*
X137655597Y-71186476D01*
X137792023Y-71186476D01*
X137792023Y-71050050D01*
X137792023Y-70913625D01*
X137655597Y-70913625D01*
X137519171Y-70913625D01*
X137519171Y-71050050D01*
X137519171Y-71186476D01*
X137221515Y-71186476D01*
X137221515Y-71050050D01*
X137221515Y-70615968D01*
X137655597Y-70615968D01*
X138089679Y-70615968D01*
X138089679Y-71050050D01*
G37*
G36*
X142604132Y-71050050D02*
G01*
X142604132Y-71484132D01*
X142170050Y-71484132D01*
X141735968Y-71484132D01*
X141735968Y-71186476D01*
X142033625Y-71186476D01*
X142170050Y-71186476D01*
X142306476Y-71186476D01*
X142306476Y-71050050D01*
X142306476Y-70913625D01*
X142170050Y-70913625D01*
X142033625Y-70913625D01*
X142033625Y-71050050D01*
X142033625Y-71186476D01*
X141735968Y-71186476D01*
X141735968Y-71050050D01*
X141735968Y-70615968D01*
X142170050Y-70615968D01*
X142604132Y-70615968D01*
X142604132Y-71050050D01*
G37*
G36*
X140619757Y-71050050D02*
G01*
X140619757Y-71186476D01*
X140483332Y-71186476D01*
X140346906Y-71186476D01*
X140346906Y-71050050D01*
X140346906Y-70913625D01*
X140483332Y-70913625D01*
X140619757Y-70913625D01*
X140619757Y-71050050D01*
G37*
G36*
X139205890Y-70206691D02*
G01*
X139205890Y-70343117D01*
X139069464Y-70343117D01*
X138933039Y-70343117D01*
X138933039Y-70479542D01*
X138933039Y-70615968D01*
X138784210Y-70615968D01*
X138635382Y-70615968D01*
X138635382Y-70479542D01*
X138635382Y-70343117D01*
X138784210Y-70343117D01*
X138933039Y-70343117D01*
X138933039Y-70206691D01*
X138933039Y-70070265D01*
X139069464Y-70070265D01*
X139205890Y-70070265D01*
X139205890Y-70206691D01*
G37*
G36*
X137792023Y-70206691D02*
G01*
X137792023Y-70343117D01*
X137506769Y-70343117D01*
X137221515Y-70343117D01*
X137221515Y-70206691D01*
X137221515Y-70070265D01*
X137506769Y-70070265D01*
X137792023Y-70070265D01*
X137792023Y-70206691D01*
G37*
G36*
X137221515Y-69921437D02*
G01*
X137221515Y-70070265D01*
X137085089Y-70070265D01*
X136948664Y-70070265D01*
X136948664Y-69921437D01*
X136948664Y-69772609D01*
X137085089Y-69772609D01*
X137221515Y-69772609D01*
X137221515Y-69921437D01*
G37*
G36*
X143447492Y-68085890D02*
G01*
X143447492Y-68358742D01*
X143162238Y-68358742D01*
X142876984Y-68358742D01*
X142876984Y-68507570D01*
X142876984Y-68656398D01*
X142740558Y-68656398D01*
X142604132Y-68656398D01*
X142604132Y-68507570D01*
X142604132Y-68358742D01*
X142740558Y-68358742D01*
X142876984Y-68358742D01*
X142876984Y-68085890D01*
X142876984Y-67813039D01*
X143162238Y-67813039D01*
X143447492Y-67813039D01*
X143447492Y-68085890D01*
G37*
G36*
X142033625Y-67949464D02*
G01*
X142033625Y-68085890D01*
X141884796Y-68085890D01*
X141735968Y-68085890D01*
X141735968Y-67949464D01*
X141735968Y-67813039D01*
X141884796Y-67813039D01*
X142033625Y-67813039D01*
X142033625Y-67949464D01*
G37*
G36*
X133575226Y-66535597D02*
G01*
X133575226Y-66969679D01*
X133141144Y-66969679D01*
X132707062Y-66969679D01*
X132707062Y-66672023D01*
X133004718Y-66672023D01*
X133141144Y-66672023D01*
X133277570Y-66672023D01*
X133277570Y-66535597D01*
X133277570Y-66399171D01*
X133141144Y-66399171D01*
X133004718Y-66399171D01*
X133004718Y-66535597D01*
X133004718Y-66672023D01*
X132707062Y-66672023D01*
X132707062Y-66535597D01*
X132707062Y-66101515D01*
X133141144Y-66101515D01*
X133575226Y-66101515D01*
X133575226Y-66535597D01*
G37*
G36*
X138089679Y-66535597D02*
G01*
X138089679Y-66969679D01*
X137655597Y-66969679D01*
X137221515Y-66969679D01*
X137221515Y-66672023D01*
X137519171Y-66672023D01*
X137655597Y-66672023D01*
X137792023Y-66672023D01*
X137792023Y-66535597D01*
X137792023Y-66399171D01*
X137655597Y-66399171D01*
X137519171Y-66399171D01*
X137519171Y-66535597D01*
X137519171Y-66672023D01*
X137221515Y-66672023D01*
X137221515Y-66535597D01*
X137221515Y-66101515D01*
X137655597Y-66101515D01*
X138089679Y-66101515D01*
X138089679Y-66535597D01*
G37*
G36*
X138933039Y-66250343D02*
G01*
X138933039Y-66399171D01*
X139205890Y-66399171D01*
X139478742Y-66399171D01*
X139478742Y-66535597D01*
X139478742Y-66672023D01*
X138920636Y-66672023D01*
X138362531Y-66672023D01*
X138362531Y-66535597D01*
X138362531Y-66399171D01*
X138498957Y-66399171D01*
X138635382Y-66399171D01*
X138635382Y-66250343D01*
X138635382Y-66101515D01*
X138784210Y-66101515D01*
X138933039Y-66101515D01*
X138933039Y-66250343D01*
G37*
G36*
X133277570Y-65121730D02*
G01*
X133277570Y-65258156D01*
X133141144Y-65258156D01*
X133004718Y-65258156D01*
X133004718Y-65406984D01*
X133004718Y-65555812D01*
X132719464Y-65555812D01*
X132434210Y-65555812D01*
X132434210Y-65977492D01*
X132434210Y-66399171D01*
X132297785Y-66399171D01*
X132161359Y-66399171D01*
X132161359Y-65977492D01*
X132161359Y-65555812D01*
X132297785Y-65555812D01*
X132434210Y-65555812D01*
X132434210Y-65406984D01*
X132434210Y-65258156D01*
X132719464Y-65258156D01*
X133004718Y-65258156D01*
X133004718Y-65121730D01*
X133004718Y-64985304D01*
X133141144Y-64985304D01*
X133277570Y-64985304D01*
X133277570Y-65121730D01*
G37*
G36*
X133575226Y-65692238D02*
G01*
X133575226Y-65828664D01*
X133289972Y-65828664D01*
X133004718Y-65828664D01*
X133004718Y-65692238D01*
X133004718Y-65555812D01*
X133289972Y-65555812D01*
X133575226Y-65555812D01*
X133575226Y-65692238D01*
G37*
G36*
X139205890Y-63707863D02*
G01*
X139205890Y-63844289D01*
X138920636Y-63844289D01*
X138635382Y-63844289D01*
X138635382Y-63993117D01*
X138635382Y-64141945D01*
X138920636Y-64141945D01*
X139205890Y-64141945D01*
X139205890Y-63993117D01*
X139205890Y-63844289D01*
X139342316Y-63844289D01*
X139478742Y-63844289D01*
X139478742Y-64129542D01*
X139478742Y-64414796D01*
X139342316Y-64414796D01*
X139205890Y-64414796D01*
X139205890Y-64563625D01*
X139205890Y-64712453D01*
X139069464Y-64712453D01*
X138933039Y-64712453D01*
X138933039Y-64563625D01*
X138933039Y-64414796D01*
X138784210Y-64414796D01*
X138635382Y-64414796D01*
X138635382Y-64278371D01*
X138635382Y-64141945D01*
X138362531Y-64141945D01*
X138089679Y-64141945D01*
X138089679Y-63993117D01*
X138089679Y-63844289D01*
X137940851Y-63844289D01*
X137792023Y-63844289D01*
X137792023Y-63707863D01*
X137792023Y-63571437D01*
X138498957Y-63571437D01*
X139205890Y-63571437D01*
X139205890Y-63707863D01*
G37*
G36*
X140346906Y-64563625D02*
G01*
X140346906Y-64712453D01*
X140061652Y-64712453D01*
X139776398Y-64712453D01*
X139776398Y-64563625D01*
X139776398Y-64414796D01*
X140061652Y-64414796D01*
X140346906Y-64414796D01*
X140346906Y-64563625D01*
G37*
G36*
X133277570Y-63993117D02*
G01*
X133277570Y-64141945D01*
X132992316Y-64141945D01*
X132707062Y-64141945D01*
X132707062Y-64278371D01*
X132707062Y-64414796D01*
X132570636Y-64414796D01*
X132434210Y-64414796D01*
X132434210Y-64278371D01*
X132434210Y-64141945D01*
X132570636Y-64141945D01*
X132707062Y-64141945D01*
X132707062Y-63993117D01*
X132707062Y-63844289D01*
X132992316Y-63844289D01*
X133277570Y-63844289D01*
X133277570Y-63993117D01*
G37*
G36*
X136378156Y-63013332D02*
G01*
X136378156Y-63298585D01*
X136526984Y-63298585D01*
X136675812Y-63298585D01*
X136675812Y-63435011D01*
X136675812Y-63571437D01*
X136526984Y-63571437D01*
X136378156Y-63571437D01*
X136378156Y-63707863D01*
X136378156Y-63844289D01*
X136526984Y-63844289D01*
X136675812Y-63844289D01*
X136675812Y-63707863D01*
X136675812Y-63571437D01*
X136948664Y-63571437D01*
X137221515Y-63571437D01*
X137221515Y-63707863D01*
X137221515Y-63844289D01*
X136948664Y-63844289D01*
X136675812Y-63844289D01*
X136675812Y-63993117D01*
X136675812Y-64141945D01*
X136254132Y-64141945D01*
X135832453Y-64141945D01*
X135832453Y-63993117D01*
X135832453Y-63844289D01*
X135683625Y-63844289D01*
X135534796Y-63844289D01*
X135534796Y-63707863D01*
X135534796Y-63571437D01*
X135683625Y-63571437D01*
X135832453Y-63571437D01*
X135832453Y-63149757D01*
X135832453Y-62728078D01*
X136105304Y-62728078D01*
X136378156Y-62728078D01*
X136378156Y-63013332D01*
G37*
G36*
X135832453Y-62591652D02*
G01*
X135832453Y-62728078D01*
X135683625Y-62728078D01*
X135534796Y-62728078D01*
X135534796Y-62591652D01*
X135534796Y-62455226D01*
X135683625Y-62455226D01*
X135832453Y-62455226D01*
X135832453Y-62591652D01*
G37*
G36*
X133575226Y-63435011D02*
G01*
X133575226Y-63571437D01*
X133289972Y-63571437D01*
X133004718Y-63571437D01*
X133004718Y-63435011D01*
X133004718Y-63298585D01*
X133289972Y-63298585D01*
X133575226Y-63298585D01*
X133575226Y-63435011D01*
G37*
G36*
X134964289Y-63435011D02*
G01*
X134964289Y-63571437D01*
X134827863Y-63571437D01*
X134691437Y-63571437D01*
X134691437Y-63435011D01*
X134691437Y-63298585D01*
X134827863Y-63298585D01*
X134964289Y-63298585D01*
X134964289Y-63435011D01*
G37*
G36*
X133277570Y-62864503D02*
G01*
X133277570Y-63000929D01*
X133141144Y-63000929D01*
X133004718Y-63000929D01*
X133004718Y-62864503D01*
X133004718Y-62728078D01*
X133141144Y-62728078D01*
X133277570Y-62728078D01*
X133277570Y-62864503D01*
G37*
G36*
X142604132Y-62864503D02*
G01*
X142604132Y-63000929D01*
X142455304Y-63000929D01*
X142306476Y-63000929D01*
X142306476Y-62864503D01*
X142306476Y-62728078D01*
X142455304Y-62728078D01*
X142604132Y-62728078D01*
X142604132Y-62864503D01*
G37*
G36*
X142033625Y-63993117D02*
G01*
X142033625Y-64141945D01*
X141884796Y-64141945D01*
X141735968Y-64141945D01*
X141735968Y-63993117D01*
X141735968Y-63844289D01*
X141884796Y-63844289D01*
X142033625Y-63844289D01*
X142033625Y-63993117D01*
G37*
D14*
%TO.C,U1*%
X108164000Y-54588000D02*
X108164000Y-70478000D01*
X108164000Y-54588000D02*
X118404000Y-54588000D01*
X108164000Y-70478000D02*
X118404000Y-70478000D01*
X110744000Y-70478000D02*
X110744000Y-73018000D01*
X113284000Y-70478000D02*
X113284000Y-73018000D01*
X115824000Y-70478000D02*
X115824000Y-73018000D01*
X118404000Y-54588000D02*
X118404000Y-70478000D01*
%TO.C,J2*%
X120032000Y-57006000D02*
X120032000Y-55626000D01*
X121412000Y-57006000D02*
X120032000Y-57006000D01*
X122682000Y-57006000D02*
X125332000Y-57006000D01*
X122682000Y-57006000D02*
X122682000Y-54246000D01*
X125332000Y-57006000D02*
X125332000Y-54246000D01*
X122682000Y-54246000D02*
X125332000Y-54246000D01*
%TO.C,C4*%
X115555752Y-79475000D02*
X115033248Y-79475000D01*
X115555752Y-78005000D02*
X115033248Y-78005000D01*
%TO.C,C3*%
X115555752Y-77443000D02*
X115033248Y-77443000D01*
X115555752Y-75973000D02*
X115033248Y-75973000D01*
%TO.C,C2*%
X110969248Y-78005000D02*
X111491752Y-78005000D01*
X110969248Y-79475000D02*
X111491752Y-79475000D01*
%TO.C,C1*%
X110969248Y-75973000D02*
X111491752Y-75973000D01*
X110969248Y-77443000D02*
X111491752Y-77443000D01*
%TO.C,J1*%
X144018000Y-92202000D02*
X144018000Y-93472000D01*
X142748000Y-92202000D02*
X144018000Y-92202000D01*
X140638000Y-94549358D02*
X140638000Y-94862000D01*
X139778000Y-94549358D02*
X139778000Y-94862000D01*
X138098000Y-94549358D02*
X138098000Y-94862000D01*
X137238000Y-94549358D02*
X137238000Y-94862000D01*
X135558000Y-94549358D02*
X135558000Y-94862000D01*
X134698000Y-94549358D02*
X134698000Y-94862000D01*
X133018000Y-94549358D02*
X133018000Y-94862000D01*
X132158000Y-94549358D02*
X132158000Y-94862000D01*
X130478000Y-94549358D02*
X130478000Y-94862000D01*
X129618000Y-94549358D02*
X129618000Y-94862000D01*
X143178000Y-94632000D02*
X143178000Y-94862000D01*
X142318000Y-94632000D02*
X142318000Y-94862000D01*
X144128000Y-94862000D02*
X128668000Y-94862000D01*
X141478000Y-94862000D02*
X141478000Y-97622000D01*
X138938000Y-94862000D02*
X138938000Y-97622000D01*
X136398000Y-94862000D02*
X136398000Y-97622000D01*
X133858000Y-94862000D02*
X133858000Y-97622000D01*
X131318000Y-94862000D02*
X131318000Y-97622000D01*
X128668000Y-94862000D02*
X128668000Y-97622000D01*
X144128000Y-97622000D02*
X144128000Y-94862000D01*
X140638000Y-97622000D02*
X140638000Y-103622000D01*
X138098000Y-97622000D02*
X138098000Y-103622000D01*
X135558000Y-97622000D02*
X135558000Y-103622000D01*
X133018000Y-97622000D02*
X133018000Y-103622000D01*
X130478000Y-97622000D02*
X130478000Y-103622000D01*
X128668000Y-97622000D02*
X144128000Y-97622000D01*
X140638000Y-103622000D02*
X139778000Y-103622000D01*
X139778000Y-103622000D02*
X139778000Y-97622000D01*
X138098000Y-103622000D02*
X137238000Y-103622000D01*
X137238000Y-103622000D02*
X137238000Y-97622000D01*
X135558000Y-103622000D02*
X134698000Y-103622000D01*
X134698000Y-103622000D02*
X134698000Y-97622000D01*
X133018000Y-103622000D02*
X132158000Y-103622000D01*
X132158000Y-103622000D02*
X132158000Y-97622000D01*
X130478000Y-103622000D02*
X129618000Y-103622000D01*
X129618000Y-103622000D02*
X129618000Y-97622000D01*
X143178000Y-97622000D02*
X142318000Y-97622000D01*
X142318000Y-103622000D01*
X143178000Y-103622000D01*
X143178000Y-97622000D01*
G36*
X143178000Y-97622000D02*
G01*
X142318000Y-97622000D01*
X142318000Y-103622000D01*
X143178000Y-103622000D01*
X143178000Y-97622000D01*
G37*
%TD*%
M02*
