%TF.GenerationSoftware,KiCad,Pcbnew,9.0.1*%
%TF.CreationDate,2025-06-22T03:23:01+02:00*%
%TF.ProjectId,Arduino socket,41726475-696e-46f2-9073-6f636b65742e,rev?*%
%TF.SameCoordinates,Original*%
%TF.FileFunction,Copper,L1,Top*%
%TF.FilePolarity,Positive*%
%FSLAX46Y46*%
G04 Gerber Fmt 4.6, Leading zero omitted, Abs format (unit mm)*
G04 Created by KiCad (PCBNEW 9.0.1) date 2025-06-22 03:23:01*
%MOMM*%
%LPD*%
G01*
G04 APERTURE LIST*
G04 Aperture macros list*
%AMRoundRect*
0 Rectangle with rounded corners*
0 $1 Rounding radius*
0 $2 $3 $4 $5 $6 $7 $8 $9 X,Y pos of 4 corners*
0 Add a 4 corners polygon primitive as box body*
4,1,4,$2,$3,$4,$5,$6,$7,$8,$9,$2,$3,0*
0 Add four circle primitives for the rounded corners*
1,1,$1+$1,$2,$3*
1,1,$1+$1,$4,$5*
1,1,$1+$1,$6,$7*
1,1,$1+$1,$8,$9*
0 Add four rect primitives between the rounded corners*
20,1,$1+$1,$2,$3,$4,$5,0*
20,1,$1+$1,$4,$5,$6,$7,0*
20,1,$1+$1,$6,$7,$8,$9,0*
20,1,$1+$1,$8,$9,$2,$3,0*%
G04 Aperture macros list end*
%TA.AperFunction,ComponentPad*%
%ADD10R,1.905000X2.000000*%
%TD*%
%TA.AperFunction,ComponentPad*%
%ADD11O,1.905000X2.000000*%
%TD*%
%TA.AperFunction,ComponentPad*%
%ADD12R,1.700000X1.700000*%
%TD*%
%TA.AperFunction,ComponentPad*%
%ADD13C,1.700000*%
%TD*%
%TA.AperFunction,SMDPad,CuDef*%
%ADD14RoundRect,0.250000X0.337500X0.475000X-0.337500X0.475000X-0.337500X-0.475000X0.337500X-0.475000X0*%
%TD*%
%TA.AperFunction,SMDPad,CuDef*%
%ADD15RoundRect,0.250000X-0.337500X-0.475000X0.337500X-0.475000X0.337500X0.475000X-0.337500X0.475000X0*%
%TD*%
%TA.AperFunction,ComponentPad*%
%ADD16C,1.600000*%
%TD*%
%TA.AperFunction,ComponentPad*%
%ADD17R,1.600000X1.600000*%
%TD*%
%TA.AperFunction,ComponentPad*%
%ADD18O,1.600000X1.600000*%
%TD*%
%TA.AperFunction,ViaPad*%
%ADD19C,0.600000*%
%TD*%
%TA.AperFunction,Conductor*%
%ADD20C,0.400000*%
%TD*%
%TA.AperFunction,Conductor*%
%ADD21C,0.200000*%
%TD*%
G04 APERTURE END LIST*
D10*
%TO.P,U1,1,IN*%
%TO.N,Net-(J2-Pin_1)*%
X110744000Y-74168000D03*
D11*
%TO.P,U1,2,GND*%
%TO.N,GND*%
X113284000Y-74168000D03*
%TO.P,U1,3,OUT*%
%TO.N,VCC*%
X115824000Y-74168000D03*
%TD*%
D12*
%TO.P,J2,1,Pin_1*%
%TO.N,Net-(J2-Pin_1)*%
X121412000Y-55626000D03*
D13*
%TO.P,J2,2,Pin_2*%
%TO.N,GND*%
X123952000Y-55626000D03*
%TD*%
D14*
%TO.P,C4,1*%
%TO.N,VCC*%
X116332000Y-78740000D03*
%TO.P,C4,2*%
%TO.N,GND*%
X114257000Y-78740000D03*
%TD*%
%TO.P,C3,1*%
%TO.N,VCC*%
X116332000Y-76708000D03*
%TO.P,C3,2*%
%TO.N,GND*%
X114257000Y-76708000D03*
%TD*%
D15*
%TO.P,C2,1*%
%TO.N,Net-(J2-Pin_1)*%
X110193000Y-78740000D03*
%TO.P,C2,2*%
%TO.N,GND*%
X112268000Y-78740000D03*
%TD*%
%TO.P,C1,1*%
%TO.N,Net-(J2-Pin_1)*%
X110193000Y-76708000D03*
%TO.P,C1,2*%
%TO.N,GND*%
X112268000Y-76708000D03*
%TD*%
D16*
%TO.P,RTC1,1,gnd*%
%TO.N,GND*%
X113284000Y-85344000D03*
%TO.P,RTC1,2,vcc*%
%TO.N,VCC*%
X115824000Y-85344000D03*
%TO.P,RTC1,3,sda*%
%TO.N,SDA*%
X118364000Y-85344000D03*
%TO.P,RTC1,4,scl*%
%TO.N,SCL*%
X120904000Y-85344000D03*
%TD*%
D12*
%TO.P,J1,1,Pin_1*%
%TO.N,PISO in*%
X142748000Y-93472000D03*
D13*
%TO.P,J1,2,Pin_2*%
%TO.N,SIPO out*%
X140208000Y-93472000D03*
%TO.P,J1,3,Pin_3*%
%TO.N,Clock*%
X137668000Y-93472000D03*
%TO.P,J1,4,Pin_4*%
%TO.N,Shift{slash}load*%
X135128000Y-93472000D03*
%TO.P,J1,5,Pin_5*%
%TO.N,VCC*%
X132588000Y-93472000D03*
%TO.P,J1,6,Pin_6*%
%TO.N,GND*%
X130048000Y-93472000D03*
%TD*%
D17*
%TO.P,A1,1,D1/TX*%
%TO.N,unconnected-(A1-D1{slash}TX-Pad1)*%
X130048000Y-89916000D03*
D18*
%TO.P,A1,2,D0/RX*%
%TO.N,unconnected-(A1-D0{slash}RX-Pad2)*%
X130048000Y-87376000D03*
%TO.P,A1,3,~{RESET}*%
%TO.N,unconnected-(A1-~{RESET}-Pad3)*%
X130048000Y-84836000D03*
%TO.P,A1,4,GND*%
%TO.N,GND*%
X130048000Y-82296000D03*
%TO.P,A1,5,D2*%
%TO.N,unconnected-(A1-D2-Pad5)*%
X130048000Y-79756000D03*
%TO.P,A1,6,D3*%
%TO.N,PISO in*%
X130048000Y-77216000D03*
%TO.P,A1,7,D4*%
%TO.N,SIPO out*%
X130048000Y-74676000D03*
%TO.P,A1,8,D5*%
%TO.N,Shift{slash}load*%
X130048000Y-72136000D03*
%TO.P,A1,9,D6*%
%TO.N,Clock*%
X130048000Y-69596000D03*
%TO.P,A1,10,D7*%
%TO.N,unconnected-(A1-D7-Pad10)*%
X130048000Y-67056000D03*
%TO.P,A1,11,D8*%
%TO.N,unconnected-(A1-D8-Pad11)*%
X130048000Y-64516000D03*
%TO.P,A1,12,D9*%
%TO.N,unconnected-(A1-D9-Pad12)*%
X130048000Y-61976000D03*
%TO.P,A1,13,D10*%
%TO.N,unconnected-(A1-D10-Pad13)*%
X130048000Y-59436000D03*
%TO.P,A1,14,D11*%
%TO.N,unconnected-(A1-D11-Pad14)*%
X130048000Y-56896000D03*
%TO.P,A1,15,D12*%
%TO.N,unconnected-(A1-D12-Pad15)*%
X130048000Y-54356000D03*
%TO.P,A1,16,D13*%
%TO.N,unconnected-(A1-D13-Pad16)*%
X145288000Y-54356000D03*
%TO.P,A1,17,3V3*%
%TO.N,unconnected-(A1-3V3-Pad17)*%
X145288000Y-56896000D03*
%TO.P,A1,18,AREF*%
%TO.N,unconnected-(A1-AREF-Pad18)*%
X145288000Y-59436000D03*
%TO.P,A1,19,A0*%
%TO.N,unconnected-(A1-A0-Pad19)*%
X145288000Y-61976000D03*
%TO.P,A1,20,A1*%
%TO.N,unconnected-(A1-A1-Pad20)*%
X145288000Y-64516000D03*
%TO.P,A1,21,A2*%
%TO.N,unconnected-(A1-A2-Pad21)*%
X145288000Y-67056000D03*
%TO.P,A1,22,A3*%
%TO.N,unconnected-(A1-A3-Pad22)*%
X145288000Y-69596000D03*
%TO.P,A1,23,A4*%
%TO.N,SDA*%
X145288000Y-72136000D03*
%TO.P,A1,24,A5*%
%TO.N,SCL*%
X145288000Y-74676000D03*
%TO.P,A1,25,A6*%
%TO.N,unconnected-(A1-A6-Pad25)*%
X145288000Y-77216000D03*
%TO.P,A1,26,A7*%
%TO.N,unconnected-(A1-A7-Pad26)*%
X145288000Y-79756000D03*
%TO.P,A1,27,+5V*%
%TO.N,VCC*%
X145288000Y-82296000D03*
%TO.P,A1,28,~{RESET}*%
%TO.N,unconnected-(A1-~{RESET}-Pad28)*%
X145288000Y-84836000D03*
%TO.P,A1,29,GND*%
%TO.N,GND*%
X145288000Y-87376000D03*
%TO.P,A1,30,VIN*%
%TO.N,VCC*%
X145288000Y-89916000D03*
%TD*%
D19*
%TO.N,GND*%
X125476000Y-68834000D03*
X125476000Y-66040000D03*
X125476000Y-63246000D03*
X125476000Y-60452000D03*
X107950000Y-76962000D03*
X107950000Y-82804000D03*
X107950000Y-91186000D03*
X112268000Y-90932000D03*
X115062000Y-91694000D03*
X127508000Y-86868000D03*
X132080000Y-78994000D03*
X142240000Y-77724000D03*
X137414000Y-74930000D03*
X142240000Y-74930000D03*
X140208000Y-55626000D03*
X138176000Y-55626000D03*
X135636000Y-55626000D03*
X139700000Y-77724000D03*
X116078000Y-87630000D03*
X138938000Y-87376000D03*
X136398000Y-87376000D03*
X133858000Y-85090000D03*
X133858000Y-89662000D03*
X121158000Y-93472000D03*
X116840000Y-91694000D03*
X124714000Y-90424000D03*
%TO.N,Clock*%
X125476000Y-92964000D03*
%TO.N,GND*%
X123952000Y-81280000D03*
X139954000Y-74930000D03*
X133604000Y-77216000D03*
X141478000Y-91440000D03*
X138938000Y-91440000D03*
X136398000Y-77978000D03*
%TO.N,PISO in*%
X116586000Y-88964000D03*
%TO.N,SIPO out*%
X127000000Y-82550000D03*
X119126000Y-92964000D03*
%TO.N,PISO in*%
X141224000Y-85090000D03*
%TO.N,SIPO out*%
X140208000Y-84328000D03*
%TO.N,Clock*%
X137668000Y-82296000D03*
%TO.N,Shift{slash}load*%
X135128000Y-80518000D03*
%TO.N,GND*%
X117094000Y-55880000D03*
X117094000Y-57404000D03*
X117094000Y-58928000D03*
X115570000Y-58928000D03*
X109474000Y-57404000D03*
X109474000Y-58928000D03*
X110998000Y-58928000D03*
X117094000Y-60452000D03*
X117094000Y-61976000D03*
X117094000Y-63500000D03*
X117094000Y-65024000D03*
X117094000Y-66548000D03*
X117094000Y-68072000D03*
X117094000Y-69596000D03*
X115570000Y-69596000D03*
X115570000Y-68072000D03*
X115570000Y-66548000D03*
X115570000Y-65024000D03*
X115570000Y-63500000D03*
X115570000Y-61976000D03*
X115570000Y-60452000D03*
X114046000Y-69596000D03*
X114046000Y-68072000D03*
X114046000Y-66548000D03*
X114046000Y-65024000D03*
X114046000Y-63500000D03*
X114046000Y-61976000D03*
X114046000Y-60452000D03*
X112522000Y-65024000D03*
X112522000Y-66548000D03*
X112522000Y-68072000D03*
X112522000Y-69596000D03*
X109474000Y-69596000D03*
X109474000Y-68072000D03*
X109474000Y-66548000D03*
X109474000Y-65024000D03*
X109474000Y-63500000D03*
X109474000Y-61976000D03*
X109474000Y-60452000D03*
X112522000Y-63500000D03*
X112522000Y-61976000D03*
X112522000Y-60452000D03*
X110998000Y-60452000D03*
X110998000Y-61976000D03*
X110998000Y-63500000D03*
X110998000Y-65024000D03*
X110998000Y-66548000D03*
X110998000Y-68072000D03*
X110998000Y-69596000D03*
%TD*%
D20*
%TO.N,Net-(J2-Pin_1)*%
X121412000Y-69596000D02*
X121412000Y-55626000D01*
%TO.N,GND*%
X130048000Y-93472000D02*
X128016000Y-93472000D01*
%TO.N,Clock*%
X137668000Y-80264000D02*
X137668000Y-82296000D01*
X133604000Y-79248000D02*
X136652000Y-79248000D01*
X132588000Y-90932000D02*
X132588000Y-80264000D01*
X131572000Y-91948000D02*
X132588000Y-90932000D01*
X132588000Y-80264000D02*
X133604000Y-79248000D01*
X126492000Y-91948000D02*
X131572000Y-91948000D01*
X125476000Y-92964000D02*
X126492000Y-91948000D01*
X136652000Y-79248000D02*
X137668000Y-80264000D01*
%TO.N,SCL*%
X144018000Y-75946000D02*
X145288000Y-74676000D01*
X127480572Y-75946000D02*
X144018000Y-75946000D01*
X120904000Y-82522572D02*
X127480572Y-75946000D01*
X120904000Y-84802950D02*
X120904000Y-82522572D01*
%TO.N,PISO in*%
X142748000Y-88646000D02*
X142748000Y-93472000D01*
X141224000Y-87122000D02*
X142748000Y-88646000D01*
X141224000Y-85090000D02*
X141224000Y-87122000D01*
X130048000Y-77898471D02*
X130048000Y-77216000D01*
X118982471Y-88964000D02*
X130048000Y-77898471D01*
X116586000Y-88964000D02*
X118982471Y-88964000D01*
%TO.N,SIPO out*%
X127000000Y-85090000D02*
X127000000Y-82550000D01*
X119126000Y-92964000D02*
X127000000Y-85090000D01*
X140208000Y-93472000D02*
X140208000Y-84328000D01*
%TO.N,Clock*%
X137668000Y-86360000D02*
X137668000Y-82296000D01*
%TO.N,Shift{slash}load*%
X135128000Y-87122000D02*
X135128000Y-80518000D01*
%TO.N,Clock*%
X137668000Y-93472000D02*
X137668000Y-86360000D01*
%TO.N,Shift{slash}load*%
X135128000Y-93472000D02*
X135128000Y-87122000D01*
%TO.N,GND*%
X114300000Y-75184000D02*
X114257000Y-75227000D01*
X114257000Y-75227000D02*
X114257000Y-76708000D01*
X113284000Y-74168000D02*
X114300000Y-75184000D01*
X112268000Y-75184000D02*
X113284000Y-74168000D01*
X112268000Y-76708000D02*
X112268000Y-75184000D01*
%TO.N,Net-(J2-Pin_1)*%
X112268000Y-71628000D02*
X119380000Y-71628000D01*
X110744000Y-73152000D02*
X112268000Y-71628000D01*
X119380000Y-71628000D02*
X121412000Y-69596000D01*
X110744000Y-74168000D02*
X110744000Y-73152000D01*
X110193000Y-74719000D02*
X110744000Y-74168000D01*
X110193000Y-78740000D02*
X110193000Y-74719000D01*
%TO.N,VCC*%
X115824000Y-85344000D02*
X115824000Y-74168000D01*
%TO.N,SDA*%
X143849000Y-73575000D02*
X145288000Y-72136000D01*
X129001630Y-73575000D02*
X143849000Y-73575000D01*
X118364000Y-84212630D02*
X129001630Y-73575000D01*
X118364000Y-85344000D02*
X118364000Y-84212630D01*
D21*
%TO.N,SCL*%
X120904000Y-85344000D02*
X120904000Y-84802950D01*
%TD*%
%TA.AperFunction,Conductor*%
%TO.N,GND*%
G36*
X125980666Y-53606185D02*
G01*
X126026421Y-53658989D01*
X126036365Y-53728147D01*
X126007340Y-53791703D01*
X125993204Y-53804674D01*
X125993630Y-53805173D01*
X125989918Y-53808343D01*
X125817343Y-53980918D01*
X125817339Y-53980923D01*
X125673896Y-54178357D01*
X125563097Y-54395812D01*
X125487678Y-54627927D01*
X125449500Y-54868973D01*
X125449500Y-55083232D01*
X125429815Y-55150271D01*
X125377011Y-55196026D01*
X125307853Y-55205970D01*
X125244297Y-55176945D01*
X125207569Y-55121551D01*
X125203094Y-55107781D01*
X125106624Y-54918449D01*
X125067270Y-54864282D01*
X125067269Y-54864282D01*
X124434962Y-55496590D01*
X124417925Y-55433007D01*
X124352099Y-55318993D01*
X124259007Y-55225901D01*
X124144993Y-55160075D01*
X124081409Y-55143037D01*
X124713716Y-54510728D01*
X124659550Y-54471375D01*
X124470217Y-54374904D01*
X124268129Y-54309242D01*
X124058246Y-54276000D01*
X123845754Y-54276000D01*
X123635872Y-54309242D01*
X123635869Y-54309242D01*
X123433782Y-54374904D01*
X123244439Y-54471380D01*
X123190282Y-54510727D01*
X123190282Y-54510728D01*
X123822591Y-55143037D01*
X123759007Y-55160075D01*
X123644993Y-55225901D01*
X123551901Y-55318993D01*
X123486075Y-55433007D01*
X123469037Y-55496591D01*
X122798818Y-54826372D01*
X122765333Y-54765049D01*
X122765330Y-54765036D01*
X122762499Y-54752015D01*
X122762499Y-54728128D01*
X122756091Y-54668517D01*
X122714493Y-54556986D01*
X122705798Y-54533673D01*
X122705793Y-54533664D01*
X122619547Y-54418455D01*
X122619544Y-54418452D01*
X122504335Y-54332206D01*
X122504328Y-54332202D01*
X122369482Y-54281908D01*
X122369483Y-54281908D01*
X122309883Y-54275501D01*
X122309881Y-54275500D01*
X122309873Y-54275500D01*
X122309864Y-54275500D01*
X120514129Y-54275500D01*
X120514123Y-54275501D01*
X120454516Y-54281908D01*
X120319671Y-54332202D01*
X120319664Y-54332206D01*
X120204455Y-54418452D01*
X120204452Y-54418455D01*
X120118206Y-54533664D01*
X120118202Y-54533671D01*
X120067908Y-54668517D01*
X120061501Y-54728116D01*
X120061500Y-54728135D01*
X120061500Y-56523870D01*
X120061501Y-56523876D01*
X120067908Y-56583483D01*
X120118202Y-56718328D01*
X120118206Y-56718335D01*
X120204452Y-56833544D01*
X120204455Y-56833547D01*
X120319664Y-56919793D01*
X120319671Y-56919797D01*
X120364618Y-56936561D01*
X120454517Y-56970091D01*
X120514127Y-56976500D01*
X120587500Y-56976499D01*
X120654538Y-56996183D01*
X120700294Y-57048986D01*
X120711500Y-57100499D01*
X120711500Y-69254481D01*
X120691815Y-69321520D01*
X120675181Y-69342162D01*
X119126162Y-70891181D01*
X119064839Y-70924666D01*
X119038481Y-70927500D01*
X112199003Y-70927500D01*
X112090590Y-70949065D01*
X112090589Y-70949065D01*
X112077131Y-70951742D01*
X112063673Y-70954419D01*
X112063671Y-70954420D01*
X112010866Y-70976292D01*
X112010864Y-70976293D01*
X112010863Y-70976292D01*
X111936196Y-71007221D01*
X111936181Y-71007229D01*
X111898130Y-71032655D01*
X111821457Y-71083886D01*
X111821453Y-71083889D01*
X110274160Y-72631181D01*
X110212837Y-72664666D01*
X110186479Y-72667500D01*
X109743629Y-72667500D01*
X109743623Y-72667501D01*
X109684016Y-72673908D01*
X109549171Y-72724202D01*
X109549164Y-72724206D01*
X109433955Y-72810452D01*
X109433952Y-72810455D01*
X109347706Y-72925664D01*
X109347702Y-72925671D01*
X109297408Y-73060517D01*
X109291001Y-73120116D01*
X109291000Y-73120135D01*
X109291000Y-75215870D01*
X109291001Y-75215876D01*
X109297408Y-75275483D01*
X109347702Y-75410328D01*
X109347703Y-75410330D01*
X109347704Y-75410331D01*
X109397612Y-75477000D01*
X109398517Y-75478208D01*
X109422934Y-75543672D01*
X109408083Y-75611945D01*
X109386932Y-75640200D01*
X109262787Y-75764345D01*
X109170687Y-75913663D01*
X109170685Y-75913668D01*
X109159467Y-75947523D01*
X109115501Y-76080203D01*
X109115501Y-76080204D01*
X109115500Y-76080204D01*
X109105000Y-76182983D01*
X109105000Y-77233001D01*
X109105001Y-77233019D01*
X109115500Y-77335796D01*
X109115501Y-77335799D01*
X109170685Y-77502331D01*
X109170687Y-77502336D01*
X109266580Y-77657803D01*
X109264121Y-77659319D01*
X109285322Y-77711940D01*
X109272251Y-77780576D01*
X109266213Y-77789970D01*
X109266580Y-77790197D01*
X109170687Y-77945663D01*
X109170686Y-77945666D01*
X109115501Y-78112203D01*
X109115501Y-78112204D01*
X109115500Y-78112204D01*
X109105000Y-78214983D01*
X109105000Y-79265001D01*
X109105001Y-79265019D01*
X109115500Y-79367796D01*
X109115501Y-79367799D01*
X109143226Y-79451465D01*
X109170686Y-79534334D01*
X109262788Y-79683656D01*
X109386844Y-79807712D01*
X109536166Y-79899814D01*
X109702703Y-79954999D01*
X109805491Y-79965500D01*
X110580508Y-79965499D01*
X110580516Y-79965498D01*
X110580519Y-79965498D01*
X110638706Y-79959554D01*
X110683297Y-79954999D01*
X110849834Y-79899814D01*
X110999156Y-79807712D01*
X111123212Y-79683656D01*
X111125252Y-79680347D01*
X111127245Y-79678555D01*
X111127693Y-79677989D01*
X111127789Y-79678065D01*
X111177194Y-79633623D01*
X111246156Y-79622395D01*
X111310240Y-79650234D01*
X111336329Y-79680339D01*
X111338181Y-79683341D01*
X111338183Y-79683344D01*
X111462154Y-79807315D01*
X111611375Y-79899356D01*
X111611380Y-79899358D01*
X111777802Y-79954505D01*
X111777809Y-79954506D01*
X111880519Y-79964999D01*
X112017999Y-79964999D01*
X112518000Y-79964999D01*
X112655472Y-79964999D01*
X112655486Y-79964998D01*
X112758197Y-79954505D01*
X112924619Y-79899358D01*
X112924624Y-79899356D01*
X113073845Y-79807315D01*
X113174819Y-79706342D01*
X113236142Y-79672857D01*
X113305834Y-79677841D01*
X113350181Y-79706342D01*
X113451154Y-79807315D01*
X113600375Y-79899356D01*
X113600380Y-79899358D01*
X113766802Y-79954505D01*
X113766809Y-79954506D01*
X113869519Y-79964999D01*
X114006999Y-79964999D01*
X114007000Y-79964998D01*
X114007000Y-78990000D01*
X112518000Y-78990000D01*
X112518000Y-79964999D01*
X112017999Y-79964999D01*
X112018000Y-79964998D01*
X112018000Y-78490000D01*
X112518000Y-78490000D01*
X114007000Y-78490000D01*
X114007000Y-76958000D01*
X112518000Y-76958000D01*
X112518000Y-78490000D01*
X112018000Y-78490000D01*
X112018000Y-76832000D01*
X112037685Y-76764961D01*
X112090489Y-76719206D01*
X112142000Y-76708000D01*
X112268000Y-76708000D01*
X112268000Y-76582000D01*
X112287685Y-76514961D01*
X112340489Y-76469206D01*
X112392000Y-76458000D01*
X114007000Y-76458000D01*
X114007000Y-75477000D01*
X114026685Y-75409961D01*
X114079489Y-75364206D01*
X114131000Y-75353000D01*
X114189505Y-75353000D01*
X114230241Y-75323403D01*
X114391905Y-75161739D01*
X114453371Y-75077137D01*
X114508701Y-75034470D01*
X114578314Y-75028491D01*
X114640109Y-75061096D01*
X114654007Y-75077134D01*
X114715714Y-75162066D01*
X114715716Y-75162068D01*
X114834808Y-75281160D01*
X114868293Y-75342483D01*
X114863309Y-75412175D01*
X114821437Y-75468108D01*
X114755973Y-75492525D01*
X114734525Y-75492199D01*
X114644488Y-75483000D01*
X114507000Y-75483000D01*
X114507000Y-79964999D01*
X114644472Y-79964999D01*
X114644486Y-79964998D01*
X114747197Y-79954505D01*
X114913619Y-79899358D01*
X114913628Y-79899354D01*
X114934401Y-79886541D01*
X115001793Y-79868099D01*
X115068457Y-79889020D01*
X115113228Y-79942661D01*
X115123500Y-79992078D01*
X115123500Y-84182255D01*
X115103815Y-84249294D01*
X115072385Y-84282573D01*
X114976787Y-84352028D01*
X114976782Y-84352032D01*
X114832028Y-84496786D01*
X114711713Y-84662388D01*
X114664203Y-84755630D01*
X114616228Y-84806426D01*
X114548407Y-84823220D01*
X114482272Y-84800682D01*
X114443234Y-84755628D01*
X114395861Y-84662652D01*
X114363474Y-84618077D01*
X114363474Y-84618076D01*
X113684000Y-85297551D01*
X113684000Y-85291339D01*
X113656741Y-85189606D01*
X113604080Y-85098394D01*
X113529606Y-85023920D01*
X113438394Y-84971259D01*
X113336661Y-84944000D01*
X113330446Y-84944000D01*
X114009922Y-84264524D01*
X114009921Y-84264523D01*
X113965359Y-84232147D01*
X113965350Y-84232141D01*
X113783031Y-84139244D01*
X113588417Y-84076009D01*
X113386317Y-84044000D01*
X113181683Y-84044000D01*
X112979582Y-84076009D01*
X112784968Y-84139244D01*
X112602644Y-84232143D01*
X112558077Y-84264523D01*
X112558077Y-84264524D01*
X113237554Y-84944000D01*
X113231339Y-84944000D01*
X113129606Y-84971259D01*
X113038394Y-85023920D01*
X112963920Y-85098394D01*
X112911259Y-85189606D01*
X112884000Y-85291339D01*
X112884000Y-85297553D01*
X112204524Y-84618077D01*
X112204523Y-84618077D01*
X112172143Y-84662644D01*
X112079244Y-84844968D01*
X112016009Y-85039582D01*
X111984000Y-85241682D01*
X111984000Y-85446317D01*
X112016009Y-85648417D01*
X112079244Y-85843031D01*
X112172141Y-86025350D01*
X112172147Y-86025359D01*
X112204523Y-86069921D01*
X112204524Y-86069922D01*
X112884000Y-85390446D01*
X112884000Y-85396661D01*
X112911259Y-85498394D01*
X112963920Y-85589606D01*
X113038394Y-85664080D01*
X113129606Y-85716741D01*
X113231339Y-85744000D01*
X113237553Y-85744000D01*
X112558076Y-86423474D01*
X112602650Y-86455859D01*
X112784968Y-86548755D01*
X112979582Y-86611990D01*
X113181683Y-86644000D01*
X113386317Y-86644000D01*
X113588417Y-86611990D01*
X113783031Y-86548755D01*
X113965349Y-86455859D01*
X114009921Y-86423474D01*
X113330447Y-85744000D01*
X113336661Y-85744000D01*
X113438394Y-85716741D01*
X113529606Y-85664080D01*
X113604080Y-85589606D01*
X113656741Y-85498394D01*
X113684000Y-85396661D01*
X113684000Y-85390447D01*
X114363474Y-86069921D01*
X114395861Y-86025347D01*
X114395861Y-86025346D01*
X114443234Y-85932371D01*
X114491208Y-85881575D01*
X114559028Y-85864779D01*
X114625164Y-85887316D01*
X114664203Y-85932369D01*
X114711713Y-86025611D01*
X114832028Y-86191213D01*
X114976786Y-86335971D01*
X115097226Y-86423474D01*
X115142390Y-86456287D01*
X115258607Y-86515503D01*
X115324776Y-86549218D01*
X115324778Y-86549218D01*
X115324781Y-86549220D01*
X115429137Y-86583127D01*
X115519465Y-86612477D01*
X115620557Y-86628488D01*
X115721648Y-86644500D01*
X115721649Y-86644500D01*
X115926351Y-86644500D01*
X115926352Y-86644500D01*
X116128534Y-86612477D01*
X116323219Y-86549220D01*
X116505610Y-86456287D01*
X116605067Y-86384028D01*
X116671213Y-86335971D01*
X116671215Y-86335968D01*
X116671219Y-86335966D01*
X116815966Y-86191219D01*
X116815968Y-86191215D01*
X116815971Y-86191213D01*
X116936284Y-86025614D01*
X116936286Y-86025611D01*
X116936287Y-86025610D01*
X116983516Y-85932917D01*
X117031489Y-85882123D01*
X117099310Y-85865328D01*
X117165445Y-85887865D01*
X117204483Y-85932917D01*
X117248348Y-86019006D01*
X117251715Y-86025614D01*
X117372028Y-86191213D01*
X117516786Y-86335971D01*
X117637226Y-86423474D01*
X117682390Y-86456287D01*
X117798607Y-86515503D01*
X117864776Y-86549218D01*
X117864778Y-86549218D01*
X117864781Y-86549220D01*
X117969137Y-86583127D01*
X118059465Y-86612477D01*
X118160557Y-86628488D01*
X118261648Y-86644500D01*
X118261649Y-86644500D01*
X118466351Y-86644500D01*
X118466352Y-86644500D01*
X118668534Y-86612477D01*
X118863219Y-86549220D01*
X119045610Y-86456287D01*
X119145067Y-86384028D01*
X119211213Y-86335971D01*
X119211215Y-86335968D01*
X119211219Y-86335966D01*
X119355966Y-86191219D01*
X119355968Y-86191215D01*
X119355971Y-86191213D01*
X119476284Y-86025614D01*
X119476286Y-86025611D01*
X119476287Y-86025610D01*
X119523516Y-85932917D01*
X119571489Y-85882123D01*
X119639310Y-85865328D01*
X119705445Y-85887865D01*
X119744483Y-85932917D01*
X119788348Y-86019006D01*
X119791715Y-86025614D01*
X119912028Y-86191213D01*
X120056786Y-86335971D01*
X120222385Y-86456284D01*
X120222387Y-86456285D01*
X120222390Y-86456287D01*
X120253912Y-86472348D01*
X120304708Y-86520322D01*
X120321503Y-86588143D01*
X120298966Y-86654278D01*
X120285298Y-86670514D01*
X118728633Y-88227181D01*
X118667310Y-88260666D01*
X118640952Y-88263500D01*
X117011316Y-88263500D01*
X116963864Y-88254061D01*
X116819501Y-88194264D01*
X116819489Y-88194261D01*
X116664845Y-88163500D01*
X116664842Y-88163500D01*
X116507158Y-88163500D01*
X116507155Y-88163500D01*
X116352510Y-88194261D01*
X116352498Y-88194264D01*
X116206827Y-88254602D01*
X116206814Y-88254609D01*
X116075711Y-88342210D01*
X116075707Y-88342213D01*
X115964213Y-88453707D01*
X115964210Y-88453711D01*
X115876609Y-88584814D01*
X115876602Y-88584827D01*
X115816264Y-88730498D01*
X115816261Y-88730510D01*
X115785500Y-88885153D01*
X115785500Y-89042846D01*
X115816261Y-89197489D01*
X115816264Y-89197501D01*
X115876602Y-89343172D01*
X115876609Y-89343185D01*
X115964210Y-89474288D01*
X115964213Y-89474292D01*
X116075707Y-89585786D01*
X116075711Y-89585789D01*
X116206814Y-89673390D01*
X116206827Y-89673397D01*
X116309561Y-89715950D01*
X116352503Y-89733737D01*
X116502588Y-89763591D01*
X116507153Y-89764499D01*
X116507156Y-89764500D01*
X116507158Y-89764500D01*
X116664844Y-89764500D01*
X116664845Y-89764499D01*
X116819497Y-89733737D01*
X116909270Y-89696552D01*
X116963864Y-89673939D01*
X117011316Y-89664500D01*
X119051467Y-89664500D01*
X119142511Y-89646389D01*
X119186799Y-89637580D01*
X119250540Y-89611177D01*
X119314278Y-89584777D01*
X119314279Y-89584776D01*
X119314282Y-89584775D01*
X119429014Y-89508114D01*
X126076595Y-82860531D01*
X126105383Y-82844812D01*
X126133608Y-82828066D01*
X126135901Y-82828147D01*
X126137916Y-82827048D01*
X126170652Y-82829389D01*
X126203433Y-82830560D01*
X126205317Y-82831868D01*
X126207608Y-82832032D01*
X126233878Y-82851698D01*
X126260826Y-82870408D01*
X126262388Y-82873041D01*
X126263541Y-82873904D01*
X126278835Y-82900761D01*
X126290061Y-82927863D01*
X126299500Y-82975316D01*
X126299500Y-84748480D01*
X126279815Y-84815519D01*
X126263181Y-84836161D01*
X118931412Y-92167929D01*
X118891184Y-92194809D01*
X118746823Y-92254604D01*
X118746814Y-92254609D01*
X118615711Y-92342210D01*
X118615707Y-92342213D01*
X118504213Y-92453707D01*
X118504210Y-92453711D01*
X118416609Y-92584814D01*
X118416602Y-92584827D01*
X118356264Y-92730498D01*
X118356261Y-92730510D01*
X118325500Y-92885153D01*
X118325500Y-93042846D01*
X118356261Y-93197489D01*
X118356264Y-93197501D01*
X118416602Y-93343172D01*
X118416609Y-93343185D01*
X118504210Y-93474288D01*
X118504213Y-93474292D01*
X118615707Y-93585786D01*
X118615711Y-93585789D01*
X118746814Y-93673390D01*
X118746827Y-93673397D01*
X118892498Y-93733735D01*
X118892503Y-93733737D01*
X119047153Y-93764499D01*
X119047156Y-93764500D01*
X119047158Y-93764500D01*
X119204844Y-93764500D01*
X119204845Y-93764499D01*
X119359497Y-93733737D01*
X119505179Y-93673394D01*
X119636289Y-93585789D01*
X119747789Y-93474289D01*
X119835394Y-93343179D01*
X119835395Y-93343176D01*
X119835397Y-93343173D01*
X119887646Y-93217030D01*
X119895192Y-93198810D01*
X119922069Y-93158586D01*
X127544114Y-85536543D01*
X127620775Y-85421811D01*
X127631193Y-85396661D01*
X127673578Y-85294332D01*
X127673580Y-85294328D01*
X127694411Y-85189606D01*
X127700500Y-85158996D01*
X127700500Y-82975316D01*
X127709939Y-82927864D01*
X127750728Y-82829389D01*
X127769737Y-82783497D01*
X127800500Y-82628842D01*
X127800500Y-82471158D01*
X127800500Y-82471155D01*
X127800499Y-82471153D01*
X127785745Y-82396981D01*
X127769737Y-82316503D01*
X127733979Y-82230174D01*
X127709397Y-82170827D01*
X127709390Y-82170814D01*
X127621789Y-82039711D01*
X127621786Y-82039707D01*
X127510292Y-81928213D01*
X127510288Y-81928210D01*
X127379185Y-81840609D01*
X127379173Y-81840602D01*
X127350762Y-81828835D01*
X127296358Y-81784995D01*
X127274293Y-81718701D01*
X127291572Y-81651001D01*
X127310529Y-81626597D01*
X128667798Y-80269328D01*
X128729119Y-80235845D01*
X128798811Y-80240829D01*
X128854744Y-80282701D01*
X128865962Y-80300716D01*
X128935715Y-80437614D01*
X129056028Y-80603213D01*
X129200786Y-80747971D01*
X129355749Y-80860556D01*
X129366390Y-80868287D01*
X129420513Y-80895864D01*
X129459629Y-80915795D01*
X129510425Y-80963770D01*
X129527220Y-81031591D01*
X129504682Y-81097726D01*
X129459629Y-81136765D01*
X129366650Y-81184140D01*
X129201105Y-81304417D01*
X129201104Y-81304417D01*
X129056417Y-81449104D01*
X129056417Y-81449105D01*
X128936140Y-81614650D01*
X128843244Y-81796970D01*
X128780009Y-81991586D01*
X128771391Y-82046000D01*
X129614988Y-82046000D01*
X129582075Y-82103007D01*
X129548000Y-82230174D01*
X129548000Y-82361826D01*
X129582075Y-82488993D01*
X129614988Y-82546000D01*
X128771391Y-82546000D01*
X128780009Y-82600413D01*
X128843244Y-82795029D01*
X128936140Y-82977349D01*
X129056417Y-83142894D01*
X129056417Y-83142895D01*
X129201104Y-83287582D01*
X129366652Y-83407861D01*
X129459628Y-83455234D01*
X129510425Y-83503208D01*
X129527220Y-83571029D01*
X129504683Y-83637164D01*
X129459630Y-83676203D01*
X129366388Y-83723713D01*
X129200786Y-83844028D01*
X129056028Y-83988786D01*
X128935715Y-84154386D01*
X128842781Y-84336776D01*
X128779522Y-84531465D01*
X128747500Y-84733648D01*
X128747500Y-84938351D01*
X128779522Y-85140534D01*
X128842781Y-85335223D01*
X128874086Y-85396661D01*
X128934544Y-85515316D01*
X128935715Y-85517613D01*
X129056028Y-85683213D01*
X129200786Y-85827971D01*
X129355749Y-85940556D01*
X129366390Y-85948287D01*
X129457840Y-85994883D01*
X129459080Y-85995515D01*
X129509876Y-86043490D01*
X129526671Y-86111311D01*
X129504134Y-86177446D01*
X129459080Y-86216485D01*
X129366386Y-86263715D01*
X129200786Y-86384028D01*
X129056028Y-86528786D01*
X128935715Y-86694386D01*
X128842781Y-86876776D01*
X128779522Y-87071465D01*
X128747500Y-87273648D01*
X128747500Y-87478351D01*
X128779522Y-87680534D01*
X128842781Y-87875223D01*
X128935715Y-88057613D01*
X129056028Y-88223213D01*
X129200784Y-88367969D01*
X129237068Y-88394330D01*
X129279735Y-88449659D01*
X129285715Y-88519273D01*
X129253109Y-88581068D01*
X129192271Y-88615426D01*
X129177440Y-88617938D01*
X129140519Y-88621907D01*
X129005671Y-88672202D01*
X129005664Y-88672206D01*
X128890455Y-88758452D01*
X128890452Y-88758455D01*
X128804206Y-88873664D01*
X128804202Y-88873671D01*
X128753908Y-89008517D01*
X128750218Y-89042846D01*
X128747501Y-89068123D01*
X128747500Y-89068135D01*
X128747500Y-90763870D01*
X128747501Y-90763876D01*
X128753908Y-90823483D01*
X128804202Y-90958328D01*
X128804206Y-90958335D01*
X128872220Y-91049189D01*
X128896638Y-91114653D01*
X128881787Y-91182926D01*
X128832382Y-91232332D01*
X128772954Y-91247500D01*
X126423004Y-91247500D01*
X126287677Y-91274418D01*
X126287667Y-91274421D01*
X126160192Y-91327222D01*
X126045454Y-91403887D01*
X125281412Y-92167929D01*
X125241184Y-92194809D01*
X125096823Y-92254604D01*
X125096814Y-92254609D01*
X124965711Y-92342210D01*
X124965707Y-92342213D01*
X124854213Y-92453707D01*
X124854210Y-92453711D01*
X124766609Y-92584814D01*
X124766602Y-92584827D01*
X124706264Y-92730498D01*
X124706261Y-92730510D01*
X124675500Y-92885153D01*
X124675500Y-93042846D01*
X124706261Y-93197489D01*
X124706264Y-93197501D01*
X124766602Y-93343172D01*
X124766609Y-93343185D01*
X124854210Y-93474288D01*
X124854213Y-93474292D01*
X124965707Y-93585786D01*
X124965711Y-93585789D01*
X125096814Y-93673390D01*
X125096827Y-93673397D01*
X125242498Y-93733735D01*
X125242503Y-93733737D01*
X125397153Y-93764499D01*
X125397156Y-93764500D01*
X125397158Y-93764500D01*
X125554844Y-93764500D01*
X125554845Y-93764499D01*
X125709497Y-93733737D01*
X125855179Y-93673394D01*
X125986289Y-93585789D01*
X126097789Y-93474289D01*
X126185394Y-93343179D01*
X126185395Y-93343176D01*
X126185397Y-93343173D01*
X126237646Y-93217030D01*
X126245192Y-93198810D01*
X126272069Y-93158586D01*
X126745838Y-92684819D01*
X126807161Y-92651334D01*
X126833519Y-92648500D01*
X128750104Y-92648500D01*
X128817143Y-92668185D01*
X128862898Y-92720989D01*
X128872842Y-92790147D01*
X128860589Y-92828795D01*
X128796904Y-92953782D01*
X128731242Y-93155869D01*
X128731242Y-93155872D01*
X128698000Y-93365753D01*
X128698000Y-93578246D01*
X128731242Y-93788127D01*
X128731242Y-93788130D01*
X128796905Y-93990220D01*
X128796905Y-93990221D01*
X128800975Y-93998208D01*
X128813870Y-94066878D01*
X128787592Y-94131617D01*
X128730484Y-94171873D01*
X128690489Y-94178500D01*
X108589874Y-94178500D01*
X108580145Y-94178118D01*
X108375014Y-94161973D01*
X108355796Y-94158929D01*
X108160474Y-94112037D01*
X108141971Y-94106025D01*
X108040551Y-94064015D01*
X107956383Y-94029151D01*
X107939048Y-94020318D01*
X107853412Y-93967841D01*
X107767774Y-93915362D01*
X107752034Y-93903926D01*
X107599288Y-93773468D01*
X107585530Y-93759710D01*
X107542570Y-93709410D01*
X107455070Y-93606961D01*
X107443638Y-93591226D01*
X107338679Y-93419949D01*
X107329847Y-93402614D01*
X107305225Y-93343172D01*
X107252973Y-93217023D01*
X107246964Y-93198531D01*
X107200069Y-93003197D01*
X107197026Y-92983984D01*
X107191951Y-92919506D01*
X107180880Y-92778839D01*
X107180499Y-92769113D01*
X107180499Y-57376872D01*
X111283500Y-57376872D01*
X111283500Y-57639127D01*
X111297204Y-57743213D01*
X111317730Y-57899116D01*
X111372492Y-58103490D01*
X111385602Y-58152418D01*
X111385605Y-58152428D01*
X111485953Y-58394690D01*
X111485958Y-58394700D01*
X111617075Y-58621803D01*
X111776718Y-58829851D01*
X111776726Y-58829860D01*
X111962140Y-59015274D01*
X111962148Y-59015281D01*
X112170196Y-59174924D01*
X112397299Y-59306041D01*
X112397309Y-59306046D01*
X112639571Y-59406394D01*
X112639581Y-59406398D01*
X112892884Y-59474270D01*
X113152880Y-59508500D01*
X113152887Y-59508500D01*
X113415113Y-59508500D01*
X113415120Y-59508500D01*
X113675116Y-59474270D01*
X113928419Y-59406398D01*
X114170697Y-59306043D01*
X114397803Y-59174924D01*
X114605851Y-59015282D01*
X114605855Y-59015277D01*
X114605860Y-59015274D01*
X114791274Y-58829860D01*
X114791277Y-58829855D01*
X114791282Y-58829851D01*
X114950924Y-58621803D01*
X115082043Y-58394697D01*
X115182398Y-58152419D01*
X115250270Y-57899116D01*
X115284500Y-57639120D01*
X115284500Y-57376880D01*
X115250270Y-57116884D01*
X115182398Y-56863581D01*
X115182394Y-56863571D01*
X115082046Y-56621309D01*
X115082041Y-56621299D01*
X114950924Y-56394196D01*
X114791281Y-56186148D01*
X114791274Y-56186140D01*
X114605860Y-56000726D01*
X114605851Y-56000718D01*
X114397803Y-55841075D01*
X114170700Y-55709958D01*
X114170690Y-55709953D01*
X113928428Y-55609605D01*
X113928421Y-55609603D01*
X113928419Y-55609602D01*
X113675116Y-55541730D01*
X113617339Y-55534123D01*
X113415127Y-55507500D01*
X113415120Y-55507500D01*
X113152880Y-55507500D01*
X113152872Y-55507500D01*
X112937933Y-55535799D01*
X112892884Y-55541730D01*
X112639581Y-55609602D01*
X112639571Y-55609605D01*
X112397309Y-55709953D01*
X112397299Y-55709958D01*
X112170196Y-55841075D01*
X111962148Y-56000718D01*
X111776718Y-56186148D01*
X111617075Y-56394196D01*
X111485958Y-56621299D01*
X111485953Y-56621309D01*
X111385605Y-56863571D01*
X111385602Y-56863581D01*
X111322121Y-57100499D01*
X111317730Y-57116885D01*
X111283500Y-57376872D01*
X107180499Y-57376872D01*
X107180499Y-56077371D01*
X107200184Y-56010332D01*
X107252988Y-55964577D01*
X107322146Y-55954633D01*
X107385702Y-55983658D01*
X107398670Y-55997799D01*
X107399173Y-55997370D01*
X107402343Y-56001081D01*
X107574918Y-56173656D01*
X107574923Y-56173660D01*
X107630984Y-56214390D01*
X107772361Y-56317106D01*
X107989815Y-56427904D01*
X108221924Y-56503321D01*
X108462973Y-56541500D01*
X108462974Y-56541500D01*
X108707026Y-56541500D01*
X108707027Y-56541500D01*
X108948076Y-56503321D01*
X109180185Y-56427904D01*
X109397639Y-56317106D01*
X109595083Y-56173655D01*
X109767655Y-56001083D01*
X109911106Y-55803639D01*
X110021904Y-55586185D01*
X110097321Y-55354076D01*
X110135500Y-55113027D01*
X110135500Y-54868973D01*
X110097321Y-54627924D01*
X110021904Y-54395815D01*
X109911106Y-54178361D01*
X109818911Y-54051465D01*
X109767660Y-53980923D01*
X109767656Y-53980918D01*
X109595081Y-53808343D01*
X109591370Y-53805173D01*
X109592825Y-53803468D01*
X109555830Y-53755510D01*
X109549838Y-53685897D01*
X109582433Y-53624096D01*
X109643265Y-53589728D01*
X109671373Y-53586500D01*
X125913627Y-53586500D01*
X125980666Y-53606185D01*
G37*
%TD.AperFunction*%
%TA.AperFunction,Conductor*%
G36*
X134323535Y-79951362D02*
G01*
X134333617Y-79950096D01*
X134356495Y-79961040D01*
X134380825Y-79968185D01*
X134387478Y-79975863D01*
X134396646Y-79980249D01*
X134409976Y-80001827D01*
X134426580Y-80020989D01*
X134428025Y-80031045D01*
X134433367Y-80039691D01*
X134432915Y-80065047D01*
X134436524Y-80090147D01*
X134432269Y-80101249D01*
X134432122Y-80109549D01*
X134420850Y-80133109D01*
X134421479Y-80133446D01*
X134418602Y-80138827D01*
X134358264Y-80284498D01*
X134358261Y-80284510D01*
X134327500Y-80439153D01*
X134327500Y-80596846D01*
X134358261Y-80751489D01*
X134358264Y-80751501D01*
X134418061Y-80895864D01*
X134427500Y-80943316D01*
X134427500Y-92248452D01*
X134407815Y-92315491D01*
X134376385Y-92348770D01*
X134248213Y-92441890D01*
X134097890Y-92592213D01*
X133972949Y-92764182D01*
X133968484Y-92772946D01*
X133920509Y-92823742D01*
X133852688Y-92840536D01*
X133786553Y-92817998D01*
X133747516Y-92772946D01*
X133743050Y-92764182D01*
X133618109Y-92592213D01*
X133467786Y-92441890D01*
X133295820Y-92316951D01*
X133106414Y-92220444D01*
X133106413Y-92220443D01*
X133106412Y-92220443D01*
X132904243Y-92154754D01*
X132904241Y-92154753D01*
X132904240Y-92154753D01*
X132742957Y-92129208D01*
X132694287Y-92121500D01*
X132688519Y-92121500D01*
X132621480Y-92101815D01*
X132575725Y-92049011D01*
X132565781Y-91979853D01*
X132594806Y-91916297D01*
X132600838Y-91909819D01*
X133132112Y-91378545D01*
X133132112Y-91378544D01*
X133132114Y-91378543D01*
X133208775Y-91263811D01*
X133231027Y-91210091D01*
X133241636Y-91184477D01*
X133261580Y-91136328D01*
X133281923Y-91034059D01*
X133288500Y-91000996D01*
X133288500Y-80605519D01*
X133308185Y-80538480D01*
X133324819Y-80517838D01*
X133857838Y-79984819D01*
X133919161Y-79951334D01*
X133945519Y-79948500D01*
X134313786Y-79948500D01*
X134323535Y-79951362D01*
G37*
%TD.AperFunction*%
%TA.AperFunction,Conductor*%
G36*
X136377520Y-79968185D02*
G01*
X136398162Y-79984819D01*
X136931181Y-80517838D01*
X136964666Y-80579161D01*
X136967500Y-80605519D01*
X136967500Y-81870684D01*
X136958061Y-81918136D01*
X136898264Y-82062498D01*
X136898261Y-82062510D01*
X136867500Y-82217153D01*
X136867500Y-82374846D01*
X136898261Y-82529489D01*
X136898264Y-82529501D01*
X136958061Y-82673864D01*
X136967500Y-82721316D01*
X136967500Y-92248452D01*
X136947815Y-92315491D01*
X136916385Y-92348770D01*
X136788213Y-92441890D01*
X136637890Y-92592213D01*
X136512949Y-92764182D01*
X136508484Y-92772946D01*
X136460509Y-92823742D01*
X136392688Y-92840536D01*
X136326553Y-92817998D01*
X136287516Y-92772946D01*
X136283050Y-92764182D01*
X136158109Y-92592213D01*
X136007786Y-92441890D01*
X135879615Y-92348770D01*
X135836949Y-92293441D01*
X135828500Y-92248452D01*
X135828500Y-80943316D01*
X135837939Y-80895864D01*
X135897735Y-80751501D01*
X135897737Y-80751497D01*
X135928500Y-80596842D01*
X135928500Y-80439158D01*
X135928500Y-80439155D01*
X135928499Y-80439153D01*
X135897738Y-80284510D01*
X135897737Y-80284503D01*
X135879647Y-80240829D01*
X135837397Y-80138827D01*
X135834521Y-80133446D01*
X135836322Y-80132483D01*
X135818234Y-80074710D01*
X135836721Y-80007330D01*
X135888701Y-79960641D01*
X135942214Y-79948500D01*
X136310481Y-79948500D01*
X136377520Y-79968185D01*
G37*
%TD.AperFunction*%
%TA.AperFunction,Conductor*%
G36*
X144001983Y-76666185D02*
G01*
X144047738Y-76718989D01*
X144057682Y-76788147D01*
X144052875Y-76808818D01*
X144019523Y-76911461D01*
X144019523Y-76911464D01*
X143987500Y-77113648D01*
X143987500Y-77318351D01*
X144019522Y-77520534D01*
X144082781Y-77715223D01*
X144175715Y-77897613D01*
X144296028Y-78063213D01*
X144440786Y-78207971D01*
X144595749Y-78320556D01*
X144606390Y-78328287D01*
X144697840Y-78374883D01*
X144699080Y-78375515D01*
X144749876Y-78423490D01*
X144766671Y-78491311D01*
X144744134Y-78557446D01*
X144699080Y-78596485D01*
X144606386Y-78643715D01*
X144440786Y-78764028D01*
X144296028Y-78908786D01*
X144175715Y-79074386D01*
X144082781Y-79256776D01*
X144019522Y-79451465D01*
X143987500Y-79653648D01*
X143987500Y-79858351D01*
X144019522Y-80060534D01*
X144082781Y-80255223D01*
X144175715Y-80437613D01*
X144296028Y-80603213D01*
X144440786Y-80747971D01*
X144595749Y-80860556D01*
X144606390Y-80868287D01*
X144663094Y-80897179D01*
X144699080Y-80915515D01*
X144749876Y-80963490D01*
X144766671Y-81031311D01*
X144744134Y-81097446D01*
X144699080Y-81136485D01*
X144606386Y-81183715D01*
X144440786Y-81304028D01*
X144296028Y-81448786D01*
X144175715Y-81614386D01*
X144082781Y-81796776D01*
X144019522Y-81991465D01*
X143987500Y-82193648D01*
X143987500Y-82398351D01*
X144019522Y-82600534D01*
X144082781Y-82795223D01*
X144122432Y-82873041D01*
X144174544Y-82975316D01*
X144175715Y-82977613D01*
X144296028Y-83143213D01*
X144440786Y-83287971D01*
X144595749Y-83400556D01*
X144606390Y-83408287D01*
X144697840Y-83454883D01*
X144699080Y-83455515D01*
X144749876Y-83503490D01*
X144766671Y-83571311D01*
X144744134Y-83637446D01*
X144699080Y-83676485D01*
X144606386Y-83723715D01*
X144440786Y-83844028D01*
X144296028Y-83988786D01*
X144175715Y-84154386D01*
X144082781Y-84336776D01*
X144019522Y-84531465D01*
X143987500Y-84733648D01*
X143987500Y-84938351D01*
X144019522Y-85140534D01*
X144082781Y-85335223D01*
X144114086Y-85396661D01*
X144174544Y-85515316D01*
X144175715Y-85517613D01*
X144296028Y-85683213D01*
X144440786Y-85827971D01*
X144595749Y-85940556D01*
X144606390Y-85948287D01*
X144678424Y-85984990D01*
X144699629Y-85995795D01*
X144750425Y-86043770D01*
X144767220Y-86111591D01*
X144744682Y-86177726D01*
X144699629Y-86216765D01*
X144606650Y-86264140D01*
X144441105Y-86384417D01*
X144441104Y-86384417D01*
X144296417Y-86529104D01*
X144296417Y-86529105D01*
X144176140Y-86694650D01*
X144083244Y-86876970D01*
X144020009Y-87071586D01*
X144011391Y-87126000D01*
X144854988Y-87126000D01*
X144822075Y-87183007D01*
X144788000Y-87310174D01*
X144788000Y-87441826D01*
X144822075Y-87568993D01*
X144854988Y-87626000D01*
X144011391Y-87626000D01*
X144020009Y-87680413D01*
X144083244Y-87875029D01*
X144176140Y-88057349D01*
X144296417Y-88222894D01*
X144296417Y-88222895D01*
X144441104Y-88367582D01*
X144606652Y-88487861D01*
X144699628Y-88535234D01*
X144750425Y-88583208D01*
X144767220Y-88651029D01*
X144744683Y-88717164D01*
X144699630Y-88756203D01*
X144606388Y-88803713D01*
X144440786Y-88924028D01*
X144296028Y-89068786D01*
X144175715Y-89234386D01*
X144082781Y-89416776D01*
X144019522Y-89611465D01*
X143987500Y-89813648D01*
X143987500Y-90018351D01*
X144019522Y-90220534D01*
X144082781Y-90415223D01*
X144175715Y-90597613D01*
X144296028Y-90763213D01*
X144440786Y-90907971D01*
X144549842Y-90987203D01*
X144606390Y-91028287D01*
X144775893Y-91114653D01*
X144788779Y-91121219D01*
X144791087Y-91122175D01*
X144791830Y-91122773D01*
X144793122Y-91123432D01*
X144792983Y-91123703D01*
X144845493Y-91166013D01*
X144867562Y-91232306D01*
X144850286Y-91300006D01*
X144799936Y-91347224D01*
X144602356Y-91447896D01*
X144404922Y-91591339D01*
X144404917Y-91591343D01*
X144232342Y-91763918D01*
X144232338Y-91763923D01*
X144088895Y-91961357D01*
X144006278Y-92123501D01*
X143958303Y-92174297D01*
X143890482Y-92191092D01*
X143849265Y-92179628D01*
X143848641Y-92181303D01*
X143705482Y-92127908D01*
X143705483Y-92127908D01*
X143645883Y-92121501D01*
X143645881Y-92121500D01*
X143645873Y-92121500D01*
X143645865Y-92121500D01*
X143572500Y-92121500D01*
X143505461Y-92101815D01*
X143459706Y-92049011D01*
X143448500Y-91997500D01*
X143448500Y-88577004D01*
X143421581Y-88441677D01*
X143421580Y-88441676D01*
X143421580Y-88441672D01*
X143421578Y-88441667D01*
X143368778Y-88314195D01*
X143368771Y-88314182D01*
X143292115Y-88199459D01*
X143256156Y-88163500D01*
X143194542Y-88101886D01*
X142594656Y-87502000D01*
X141960819Y-86868162D01*
X141927334Y-86806839D01*
X141924500Y-86780481D01*
X141924500Y-85515316D01*
X141933939Y-85467864D01*
X141988880Y-85335223D01*
X141993737Y-85323497D01*
X142024500Y-85168842D01*
X142024500Y-85011158D01*
X142024500Y-85011155D01*
X142024499Y-85011153D01*
X142016893Y-84972914D01*
X141993737Y-84856503D01*
X141979951Y-84823220D01*
X141933397Y-84710827D01*
X141933390Y-84710814D01*
X141845789Y-84579711D01*
X141845786Y-84579707D01*
X141734292Y-84468213D01*
X141734288Y-84468210D01*
X141603185Y-84380609D01*
X141603172Y-84380602D01*
X141457501Y-84320264D01*
X141457489Y-84320261D01*
X141302845Y-84289500D01*
X141302842Y-84289500D01*
X141145158Y-84289500D01*
X141145156Y-84289500D01*
X141143034Y-84289922D01*
X141141900Y-84289820D01*
X141139093Y-84290097D01*
X141139040Y-84289564D01*
X141073443Y-84283693D01*
X141018267Y-84240828D01*
X140997229Y-84192495D01*
X140989649Y-84154390D01*
X140977737Y-84094503D01*
X140933946Y-83988781D01*
X140917397Y-83948827D01*
X140917390Y-83948814D01*
X140829789Y-83817711D01*
X140829786Y-83817707D01*
X140718292Y-83706213D01*
X140718288Y-83706210D01*
X140587185Y-83618609D01*
X140587172Y-83618602D01*
X140441501Y-83558264D01*
X140441489Y-83558261D01*
X140286845Y-83527500D01*
X140286842Y-83527500D01*
X140129158Y-83527500D01*
X140129155Y-83527500D01*
X139974510Y-83558261D01*
X139974498Y-83558264D01*
X139828827Y-83618602D01*
X139828814Y-83618609D01*
X139697711Y-83706210D01*
X139697707Y-83706213D01*
X139586213Y-83817707D01*
X139586210Y-83817711D01*
X139498609Y-83948814D01*
X139498602Y-83948827D01*
X139438264Y-84094498D01*
X139438261Y-84094510D01*
X139407500Y-84249153D01*
X139407500Y-84406846D01*
X139438261Y-84561489D01*
X139438264Y-84561501D01*
X139498061Y-84705864D01*
X139507500Y-84753316D01*
X139507500Y-92248452D01*
X139487815Y-92315491D01*
X139456385Y-92348770D01*
X139328213Y-92441890D01*
X139177890Y-92592213D01*
X139052949Y-92764182D01*
X139048484Y-92772946D01*
X139000509Y-92823742D01*
X138932688Y-92840536D01*
X138866553Y-92817998D01*
X138827516Y-92772946D01*
X138823050Y-92764182D01*
X138698109Y-92592213D01*
X138547786Y-92441890D01*
X138419615Y-92348770D01*
X138376949Y-92293441D01*
X138368500Y-92248452D01*
X138368500Y-82721316D01*
X138377939Y-82673864D01*
X138437735Y-82529501D01*
X138437737Y-82529497D01*
X138468500Y-82374842D01*
X138468500Y-82217158D01*
X138468500Y-82217155D01*
X138468499Y-82217153D01*
X138464946Y-82199290D01*
X138437737Y-82062503D01*
X138428295Y-82039707D01*
X138377939Y-81918136D01*
X138368500Y-81870684D01*
X138368500Y-80195004D01*
X138341581Y-80059677D01*
X138341580Y-80059676D01*
X138341580Y-80059672D01*
X138302573Y-79965500D01*
X138288776Y-79932191D01*
X138288775Y-79932189D01*
X138239439Y-79858352D01*
X138212114Y-79817457D01*
X138212111Y-79817453D01*
X137098545Y-78703887D01*
X136983807Y-78627222D01*
X136856332Y-78574421D01*
X136856322Y-78574418D01*
X136720996Y-78547500D01*
X136720994Y-78547500D01*
X136720993Y-78547500D01*
X133672994Y-78547500D01*
X133535006Y-78547500D01*
X133535004Y-78547500D01*
X133399677Y-78574418D01*
X133399667Y-78574421D01*
X133272192Y-78627222D01*
X133157454Y-78703887D01*
X132043888Y-79817453D01*
X132043884Y-79817458D01*
X132022011Y-79850194D01*
X132016561Y-79858352D01*
X131993468Y-79892914D01*
X131967223Y-79932191D01*
X131914421Y-80059667D01*
X131914418Y-80059677D01*
X131887500Y-80195004D01*
X131887500Y-90590481D01*
X131867815Y-90657520D01*
X131851181Y-90678162D01*
X131528768Y-91000574D01*
X131467445Y-91034059D01*
X131397753Y-91029075D01*
X131341820Y-90987203D01*
X131317403Y-90921739D01*
X131324904Y-90869562D01*
X131342091Y-90823483D01*
X131348500Y-90763873D01*
X131348499Y-89068128D01*
X131342091Y-89008517D01*
X131296079Y-88885153D01*
X131291797Y-88873671D01*
X131291793Y-88873664D01*
X131205547Y-88758455D01*
X131205544Y-88758452D01*
X131090335Y-88672206D01*
X131090328Y-88672202D01*
X130955482Y-88621908D01*
X130955483Y-88621908D01*
X130918560Y-88617939D01*
X130854009Y-88591201D01*
X130814160Y-88533809D01*
X130811667Y-88463984D01*
X130847319Y-88403895D01*
X130858930Y-88394331D01*
X130895219Y-88367966D01*
X131039966Y-88223219D01*
X131039968Y-88223215D01*
X131039971Y-88223213D01*
X131128118Y-88101887D01*
X131160287Y-88057610D01*
X131253220Y-87875219D01*
X131316477Y-87680534D01*
X131348500Y-87478352D01*
X131348500Y-87273648D01*
X131328232Y-87145685D01*
X131316477Y-87071465D01*
X131253281Y-86876970D01*
X131253220Y-86876781D01*
X131253218Y-86876778D01*
X131253218Y-86876776D01*
X131217583Y-86806839D01*
X131160287Y-86694390D01*
X131123677Y-86644000D01*
X131039971Y-86528786D01*
X130895213Y-86384028D01*
X130729614Y-86263715D01*
X130723006Y-86260348D01*
X130636917Y-86216483D01*
X130586123Y-86168511D01*
X130569328Y-86100690D01*
X130591865Y-86034555D01*
X130636917Y-85995516D01*
X130729610Y-85948287D01*
X130751519Y-85932369D01*
X130895213Y-85827971D01*
X130895215Y-85827968D01*
X130895219Y-85827966D01*
X131039966Y-85683219D01*
X131039968Y-85683215D01*
X131039971Y-85683213D01*
X131146529Y-85536546D01*
X131160287Y-85517610D01*
X131253220Y-85335219D01*
X131316477Y-85140534D01*
X131348500Y-84938352D01*
X131348500Y-84733648D01*
X131344885Y-84710827D01*
X131316477Y-84531465D01*
X131287127Y-84441137D01*
X131253220Y-84336781D01*
X131253218Y-84336778D01*
X131253218Y-84336776D01*
X131199903Y-84232141D01*
X131160287Y-84154390D01*
X131116777Y-84094503D01*
X131039971Y-83988786D01*
X130895213Y-83844028D01*
X130729611Y-83723713D01*
X130636369Y-83676203D01*
X130585574Y-83628229D01*
X130568779Y-83560407D01*
X130591317Y-83494273D01*
X130636371Y-83455234D01*
X130729347Y-83407861D01*
X130894894Y-83287582D01*
X130894895Y-83287582D01*
X131039582Y-83142895D01*
X131039582Y-83142894D01*
X131159859Y-82977349D01*
X131252755Y-82795029D01*
X131315990Y-82600413D01*
X131324609Y-82546000D01*
X130481012Y-82546000D01*
X130513925Y-82488993D01*
X130548000Y-82361826D01*
X130548000Y-82230174D01*
X130513925Y-82103007D01*
X130481012Y-82046000D01*
X131324609Y-82046000D01*
X131315990Y-81991586D01*
X131252755Y-81796970D01*
X131159859Y-81614650D01*
X131039582Y-81449105D01*
X131039582Y-81449104D01*
X130894895Y-81304417D01*
X130729349Y-81184140D01*
X130636370Y-81136765D01*
X130585574Y-81088790D01*
X130568779Y-81020969D01*
X130591316Y-80954835D01*
X130636370Y-80915795D01*
X130636920Y-80915515D01*
X130729610Y-80868287D01*
X130750770Y-80852913D01*
X130895213Y-80747971D01*
X130895215Y-80747968D01*
X130895219Y-80747966D01*
X131039966Y-80603219D01*
X131039968Y-80603215D01*
X131039971Y-80603213D01*
X131159162Y-80439158D01*
X131160287Y-80437610D01*
X131253220Y-80255219D01*
X131316477Y-80060534D01*
X131348500Y-79858352D01*
X131348500Y-79653648D01*
X131316477Y-79451466D01*
X131253220Y-79256781D01*
X131253218Y-79256778D01*
X131253218Y-79256776D01*
X131219503Y-79190607D01*
X131160287Y-79074390D01*
X131098975Y-78990000D01*
X131039971Y-78908786D01*
X130895213Y-78764028D01*
X130729614Y-78643715D01*
X130723006Y-78640348D01*
X130636917Y-78596483D01*
X130586123Y-78548511D01*
X130569328Y-78480690D01*
X130591865Y-78414555D01*
X130636917Y-78375516D01*
X130729610Y-78328287D01*
X130750770Y-78312913D01*
X130895213Y-78207971D01*
X130895215Y-78207968D01*
X130895219Y-78207966D01*
X131039966Y-78063219D01*
X131039968Y-78063215D01*
X131039971Y-78063213D01*
X131125371Y-77945668D01*
X131160287Y-77897610D01*
X131253220Y-77715219D01*
X131316477Y-77520534D01*
X131348500Y-77318352D01*
X131348500Y-77113648D01*
X131316477Y-76911466D01*
X131316476Y-76911462D01*
X131316476Y-76911461D01*
X131283125Y-76808818D01*
X131281130Y-76738977D01*
X131317210Y-76679144D01*
X131379911Y-76648316D01*
X131401056Y-76646500D01*
X143934944Y-76646500D01*
X144001983Y-76666185D01*
G37*
%TD.AperFunction*%
%TA.AperFunction,Conductor*%
G36*
X141113703Y-88002805D02*
G01*
X141120181Y-88008837D01*
X142011181Y-88899837D01*
X142044666Y-88961160D01*
X142047500Y-88987518D01*
X142047500Y-91997500D01*
X142027815Y-92064539D01*
X141975011Y-92110294D01*
X141923502Y-92121500D01*
X141850130Y-92121500D01*
X141850123Y-92121501D01*
X141790516Y-92127908D01*
X141655671Y-92178202D01*
X141655664Y-92178206D01*
X141540455Y-92264452D01*
X141540452Y-92264455D01*
X141454206Y-92379664D01*
X141454203Y-92379669D01*
X141405189Y-92511083D01*
X141363317Y-92567016D01*
X141297853Y-92591433D01*
X141229580Y-92576581D01*
X141201326Y-92555430D01*
X141087786Y-92441890D01*
X140959615Y-92348770D01*
X140916949Y-92293441D01*
X140908500Y-92248452D01*
X140908500Y-88096518D01*
X140928185Y-88029479D01*
X140980989Y-87983724D01*
X141050147Y-87973780D01*
X141113703Y-88002805D01*
G37*
%TD.AperFunction*%
%TA.AperFunction,Conductor*%
G36*
X128845184Y-53606185D02*
G01*
X128890939Y-53658989D01*
X128900883Y-53728147D01*
X128888630Y-53766795D01*
X128842781Y-53856776D01*
X128779522Y-54051465D01*
X128759425Y-54178357D01*
X128747500Y-54253648D01*
X128747500Y-54458352D01*
X128751456Y-54483328D01*
X128779522Y-54660534D01*
X128842781Y-54855223D01*
X128878390Y-54925108D01*
X128914447Y-54995874D01*
X128935715Y-55037613D01*
X129056028Y-55203213D01*
X129200786Y-55347971D01*
X129331282Y-55442780D01*
X129366390Y-55468287D01*
X129426024Y-55498672D01*
X129459080Y-55515515D01*
X129509876Y-55563490D01*
X129526671Y-55631311D01*
X129504134Y-55697446D01*
X129459080Y-55736485D01*
X129366386Y-55783715D01*
X129200786Y-55904028D01*
X129056028Y-56048786D01*
X128935715Y-56214386D01*
X128842781Y-56396776D01*
X128779522Y-56591465D01*
X128747500Y-56793648D01*
X128747500Y-56998351D01*
X128779522Y-57200534D01*
X128842781Y-57395223D01*
X128935715Y-57577613D01*
X129056028Y-57743213D01*
X129200786Y-57887971D01*
X129355749Y-58000556D01*
X129366390Y-58008287D01*
X129457840Y-58054883D01*
X129459080Y-58055515D01*
X129509876Y-58103490D01*
X129526671Y-58171311D01*
X129504134Y-58237446D01*
X129459080Y-58276485D01*
X129366386Y-58323715D01*
X129200786Y-58444028D01*
X129056028Y-58588786D01*
X128935715Y-58754386D01*
X128842781Y-58936776D01*
X128779522Y-59131465D01*
X128747500Y-59333648D01*
X128747500Y-59538351D01*
X128779522Y-59740534D01*
X128842781Y-59935223D01*
X128935715Y-60117613D01*
X129056028Y-60283213D01*
X129200786Y-60427971D01*
X129355749Y-60540556D01*
X129366390Y-60548287D01*
X129457840Y-60594883D01*
X129459080Y-60595515D01*
X129509876Y-60643490D01*
X129526671Y-60711311D01*
X129504134Y-60777446D01*
X129459080Y-60816485D01*
X129366386Y-60863715D01*
X129200786Y-60984028D01*
X129056028Y-61128786D01*
X128935715Y-61294386D01*
X128842781Y-61476776D01*
X128779522Y-61671465D01*
X128747500Y-61873648D01*
X128747500Y-62078351D01*
X128779522Y-62280534D01*
X128842781Y-62475223D01*
X128935715Y-62657613D01*
X129056028Y-62823213D01*
X129200786Y-62967971D01*
X129355749Y-63080556D01*
X129366390Y-63088287D01*
X129457840Y-63134883D01*
X129459080Y-63135515D01*
X129509876Y-63183490D01*
X129526671Y-63251311D01*
X129504134Y-63317446D01*
X129459080Y-63356485D01*
X129366386Y-63403715D01*
X129200786Y-63524028D01*
X129056028Y-63668786D01*
X128935715Y-63834386D01*
X128842781Y-64016776D01*
X128779522Y-64211465D01*
X128747500Y-64413648D01*
X128747500Y-64618351D01*
X128779522Y-64820534D01*
X128842781Y-65015223D01*
X128935715Y-65197613D01*
X129056028Y-65363213D01*
X129200786Y-65507971D01*
X129355749Y-65620556D01*
X129366390Y-65628287D01*
X129457840Y-65674883D01*
X129459080Y-65675515D01*
X129509876Y-65723490D01*
X129526671Y-65791311D01*
X129504134Y-65857446D01*
X129459080Y-65896485D01*
X129366386Y-65943715D01*
X129200786Y-66064028D01*
X129056028Y-66208786D01*
X128935715Y-66374386D01*
X128842781Y-66556776D01*
X128779522Y-66751465D01*
X128747500Y-66953648D01*
X128747500Y-67158351D01*
X128779522Y-67360534D01*
X128842781Y-67555223D01*
X128935715Y-67737613D01*
X129056028Y-67903213D01*
X129200786Y-68047971D01*
X129355749Y-68160556D01*
X129366390Y-68168287D01*
X129457840Y-68214883D01*
X129459080Y-68215515D01*
X129509876Y-68263490D01*
X129526671Y-68331311D01*
X129504134Y-68397446D01*
X129459080Y-68436485D01*
X129366386Y-68483715D01*
X129200786Y-68604028D01*
X129056028Y-68748786D01*
X128935715Y-68914386D01*
X128842781Y-69096776D01*
X128779523Y-69291464D01*
X128751942Y-69465598D01*
X128722012Y-69528732D01*
X128662701Y-69565663D01*
X128592838Y-69564665D01*
X128534606Y-69526055D01*
X128511540Y-69484520D01*
X128436904Y-69254815D01*
X128326106Y-69037361D01*
X128236760Y-68914386D01*
X128182660Y-68839923D01*
X128182656Y-68839918D01*
X128010081Y-68667343D01*
X128010076Y-68667339D01*
X127812642Y-68523896D01*
X127812641Y-68523895D01*
X127812639Y-68523894D01*
X127595185Y-68413096D01*
X127363076Y-68337679D01*
X127363074Y-68337678D01*
X127363072Y-68337678D01*
X127194769Y-68311021D01*
X127122027Y-68299500D01*
X126877973Y-68299500D01*
X126822093Y-68308350D01*
X126636927Y-68337678D01*
X126404812Y-68413097D01*
X126187357Y-68523896D01*
X125989923Y-68667339D01*
X125989918Y-68667343D01*
X125817343Y-68839918D01*
X125817339Y-68839923D01*
X125673896Y-69037357D01*
X125563097Y-69254812D01*
X125487678Y-69486927D01*
X125463479Y-69639715D01*
X125449500Y-69727973D01*
X125449500Y-69778276D01*
X125449500Y-69972027D01*
X125487679Y-70213076D01*
X125563096Y-70445185D01*
X125635846Y-70587966D01*
X125673896Y-70662642D01*
X125817339Y-70860076D01*
X125817343Y-70860081D01*
X125989917Y-71032655D01*
X125989923Y-71032660D01*
X126162136Y-71157779D01*
X126187361Y-71176106D01*
X126404815Y-71286904D01*
X126636924Y-71362321D01*
X126877973Y-71400500D01*
X126877974Y-71400500D01*
X127122026Y-71400500D01*
X127122027Y-71400500D01*
X127363076Y-71362321D01*
X127595185Y-71286904D01*
X127812639Y-71176106D01*
X128010083Y-71032655D01*
X128182655Y-70860083D01*
X128326106Y-70662639D01*
X128436904Y-70445185D01*
X128512321Y-70213076D01*
X128550500Y-69972027D01*
X128550500Y-69972008D01*
X128550775Y-69968523D01*
X128551253Y-69967266D01*
X128551262Y-69967215D01*
X128551272Y-69967216D01*
X128575659Y-69903235D01*
X128631890Y-69861764D01*
X128701615Y-69857277D01*
X128762698Y-69891199D01*
X128792324Y-69939933D01*
X128842781Y-70095223D01*
X128935715Y-70277613D01*
X129056028Y-70443213D01*
X129200786Y-70587971D01*
X129355749Y-70700556D01*
X129366390Y-70708287D01*
X129457840Y-70754883D01*
X129459080Y-70755515D01*
X129509876Y-70803490D01*
X129526671Y-70871311D01*
X129504134Y-70937446D01*
X129459080Y-70976485D01*
X129366386Y-71023715D01*
X129200786Y-71144028D01*
X129056028Y-71288786D01*
X128935715Y-71454386D01*
X128842781Y-71636776D01*
X128779522Y-71831465D01*
X128747500Y-72033648D01*
X128747500Y-72238351D01*
X128779522Y-72440534D01*
X128816726Y-72555035D01*
X128842780Y-72635219D01*
X128842781Y-72635222D01*
X128842782Y-72635223D01*
X128887381Y-72722754D01*
X128900277Y-72791424D01*
X128874001Y-72856164D01*
X128816894Y-72896421D01*
X128801095Y-72900665D01*
X128797307Y-72901418D01*
X128797297Y-72901421D01*
X128669822Y-72954222D01*
X128555084Y-73030887D01*
X117819890Y-83766081D01*
X117819884Y-83766088D01*
X117782043Y-83822723D01*
X117782043Y-83822724D01*
X117767808Y-83844028D01*
X117743225Y-83880818D01*
X117743221Y-83880825D01*
X117690421Y-84008297D01*
X117690418Y-84008307D01*
X117663500Y-84143634D01*
X117663500Y-84182255D01*
X117643815Y-84249294D01*
X117612385Y-84282573D01*
X117516787Y-84352028D01*
X117516782Y-84352032D01*
X117372028Y-84496786D01*
X117251715Y-84662386D01*
X117204485Y-84755080D01*
X117156510Y-84805876D01*
X117088689Y-84822671D01*
X117022554Y-84800134D01*
X116983515Y-84755080D01*
X116980152Y-84748480D01*
X116936287Y-84662390D01*
X116928366Y-84651487D01*
X116815971Y-84496786D01*
X116671217Y-84352032D01*
X116671212Y-84352028D01*
X116575615Y-84282573D01*
X116532949Y-84227243D01*
X116524500Y-84182255D01*
X116524500Y-80089499D01*
X116544185Y-80022460D01*
X116596989Y-79976705D01*
X116648500Y-79965499D01*
X116719502Y-79965499D01*
X116719508Y-79965499D01*
X116822297Y-79954999D01*
X116988834Y-79899814D01*
X117138156Y-79807712D01*
X117262212Y-79683656D01*
X117354314Y-79534334D01*
X117409499Y-79367797D01*
X117420000Y-79265009D01*
X117419999Y-78214992D01*
X117409499Y-78112203D01*
X117354314Y-77945666D01*
X117262212Y-77796344D01*
X117262210Y-77796342D01*
X117258420Y-77790197D01*
X117260888Y-77788674D01*
X117239684Y-77736129D01*
X117252716Y-77667486D01*
X117258791Y-77658032D01*
X117258420Y-77657803D01*
X117262210Y-77651657D01*
X117262212Y-77651656D01*
X117354314Y-77502334D01*
X117409499Y-77335797D01*
X117420000Y-77233009D01*
X117419999Y-76182992D01*
X117409499Y-76080203D01*
X117354314Y-75913666D01*
X117262212Y-75764344D01*
X117138156Y-75640288D01*
X116988834Y-75548186D01*
X116847169Y-75501242D01*
X116789726Y-75461471D01*
X116762903Y-75396956D01*
X116775218Y-75328180D01*
X116798488Y-75295863D01*
X116932286Y-75162066D01*
X117066717Y-74977038D01*
X117170548Y-74773258D01*
X117241222Y-74555745D01*
X117277000Y-74329854D01*
X117277000Y-74006146D01*
X117241222Y-73780255D01*
X117241221Y-73780251D01*
X117241221Y-73780250D01*
X117170549Y-73562744D01*
X117066716Y-73358961D01*
X116932286Y-73173934D01*
X116770566Y-73012214D01*
X116585538Y-72877783D01*
X116507815Y-72838181D01*
X116381755Y-72773950D01*
X116164248Y-72703278D01*
X115978812Y-72673908D01*
X115938354Y-72667500D01*
X115709646Y-72667500D01*
X115669188Y-72673908D01*
X115483753Y-72703278D01*
X115483750Y-72703278D01*
X115266244Y-72773950D01*
X115062461Y-72877783D01*
X114996550Y-72925671D01*
X114877434Y-73012214D01*
X114877432Y-73012216D01*
X114877431Y-73012216D01*
X114715716Y-73173931D01*
X114715709Y-73173940D01*
X114654007Y-73258864D01*
X114598677Y-73301530D01*
X114529063Y-73307508D01*
X114467269Y-73274901D01*
X114453372Y-73258863D01*
X114391907Y-73174263D01*
X114391902Y-73174257D01*
X114230242Y-73012597D01*
X114045276Y-72878211D01*
X113841568Y-72774417D01*
X113624124Y-72703765D01*
X113534000Y-72689490D01*
X113534000Y-73677252D01*
X113496292Y-73655482D01*
X113356409Y-73618000D01*
X113211591Y-73618000D01*
X113071708Y-73655482D01*
X113034000Y-73677252D01*
X113034000Y-72689490D01*
X113033999Y-72689490D01*
X112943875Y-72703765D01*
X112726431Y-72774417D01*
X112522719Y-72878213D01*
X112339939Y-73011010D01*
X112323052Y-73017035D01*
X112308527Y-73027551D01*
X112290827Y-73028533D01*
X112274132Y-73034490D01*
X112256667Y-73030428D01*
X112238765Y-73031422D01*
X112223344Y-73022679D01*
X112206079Y-73018664D01*
X112193582Y-73005805D01*
X112177984Y-72996962D01*
X112164991Y-72976385D01*
X112157384Y-72968558D01*
X112157287Y-72968374D01*
X112153624Y-72961403D01*
X112140296Y-72925669D01*
X112122008Y-72901240D01*
X112117421Y-72892510D01*
X112112405Y-72867540D01*
X112103504Y-72843677D01*
X112105639Y-72833858D01*
X112103661Y-72824008D01*
X112112941Y-72800288D01*
X112118355Y-72775403D01*
X112127414Y-72763300D01*
X112129120Y-72758942D01*
X112132520Y-72756480D01*
X112139503Y-72747151D01*
X112521837Y-72364819D01*
X112583160Y-72331334D01*
X112609518Y-72328500D01*
X119448996Y-72328500D01*
X119540040Y-72310389D01*
X119584328Y-72301580D01*
X119653534Y-72272914D01*
X119711807Y-72248777D01*
X119711808Y-72248776D01*
X119711811Y-72248775D01*
X119826543Y-72172114D01*
X121956114Y-70042543D01*
X122032775Y-69927811D01*
X122035297Y-69921724D01*
X122061991Y-69857277D01*
X122085580Y-69800328D01*
X122105865Y-69698351D01*
X122112500Y-69664996D01*
X122112500Y-57100499D01*
X122132185Y-57033460D01*
X122184989Y-56987705D01*
X122236500Y-56976499D01*
X122309871Y-56976499D01*
X122309872Y-56976499D01*
X122369483Y-56970091D01*
X122504331Y-56919796D01*
X122619546Y-56833546D01*
X122705796Y-56718331D01*
X122756091Y-56583483D01*
X122762500Y-56523873D01*
X122762499Y-56499979D01*
X122765330Y-56486963D01*
X122775940Y-56467525D01*
X122782179Y-56446275D01*
X122798803Y-56425643D01*
X122798808Y-56425636D01*
X122798811Y-56425634D01*
X122798818Y-56425626D01*
X123469037Y-55755408D01*
X123486075Y-55818993D01*
X123551901Y-55933007D01*
X123644993Y-56026099D01*
X123759007Y-56091925D01*
X123822590Y-56108962D01*
X123190282Y-56741269D01*
X123190282Y-56741270D01*
X123244449Y-56780624D01*
X123433782Y-56877095D01*
X123635870Y-56942757D01*
X123845754Y-56976000D01*
X124058246Y-56976000D01*
X124268127Y-56942757D01*
X124268130Y-56942757D01*
X124470217Y-56877095D01*
X124659554Y-56780622D01*
X124713716Y-56741270D01*
X124713717Y-56741270D01*
X124081408Y-56108962D01*
X124144993Y-56091925D01*
X124259007Y-56026099D01*
X124352099Y-55933007D01*
X124417925Y-55818993D01*
X124434962Y-55755408D01*
X125067270Y-56387717D01*
X125067270Y-56387716D01*
X125106622Y-56333554D01*
X125203095Y-56144217D01*
X125268757Y-55942130D01*
X125268757Y-55942127D01*
X125302000Y-55732246D01*
X125302000Y-55565518D01*
X125321685Y-55498479D01*
X125374489Y-55452724D01*
X125443647Y-55442780D01*
X125507203Y-55471805D01*
X125543930Y-55527198D01*
X125563096Y-55586185D01*
X125663742Y-55783715D01*
X125673896Y-55803642D01*
X125817339Y-56001076D01*
X125817343Y-56001081D01*
X125989918Y-56173656D01*
X125989923Y-56173660D01*
X126045984Y-56214390D01*
X126187361Y-56317106D01*
X126404815Y-56427904D01*
X126636924Y-56503321D01*
X126877973Y-56541500D01*
X126877974Y-56541500D01*
X127122026Y-56541500D01*
X127122027Y-56541500D01*
X127363076Y-56503321D01*
X127595185Y-56427904D01*
X127812639Y-56317106D01*
X128010083Y-56173655D01*
X128182655Y-56001083D01*
X128326106Y-55803639D01*
X128436904Y-55586185D01*
X128512321Y-55354076D01*
X128550500Y-55113027D01*
X128550500Y-54868973D01*
X128512321Y-54627924D01*
X128436904Y-54395815D01*
X128326106Y-54178361D01*
X128233911Y-54051465D01*
X128182660Y-53980923D01*
X128182656Y-53980918D01*
X128010081Y-53808343D01*
X128006370Y-53805173D01*
X128007825Y-53803468D01*
X127970830Y-53755510D01*
X127964838Y-53685897D01*
X127997433Y-53624096D01*
X128058265Y-53589728D01*
X128086373Y-53586500D01*
X128778145Y-53586500D01*
X128845184Y-53606185D01*
G37*
%TD.AperFunction*%
%TA.AperFunction,Conductor*%
G36*
X128721934Y-76654425D02*
G01*
X128749656Y-76659223D01*
X128755010Y-76664137D01*
X128761983Y-76666185D01*
X128780402Y-76687442D01*
X128801131Y-76706467D01*
X128802978Y-76713496D01*
X128807738Y-76718989D01*
X128811741Y-76746835D01*
X128818893Y-76774041D01*
X128817123Y-76784264D01*
X128817682Y-76788147D01*
X128812875Y-76808818D01*
X128779523Y-76911461D01*
X128779523Y-76911464D01*
X128747500Y-77113648D01*
X128747500Y-77318351D01*
X128779522Y-77520534D01*
X128816726Y-77635035D01*
X128842780Y-77715219D01*
X128842781Y-77715222D01*
X128842782Y-77715223D01*
X128936157Y-77898483D01*
X128949053Y-77967153D01*
X128922776Y-78031893D01*
X128913353Y-78042459D01*
X122230514Y-84725298D01*
X122169191Y-84758783D01*
X122099499Y-84753799D01*
X122043566Y-84711927D01*
X122032348Y-84693912D01*
X122016284Y-84662385D01*
X121895971Y-84496786D01*
X121751217Y-84352032D01*
X121751212Y-84352028D01*
X121655615Y-84282573D01*
X121612949Y-84227243D01*
X121604500Y-84182255D01*
X121604500Y-82864090D01*
X121624185Y-82797051D01*
X121640819Y-82776409D01*
X127734409Y-76682819D01*
X127795732Y-76649334D01*
X127822090Y-76646500D01*
X128694944Y-76646500D01*
X128721934Y-76654425D01*
G37*
%TD.AperFunction*%
%TA.AperFunction,Conductor*%
G36*
X143956576Y-74295185D02*
G01*
X144002331Y-74347989D01*
X144012275Y-74417147D01*
X144012010Y-74418898D01*
X143987500Y-74573648D01*
X143987500Y-74778351D01*
X144005986Y-74895068D01*
X143997031Y-74964362D01*
X143971194Y-75002147D01*
X143764160Y-75209182D01*
X143702840Y-75242666D01*
X143676481Y-75245500D01*
X131401056Y-75245500D01*
X131334017Y-75225815D01*
X131288262Y-75173011D01*
X131278318Y-75103853D01*
X131283125Y-75083182D01*
X131316476Y-74980538D01*
X131316476Y-74980537D01*
X131316477Y-74980534D01*
X131348500Y-74778352D01*
X131348500Y-74573648D01*
X131323990Y-74418898D01*
X131332945Y-74349604D01*
X131377941Y-74296152D01*
X131444692Y-74275513D01*
X131446463Y-74275500D01*
X143889537Y-74275500D01*
X143956576Y-74295185D01*
G37*
%TD.AperFunction*%
%TA.AperFunction,Conductor*%
G36*
X141220666Y-53606185D02*
G01*
X141266421Y-53658989D01*
X141276365Y-53728147D01*
X141247340Y-53791703D01*
X141233204Y-53804674D01*
X141233630Y-53805173D01*
X141229918Y-53808343D01*
X141057343Y-53980918D01*
X141057339Y-53980923D01*
X140913896Y-54178357D01*
X140803097Y-54395812D01*
X140727678Y-54627927D01*
X140718115Y-54688306D01*
X140689500Y-54868973D01*
X140689500Y-54919276D01*
X140689500Y-55113027D01*
X140727679Y-55354076D01*
X140803096Y-55586185D01*
X140903742Y-55783715D01*
X140913896Y-55803642D01*
X141057339Y-56001076D01*
X141057343Y-56001081D01*
X141229918Y-56173656D01*
X141229923Y-56173660D01*
X141285984Y-56214390D01*
X141427361Y-56317106D01*
X141644815Y-56427904D01*
X141876924Y-56503321D01*
X142117973Y-56541500D01*
X142117974Y-56541500D01*
X142362026Y-56541500D01*
X142362027Y-56541500D01*
X142603076Y-56503321D01*
X142835185Y-56427904D01*
X143052639Y-56317106D01*
X143250083Y-56173655D01*
X143422655Y-56001083D01*
X143566106Y-55803639D01*
X143676904Y-55586185D01*
X143752321Y-55354076D01*
X143790500Y-55113027D01*
X143790500Y-54868973D01*
X143752321Y-54627924D01*
X143676904Y-54395815D01*
X143566106Y-54178361D01*
X143473911Y-54051465D01*
X143422660Y-53980923D01*
X143422656Y-53980918D01*
X143250081Y-53808343D01*
X143246370Y-53805173D01*
X143247825Y-53803468D01*
X143210830Y-53755510D01*
X143204838Y-53685897D01*
X143237433Y-53624096D01*
X143298265Y-53589728D01*
X143326373Y-53586500D01*
X144018145Y-53586500D01*
X144085184Y-53606185D01*
X144130939Y-53658989D01*
X144140883Y-53728147D01*
X144128630Y-53766795D01*
X144082781Y-53856776D01*
X144019522Y-54051465D01*
X143999425Y-54178357D01*
X143987500Y-54253648D01*
X143987500Y-54458352D01*
X143991456Y-54483328D01*
X144019522Y-54660534D01*
X144082781Y-54855223D01*
X144118390Y-54925108D01*
X144154447Y-54995874D01*
X144175715Y-55037613D01*
X144296028Y-55203213D01*
X144440786Y-55347971D01*
X144571282Y-55442780D01*
X144606390Y-55468287D01*
X144666024Y-55498672D01*
X144699080Y-55515515D01*
X144749876Y-55563490D01*
X144766671Y-55631311D01*
X144744134Y-55697446D01*
X144699080Y-55736485D01*
X144606386Y-55783715D01*
X144440786Y-55904028D01*
X144296028Y-56048786D01*
X144175715Y-56214386D01*
X144082781Y-56396776D01*
X144019522Y-56591465D01*
X143987500Y-56793648D01*
X143987500Y-56998351D01*
X144019522Y-57200534D01*
X144082781Y-57395223D01*
X144175715Y-57577613D01*
X144296028Y-57743213D01*
X144440786Y-57887971D01*
X144595749Y-58000556D01*
X144606390Y-58008287D01*
X144697840Y-58054883D01*
X144699080Y-58055515D01*
X144749876Y-58103490D01*
X144766671Y-58171311D01*
X144744134Y-58237446D01*
X144699080Y-58276485D01*
X144606386Y-58323715D01*
X144440786Y-58444028D01*
X144296028Y-58588786D01*
X144175715Y-58754386D01*
X144082781Y-58936776D01*
X144019522Y-59131465D01*
X143987500Y-59333648D01*
X143987500Y-59538351D01*
X144019522Y-59740534D01*
X144082781Y-59935223D01*
X144175715Y-60117613D01*
X144296028Y-60283213D01*
X144440786Y-60427971D01*
X144595749Y-60540556D01*
X144606390Y-60548287D01*
X144697840Y-60594883D01*
X144699080Y-60595515D01*
X144749876Y-60643490D01*
X144766671Y-60711311D01*
X144744134Y-60777446D01*
X144699080Y-60816485D01*
X144606386Y-60863715D01*
X144440786Y-60984028D01*
X144296028Y-61128786D01*
X144175715Y-61294386D01*
X144082781Y-61476776D01*
X144019522Y-61671465D01*
X143987500Y-61873648D01*
X143987500Y-62078351D01*
X144019522Y-62280534D01*
X144082781Y-62475223D01*
X144175715Y-62657613D01*
X144296028Y-62823213D01*
X144440786Y-62967971D01*
X144595749Y-63080556D01*
X144606390Y-63088287D01*
X144697840Y-63134883D01*
X144699080Y-63135515D01*
X144749876Y-63183490D01*
X144766671Y-63251311D01*
X144744134Y-63317446D01*
X144699080Y-63356485D01*
X144606386Y-63403715D01*
X144440786Y-63524028D01*
X144296028Y-63668786D01*
X144175715Y-63834386D01*
X144082781Y-64016776D01*
X144019522Y-64211465D01*
X143987500Y-64413648D01*
X143987500Y-64618351D01*
X144019522Y-64820534D01*
X144082781Y-65015223D01*
X144175715Y-65197613D01*
X144296028Y-65363213D01*
X144440786Y-65507971D01*
X144595749Y-65620556D01*
X144606390Y-65628287D01*
X144697840Y-65674883D01*
X144699080Y-65675515D01*
X144749876Y-65723490D01*
X144766671Y-65791311D01*
X144744134Y-65857446D01*
X144699080Y-65896485D01*
X144606386Y-65943715D01*
X144440786Y-66064028D01*
X144296028Y-66208786D01*
X144175715Y-66374386D01*
X144082781Y-66556776D01*
X144019522Y-66751465D01*
X143987500Y-66953648D01*
X143987500Y-67158351D01*
X144019522Y-67360534D01*
X144082781Y-67555223D01*
X144175715Y-67737613D01*
X144296028Y-67903213D01*
X144440786Y-68047971D01*
X144595749Y-68160556D01*
X144606390Y-68168287D01*
X144697840Y-68214883D01*
X144699080Y-68215515D01*
X144749876Y-68263490D01*
X144766671Y-68331311D01*
X144744134Y-68397446D01*
X144699080Y-68436485D01*
X144606386Y-68483715D01*
X144440786Y-68604028D01*
X144296028Y-68748786D01*
X144175715Y-68914386D01*
X144082781Y-69096776D01*
X144019522Y-69291465D01*
X143987500Y-69493648D01*
X143987500Y-69698351D01*
X144019522Y-69900534D01*
X144082781Y-70095223D01*
X144175715Y-70277613D01*
X144296028Y-70443213D01*
X144440786Y-70587971D01*
X144595749Y-70700556D01*
X144606390Y-70708287D01*
X144697840Y-70754883D01*
X144699080Y-70755515D01*
X144749876Y-70803490D01*
X144766671Y-70871311D01*
X144744134Y-70937446D01*
X144699080Y-70976485D01*
X144606386Y-71023715D01*
X144440786Y-71144028D01*
X144296028Y-71288786D01*
X144175715Y-71454386D01*
X144082781Y-71636776D01*
X144019522Y-71831465D01*
X143987500Y-72033648D01*
X143987500Y-72238351D01*
X144005986Y-72355069D01*
X143997031Y-72424363D01*
X143971194Y-72462148D01*
X143595162Y-72838181D01*
X143533839Y-72871666D01*
X143507481Y-72874500D01*
X131333650Y-72874500D01*
X131266611Y-72854815D01*
X131220856Y-72802011D01*
X131210912Y-72732853D01*
X131223165Y-72694205D01*
X131225568Y-72689490D01*
X131253220Y-72635219D01*
X131316477Y-72440534D01*
X131348500Y-72238352D01*
X131348500Y-72033648D01*
X131316477Y-71831466D01*
X131253220Y-71636781D01*
X131253218Y-71636778D01*
X131253218Y-71636776D01*
X131219503Y-71570607D01*
X131160287Y-71454390D01*
X131093396Y-71362321D01*
X131039971Y-71288786D01*
X130895213Y-71144028D01*
X130729614Y-71023715D01*
X130697258Y-71007229D01*
X130636917Y-70976483D01*
X130586123Y-70928511D01*
X130569328Y-70860690D01*
X130591865Y-70794555D01*
X130636917Y-70755516D01*
X130729610Y-70708287D01*
X130750770Y-70692913D01*
X130895213Y-70587971D01*
X130895215Y-70587968D01*
X130895219Y-70587966D01*
X131039966Y-70443219D01*
X131039968Y-70443215D01*
X131039971Y-70443213D01*
X131102119Y-70357672D01*
X131160287Y-70277610D01*
X131253220Y-70095219D01*
X131316477Y-69900534D01*
X131348500Y-69698352D01*
X131348500Y-69493648D01*
X131318754Y-69305843D01*
X131316477Y-69291465D01*
X131253218Y-69096776D01*
X131219503Y-69030607D01*
X131160287Y-68914390D01*
X131152556Y-68903749D01*
X131039971Y-68748786D01*
X130895213Y-68604028D01*
X130729614Y-68483715D01*
X130723006Y-68480348D01*
X130636917Y-68436483D01*
X130586123Y-68388511D01*
X130569328Y-68320690D01*
X130591865Y-68254555D01*
X130636917Y-68215516D01*
X130729610Y-68168287D01*
X130750770Y-68152913D01*
X130895213Y-68047971D01*
X130895215Y-68047968D01*
X130895219Y-68047966D01*
X131039966Y-67903219D01*
X131039968Y-67903215D01*
X131039971Y-67903213D01*
X131092732Y-67830590D01*
X131160287Y-67737610D01*
X131253220Y-67555219D01*
X131316477Y-67360534D01*
X131348500Y-67158352D01*
X131348500Y-66953648D01*
X131316477Y-66751466D01*
X131253220Y-66556781D01*
X131253218Y-66556778D01*
X131253218Y-66556776D01*
X131219503Y-66490607D01*
X131160287Y-66374390D01*
X131152556Y-66363749D01*
X131039971Y-66208786D01*
X130895213Y-66064028D01*
X130729614Y-65943715D01*
X130723006Y-65940348D01*
X130636917Y-65896483D01*
X130586123Y-65848511D01*
X130569328Y-65780690D01*
X130591865Y-65714555D01*
X130636917Y-65675516D01*
X130729610Y-65628287D01*
X130750770Y-65612913D01*
X130895213Y-65507971D01*
X130895215Y-65507968D01*
X130895219Y-65507966D01*
X131039966Y-65363219D01*
X131039968Y-65363215D01*
X131039971Y-65363213D01*
X131092732Y-65290590D01*
X131160287Y-65197610D01*
X131253220Y-65015219D01*
X131316477Y-64820534D01*
X131348500Y-64618352D01*
X131348500Y-64413648D01*
X131316477Y-64211466D01*
X131253220Y-64016781D01*
X131253218Y-64016778D01*
X131253218Y-64016776D01*
X131219503Y-63950607D01*
X131160287Y-63834390D01*
X131152556Y-63823749D01*
X131039971Y-63668786D01*
X130895213Y-63524028D01*
X130729614Y-63403715D01*
X130723006Y-63400348D01*
X130636917Y-63356483D01*
X130586123Y-63308511D01*
X130569328Y-63240690D01*
X130591865Y-63174555D01*
X130636917Y-63135516D01*
X130729610Y-63088287D01*
X130750770Y-63072913D01*
X130895213Y-62967971D01*
X130895215Y-62967968D01*
X130895219Y-62967966D01*
X131039966Y-62823219D01*
X131039968Y-62823215D01*
X131039971Y-62823213D01*
X131092732Y-62750590D01*
X131160287Y-62657610D01*
X131253220Y-62475219D01*
X131316477Y-62280534D01*
X131348500Y-62078352D01*
X131348500Y-61873648D01*
X131316477Y-61671466D01*
X131253220Y-61476781D01*
X131253218Y-61476778D01*
X131253218Y-61476776D01*
X131219503Y-61410607D01*
X131160287Y-61294390D01*
X131152556Y-61283749D01*
X131039971Y-61128786D01*
X130895213Y-60984028D01*
X130729614Y-60863715D01*
X130723006Y-60860348D01*
X130636917Y-60816483D01*
X130586123Y-60768511D01*
X130569328Y-60700690D01*
X130591865Y-60634555D01*
X130636917Y-60595516D01*
X130729610Y-60548287D01*
X130750770Y-60532913D01*
X130895213Y-60427971D01*
X130895215Y-60427968D01*
X130895219Y-60427966D01*
X131039966Y-60283219D01*
X131039968Y-60283215D01*
X131039971Y-60283213D01*
X131092732Y-60210590D01*
X131160287Y-60117610D01*
X131253220Y-59935219D01*
X131316477Y-59740534D01*
X131348500Y-59538352D01*
X131348500Y-59333648D01*
X131316477Y-59131466D01*
X131253220Y-58936781D01*
X131253218Y-58936778D01*
X131253218Y-58936776D01*
X131198736Y-58829851D01*
X131160287Y-58754390D01*
X131152556Y-58743749D01*
X131039971Y-58588786D01*
X130895213Y-58444028D01*
X130729614Y-58323715D01*
X130723006Y-58320348D01*
X130636917Y-58276483D01*
X130586123Y-58228511D01*
X130569328Y-58160690D01*
X130591865Y-58094555D01*
X130636917Y-58055516D01*
X130729610Y-58008287D01*
X130750770Y-57992913D01*
X130895213Y-57887971D01*
X130895215Y-57887968D01*
X130895219Y-57887966D01*
X131039966Y-57743219D01*
X131039968Y-57743215D01*
X131039971Y-57743213D01*
X131092732Y-57670590D01*
X131160287Y-57577610D01*
X131253220Y-57395219D01*
X131316477Y-57200534D01*
X131348500Y-56998352D01*
X131348500Y-56793648D01*
X131316477Y-56591466D01*
X131253220Y-56396781D01*
X131253218Y-56396778D01*
X131253218Y-56396776D01*
X131212622Y-56317103D01*
X131160287Y-56214390D01*
X131130695Y-56173660D01*
X131039971Y-56048786D01*
X130895213Y-55904028D01*
X130729614Y-55783715D01*
X130723006Y-55780348D01*
X130636917Y-55736483D01*
X130586123Y-55688511D01*
X130569328Y-55620690D01*
X130591865Y-55554555D01*
X130636917Y-55515516D01*
X130729610Y-55468287D01*
X130786509Y-55426948D01*
X130895213Y-55347971D01*
X130895215Y-55347968D01*
X130895219Y-55347966D01*
X131039966Y-55203219D01*
X131039968Y-55203215D01*
X131039971Y-55203213D01*
X131105494Y-55113027D01*
X131160287Y-55037610D01*
X131253220Y-54855219D01*
X131316477Y-54660534D01*
X131348500Y-54458352D01*
X131348500Y-54253648D01*
X131316477Y-54051466D01*
X131253220Y-53856781D01*
X131253218Y-53856778D01*
X131253218Y-53856776D01*
X131207370Y-53766795D01*
X131194474Y-53698126D01*
X131220750Y-53633385D01*
X131277857Y-53593128D01*
X131317855Y-53586500D01*
X141153627Y-53586500D01*
X141220666Y-53606185D01*
G37*
%TD.AperFunction*%
%TD*%
M02*
