%TF.GenerationSoftware,KiCad,Pcbnew,9.0.1*%
%TF.CreationDate,2025-06-22T03:23:01+02:00*%
%TF.ProjectId,Arduino socket,41726475-696e-46f2-9073-6f636b65742e,rev?*%
%TF.SameCoordinates,Original*%
%TF.FileFunction,Soldermask,Bot*%
%TF.FilePolarity,Negative*%
%FSLAX46Y46*%
G04 Gerber Fmt 4.6, Leading zero omitted, Abs format (unit mm)*
G04 Created by KiCad (PCBNEW 9.0.1) date 2025-06-22 03:23:01*
%MOMM*%
%LPD*%
G01*
G04 APERTURE LIST*
G04 Aperture macros list*
%AMRoundRect*
0 Rectangle with rounded corners*
0 $1 Rounding radius*
0 $2 $3 $4 $5 $6 $7 $8 $9 X,Y pos of 4 corners*
0 Add a 4 corners polygon primitive as box body*
4,1,4,$2,$3,$4,$5,$6,$7,$8,$9,$2,$3,0*
0 Add four circle primitives for the rounded corners*
1,1,$1+$1,$2,$3*
1,1,$1+$1,$4,$5*
1,1,$1+$1,$6,$7*
1,1,$1+$1,$8,$9*
0 Add four rect primitives between the rounded corners*
20,1,$1+$1,$2,$3,$4,$5,0*
20,1,$1+$1,$4,$5,$6,$7,0*
20,1,$1+$1,$6,$7,$8,$9,0*
20,1,$1+$1,$8,$9,$2,$3,0*%
G04 Aperture macros list end*
%ADD10C,3.500000*%
%ADD11R,1.905000X2.000000*%
%ADD12O,1.905000X2.000000*%
%ADD13R,1.700000X1.700000*%
%ADD14C,1.700000*%
%ADD15C,1.600000*%
%ADD16R,1.600000X1.600000*%
%ADD17O,1.600000X1.600000*%
%ADD18RoundRect,0.090000X0.210000X1.060000X-0.210000X1.060000X-0.210000X-1.060000X0.210000X-1.060000X0*%
G04 APERTURE END LIST*
D10*
%TO.C,U1*%
X113284000Y-57508000D03*
D11*
X110744000Y-74168000D03*
D12*
X113284000Y-74168000D03*
X115824000Y-74168000D03*
%TD*%
D13*
%TO.C,J2*%
X121412000Y-55626000D03*
D14*
X123952000Y-55626000D03*
%TD*%
D15*
%TO.C,RTC1*%
X113284000Y-85344000D03*
X115824000Y-85344000D03*
X118364000Y-85344000D03*
X120904000Y-85344000D03*
%TD*%
D13*
%TO.C,J1*%
X142748000Y-93472000D03*
D14*
X140208000Y-93472000D03*
X137668000Y-93472000D03*
X135128000Y-93472000D03*
X132588000Y-93472000D03*
X130048000Y-93472000D03*
%TD*%
D16*
%TO.C,A1*%
X130048000Y-89916000D03*
D17*
X130048000Y-87376000D03*
X130048000Y-84836000D03*
X130048000Y-82296000D03*
X130048000Y-79756000D03*
X130048000Y-77216000D03*
X130048000Y-74676000D03*
X130048000Y-72136000D03*
X130048000Y-69596000D03*
X130048000Y-67056000D03*
X130048000Y-64516000D03*
X130048000Y-61976000D03*
X130048000Y-59436000D03*
X130048000Y-56896000D03*
X130048000Y-54356000D03*
X145288000Y-54356000D03*
X145288000Y-56896000D03*
X145288000Y-59436000D03*
X145288000Y-61976000D03*
X145288000Y-64516000D03*
X145288000Y-67056000D03*
X145288000Y-69596000D03*
X145288000Y-72136000D03*
X145288000Y-74676000D03*
X145288000Y-77216000D03*
X145288000Y-79756000D03*
X145288000Y-82296000D03*
X145288000Y-84836000D03*
X145288000Y-87376000D03*
X145288000Y-89916000D03*
%TD*%
D18*
%TO.C,J3*%
X114394999Y-88964000D03*
X113394999Y-92964000D03*
X112394999Y-88964000D03*
X111394999Y-92964000D03*
X110394999Y-88964000D03*
X109394999Y-92964000D03*
%TD*%
M02*
