%TF.GenerationSoftware,KiCad,Pcbnew,9.0.1*%
%TF.CreationDate,2025-06-22T03:23:01+02:00*%
%TF.ProjectId,Arduino socket,41726475-696e-46f2-9073-6f636b65742e,rev?*%
%TF.SameCoordinates,Original*%
%TF.FileFunction,Copper,L2,Bot*%
%TF.FilePolarity,Positive*%
%FSLAX46Y46*%
G04 Gerber Fmt 4.6, Leading zero omitted, Abs format (unit mm)*
G04 Created by KiCad (PCBNEW 9.0.1) date 2025-06-22 03:23:01*
%MOMM*%
%LPD*%
G01*
G04 APERTURE LIST*
G04 Aperture macros list*
%AMRoundRect*
0 Rectangle with rounded corners*
0 $1 Rounding radius*
0 $2 $3 $4 $5 $6 $7 $8 $9 X,Y pos of 4 corners*
0 Add a 4 corners polygon primitive as box body*
4,1,4,$2,$3,$4,$5,$6,$7,$8,$9,$2,$3,0*
0 Add four circle primitives for the rounded corners*
1,1,$1+$1,$2,$3*
1,1,$1+$1,$4,$5*
1,1,$1+$1,$6,$7*
1,1,$1+$1,$8,$9*
0 Add four rect primitives between the rounded corners*
20,1,$1+$1,$2,$3,$4,$5,0*
20,1,$1+$1,$4,$5,$6,$7,0*
20,1,$1+$1,$6,$7,$8,$9,0*
20,1,$1+$1,$8,$9,$2,$3,0*%
G04 Aperture macros list end*
%TA.AperFunction,ComponentPad*%
%ADD10R,1.905000X2.000000*%
%TD*%
%TA.AperFunction,ComponentPad*%
%ADD11O,1.905000X2.000000*%
%TD*%
%TA.AperFunction,ComponentPad*%
%ADD12R,1.700000X1.700000*%
%TD*%
%TA.AperFunction,ComponentPad*%
%ADD13C,1.700000*%
%TD*%
%TA.AperFunction,ComponentPad*%
%ADD14C,1.600000*%
%TD*%
%TA.AperFunction,ComponentPad*%
%ADD15R,1.600000X1.600000*%
%TD*%
%TA.AperFunction,ComponentPad*%
%ADD16O,1.600000X1.600000*%
%TD*%
%TA.AperFunction,SMDPad,CuDef*%
%ADD17RoundRect,0.090000X0.210000X1.060000X-0.210000X1.060000X-0.210000X-1.060000X0.210000X-1.060000X0*%
%TD*%
%TA.AperFunction,ViaPad*%
%ADD18C,0.600000*%
%TD*%
%TA.AperFunction,Conductor*%
%ADD19C,0.400000*%
%TD*%
G04 APERTURE END LIST*
D10*
%TO.P,U1,1,IN*%
%TO.N,Net-(J2-Pin_1)*%
X110744000Y-74168000D03*
D11*
%TO.P,U1,2,GND*%
%TO.N,GND*%
X113284000Y-74168000D03*
%TO.P,U1,3,OUT*%
%TO.N,VCC*%
X115824000Y-74168000D03*
%TD*%
D12*
%TO.P,J2,1,Pin_1*%
%TO.N,Net-(J2-Pin_1)*%
X121412000Y-55626000D03*
D13*
%TO.P,J2,2,Pin_2*%
%TO.N,GND*%
X123952000Y-55626000D03*
%TD*%
D14*
%TO.P,RTC1,1,gnd*%
%TO.N,GND*%
X113284000Y-85344000D03*
%TO.P,RTC1,2,vcc*%
%TO.N,VCC*%
X115824000Y-85344000D03*
%TO.P,RTC1,3,sda*%
%TO.N,SDA*%
X118364000Y-85344000D03*
%TO.P,RTC1,4,scl*%
%TO.N,SCL*%
X120904000Y-85344000D03*
%TD*%
D12*
%TO.P,J1,1,Pin_1*%
%TO.N,PISO in*%
X142748000Y-93472000D03*
D13*
%TO.P,J1,2,Pin_2*%
%TO.N,SIPO out*%
X140208000Y-93472000D03*
%TO.P,J1,3,Pin_3*%
%TO.N,Clock*%
X137668000Y-93472000D03*
%TO.P,J1,4,Pin_4*%
%TO.N,Shift{slash}load*%
X135128000Y-93472000D03*
%TO.P,J1,5,Pin_5*%
%TO.N,VCC*%
X132588000Y-93472000D03*
%TO.P,J1,6,Pin_6*%
%TO.N,GND*%
X130048000Y-93472000D03*
%TD*%
D15*
%TO.P,A1,1,D1/TX*%
%TO.N,unconnected-(A1-D1{slash}TX-Pad1)*%
X130048000Y-89916000D03*
D16*
%TO.P,A1,2,D0/RX*%
%TO.N,unconnected-(A1-D0{slash}RX-Pad2)*%
X130048000Y-87376000D03*
%TO.P,A1,3,~{RESET}*%
%TO.N,unconnected-(A1-~{RESET}-Pad3)*%
X130048000Y-84836000D03*
%TO.P,A1,4,GND*%
%TO.N,GND*%
X130048000Y-82296000D03*
%TO.P,A1,5,D2*%
%TO.N,unconnected-(A1-D2-Pad5)*%
X130048000Y-79756000D03*
%TO.P,A1,6,D3*%
%TO.N,PISO in*%
X130048000Y-77216000D03*
%TO.P,A1,7,D4*%
%TO.N,SIPO out*%
X130048000Y-74676000D03*
%TO.P,A1,8,D5*%
%TO.N,Shift{slash}load*%
X130048000Y-72136000D03*
%TO.P,A1,9,D6*%
%TO.N,Clock*%
X130048000Y-69596000D03*
%TO.P,A1,10,D7*%
%TO.N,unconnected-(A1-D7-Pad10)*%
X130048000Y-67056000D03*
%TO.P,A1,11,D8*%
%TO.N,unconnected-(A1-D8-Pad11)*%
X130048000Y-64516000D03*
%TO.P,A1,12,D9*%
%TO.N,unconnected-(A1-D9-Pad12)*%
X130048000Y-61976000D03*
%TO.P,A1,13,D10*%
%TO.N,unconnected-(A1-D10-Pad13)*%
X130048000Y-59436000D03*
%TO.P,A1,14,D11*%
%TO.N,unconnected-(A1-D11-Pad14)*%
X130048000Y-56896000D03*
%TO.P,A1,15,D12*%
%TO.N,unconnected-(A1-D12-Pad15)*%
X130048000Y-54356000D03*
%TO.P,A1,16,D13*%
%TO.N,unconnected-(A1-D13-Pad16)*%
X145288000Y-54356000D03*
%TO.P,A1,17,3V3*%
%TO.N,unconnected-(A1-3V3-Pad17)*%
X145288000Y-56896000D03*
%TO.P,A1,18,AREF*%
%TO.N,unconnected-(A1-AREF-Pad18)*%
X145288000Y-59436000D03*
%TO.P,A1,19,A0*%
%TO.N,unconnected-(A1-A0-Pad19)*%
X145288000Y-61976000D03*
%TO.P,A1,20,A1*%
%TO.N,unconnected-(A1-A1-Pad20)*%
X145288000Y-64516000D03*
%TO.P,A1,21,A2*%
%TO.N,unconnected-(A1-A2-Pad21)*%
X145288000Y-67056000D03*
%TO.P,A1,22,A3*%
%TO.N,unconnected-(A1-A3-Pad22)*%
X145288000Y-69596000D03*
%TO.P,A1,23,A4*%
%TO.N,SDA*%
X145288000Y-72136000D03*
%TO.P,A1,24,A5*%
%TO.N,SCL*%
X145288000Y-74676000D03*
%TO.P,A1,25,A6*%
%TO.N,unconnected-(A1-A6-Pad25)*%
X145288000Y-77216000D03*
%TO.P,A1,26,A7*%
%TO.N,unconnected-(A1-A7-Pad26)*%
X145288000Y-79756000D03*
%TO.P,A1,27,+5V*%
%TO.N,VCC*%
X145288000Y-82296000D03*
%TO.P,A1,28,~{RESET}*%
%TO.N,unconnected-(A1-~{RESET}-Pad28)*%
X145288000Y-84836000D03*
%TO.P,A1,29,GND*%
%TO.N,GND*%
X145288000Y-87376000D03*
%TO.P,A1,30,VIN*%
%TO.N,VCC*%
X145288000Y-89916000D03*
%TD*%
D17*
%TO.P,J3,1,Pin_1*%
%TO.N,PISO in*%
X114394999Y-88964000D03*
%TO.P,J3,2,Pin_2*%
%TO.N,SIPO out*%
X113394999Y-92964000D03*
%TO.P,J3,3,Pin_3*%
%TO.N,Clock*%
X112394999Y-88964000D03*
%TO.P,J3,4,Pin_4*%
%TO.N,Shift{slash}load*%
X111394999Y-92964000D03*
%TO.P,J3,5,Pin_5*%
%TO.N,VCC*%
X110394999Y-88964000D03*
%TO.P,J3,6,Pin_6*%
%TO.N,GND*%
X109394999Y-92964000D03*
%TD*%
D18*
%TO.N,GND*%
X125476000Y-68834000D03*
X125476000Y-66040000D03*
X125476000Y-63246000D03*
X125476000Y-60452000D03*
X107950000Y-76962000D03*
X107950000Y-82804000D03*
X107950000Y-91186000D03*
X112268000Y-90932000D03*
X115062000Y-91694000D03*
X127508000Y-86868000D03*
X132080000Y-78994000D03*
X142240000Y-77724000D03*
X137414000Y-74930000D03*
X142240000Y-74930000D03*
X140208000Y-55626000D03*
X138176000Y-55626000D03*
X135636000Y-55626000D03*
X139700000Y-77724000D03*
X116078000Y-87630000D03*
X138938000Y-87376000D03*
X136398000Y-87376000D03*
X133858000Y-85090000D03*
X133858000Y-89662000D03*
X121158000Y-93472000D03*
X116840000Y-91694000D03*
X124714000Y-90424000D03*
%TO.N,Clock*%
X125476000Y-92964000D03*
%TO.N,GND*%
X123952000Y-81280000D03*
X139954000Y-74930000D03*
X133604000Y-77216000D03*
X141478000Y-91440000D03*
X138938000Y-91440000D03*
X136398000Y-77978000D03*
%TO.N,PISO in*%
X116586000Y-88964000D03*
%TO.N,SIPO out*%
X127000000Y-82550000D03*
X119126000Y-92964000D03*
%TO.N,PISO in*%
X141224000Y-85090000D03*
%TO.N,SIPO out*%
X140208000Y-84328000D03*
%TO.N,Clock*%
X137668000Y-82296000D03*
%TO.N,Shift{slash}load*%
X135128000Y-80518000D03*
%TO.N,GND*%
X117094000Y-55880000D03*
X117094000Y-57404000D03*
X117094000Y-58928000D03*
X115570000Y-58928000D03*
X109474000Y-57404000D03*
X109474000Y-58928000D03*
X110998000Y-58928000D03*
X117094000Y-60452000D03*
X117094000Y-61976000D03*
X117094000Y-63500000D03*
X117094000Y-65024000D03*
X117094000Y-66548000D03*
X117094000Y-68072000D03*
X117094000Y-69596000D03*
X115570000Y-69596000D03*
X115570000Y-68072000D03*
X115570000Y-66548000D03*
X115570000Y-65024000D03*
X115570000Y-63500000D03*
X115570000Y-61976000D03*
X115570000Y-60452000D03*
X114046000Y-69596000D03*
X114046000Y-68072000D03*
X114046000Y-66548000D03*
X114046000Y-65024000D03*
X114046000Y-63500000D03*
X114046000Y-61976000D03*
X114046000Y-60452000D03*
X112522000Y-65024000D03*
X112522000Y-66548000D03*
X112522000Y-68072000D03*
X112522000Y-69596000D03*
X109474000Y-69596000D03*
X109474000Y-68072000D03*
X109474000Y-66548000D03*
X109474000Y-65024000D03*
X109474000Y-63500000D03*
X109474000Y-61976000D03*
X109474000Y-60452000D03*
X112522000Y-63500000D03*
X112522000Y-61976000D03*
X112522000Y-60452000D03*
X110998000Y-60452000D03*
X110998000Y-61976000D03*
X110998000Y-63500000D03*
X110998000Y-65024000D03*
X110998000Y-66548000D03*
X110998000Y-68072000D03*
X110998000Y-69596000D03*
%TD*%
D19*
%TO.N,GND*%
X129540000Y-88646000D02*
X128270000Y-88646000D01*
X129540000Y-88646000D02*
X131572000Y-88646000D01*
%TO.N,Clock*%
X122594058Y-92964000D02*
X125476000Y-92964000D01*
X120145058Y-90515000D02*
X122594058Y-92964000D01*
X113945999Y-90515000D02*
X120145058Y-90515000D01*
X112394999Y-88964000D02*
X113945999Y-90515000D01*
%TO.N,Shift{slash}load*%
X121920000Y-72136000D02*
X130048000Y-72136000D01*
X109474000Y-84582000D02*
X121920000Y-72136000D01*
X109474000Y-90458001D02*
X109474000Y-84582000D01*
X111394999Y-92379000D02*
X109474000Y-90458001D01*
X111394999Y-92964000D02*
X111394999Y-92379000D01*
%TO.N,PISO in*%
X133604000Y-81534000D02*
X133604000Y-78740000D01*
X137160000Y-85090000D02*
X133604000Y-81534000D01*
X141224000Y-85090000D02*
X137160000Y-85090000D01*
X132080000Y-77216000D02*
X130048000Y-77216000D01*
X133604000Y-78740000D02*
X132080000Y-77216000D01*
%TO.N,SIPO out*%
X128524000Y-74676000D02*
X130048000Y-74676000D01*
X127000000Y-76200000D02*
X128524000Y-74676000D01*
X127000000Y-82550000D02*
X127000000Y-76200000D01*
X132920116Y-74676000D02*
X130048000Y-74676000D01*
X134366000Y-81280000D02*
X134366000Y-76121884D01*
X137414000Y-84328000D02*
X134366000Y-81280000D01*
X134366000Y-76121884D02*
X132920116Y-74676000D01*
X140208000Y-84328000D02*
X137414000Y-84328000D01*
%TO.N,Shift{slash}load*%
X131230058Y-72136000D02*
X130048000Y-72136000D01*
X135128000Y-76033942D02*
X131230058Y-72136000D01*
X135128000Y-80518000D02*
X135128000Y-76033942D01*
%TO.N,Clock*%
X130048000Y-70104000D02*
X130048000Y-69596000D01*
X137668000Y-77724000D02*
X130048000Y-70104000D01*
X137668000Y-82296000D02*
X137668000Y-77724000D01*
%TO.N,PISO in*%
X116586000Y-88964000D02*
X116650000Y-88964000D01*
X114394999Y-88964000D02*
X116586000Y-88964000D01*
%TO.N,SIPO out*%
X113394999Y-92964000D02*
X119126000Y-92964000D01*
%TO.N,VCC*%
X131064000Y-91948000D02*
X122428000Y-91948000D01*
X132588000Y-93472000D02*
X131064000Y-91948000D01*
X122428000Y-91948000D02*
X115824000Y-85344000D01*
X142240000Y-89408000D02*
X142748000Y-89916000D01*
X143256000Y-82296000D02*
X142240000Y-83312000D01*
X136144000Y-89916000D02*
X142748000Y-89916000D01*
X142240000Y-83312000D02*
X142240000Y-89408000D01*
X145288000Y-82296000D02*
X143256000Y-82296000D01*
X142748000Y-89916000D02*
X145288000Y-89916000D01*
X132588000Y-93472000D02*
X136144000Y-89916000D01*
X114623000Y-86545000D02*
X115824000Y-85344000D01*
X112083000Y-86545000D02*
X114623000Y-86545000D01*
X110394999Y-88964000D02*
X110394999Y-88233001D01*
X110394999Y-88233001D02*
X112083000Y-86545000D01*
%TD*%
%TA.AperFunction,Conductor*%
%TO.N,GND*%
G36*
X125980666Y-53606185D02*
G01*
X126026421Y-53658989D01*
X126036365Y-53728147D01*
X126007340Y-53791703D01*
X125993204Y-53804674D01*
X125993630Y-53805173D01*
X125989918Y-53808343D01*
X125817343Y-53980918D01*
X125817339Y-53980923D01*
X125673896Y-54178357D01*
X125563097Y-54395812D01*
X125487678Y-54627927D01*
X125449500Y-54868973D01*
X125449500Y-55083232D01*
X125429815Y-55150271D01*
X125377011Y-55196026D01*
X125307853Y-55205970D01*
X125244297Y-55176945D01*
X125207569Y-55121551D01*
X125203094Y-55107781D01*
X125106624Y-54918449D01*
X125067270Y-54864282D01*
X125067269Y-54864282D01*
X124434962Y-55496590D01*
X124417925Y-55433007D01*
X124352099Y-55318993D01*
X124259007Y-55225901D01*
X124144993Y-55160075D01*
X124081409Y-55143037D01*
X124713716Y-54510728D01*
X124659550Y-54471375D01*
X124470217Y-54374904D01*
X124268129Y-54309242D01*
X124058246Y-54276000D01*
X123845754Y-54276000D01*
X123635872Y-54309242D01*
X123635869Y-54309242D01*
X123433782Y-54374904D01*
X123244439Y-54471380D01*
X123190282Y-54510727D01*
X123190282Y-54510728D01*
X123822591Y-55143037D01*
X123759007Y-55160075D01*
X123644993Y-55225901D01*
X123551901Y-55318993D01*
X123486075Y-55433007D01*
X123469037Y-55496591D01*
X122798818Y-54826372D01*
X122765333Y-54765049D01*
X122765330Y-54765036D01*
X122762499Y-54752015D01*
X122762499Y-54728128D01*
X122756091Y-54668517D01*
X122714493Y-54556986D01*
X122705798Y-54533673D01*
X122705793Y-54533664D01*
X122619547Y-54418455D01*
X122619544Y-54418452D01*
X122504335Y-54332206D01*
X122504328Y-54332202D01*
X122369482Y-54281908D01*
X122369483Y-54281908D01*
X122309883Y-54275501D01*
X122309881Y-54275500D01*
X122309873Y-54275500D01*
X122309864Y-54275500D01*
X120514129Y-54275500D01*
X120514123Y-54275501D01*
X120454516Y-54281908D01*
X120319671Y-54332202D01*
X120319664Y-54332206D01*
X120204455Y-54418452D01*
X120204452Y-54418455D01*
X120118206Y-54533664D01*
X120118202Y-54533671D01*
X120067908Y-54668517D01*
X120061501Y-54728116D01*
X120061500Y-54728135D01*
X120061500Y-56523870D01*
X120061501Y-56523876D01*
X120067908Y-56583483D01*
X120118202Y-56718328D01*
X120118206Y-56718335D01*
X120204452Y-56833544D01*
X120204455Y-56833547D01*
X120319664Y-56919793D01*
X120319671Y-56919797D01*
X120454517Y-56970091D01*
X120454516Y-56970091D01*
X120461444Y-56970835D01*
X120514127Y-56976500D01*
X122309872Y-56976499D01*
X122369483Y-56970091D01*
X122504331Y-56919796D01*
X122619546Y-56833546D01*
X122705796Y-56718331D01*
X122756091Y-56583483D01*
X122762500Y-56523873D01*
X122762499Y-56499979D01*
X122765330Y-56486963D01*
X122775940Y-56467525D01*
X122782179Y-56446275D01*
X122798803Y-56425643D01*
X122798808Y-56425636D01*
X122798811Y-56425634D01*
X122798818Y-56425626D01*
X123469037Y-55755408D01*
X123486075Y-55818993D01*
X123551901Y-55933007D01*
X123644993Y-56026099D01*
X123759007Y-56091925D01*
X123822590Y-56108962D01*
X123190282Y-56741269D01*
X123190282Y-56741270D01*
X123244449Y-56780624D01*
X123433782Y-56877095D01*
X123635870Y-56942757D01*
X123845754Y-56976000D01*
X124058246Y-56976000D01*
X124268127Y-56942757D01*
X124268130Y-56942757D01*
X124470217Y-56877095D01*
X124659554Y-56780622D01*
X124713716Y-56741270D01*
X124713717Y-56741270D01*
X124081408Y-56108962D01*
X124144993Y-56091925D01*
X124259007Y-56026099D01*
X124352099Y-55933007D01*
X124417925Y-55818993D01*
X124434962Y-55755408D01*
X125067270Y-56387717D01*
X125067270Y-56387716D01*
X125106622Y-56333554D01*
X125203095Y-56144217D01*
X125268757Y-55942130D01*
X125268757Y-55942127D01*
X125302000Y-55732246D01*
X125302000Y-55565518D01*
X125321685Y-55498479D01*
X125374489Y-55452724D01*
X125443647Y-55442780D01*
X125507203Y-55471805D01*
X125543930Y-55527198D01*
X125563096Y-55586185D01*
X125663742Y-55783715D01*
X125673896Y-55803642D01*
X125817339Y-56001076D01*
X125817343Y-56001081D01*
X125989918Y-56173656D01*
X125989923Y-56173660D01*
X126045984Y-56214390D01*
X126187361Y-56317106D01*
X126404815Y-56427904D01*
X126636924Y-56503321D01*
X126877973Y-56541500D01*
X126877974Y-56541500D01*
X127122026Y-56541500D01*
X127122027Y-56541500D01*
X127363076Y-56503321D01*
X127595185Y-56427904D01*
X127812639Y-56317106D01*
X128010083Y-56173655D01*
X128182655Y-56001083D01*
X128326106Y-55803639D01*
X128436904Y-55586185D01*
X128512321Y-55354076D01*
X128550500Y-55113027D01*
X128550500Y-54868973D01*
X128512321Y-54627924D01*
X128436904Y-54395815D01*
X128326106Y-54178361D01*
X128233911Y-54051465D01*
X128182660Y-53980923D01*
X128182656Y-53980918D01*
X128010081Y-53808343D01*
X128006370Y-53805173D01*
X128007825Y-53803468D01*
X127970830Y-53755510D01*
X127964838Y-53685897D01*
X127997433Y-53624096D01*
X128058265Y-53589728D01*
X128086373Y-53586500D01*
X128778145Y-53586500D01*
X128845184Y-53606185D01*
X128890939Y-53658989D01*
X128900883Y-53728147D01*
X128888630Y-53766795D01*
X128842781Y-53856776D01*
X128779522Y-54051465D01*
X128759425Y-54178357D01*
X128747500Y-54253648D01*
X128747500Y-54458352D01*
X128751456Y-54483328D01*
X128779522Y-54660534D01*
X128842781Y-54855223D01*
X128878390Y-54925108D01*
X128914447Y-54995874D01*
X128935715Y-55037613D01*
X129056028Y-55203213D01*
X129200786Y-55347971D01*
X129331282Y-55442780D01*
X129366390Y-55468287D01*
X129426024Y-55498672D01*
X129459080Y-55515515D01*
X129509876Y-55563490D01*
X129526671Y-55631311D01*
X129504134Y-55697446D01*
X129459080Y-55736485D01*
X129366386Y-55783715D01*
X129200786Y-55904028D01*
X129056028Y-56048786D01*
X128935715Y-56214386D01*
X128842781Y-56396776D01*
X128779522Y-56591465D01*
X128747500Y-56793648D01*
X128747500Y-56998351D01*
X128779522Y-57200534D01*
X128842781Y-57395223D01*
X128935715Y-57577613D01*
X129056028Y-57743213D01*
X129200786Y-57887971D01*
X129355749Y-58000556D01*
X129366390Y-58008287D01*
X129457840Y-58054883D01*
X129459080Y-58055515D01*
X129509876Y-58103490D01*
X129526671Y-58171311D01*
X129504134Y-58237446D01*
X129459080Y-58276485D01*
X129366386Y-58323715D01*
X129200786Y-58444028D01*
X129056028Y-58588786D01*
X128935715Y-58754386D01*
X128842781Y-58936776D01*
X128779522Y-59131465D01*
X128747500Y-59333648D01*
X128747500Y-59538351D01*
X128779522Y-59740534D01*
X128842781Y-59935223D01*
X128935715Y-60117613D01*
X129056028Y-60283213D01*
X129200786Y-60427971D01*
X129355749Y-60540556D01*
X129366390Y-60548287D01*
X129457840Y-60594883D01*
X129459080Y-60595515D01*
X129509876Y-60643490D01*
X129526671Y-60711311D01*
X129504134Y-60777446D01*
X129459080Y-60816485D01*
X129366386Y-60863715D01*
X129200786Y-60984028D01*
X129056028Y-61128786D01*
X128935715Y-61294386D01*
X128842781Y-61476776D01*
X128779522Y-61671465D01*
X128747500Y-61873648D01*
X128747500Y-62078351D01*
X128779522Y-62280534D01*
X128842781Y-62475223D01*
X128935715Y-62657613D01*
X129056028Y-62823213D01*
X129200786Y-62967971D01*
X129355749Y-63080556D01*
X129366390Y-63088287D01*
X129457840Y-63134883D01*
X129459080Y-63135515D01*
X129509876Y-63183490D01*
X129526671Y-63251311D01*
X129504134Y-63317446D01*
X129459080Y-63356485D01*
X129366386Y-63403715D01*
X129200786Y-63524028D01*
X129056028Y-63668786D01*
X128935715Y-63834386D01*
X128842781Y-64016776D01*
X128779522Y-64211465D01*
X128747500Y-64413648D01*
X128747500Y-64618351D01*
X128779522Y-64820534D01*
X128842781Y-65015223D01*
X128935715Y-65197613D01*
X129056028Y-65363213D01*
X129200786Y-65507971D01*
X129355749Y-65620556D01*
X129366390Y-65628287D01*
X129457840Y-65674883D01*
X129459080Y-65675515D01*
X129509876Y-65723490D01*
X129526671Y-65791311D01*
X129504134Y-65857446D01*
X129459080Y-65896485D01*
X129366386Y-65943715D01*
X129200786Y-66064028D01*
X129056028Y-66208786D01*
X128935715Y-66374386D01*
X128842781Y-66556776D01*
X128779522Y-66751465D01*
X128747500Y-66953648D01*
X128747500Y-67158351D01*
X128779522Y-67360534D01*
X128842781Y-67555223D01*
X128935715Y-67737613D01*
X129056028Y-67903213D01*
X129200786Y-68047971D01*
X129355749Y-68160556D01*
X129366390Y-68168287D01*
X129457840Y-68214883D01*
X129459080Y-68215515D01*
X129509876Y-68263490D01*
X129526671Y-68331311D01*
X129504134Y-68397446D01*
X129459080Y-68436485D01*
X129366386Y-68483715D01*
X129200786Y-68604028D01*
X129056028Y-68748786D01*
X128935715Y-68914386D01*
X128842781Y-69096776D01*
X128779523Y-69291464D01*
X128751942Y-69465598D01*
X128722012Y-69528732D01*
X128662701Y-69565663D01*
X128592838Y-69564665D01*
X128534606Y-69526055D01*
X128511540Y-69484520D01*
X128436904Y-69254815D01*
X128326106Y-69037361D01*
X128236760Y-68914386D01*
X128182660Y-68839923D01*
X128182656Y-68839918D01*
X128010081Y-68667343D01*
X128010076Y-68667339D01*
X127812642Y-68523896D01*
X127812641Y-68523895D01*
X127812639Y-68523894D01*
X127595185Y-68413096D01*
X127363076Y-68337679D01*
X127363074Y-68337678D01*
X127363072Y-68337678D01*
X127194769Y-68311021D01*
X127122027Y-68299500D01*
X126877973Y-68299500D01*
X126822093Y-68308350D01*
X126636927Y-68337678D01*
X126404812Y-68413097D01*
X126187357Y-68523896D01*
X125989923Y-68667339D01*
X125989918Y-68667343D01*
X125817343Y-68839918D01*
X125817339Y-68839923D01*
X125673896Y-69037357D01*
X125563097Y-69254812D01*
X125487678Y-69486927D01*
X125463479Y-69639715D01*
X125449500Y-69727973D01*
X125449500Y-69778276D01*
X125449500Y-69972027D01*
X125487679Y-70213076D01*
X125563096Y-70445185D01*
X125635846Y-70587966D01*
X125673896Y-70662642D01*
X125817339Y-70860076D01*
X125817343Y-70860081D01*
X125989918Y-71032656D01*
X125989923Y-71032660D01*
X126162136Y-71157779D01*
X126187361Y-71176106D01*
X126236248Y-71201015D01*
X126287044Y-71248990D01*
X126303839Y-71316810D01*
X126281302Y-71382945D01*
X126226587Y-71426397D01*
X126179953Y-71435500D01*
X121851004Y-71435500D01*
X121715677Y-71462418D01*
X121715667Y-71462421D01*
X121588192Y-71515222D01*
X121473454Y-71591887D01*
X108929887Y-84135454D01*
X108853222Y-84250192D01*
X108800421Y-84377667D01*
X108800418Y-84377679D01*
X108776728Y-84496778D01*
X108773500Y-84513005D01*
X108773500Y-84513007D01*
X108773500Y-90389007D01*
X108773500Y-90526995D01*
X108773500Y-90526997D01*
X108773499Y-90526997D01*
X108800418Y-90662323D01*
X108800421Y-90662333D01*
X108853222Y-90789808D01*
X108929887Y-90904546D01*
X108929888Y-90904547D01*
X109139087Y-91113745D01*
X109172572Y-91175068D01*
X109167588Y-91244759D01*
X109125717Y-91300693D01*
X109067594Y-91324365D01*
X109030977Y-91329186D01*
X109030974Y-91329187D01*
X108887457Y-91388633D01*
X108887456Y-91388633D01*
X108764206Y-91483207D01*
X108669632Y-91606457D01*
X108669632Y-91606458D01*
X108610186Y-91749975D01*
X108610184Y-91749980D01*
X108594999Y-91865329D01*
X108594999Y-91903999D01*
X108614335Y-91912009D01*
X108615413Y-91911421D01*
X108685105Y-91916403D01*
X108729456Y-91944905D01*
X109571775Y-92787224D01*
X110194998Y-93410448D01*
X110194999Y-93410447D01*
X110194999Y-92469019D01*
X110201237Y-92447773D01*
X110202817Y-92425685D01*
X110210889Y-92414901D01*
X110214684Y-92401980D01*
X110231417Y-92387480D01*
X110244689Y-92369752D01*
X110257309Y-92365044D01*
X110267488Y-92356225D01*
X110289405Y-92353073D01*
X110310153Y-92345335D01*
X110323313Y-92348197D01*
X110336646Y-92346281D01*
X110356789Y-92355480D01*
X110378426Y-92360187D01*
X110396151Y-92373455D01*
X110400202Y-92375306D01*
X110406680Y-92381338D01*
X110558180Y-92532838D01*
X110591665Y-92594161D01*
X110594499Y-92620519D01*
X110594500Y-94054500D01*
X110574815Y-94121539D01*
X110522012Y-94167294D01*
X110470500Y-94178500D01*
X110318999Y-94178500D01*
X110251960Y-94158815D01*
X110206205Y-94106011D01*
X110194999Y-94054500D01*
X110194999Y-94024000D01*
X110175658Y-94015989D01*
X110174577Y-94016580D01*
X110104885Y-94011594D01*
X110060541Y-93983094D01*
X109394999Y-93317552D01*
X108729456Y-93983094D01*
X108723523Y-93988651D01*
X108552747Y-94138382D01*
X108536249Y-94146032D01*
X108522510Y-94157938D01*
X108503230Y-94161345D01*
X108489362Y-94167777D01*
X108476709Y-94166033D01*
X108461269Y-94168762D01*
X108375013Y-94161973D01*
X108355796Y-94158929D01*
X108160474Y-94112037D01*
X108141971Y-94106025D01*
X108037376Y-94062700D01*
X107956383Y-94029151D01*
X107939048Y-94020318D01*
X107853412Y-93967841D01*
X107767774Y-93915362D01*
X107752034Y-93903926D01*
X107599288Y-93773468D01*
X107585530Y-93759710D01*
X107542570Y-93709410D01*
X107455070Y-93606961D01*
X107443638Y-93591226D01*
X107338679Y-93419949D01*
X107333838Y-93410448D01*
X108594999Y-93410448D01*
X109041447Y-92964000D01*
X109041447Y-92963999D01*
X108594999Y-92517551D01*
X108594999Y-93410448D01*
X107333838Y-93410448D01*
X107329847Y-93402614D01*
X107305225Y-93343172D01*
X107252973Y-93217023D01*
X107246964Y-93198531D01*
X107200069Y-93003197D01*
X107197026Y-92983984D01*
X107195453Y-92964000D01*
X107180880Y-92778839D01*
X107180499Y-92769113D01*
X107180499Y-73120135D01*
X109291000Y-73120135D01*
X109291000Y-75215870D01*
X109291001Y-75215876D01*
X109297408Y-75275483D01*
X109347702Y-75410328D01*
X109347706Y-75410335D01*
X109433952Y-75525544D01*
X109433955Y-75525547D01*
X109549164Y-75611793D01*
X109549171Y-75611797D01*
X109684017Y-75662091D01*
X109684016Y-75662091D01*
X109690944Y-75662835D01*
X109743627Y-75668500D01*
X111744372Y-75668499D01*
X111803983Y-75662091D01*
X111938831Y-75611796D01*
X112054046Y-75525546D01*
X112140296Y-75410331D01*
X112150872Y-75381974D01*
X112192740Y-75326041D01*
X112258204Y-75301622D01*
X112326477Y-75316472D01*
X112339940Y-75324988D01*
X112522723Y-75457788D01*
X112726429Y-75561582D01*
X112943871Y-75632234D01*
X113034000Y-75646509D01*
X113034000Y-74658747D01*
X113071708Y-74680518D01*
X113211591Y-74718000D01*
X113356409Y-74718000D01*
X113496292Y-74680518D01*
X113534000Y-74658747D01*
X113534000Y-75646508D01*
X113624128Y-75632234D01*
X113841570Y-75561582D01*
X114045276Y-75457788D01*
X114230242Y-75323402D01*
X114391905Y-75161739D01*
X114453371Y-75077137D01*
X114508701Y-75034470D01*
X114578314Y-75028491D01*
X114640109Y-75061096D01*
X114654007Y-75077134D01*
X114715714Y-75162066D01*
X114877434Y-75323786D01*
X115062462Y-75458217D01*
X115190024Y-75523213D01*
X115266244Y-75562049D01*
X115483751Y-75632721D01*
X115483752Y-75632721D01*
X115483755Y-75632722D01*
X115709646Y-75668500D01*
X115709647Y-75668500D01*
X115938353Y-75668500D01*
X115938354Y-75668500D01*
X116164245Y-75632722D01*
X116164248Y-75632721D01*
X116164249Y-75632721D01*
X116381755Y-75562049D01*
X116381755Y-75562048D01*
X116381758Y-75562048D01*
X116585538Y-75458217D01*
X116770566Y-75323786D01*
X116932286Y-75162066D01*
X117066717Y-74977038D01*
X117170548Y-74773258D01*
X117241222Y-74555745D01*
X117277000Y-74329854D01*
X117277000Y-74006146D01*
X117241222Y-73780255D01*
X117241221Y-73780251D01*
X117241221Y-73780250D01*
X117170549Y-73562744D01*
X117146979Y-73516485D01*
X117066717Y-73358962D01*
X116932286Y-73173934D01*
X116770566Y-73012214D01*
X116585538Y-72877783D01*
X116575796Y-72872819D01*
X116381755Y-72773950D01*
X116164248Y-72703278D01*
X115978812Y-72673908D01*
X115938354Y-72667500D01*
X115709646Y-72667500D01*
X115669188Y-72673908D01*
X115483753Y-72703278D01*
X115483750Y-72703278D01*
X115266244Y-72773950D01*
X115062461Y-72877783D01*
X114996550Y-72925671D01*
X114877434Y-73012214D01*
X114877432Y-73012216D01*
X114877431Y-73012216D01*
X114715716Y-73173931D01*
X114715709Y-73173940D01*
X114654007Y-73258864D01*
X114598677Y-73301530D01*
X114529063Y-73307508D01*
X114467269Y-73274901D01*
X114453372Y-73258863D01*
X114391907Y-73174263D01*
X114391902Y-73174257D01*
X114230242Y-73012597D01*
X114045276Y-72878211D01*
X113841568Y-72774417D01*
X113624124Y-72703765D01*
X113534000Y-72689490D01*
X113534000Y-73677252D01*
X113496292Y-73655482D01*
X113356409Y-73618000D01*
X113211591Y-73618000D01*
X113071708Y-73655482D01*
X113034000Y-73677252D01*
X113034000Y-72689490D01*
X113033999Y-72689490D01*
X112943875Y-72703765D01*
X112726431Y-72774417D01*
X112522719Y-72878213D01*
X112339939Y-73011010D01*
X112274132Y-73034490D01*
X112206079Y-73018664D01*
X112157384Y-72968558D01*
X112150875Y-72954033D01*
X112140296Y-72925669D01*
X112140295Y-72925667D01*
X112140293Y-72925664D01*
X112054047Y-72810455D01*
X112054044Y-72810452D01*
X111938835Y-72724206D01*
X111938828Y-72724202D01*
X111803982Y-72673908D01*
X111803983Y-72673908D01*
X111744383Y-72667501D01*
X111744381Y-72667500D01*
X111744373Y-72667500D01*
X111744364Y-72667500D01*
X109743629Y-72667500D01*
X109743623Y-72667501D01*
X109684016Y-72673908D01*
X109549171Y-72724202D01*
X109549164Y-72724206D01*
X109433955Y-72810452D01*
X109433952Y-72810455D01*
X109347706Y-72925664D01*
X109347702Y-72925671D01*
X109297408Y-73060517D01*
X109291001Y-73120116D01*
X109291000Y-73120135D01*
X107180499Y-73120135D01*
X107180499Y-57376872D01*
X111283500Y-57376872D01*
X111283500Y-57639127D01*
X111297204Y-57743213D01*
X111317730Y-57899116D01*
X111372492Y-58103490D01*
X111385602Y-58152418D01*
X111385605Y-58152428D01*
X111485953Y-58394690D01*
X111485958Y-58394700D01*
X111617075Y-58621803D01*
X111776718Y-58829851D01*
X111776726Y-58829860D01*
X111962140Y-59015274D01*
X111962148Y-59015281D01*
X112170196Y-59174924D01*
X112397299Y-59306041D01*
X112397309Y-59306046D01*
X112639571Y-59406394D01*
X112639581Y-59406398D01*
X112892884Y-59474270D01*
X113152880Y-59508500D01*
X113152887Y-59508500D01*
X113415113Y-59508500D01*
X113415120Y-59508500D01*
X113675116Y-59474270D01*
X113928419Y-59406398D01*
X114170697Y-59306043D01*
X114397803Y-59174924D01*
X114605851Y-59015282D01*
X114605855Y-59015277D01*
X114605860Y-59015274D01*
X114791274Y-58829860D01*
X114791277Y-58829855D01*
X114791282Y-58829851D01*
X114950924Y-58621803D01*
X115082043Y-58394697D01*
X115182398Y-58152419D01*
X115250270Y-57899116D01*
X115284500Y-57639120D01*
X115284500Y-57376880D01*
X115250270Y-57116884D01*
X115182398Y-56863581D01*
X115182394Y-56863571D01*
X115082046Y-56621309D01*
X115082041Y-56621299D01*
X114950924Y-56394196D01*
X114791281Y-56186148D01*
X114791274Y-56186140D01*
X114605860Y-56000726D01*
X114605851Y-56000718D01*
X114397803Y-55841075D01*
X114170700Y-55709958D01*
X114170690Y-55709953D01*
X113928428Y-55609605D01*
X113928421Y-55609603D01*
X113928419Y-55609602D01*
X113675116Y-55541730D01*
X113617339Y-55534123D01*
X113415127Y-55507500D01*
X113415120Y-55507500D01*
X113152880Y-55507500D01*
X113152872Y-55507500D01*
X112937933Y-55535799D01*
X112892884Y-55541730D01*
X112639581Y-55609602D01*
X112639571Y-55609605D01*
X112397309Y-55709953D01*
X112397299Y-55709958D01*
X112170196Y-55841075D01*
X111962148Y-56000718D01*
X111776718Y-56186148D01*
X111617075Y-56394196D01*
X111485958Y-56621299D01*
X111485953Y-56621309D01*
X111385605Y-56863571D01*
X111385602Y-56863581D01*
X111349491Y-56998352D01*
X111317730Y-57116885D01*
X111283500Y-57376872D01*
X107180499Y-57376872D01*
X107180499Y-56077371D01*
X107200184Y-56010332D01*
X107252988Y-55964577D01*
X107322146Y-55954633D01*
X107385702Y-55983658D01*
X107398670Y-55997799D01*
X107399173Y-55997370D01*
X107402343Y-56001081D01*
X107574918Y-56173656D01*
X107574923Y-56173660D01*
X107630984Y-56214390D01*
X107772361Y-56317106D01*
X107989815Y-56427904D01*
X108221924Y-56503321D01*
X108462973Y-56541500D01*
X108462974Y-56541500D01*
X108707026Y-56541500D01*
X108707027Y-56541500D01*
X108948076Y-56503321D01*
X109180185Y-56427904D01*
X109397639Y-56317106D01*
X109595083Y-56173655D01*
X109767655Y-56001083D01*
X109911106Y-55803639D01*
X110021904Y-55586185D01*
X110097321Y-55354076D01*
X110135500Y-55113027D01*
X110135500Y-54868973D01*
X110097321Y-54627924D01*
X110021904Y-54395815D01*
X109911106Y-54178361D01*
X109818911Y-54051465D01*
X109767660Y-53980923D01*
X109767656Y-53980918D01*
X109595081Y-53808343D01*
X109591370Y-53805173D01*
X109592825Y-53803468D01*
X109555830Y-53755510D01*
X109549838Y-53685897D01*
X109582433Y-53624096D01*
X109643265Y-53589728D01*
X109671373Y-53586500D01*
X125913627Y-53586500D01*
X125980666Y-53606185D01*
G37*
%TD.AperFunction*%
%TA.AperFunction,Conductor*%
G36*
X111513833Y-88207336D02*
G01*
X111569766Y-88249208D01*
X111594183Y-88314672D01*
X111594499Y-88323518D01*
X111594499Y-90062703D01*
X111609695Y-90178142D01*
X111609698Y-90178151D01*
X111669199Y-90321798D01*
X111763850Y-90445149D01*
X111887201Y-90539800D01*
X112030848Y-90599301D01*
X112146298Y-90614500D01*
X112643699Y-90614499D01*
X112643702Y-90614499D01*
X112759141Y-90599303D01*
X112759144Y-90599301D01*
X112759150Y-90599301D01*
X112880945Y-90548851D01*
X112950408Y-90541383D01*
X113012888Y-90572657D01*
X113016074Y-90575732D01*
X113499452Y-91059111D01*
X113499455Y-91059114D01*
X113540289Y-91086398D01*
X113585094Y-91140010D01*
X113593801Y-91209335D01*
X113563647Y-91272362D01*
X113504204Y-91309082D01*
X113471398Y-91313500D01*
X113146295Y-91313500D01*
X113030856Y-91328696D01*
X113030847Y-91328699D01*
X112887204Y-91388198D01*
X112887201Y-91388199D01*
X112887201Y-91388200D01*
X112866756Y-91403888D01*
X112763850Y-91482851D01*
X112669197Y-91606205D01*
X112609698Y-91749848D01*
X112609697Y-91749850D01*
X112605552Y-91781339D01*
X112594499Y-91865299D01*
X112594499Y-92963999D01*
X112594500Y-94054500D01*
X112591949Y-94063185D01*
X112593238Y-94072147D01*
X112582259Y-94096187D01*
X112574815Y-94121539D01*
X112567974Y-94127466D01*
X112564213Y-94135703D01*
X112541980Y-94149990D01*
X112522012Y-94167294D01*
X112511496Y-94169581D01*
X112505435Y-94173477D01*
X112470500Y-94178500D01*
X112319499Y-94178500D01*
X112252460Y-94158815D01*
X112206705Y-94106011D01*
X112195499Y-94054500D01*
X112195498Y-91865296D01*
X112180302Y-91749857D01*
X112180300Y-91749850D01*
X112180300Y-91749849D01*
X112120799Y-91606202D01*
X112026148Y-91482851D01*
X111902797Y-91388200D01*
X111902793Y-91388198D01*
X111759150Y-91328699D01*
X111759148Y-91328698D01*
X111643701Y-91313500D01*
X111643700Y-91313500D01*
X111371518Y-91313500D01*
X111304479Y-91293815D01*
X111283837Y-91277181D01*
X110782050Y-90775394D01*
X110748565Y-90714071D01*
X110753549Y-90644379D01*
X110795421Y-90588446D01*
X110822279Y-90573152D01*
X110902792Y-90539802D01*
X110902793Y-90539802D01*
X110902793Y-90539801D01*
X110902797Y-90539800D01*
X111026148Y-90445149D01*
X111120799Y-90321798D01*
X111180300Y-90178151D01*
X111195499Y-90062701D01*
X111195498Y-88474518D01*
X111204142Y-88445078D01*
X111210666Y-88415092D01*
X111214420Y-88410076D01*
X111215183Y-88407480D01*
X111231812Y-88386843D01*
X111382820Y-88235835D01*
X111444141Y-88202352D01*
X111513833Y-88207336D01*
G37*
%TD.AperFunction*%
%TA.AperFunction,Conductor*%
G36*
X119870578Y-91235185D02*
G01*
X119891220Y-91251819D01*
X122147511Y-93508111D01*
X122147512Y-93508112D01*
X122262250Y-93584777D01*
X122389725Y-93637578D01*
X122389730Y-93637580D01*
X122389734Y-93637580D01*
X122389735Y-93637581D01*
X122525061Y-93664500D01*
X122525064Y-93664500D01*
X122525065Y-93664500D01*
X125050684Y-93664500D01*
X125098136Y-93673939D01*
X125212866Y-93721461D01*
X125242503Y-93733737D01*
X125397153Y-93764499D01*
X125397156Y-93764500D01*
X125397158Y-93764500D01*
X125554844Y-93764500D01*
X125554845Y-93764499D01*
X125709497Y-93733737D01*
X125855179Y-93673394D01*
X125986289Y-93585789D01*
X126097789Y-93474289D01*
X126185394Y-93343179D01*
X126245737Y-93197497D01*
X126276500Y-93042842D01*
X126276500Y-92885158D01*
X126276500Y-92885155D01*
X126258903Y-92796692D01*
X126265130Y-92727100D01*
X126307993Y-92671923D01*
X126373882Y-92648678D01*
X126380520Y-92648500D01*
X128750104Y-92648500D01*
X128817143Y-92668185D01*
X128862898Y-92720989D01*
X128872842Y-92790147D01*
X128860589Y-92828795D01*
X128796904Y-92953782D01*
X128731242Y-93155869D01*
X128731242Y-93155872D01*
X128698000Y-93365753D01*
X128698000Y-93578246D01*
X128731242Y-93788127D01*
X128731242Y-93788130D01*
X128796905Y-93990220D01*
X128796905Y-93990221D01*
X128800975Y-93998208D01*
X128813870Y-94066878D01*
X128787592Y-94131617D01*
X128730484Y-94171873D01*
X128690489Y-94178500D01*
X114319499Y-94178500D01*
X114252460Y-94158815D01*
X114206705Y-94106011D01*
X114195499Y-94054500D01*
X114195499Y-93788500D01*
X114215184Y-93721461D01*
X114267988Y-93675706D01*
X114319499Y-93664500D01*
X118700684Y-93664500D01*
X118748136Y-93673939D01*
X118862866Y-93721461D01*
X118892503Y-93733737D01*
X119047153Y-93764499D01*
X119047156Y-93764500D01*
X119047158Y-93764500D01*
X119204844Y-93764500D01*
X119204845Y-93764499D01*
X119359497Y-93733737D01*
X119505179Y-93673394D01*
X119636289Y-93585789D01*
X119747789Y-93474289D01*
X119835394Y-93343179D01*
X119895737Y-93197497D01*
X119926500Y-93042842D01*
X119926500Y-92885158D01*
X119926500Y-92885155D01*
X119926499Y-92885153D01*
X119917624Y-92840536D01*
X119895737Y-92730503D01*
X119895735Y-92730498D01*
X119835397Y-92584827D01*
X119835390Y-92584814D01*
X119747789Y-92453711D01*
X119747786Y-92453707D01*
X119636292Y-92342213D01*
X119636288Y-92342210D01*
X119505185Y-92254609D01*
X119505172Y-92254602D01*
X119359501Y-92194264D01*
X119359489Y-92194261D01*
X119204845Y-92163500D01*
X119204842Y-92163500D01*
X119047158Y-92163500D01*
X119047155Y-92163500D01*
X118892510Y-92194261D01*
X118892498Y-92194264D01*
X118748136Y-92254061D01*
X118700684Y-92263500D01*
X114319498Y-92263500D01*
X114252459Y-92243815D01*
X114206704Y-92191011D01*
X114195498Y-92139500D01*
X114195498Y-91865296D01*
X114180302Y-91749857D01*
X114180300Y-91749850D01*
X114180300Y-91749849D01*
X114120799Y-91606202D01*
X114026148Y-91482851D01*
X113980594Y-91447896D01*
X113967535Y-91437875D01*
X113926333Y-91381447D01*
X113922178Y-91311701D01*
X113956391Y-91250781D01*
X114018108Y-91218029D01*
X114043022Y-91215500D01*
X119803539Y-91215500D01*
X119870578Y-91235185D01*
G37*
%TD.AperFunction*%
%TA.AperFunction,Conductor*%
G36*
X144131505Y-90618041D02*
G01*
X144136868Y-90616955D01*
X144164670Y-90627779D01*
X144193295Y-90636185D01*
X144198230Y-90640846D01*
X144201977Y-90642305D01*
X144226575Y-90667616D01*
X144296030Y-90763215D01*
X144440786Y-90907971D01*
X144595749Y-91020556D01*
X144606390Y-91028287D01*
X144750850Y-91101893D01*
X144788779Y-91121219D01*
X144791087Y-91122175D01*
X144791830Y-91122773D01*
X144793122Y-91123432D01*
X144792983Y-91123703D01*
X144845493Y-91166013D01*
X144867562Y-91232306D01*
X144850286Y-91300006D01*
X144799936Y-91347224D01*
X144602356Y-91447896D01*
X144404922Y-91591339D01*
X144404917Y-91591343D01*
X144232342Y-91763918D01*
X144232338Y-91763923D01*
X144088895Y-91961357D01*
X144006278Y-92123501D01*
X143958303Y-92174297D01*
X143890482Y-92191092D01*
X143849265Y-92179628D01*
X143848641Y-92181303D01*
X143705482Y-92127908D01*
X143705483Y-92127908D01*
X143645883Y-92121501D01*
X143645881Y-92121500D01*
X143645873Y-92121500D01*
X143645864Y-92121500D01*
X141850129Y-92121500D01*
X141850123Y-92121501D01*
X141790516Y-92127908D01*
X141655671Y-92178202D01*
X141655664Y-92178206D01*
X141540455Y-92264452D01*
X141540452Y-92264455D01*
X141454206Y-92379664D01*
X141454203Y-92379669D01*
X141405189Y-92511083D01*
X141363317Y-92567016D01*
X141297853Y-92591433D01*
X141229580Y-92576581D01*
X141201326Y-92555430D01*
X141087786Y-92441890D01*
X140915820Y-92316951D01*
X140726414Y-92220444D01*
X140726413Y-92220443D01*
X140726412Y-92220443D01*
X140524243Y-92154754D01*
X140524241Y-92154753D01*
X140524240Y-92154753D01*
X140362957Y-92129208D01*
X140314287Y-92121500D01*
X140101713Y-92121500D01*
X140053042Y-92129208D01*
X139891760Y-92154753D01*
X139689585Y-92220444D01*
X139500179Y-92316951D01*
X139328213Y-92441890D01*
X139177890Y-92592213D01*
X139052949Y-92764182D01*
X139048484Y-92772946D01*
X139000509Y-92823742D01*
X138932688Y-92840536D01*
X138866553Y-92817998D01*
X138827516Y-92772946D01*
X138823050Y-92764182D01*
X138698109Y-92592213D01*
X138547786Y-92441890D01*
X138375820Y-92316951D01*
X138186414Y-92220444D01*
X138186413Y-92220443D01*
X138186412Y-92220443D01*
X137984243Y-92154754D01*
X137984241Y-92154753D01*
X137984240Y-92154753D01*
X137822957Y-92129208D01*
X137774287Y-92121500D01*
X137561713Y-92121500D01*
X137513042Y-92129208D01*
X137351760Y-92154753D01*
X137149585Y-92220444D01*
X136960179Y-92316951D01*
X136788213Y-92441890D01*
X136637890Y-92592213D01*
X136512949Y-92764182D01*
X136508484Y-92772946D01*
X136460509Y-92823742D01*
X136392688Y-92840536D01*
X136326553Y-92817998D01*
X136287516Y-92772946D01*
X136283050Y-92764182D01*
X136158109Y-92592213D01*
X136007786Y-92441890D01*
X135835820Y-92316951D01*
X135646414Y-92220444D01*
X135646413Y-92220443D01*
X135646412Y-92220443D01*
X135444243Y-92154754D01*
X135444241Y-92154753D01*
X135444240Y-92154753D01*
X135282957Y-92129208D01*
X135234287Y-92121500D01*
X135228518Y-92121500D01*
X135161479Y-92101815D01*
X135115724Y-92049011D01*
X135105780Y-91979853D01*
X135134805Y-91916297D01*
X135140837Y-91909819D01*
X136397837Y-90652819D01*
X136459160Y-90619334D01*
X136485518Y-90616500D01*
X142679007Y-90616500D01*
X144126256Y-90616500D01*
X144131505Y-90618041D01*
G37*
%TD.AperFunction*%
%TA.AperFunction,Conductor*%
G36*
X131805520Y-77936185D02*
G01*
X131826162Y-77952819D01*
X132867181Y-78993837D01*
X132900666Y-79055160D01*
X132903500Y-79081518D01*
X132903500Y-81465006D01*
X132903500Y-81602994D01*
X132903500Y-81602996D01*
X132903499Y-81602996D01*
X132930418Y-81738322D01*
X132930421Y-81738332D01*
X132983222Y-81865807D01*
X133059887Y-81980545D01*
X133059888Y-81980546D01*
X136615886Y-85536542D01*
X136668950Y-85589606D01*
X136713459Y-85634115D01*
X136828182Y-85710771D01*
X136828189Y-85710775D01*
X136899952Y-85740500D01*
X136955671Y-85763580D01*
X136982591Y-85768934D01*
X137080073Y-85788325D01*
X137091006Y-85790500D01*
X137091007Y-85790500D01*
X140798684Y-85790500D01*
X140846136Y-85799939D01*
X140990498Y-85859735D01*
X140990503Y-85859737D01*
X141131911Y-85887865D01*
X141145153Y-85890499D01*
X141145156Y-85890500D01*
X141145158Y-85890500D01*
X141302844Y-85890500D01*
X141391308Y-85872903D01*
X141460900Y-85879130D01*
X141516077Y-85921993D01*
X141539322Y-85987882D01*
X141539500Y-85994520D01*
X141539500Y-89091500D01*
X141519815Y-89158539D01*
X141467011Y-89204294D01*
X141415500Y-89215500D01*
X136075003Y-89215500D01*
X135966590Y-89237065D01*
X135966589Y-89237065D01*
X135953131Y-89239742D01*
X135939673Y-89242419D01*
X135939671Y-89242420D01*
X135886866Y-89264292D01*
X135886864Y-89264293D01*
X135886863Y-89264292D01*
X135812191Y-89295223D01*
X135746667Y-89339006D01*
X135746666Y-89339007D01*
X135697454Y-89371888D01*
X135697453Y-89371889D01*
X132957849Y-92111492D01*
X132896526Y-92144977D01*
X132850771Y-92146284D01*
X132694287Y-92121500D01*
X132481713Y-92121500D01*
X132325226Y-92146284D01*
X132255933Y-92137329D01*
X132218148Y-92111492D01*
X131510546Y-91403888D01*
X131510545Y-91403887D01*
X131395807Y-91327222D01*
X131268328Y-91274419D01*
X131263896Y-91273075D01*
X131205460Y-91234773D01*
X131177008Y-91170959D01*
X131187574Y-91101893D01*
X131200634Y-91080105D01*
X131205541Y-91073549D01*
X131205546Y-91073546D01*
X131291796Y-90958331D01*
X131342091Y-90823483D01*
X131348500Y-90763873D01*
X131348499Y-89068128D01*
X131342091Y-89008517D01*
X131337504Y-88996219D01*
X131291797Y-88873671D01*
X131291793Y-88873664D01*
X131205547Y-88758455D01*
X131205544Y-88758452D01*
X131090335Y-88672206D01*
X131090328Y-88672202D01*
X130955482Y-88621908D01*
X130955483Y-88621908D01*
X130918560Y-88617939D01*
X130854009Y-88591201D01*
X130814160Y-88533809D01*
X130811667Y-88463984D01*
X130847319Y-88403895D01*
X130858930Y-88394331D01*
X130895219Y-88367966D01*
X131039966Y-88223219D01*
X131039968Y-88223215D01*
X131039971Y-88223213D01*
X131100791Y-88139500D01*
X131160287Y-88057610D01*
X131253220Y-87875219D01*
X131316477Y-87680534D01*
X131348500Y-87478352D01*
X131348500Y-87273648D01*
X131332452Y-87172326D01*
X131316477Y-87071465D01*
X131253281Y-86876970D01*
X131253220Y-86876781D01*
X131253218Y-86876778D01*
X131253218Y-86876776D01*
X131211478Y-86794858D01*
X131160287Y-86694390D01*
X131117114Y-86634967D01*
X131039971Y-86528786D01*
X130895213Y-86384028D01*
X130729614Y-86263715D01*
X130723006Y-86260348D01*
X130636917Y-86216483D01*
X130586123Y-86168511D01*
X130569328Y-86100690D01*
X130591865Y-86034555D01*
X130636917Y-85995516D01*
X130729610Y-85948287D01*
X130809149Y-85890499D01*
X130895213Y-85827971D01*
X130895215Y-85827968D01*
X130895219Y-85827966D01*
X131039966Y-85683219D01*
X131039968Y-85683215D01*
X131039971Y-85683213D01*
X131146532Y-85536542D01*
X131160287Y-85517610D01*
X131253220Y-85335219D01*
X131316477Y-85140534D01*
X131348500Y-84938352D01*
X131348500Y-84733648D01*
X131316477Y-84531466D01*
X131310479Y-84513007D01*
X131287127Y-84441137D01*
X131253220Y-84336781D01*
X131253218Y-84336778D01*
X131253218Y-84336776D01*
X131210286Y-84252518D01*
X131160287Y-84154390D01*
X131149283Y-84139244D01*
X131039971Y-83988786D01*
X130895213Y-83844028D01*
X130729611Y-83723713D01*
X130636369Y-83676203D01*
X130585574Y-83628229D01*
X130568779Y-83560407D01*
X130591317Y-83494273D01*
X130636371Y-83455234D01*
X130729347Y-83407861D01*
X130894894Y-83287582D01*
X130894895Y-83287582D01*
X131039582Y-83142895D01*
X131039582Y-83142894D01*
X131159859Y-82977349D01*
X131252755Y-82795029D01*
X131315990Y-82600413D01*
X131324609Y-82546000D01*
X130481012Y-82546000D01*
X130513925Y-82488993D01*
X130548000Y-82361826D01*
X130548000Y-82230174D01*
X130513925Y-82103007D01*
X130481012Y-82046000D01*
X131324609Y-82046000D01*
X131315990Y-81991586D01*
X131252755Y-81796970D01*
X131159859Y-81614650D01*
X131039582Y-81449105D01*
X131039582Y-81449104D01*
X130894895Y-81304417D01*
X130729349Y-81184140D01*
X130636370Y-81136765D01*
X130585574Y-81088790D01*
X130568779Y-81020969D01*
X130591316Y-80954835D01*
X130636370Y-80915795D01*
X130636920Y-80915515D01*
X130729610Y-80868287D01*
X130750770Y-80852913D01*
X130895213Y-80747971D01*
X130895215Y-80747968D01*
X130895219Y-80747966D01*
X131039966Y-80603219D01*
X131039968Y-80603215D01*
X131039971Y-80603213D01*
X131159162Y-80439158D01*
X131160287Y-80437610D01*
X131253220Y-80255219D01*
X131316477Y-80060534D01*
X131348500Y-79858352D01*
X131348500Y-79653648D01*
X131316477Y-79451466D01*
X131253220Y-79256781D01*
X131253218Y-79256778D01*
X131253218Y-79256776D01*
X131219503Y-79190607D01*
X131160287Y-79074390D01*
X131146316Y-79055160D01*
X131039971Y-78908786D01*
X130895213Y-78764028D01*
X130729614Y-78643715D01*
X130723006Y-78640348D01*
X130636917Y-78596483D01*
X130586123Y-78548511D01*
X130569328Y-78480690D01*
X130591865Y-78414555D01*
X130636917Y-78375516D01*
X130729610Y-78328287D01*
X130750770Y-78312913D01*
X130895213Y-78207971D01*
X130895215Y-78207968D01*
X130895219Y-78207966D01*
X131039966Y-78063219D01*
X131109425Y-77967615D01*
X131164755Y-77924949D01*
X131209744Y-77916500D01*
X131738481Y-77916500D01*
X131805520Y-77936185D01*
G37*
%TD.AperFunction*%
%TA.AperFunction,Conductor*%
G36*
X128953295Y-72856185D02*
G01*
X128986575Y-72887616D01*
X129056030Y-72983215D01*
X129200786Y-73127971D01*
X129355749Y-73240556D01*
X129366390Y-73248287D01*
X129457840Y-73294883D01*
X129459080Y-73295515D01*
X129509876Y-73343490D01*
X129526671Y-73411311D01*
X129504134Y-73477446D01*
X129459080Y-73516485D01*
X129366386Y-73563715D01*
X129200786Y-73684028D01*
X129056030Y-73828784D01*
X128986575Y-73924384D01*
X128931245Y-73967051D01*
X128886256Y-73975500D01*
X128455003Y-73975500D01*
X128357760Y-73994843D01*
X128357758Y-73994843D01*
X128346591Y-73997065D01*
X128319671Y-74002420D01*
X128266866Y-74024292D01*
X128192189Y-74055225D01*
X128192188Y-74055226D01*
X128171199Y-74069249D01*
X128171192Y-74069253D01*
X128077457Y-74131886D01*
X128077453Y-74131889D01*
X126455888Y-75753453D01*
X126455887Y-75753454D01*
X126379223Y-75868192D01*
X126326421Y-75995668D01*
X126326418Y-75995680D01*
X126315038Y-76052891D01*
X126315038Y-76052892D01*
X126299500Y-76131004D01*
X126299500Y-82124684D01*
X126290061Y-82172136D01*
X126230264Y-82316498D01*
X126230261Y-82316510D01*
X126199500Y-82471153D01*
X126199500Y-82628846D01*
X126230261Y-82783489D01*
X126230264Y-82783501D01*
X126290602Y-82929172D01*
X126290609Y-82929185D01*
X126378210Y-83060288D01*
X126378213Y-83060292D01*
X126489707Y-83171786D01*
X126489711Y-83171789D01*
X126620814Y-83259390D01*
X126620827Y-83259397D01*
X126766498Y-83319735D01*
X126766503Y-83319737D01*
X126921153Y-83350499D01*
X126921156Y-83350500D01*
X126921158Y-83350500D01*
X127078844Y-83350500D01*
X127078845Y-83350499D01*
X127233497Y-83319737D01*
X127379179Y-83259394D01*
X127510289Y-83171789D01*
X127621789Y-83060289D01*
X127709394Y-82929179D01*
X127769737Y-82783497D01*
X127800500Y-82628842D01*
X127800500Y-82471158D01*
X127800500Y-82471155D01*
X127800499Y-82471153D01*
X127785745Y-82396981D01*
X127769737Y-82316503D01*
X127733979Y-82230174D01*
X127709939Y-82172136D01*
X127700500Y-82124684D01*
X127700500Y-76541518D01*
X127720185Y-76474479D01*
X127736819Y-76453837D01*
X128777837Y-75412819D01*
X128804764Y-75398115D01*
X128830583Y-75381523D01*
X128836783Y-75380631D01*
X128839160Y-75379334D01*
X128865518Y-75376500D01*
X128886256Y-75376500D01*
X128953295Y-75396185D01*
X128986575Y-75427616D01*
X129056030Y-75523215D01*
X129200786Y-75667971D01*
X129318446Y-75753454D01*
X129366390Y-75788287D01*
X129457840Y-75834883D01*
X129459080Y-75835515D01*
X129509876Y-75883490D01*
X129526671Y-75951311D01*
X129504134Y-76017446D01*
X129459080Y-76056485D01*
X129366386Y-76103715D01*
X129200786Y-76224028D01*
X129056028Y-76368786D01*
X128935715Y-76534386D01*
X128842781Y-76716776D01*
X128779522Y-76911465D01*
X128747500Y-77113648D01*
X128747500Y-77318351D01*
X128779522Y-77520534D01*
X128842781Y-77715223D01*
X128935715Y-77897613D01*
X129056028Y-78063213D01*
X129200786Y-78207971D01*
X129355749Y-78320556D01*
X129366390Y-78328287D01*
X129457840Y-78374883D01*
X129459080Y-78375515D01*
X129509876Y-78423490D01*
X129526671Y-78491311D01*
X129504134Y-78557446D01*
X129459080Y-78596485D01*
X129366386Y-78643715D01*
X129200786Y-78764028D01*
X129056028Y-78908786D01*
X128935715Y-79074386D01*
X128842781Y-79256776D01*
X128779522Y-79451465D01*
X128747500Y-79653648D01*
X128747500Y-79858351D01*
X128779522Y-80060534D01*
X128842781Y-80255223D01*
X128935715Y-80437613D01*
X129056028Y-80603213D01*
X129200786Y-80747971D01*
X129355749Y-80860556D01*
X129366390Y-80868287D01*
X129438424Y-80904990D01*
X129459629Y-80915795D01*
X129510425Y-80963770D01*
X129527220Y-81031591D01*
X129504682Y-81097726D01*
X129459629Y-81136765D01*
X129366650Y-81184140D01*
X129201105Y-81304417D01*
X129201104Y-81304417D01*
X129056417Y-81449104D01*
X129056417Y-81449105D01*
X128936140Y-81614650D01*
X128843244Y-81796970D01*
X128780009Y-81991586D01*
X128771391Y-82046000D01*
X129614988Y-82046000D01*
X129582075Y-82103007D01*
X129548000Y-82230174D01*
X129548000Y-82361826D01*
X129582075Y-82488993D01*
X129614988Y-82546000D01*
X128771391Y-82546000D01*
X128780009Y-82600413D01*
X128843244Y-82795029D01*
X128936140Y-82977349D01*
X129056417Y-83142894D01*
X129056417Y-83142895D01*
X129201104Y-83287582D01*
X129366652Y-83407861D01*
X129459628Y-83455234D01*
X129510425Y-83503208D01*
X129527220Y-83571029D01*
X129504683Y-83637164D01*
X129459630Y-83676203D01*
X129366388Y-83723713D01*
X129200786Y-83844028D01*
X129056028Y-83988786D01*
X128935715Y-84154386D01*
X128842781Y-84336776D01*
X128779522Y-84531465D01*
X128747500Y-84733648D01*
X128747500Y-84938351D01*
X128779522Y-85140534D01*
X128842781Y-85335223D01*
X128935715Y-85517613D01*
X129056028Y-85683213D01*
X129200786Y-85827971D01*
X129355749Y-85940556D01*
X129366390Y-85948287D01*
X129457127Y-85994520D01*
X129459080Y-85995515D01*
X129509876Y-86043490D01*
X129526671Y-86111311D01*
X129504134Y-86177446D01*
X129459080Y-86216485D01*
X129366386Y-86263715D01*
X129200786Y-86384028D01*
X129056028Y-86528786D01*
X128935715Y-86694386D01*
X128842781Y-86876776D01*
X128779522Y-87071465D01*
X128747500Y-87273648D01*
X128747500Y-87478351D01*
X128779522Y-87680534D01*
X128842781Y-87875223D01*
X128935715Y-88057613D01*
X129056028Y-88223213D01*
X129200784Y-88367969D01*
X129237068Y-88394330D01*
X129279735Y-88449659D01*
X129285715Y-88519273D01*
X129253109Y-88581068D01*
X129192271Y-88615426D01*
X129177440Y-88617938D01*
X129140519Y-88621907D01*
X129005671Y-88672202D01*
X129005664Y-88672206D01*
X128890455Y-88758452D01*
X128890452Y-88758455D01*
X128804206Y-88873664D01*
X128804202Y-88873671D01*
X128753908Y-89008517D01*
X128750218Y-89042844D01*
X128747501Y-89068123D01*
X128747500Y-89068135D01*
X128747500Y-90763870D01*
X128747501Y-90763876D01*
X128753908Y-90823483D01*
X128804202Y-90958328D01*
X128804206Y-90958335D01*
X128872220Y-91049189D01*
X128896638Y-91114653D01*
X128881787Y-91182926D01*
X128832382Y-91232332D01*
X128772954Y-91247500D01*
X122769518Y-91247500D01*
X122702479Y-91227815D01*
X122681837Y-91211181D01*
X118326837Y-86856181D01*
X118293352Y-86794858D01*
X118298336Y-86725166D01*
X118340208Y-86669233D01*
X118405672Y-86644816D01*
X118414518Y-86644500D01*
X118466351Y-86644500D01*
X118466352Y-86644500D01*
X118668534Y-86612477D01*
X118863219Y-86549220D01*
X119045610Y-86456287D01*
X119145067Y-86384028D01*
X119211213Y-86335971D01*
X119211215Y-86335968D01*
X119211219Y-86335966D01*
X119355966Y-86191219D01*
X119355968Y-86191215D01*
X119355971Y-86191213D01*
X119476284Y-86025614D01*
X119476285Y-86025613D01*
X119476287Y-86025610D01*
X119523516Y-85932917D01*
X119571489Y-85882123D01*
X119639310Y-85865328D01*
X119705445Y-85887865D01*
X119744483Y-85932917D01*
X119788348Y-86019006D01*
X119791715Y-86025614D01*
X119912028Y-86191213D01*
X120056786Y-86335971D01*
X120211749Y-86448556D01*
X120222390Y-86456287D01*
X120338607Y-86515503D01*
X120404776Y-86549218D01*
X120404778Y-86549218D01*
X120404781Y-86549220D01*
X120509137Y-86583127D01*
X120599465Y-86612477D01*
X120700557Y-86628488D01*
X120801648Y-86644500D01*
X120801649Y-86644500D01*
X121006351Y-86644500D01*
X121006352Y-86644500D01*
X121208534Y-86612477D01*
X121403219Y-86549220D01*
X121585610Y-86456287D01*
X121685067Y-86384028D01*
X121751213Y-86335971D01*
X121751215Y-86335968D01*
X121751219Y-86335966D01*
X121895966Y-86191219D01*
X121895968Y-86191215D01*
X121895971Y-86191213D01*
X121961536Y-86100969D01*
X122016287Y-86025610D01*
X122109220Y-85843219D01*
X122172477Y-85648534D01*
X122204500Y-85446352D01*
X122204500Y-85241648D01*
X122188485Y-85140534D01*
X122172477Y-85039465D01*
X122138853Y-84935983D01*
X122109220Y-84844781D01*
X122109218Y-84844778D01*
X122109218Y-84844776D01*
X122063515Y-84755080D01*
X122016287Y-84662390D01*
X122008366Y-84651487D01*
X121895971Y-84496786D01*
X121751213Y-84352028D01*
X121585613Y-84231715D01*
X121585612Y-84231714D01*
X121585610Y-84231713D01*
X121528653Y-84202691D01*
X121403223Y-84138781D01*
X121208534Y-84075522D01*
X121033995Y-84047878D01*
X121006352Y-84043500D01*
X120801648Y-84043500D01*
X120777329Y-84047351D01*
X120599465Y-84075522D01*
X120404776Y-84138781D01*
X120222386Y-84231715D01*
X120056786Y-84352028D01*
X119912028Y-84496786D01*
X119791715Y-84662386D01*
X119744485Y-84755080D01*
X119696510Y-84805876D01*
X119628689Y-84822671D01*
X119562554Y-84800134D01*
X119523515Y-84755080D01*
X119522883Y-84753840D01*
X119476287Y-84662390D01*
X119468366Y-84651487D01*
X119355971Y-84496786D01*
X119211213Y-84352028D01*
X119045613Y-84231715D01*
X119045612Y-84231714D01*
X119045610Y-84231713D01*
X118988653Y-84202691D01*
X118863223Y-84138781D01*
X118668534Y-84075522D01*
X118493995Y-84047878D01*
X118466352Y-84043500D01*
X118261648Y-84043500D01*
X118237329Y-84047351D01*
X118059465Y-84075522D01*
X117864776Y-84138781D01*
X117682386Y-84231715D01*
X117516786Y-84352028D01*
X117372028Y-84496786D01*
X117251715Y-84662386D01*
X117204485Y-84755080D01*
X117156510Y-84805876D01*
X117088689Y-84822671D01*
X117022554Y-84800134D01*
X116983515Y-84755080D01*
X116982883Y-84753840D01*
X116936287Y-84662390D01*
X116928366Y-84651487D01*
X116815971Y-84496786D01*
X116671213Y-84352028D01*
X116505613Y-84231715D01*
X116505612Y-84231714D01*
X116505610Y-84231713D01*
X116448653Y-84202691D01*
X116323223Y-84138781D01*
X116128534Y-84075522D01*
X115953995Y-84047878D01*
X115926352Y-84043500D01*
X115721648Y-84043500D01*
X115697329Y-84047351D01*
X115519465Y-84075522D01*
X115324776Y-84138781D01*
X115142386Y-84231715D01*
X114976786Y-84352028D01*
X114832028Y-84496786D01*
X114711713Y-84662388D01*
X114664203Y-84755630D01*
X114616228Y-84806426D01*
X114548407Y-84823220D01*
X114482272Y-84800682D01*
X114443234Y-84755628D01*
X114395861Y-84662652D01*
X114363474Y-84618077D01*
X114363474Y-84618076D01*
X113684000Y-85297551D01*
X113684000Y-85291339D01*
X113656741Y-85189606D01*
X113604080Y-85098394D01*
X113529606Y-85023920D01*
X113438394Y-84971259D01*
X113336661Y-84944000D01*
X113330446Y-84944000D01*
X114009922Y-84264524D01*
X114009921Y-84264523D01*
X113965359Y-84232147D01*
X113965350Y-84232141D01*
X113783031Y-84139244D01*
X113588417Y-84076009D01*
X113386317Y-84044000D01*
X113181683Y-84044000D01*
X112979582Y-84076009D01*
X112784968Y-84139244D01*
X112602644Y-84232143D01*
X112558077Y-84264523D01*
X112558077Y-84264524D01*
X113237554Y-84944000D01*
X113231339Y-84944000D01*
X113129606Y-84971259D01*
X113038394Y-85023920D01*
X112963920Y-85098394D01*
X112911259Y-85189606D01*
X112884000Y-85291339D01*
X112884000Y-85297553D01*
X112204524Y-84618077D01*
X112204523Y-84618077D01*
X112172143Y-84662644D01*
X112079244Y-84844968D01*
X112016009Y-85039582D01*
X111984000Y-85241682D01*
X111984000Y-85446317D01*
X112016010Y-85648418D01*
X112016010Y-85648421D01*
X112032610Y-85699509D01*
X112034605Y-85769350D01*
X111998524Y-85829183D01*
X111938873Y-85859444D01*
X111878674Y-85871419D01*
X111878667Y-85871421D01*
X111751192Y-85924222D01*
X111636454Y-86000887D01*
X111636453Y-86000888D01*
X110386181Y-87251161D01*
X110324858Y-87284646D01*
X110255166Y-87279662D01*
X110199233Y-87237790D01*
X110174816Y-87172326D01*
X110174500Y-87163480D01*
X110174500Y-84923519D01*
X110194185Y-84856480D01*
X110210819Y-84835838D01*
X122173838Y-72872819D01*
X122235161Y-72839334D01*
X122261519Y-72836500D01*
X128886256Y-72836500D01*
X128953295Y-72856185D01*
G37*
%TD.AperFunction*%
%TA.AperFunction,Conductor*%
G36*
X116112362Y-86634967D02*
G01*
X116150148Y-86660805D01*
X117696679Y-88207336D01*
X119092163Y-89602819D01*
X119125648Y-89664142D01*
X119120664Y-89733834D01*
X119078792Y-89789767D01*
X119013328Y-89814184D01*
X119004482Y-89814500D01*
X117162772Y-89814500D01*
X117095733Y-89794815D01*
X117049978Y-89742011D01*
X117040034Y-89672853D01*
X117069059Y-89609297D01*
X117093884Y-89587396D01*
X117096290Y-89585788D01*
X117207786Y-89474292D01*
X117207789Y-89474289D01*
X117295394Y-89343179D01*
X117355737Y-89197497D01*
X117386500Y-89042842D01*
X117386500Y-88885158D01*
X117386500Y-88885155D01*
X117386499Y-88885153D01*
X117370299Y-88803713D01*
X117355737Y-88730503D01*
X117321366Y-88647523D01*
X117295397Y-88584827D01*
X117295390Y-88584814D01*
X117207789Y-88453711D01*
X117207786Y-88453707D01*
X117096292Y-88342213D01*
X117096288Y-88342210D01*
X116965185Y-88254609D01*
X116965172Y-88254602D01*
X116819501Y-88194264D01*
X116819489Y-88194261D01*
X116664845Y-88163500D01*
X116664842Y-88163500D01*
X116507158Y-88163500D01*
X116507155Y-88163500D01*
X116352510Y-88194261D01*
X116352498Y-88194264D01*
X116208136Y-88254061D01*
X116160684Y-88263500D01*
X115319498Y-88263500D01*
X115252459Y-88243815D01*
X115206704Y-88191011D01*
X115195498Y-88139500D01*
X115195498Y-87865296D01*
X115180302Y-87749857D01*
X115180300Y-87749850D01*
X115180300Y-87749849D01*
X115120799Y-87606202D01*
X115026148Y-87482851D01*
X114903169Y-87388486D01*
X114861970Y-87332061D01*
X114857815Y-87262315D01*
X114892027Y-87201394D01*
X114931208Y-87175551D01*
X114954811Y-87165775D01*
X115069543Y-87089114D01*
X115497851Y-86660804D01*
X115559174Y-86627320D01*
X115604930Y-86626013D01*
X115721648Y-86644500D01*
X115721649Y-86644500D01*
X115926350Y-86644500D01*
X115926352Y-86644500D01*
X116043068Y-86626013D01*
X116112362Y-86634967D01*
G37*
%TD.AperFunction*%
%TA.AperFunction,Conductor*%
G36*
X144131505Y-82998041D02*
G01*
X144136868Y-82996955D01*
X144164670Y-83007779D01*
X144193295Y-83016185D01*
X144198230Y-83020846D01*
X144201977Y-83022305D01*
X144226573Y-83047614D01*
X144235782Y-83060289D01*
X144296030Y-83143215D01*
X144440786Y-83287971D01*
X144526852Y-83350500D01*
X144606390Y-83408287D01*
X144697840Y-83454883D01*
X144699080Y-83455515D01*
X144749876Y-83503490D01*
X144766671Y-83571311D01*
X144744134Y-83637446D01*
X144699080Y-83676485D01*
X144606386Y-83723715D01*
X144440786Y-83844028D01*
X144296028Y-83988786D01*
X144175715Y-84154386D01*
X144082781Y-84336776D01*
X144019522Y-84531465D01*
X143987500Y-84733648D01*
X143987500Y-84938351D01*
X144019522Y-85140534D01*
X144082781Y-85335223D01*
X144175715Y-85517613D01*
X144296028Y-85683213D01*
X144440786Y-85827971D01*
X144595749Y-85940556D01*
X144606390Y-85948287D01*
X144678424Y-85984990D01*
X144699629Y-85995795D01*
X144750425Y-86043770D01*
X144767220Y-86111591D01*
X144744682Y-86177726D01*
X144699629Y-86216765D01*
X144606650Y-86264140D01*
X144441105Y-86384417D01*
X144441104Y-86384417D01*
X144296417Y-86529104D01*
X144296417Y-86529105D01*
X144176140Y-86694650D01*
X144083244Y-86876970D01*
X144020009Y-87071586D01*
X144011391Y-87126000D01*
X144854988Y-87126000D01*
X144822075Y-87183007D01*
X144788000Y-87310174D01*
X144788000Y-87441826D01*
X144822075Y-87568993D01*
X144854988Y-87626000D01*
X144011391Y-87626000D01*
X144020009Y-87680413D01*
X144083244Y-87875029D01*
X144176140Y-88057349D01*
X144296417Y-88222894D01*
X144296417Y-88222895D01*
X144441104Y-88367582D01*
X144606652Y-88487861D01*
X144699628Y-88535234D01*
X144750425Y-88583208D01*
X144767220Y-88651029D01*
X144744683Y-88717164D01*
X144699630Y-88756203D01*
X144606388Y-88803713D01*
X144440786Y-88924028D01*
X144296030Y-89068784D01*
X144226575Y-89164384D01*
X144171245Y-89207051D01*
X144126256Y-89215500D01*
X143089519Y-89215500D01*
X143060076Y-89206854D01*
X143030090Y-89200331D01*
X143025075Y-89196577D01*
X143022480Y-89195815D01*
X143001836Y-89179179D01*
X142976817Y-89154159D01*
X142943333Y-89092836D01*
X142940500Y-89066480D01*
X142940500Y-83653519D01*
X142960185Y-83586480D01*
X142976819Y-83565838D01*
X143509838Y-83032819D01*
X143571161Y-82999334D01*
X143597519Y-82996500D01*
X144126256Y-82996500D01*
X144131505Y-82998041D01*
G37*
%TD.AperFunction*%
%TA.AperFunction,Conductor*%
G36*
X141220666Y-53606185D02*
G01*
X141266421Y-53658989D01*
X141276365Y-53728147D01*
X141247340Y-53791703D01*
X141233204Y-53804674D01*
X141233630Y-53805173D01*
X141229918Y-53808343D01*
X141057343Y-53980918D01*
X141057339Y-53980923D01*
X140913896Y-54178357D01*
X140803097Y-54395812D01*
X140727678Y-54627927D01*
X140718115Y-54688306D01*
X140689500Y-54868973D01*
X140689500Y-54919276D01*
X140689500Y-55113027D01*
X140727679Y-55354076D01*
X140803096Y-55586185D01*
X140903742Y-55783715D01*
X140913896Y-55803642D01*
X141057339Y-56001076D01*
X141057343Y-56001081D01*
X141229918Y-56173656D01*
X141229923Y-56173660D01*
X141285984Y-56214390D01*
X141427361Y-56317106D01*
X141644815Y-56427904D01*
X141876924Y-56503321D01*
X142117973Y-56541500D01*
X142117974Y-56541500D01*
X142362026Y-56541500D01*
X142362027Y-56541500D01*
X142603076Y-56503321D01*
X142835185Y-56427904D01*
X143052639Y-56317106D01*
X143250083Y-56173655D01*
X143422655Y-56001083D01*
X143566106Y-55803639D01*
X143676904Y-55586185D01*
X143752321Y-55354076D01*
X143790500Y-55113027D01*
X143790500Y-54868973D01*
X143752321Y-54627924D01*
X143676904Y-54395815D01*
X143566106Y-54178361D01*
X143473911Y-54051465D01*
X143422660Y-53980923D01*
X143422656Y-53980918D01*
X143250081Y-53808343D01*
X143246370Y-53805173D01*
X143247825Y-53803468D01*
X143210830Y-53755510D01*
X143204838Y-53685897D01*
X143237433Y-53624096D01*
X143298265Y-53589728D01*
X143326373Y-53586500D01*
X144018145Y-53586500D01*
X144085184Y-53606185D01*
X144130939Y-53658989D01*
X144140883Y-53728147D01*
X144128630Y-53766795D01*
X144082781Y-53856776D01*
X144019522Y-54051465D01*
X143999425Y-54178357D01*
X143987500Y-54253648D01*
X143987500Y-54458352D01*
X143991456Y-54483328D01*
X144019522Y-54660534D01*
X144082781Y-54855223D01*
X144118390Y-54925108D01*
X144154447Y-54995874D01*
X144175715Y-55037613D01*
X144296028Y-55203213D01*
X144440786Y-55347971D01*
X144571282Y-55442780D01*
X144606390Y-55468287D01*
X144666024Y-55498672D01*
X144699080Y-55515515D01*
X144749876Y-55563490D01*
X144766671Y-55631311D01*
X144744134Y-55697446D01*
X144699080Y-55736485D01*
X144606386Y-55783715D01*
X144440786Y-55904028D01*
X144296028Y-56048786D01*
X144175715Y-56214386D01*
X144082781Y-56396776D01*
X144019522Y-56591465D01*
X143987500Y-56793648D01*
X143987500Y-56998351D01*
X144019522Y-57200534D01*
X144082781Y-57395223D01*
X144175715Y-57577613D01*
X144296028Y-57743213D01*
X144440786Y-57887971D01*
X144595749Y-58000556D01*
X144606390Y-58008287D01*
X144697840Y-58054883D01*
X144699080Y-58055515D01*
X144749876Y-58103490D01*
X144766671Y-58171311D01*
X144744134Y-58237446D01*
X144699080Y-58276485D01*
X144606386Y-58323715D01*
X144440786Y-58444028D01*
X144296028Y-58588786D01*
X144175715Y-58754386D01*
X144082781Y-58936776D01*
X144019522Y-59131465D01*
X143987500Y-59333648D01*
X143987500Y-59538351D01*
X144019522Y-59740534D01*
X144082781Y-59935223D01*
X144175715Y-60117613D01*
X144296028Y-60283213D01*
X144440786Y-60427971D01*
X144595749Y-60540556D01*
X144606390Y-60548287D01*
X144697840Y-60594883D01*
X144699080Y-60595515D01*
X144749876Y-60643490D01*
X144766671Y-60711311D01*
X144744134Y-60777446D01*
X144699080Y-60816485D01*
X144606386Y-60863715D01*
X144440786Y-60984028D01*
X144296028Y-61128786D01*
X144175715Y-61294386D01*
X144082781Y-61476776D01*
X144019522Y-61671465D01*
X143987500Y-61873648D01*
X143987500Y-62078351D01*
X144019522Y-62280534D01*
X144082781Y-62475223D01*
X144175715Y-62657613D01*
X144296028Y-62823213D01*
X144440786Y-62967971D01*
X144595749Y-63080556D01*
X144606390Y-63088287D01*
X144697840Y-63134883D01*
X144699080Y-63135515D01*
X144749876Y-63183490D01*
X144766671Y-63251311D01*
X144744134Y-63317446D01*
X144699080Y-63356485D01*
X144606386Y-63403715D01*
X144440786Y-63524028D01*
X144296028Y-63668786D01*
X144175715Y-63834386D01*
X144082781Y-64016776D01*
X144019522Y-64211465D01*
X143987500Y-64413648D01*
X143987500Y-64618351D01*
X144019522Y-64820534D01*
X144082781Y-65015223D01*
X144175715Y-65197613D01*
X144296028Y-65363213D01*
X144440786Y-65507971D01*
X144595749Y-65620556D01*
X144606390Y-65628287D01*
X144697840Y-65674883D01*
X144699080Y-65675515D01*
X144749876Y-65723490D01*
X144766671Y-65791311D01*
X144744134Y-65857446D01*
X144699080Y-65896485D01*
X144606386Y-65943715D01*
X144440786Y-66064028D01*
X144296028Y-66208786D01*
X144175715Y-66374386D01*
X144082781Y-66556776D01*
X144019522Y-66751465D01*
X143987500Y-66953648D01*
X143987500Y-67158351D01*
X144019522Y-67360534D01*
X144082781Y-67555223D01*
X144175715Y-67737613D01*
X144296028Y-67903213D01*
X144440786Y-68047971D01*
X144595749Y-68160556D01*
X144606390Y-68168287D01*
X144697840Y-68214883D01*
X144699080Y-68215515D01*
X144749876Y-68263490D01*
X144766671Y-68331311D01*
X144744134Y-68397446D01*
X144699080Y-68436485D01*
X144606386Y-68483715D01*
X144440786Y-68604028D01*
X144296028Y-68748786D01*
X144175715Y-68914386D01*
X144082781Y-69096776D01*
X144019522Y-69291465D01*
X143987500Y-69493648D01*
X143987500Y-69698351D01*
X144019522Y-69900534D01*
X144082781Y-70095223D01*
X144128278Y-70184514D01*
X144158167Y-70243175D01*
X144175715Y-70277613D01*
X144296028Y-70443213D01*
X144440786Y-70587971D01*
X144595749Y-70700556D01*
X144606390Y-70708287D01*
X144697840Y-70754883D01*
X144699080Y-70755515D01*
X144749876Y-70803490D01*
X144766671Y-70871311D01*
X144744134Y-70937446D01*
X144699080Y-70976485D01*
X144606386Y-71023715D01*
X144440786Y-71144028D01*
X144296028Y-71288786D01*
X144175715Y-71454386D01*
X144082781Y-71636776D01*
X144019522Y-71831465D01*
X143987500Y-72033648D01*
X143987500Y-72238351D01*
X144019522Y-72440534D01*
X144082781Y-72635223D01*
X144117706Y-72703765D01*
X144172067Y-72810455D01*
X144175715Y-72817613D01*
X144296028Y-72983213D01*
X144440786Y-73127971D01*
X144595749Y-73240556D01*
X144606390Y-73248287D01*
X144697840Y-73294883D01*
X144699080Y-73295515D01*
X144749876Y-73343490D01*
X144766671Y-73411311D01*
X144744134Y-73477446D01*
X144699080Y-73516485D01*
X144606386Y-73563715D01*
X144440786Y-73684028D01*
X144296028Y-73828786D01*
X144175715Y-73994386D01*
X144082781Y-74176776D01*
X144019522Y-74371465D01*
X143987500Y-74573648D01*
X143987500Y-74778351D01*
X144019522Y-74980534D01*
X144082781Y-75175223D01*
X144175715Y-75357613D01*
X144296028Y-75523213D01*
X144440786Y-75667971D01*
X144558446Y-75753454D01*
X144606390Y-75788287D01*
X144697840Y-75834883D01*
X144699080Y-75835515D01*
X144749876Y-75883490D01*
X144766671Y-75951311D01*
X144744134Y-76017446D01*
X144699080Y-76056485D01*
X144606386Y-76103715D01*
X144440786Y-76224028D01*
X144296028Y-76368786D01*
X144175715Y-76534386D01*
X144082781Y-76716776D01*
X144019522Y-76911465D01*
X143987500Y-77113648D01*
X143987500Y-77318351D01*
X144019522Y-77520534D01*
X144082781Y-77715223D01*
X144175715Y-77897613D01*
X144296028Y-78063213D01*
X144440786Y-78207971D01*
X144595749Y-78320556D01*
X144606390Y-78328287D01*
X144697840Y-78374883D01*
X144699080Y-78375515D01*
X144749876Y-78423490D01*
X144766671Y-78491311D01*
X144744134Y-78557446D01*
X144699080Y-78596485D01*
X144606386Y-78643715D01*
X144440786Y-78764028D01*
X144296028Y-78908786D01*
X144175715Y-79074386D01*
X144082781Y-79256776D01*
X144019522Y-79451465D01*
X143987500Y-79653648D01*
X143987500Y-79858351D01*
X144019522Y-80060534D01*
X144082781Y-80255223D01*
X144175715Y-80437613D01*
X144296028Y-80603213D01*
X144440786Y-80747971D01*
X144595749Y-80860556D01*
X144606390Y-80868287D01*
X144697840Y-80914883D01*
X144699080Y-80915515D01*
X144749876Y-80963490D01*
X144766671Y-81031311D01*
X144744134Y-81097446D01*
X144699080Y-81136485D01*
X144606386Y-81183715D01*
X144440786Y-81304028D01*
X144296030Y-81448784D01*
X144226575Y-81544384D01*
X144171245Y-81587051D01*
X144126256Y-81595500D01*
X143187004Y-81595500D01*
X143051677Y-81622418D01*
X143051667Y-81622421D01*
X142924192Y-81675222D01*
X142809454Y-81751887D01*
X142809453Y-81751888D01*
X141695885Y-82865457D01*
X141684962Y-82881807D01*
X141684959Y-82881811D01*
X141619228Y-82980182D01*
X141619221Y-82980195D01*
X141566421Y-83107667D01*
X141566418Y-83107677D01*
X141539500Y-83243004D01*
X141539500Y-84185479D01*
X141519815Y-84252518D01*
X141467011Y-84298273D01*
X141397853Y-84308217D01*
X141391309Y-84307096D01*
X141302846Y-84289500D01*
X141302842Y-84289500D01*
X141145158Y-84289500D01*
X141145156Y-84289500D01*
X141143034Y-84289922D01*
X141141900Y-84289820D01*
X141139093Y-84290097D01*
X141139040Y-84289564D01*
X141073443Y-84283693D01*
X141018267Y-84240828D01*
X140997229Y-84192495D01*
X140989649Y-84154390D01*
X140977737Y-84094503D01*
X140933946Y-83988781D01*
X140917397Y-83948827D01*
X140917390Y-83948814D01*
X140829789Y-83817711D01*
X140829786Y-83817707D01*
X140718292Y-83706213D01*
X140718288Y-83706210D01*
X140587185Y-83618609D01*
X140587172Y-83618602D01*
X140441501Y-83558264D01*
X140441489Y-83558261D01*
X140286845Y-83527500D01*
X140286842Y-83527500D01*
X140129158Y-83527500D01*
X140129155Y-83527500D01*
X139974510Y-83558261D01*
X139974498Y-83558264D01*
X139830136Y-83618061D01*
X139782684Y-83627500D01*
X137755519Y-83627500D01*
X137688480Y-83607815D01*
X137667838Y-83591181D01*
X137358908Y-83282251D01*
X137325423Y-83220928D01*
X137330407Y-83151236D01*
X137372279Y-83095303D01*
X137437743Y-83070886D01*
X137470779Y-83072952D01*
X137499552Y-83078676D01*
X137589155Y-83096500D01*
X137589158Y-83096500D01*
X137746844Y-83096500D01*
X137746845Y-83096499D01*
X137901497Y-83065737D01*
X138047179Y-83005394D01*
X138178289Y-82917789D01*
X138289789Y-82806289D01*
X138377394Y-82675179D01*
X138437737Y-82529497D01*
X138468500Y-82374842D01*
X138468500Y-82217158D01*
X138468500Y-82217155D01*
X138468499Y-82217153D01*
X138464946Y-82199290D01*
X138437737Y-82062503D01*
X138430901Y-82046000D01*
X138377939Y-81918136D01*
X138368500Y-81870684D01*
X138368500Y-77655004D01*
X138348448Y-77554202D01*
X138348447Y-77554201D01*
X138346934Y-77546591D01*
X138341580Y-77519671D01*
X138319707Y-77466866D01*
X138288775Y-77392189D01*
X138288773Y-77392186D01*
X138288771Y-77392182D01*
X138212115Y-77277459D01*
X138212114Y-77277458D01*
X138114542Y-77179886D01*
X134698475Y-73763819D01*
X131241536Y-70306879D01*
X131208051Y-70245556D01*
X131213035Y-70175864D01*
X131218726Y-70162915D01*
X131253220Y-70095219D01*
X131316477Y-69900534D01*
X131348500Y-69698352D01*
X131348500Y-69493648D01*
X131324533Y-69342328D01*
X131316477Y-69291465D01*
X131253218Y-69096776D01*
X131219503Y-69030607D01*
X131160287Y-68914390D01*
X131152556Y-68903749D01*
X131039971Y-68748786D01*
X130895213Y-68604028D01*
X130729614Y-68483715D01*
X130723006Y-68480348D01*
X130636917Y-68436483D01*
X130586123Y-68388511D01*
X130569328Y-68320690D01*
X130591865Y-68254555D01*
X130636917Y-68215516D01*
X130729610Y-68168287D01*
X130750770Y-68152913D01*
X130895213Y-68047971D01*
X130895215Y-68047968D01*
X130895219Y-68047966D01*
X131039966Y-67903219D01*
X131039968Y-67903215D01*
X131039971Y-67903213D01*
X131092732Y-67830590D01*
X131160287Y-67737610D01*
X131253220Y-67555219D01*
X131316477Y-67360534D01*
X131348500Y-67158352D01*
X131348500Y-66953648D01*
X131316477Y-66751466D01*
X131253220Y-66556781D01*
X131253218Y-66556778D01*
X131253218Y-66556776D01*
X131219503Y-66490607D01*
X131160287Y-66374390D01*
X131152556Y-66363749D01*
X131039971Y-66208786D01*
X130895213Y-66064028D01*
X130729614Y-65943715D01*
X130723006Y-65940348D01*
X130636917Y-65896483D01*
X130586123Y-65848511D01*
X130569328Y-65780690D01*
X130591865Y-65714555D01*
X130636917Y-65675516D01*
X130729610Y-65628287D01*
X130750770Y-65612913D01*
X130895213Y-65507971D01*
X130895215Y-65507968D01*
X130895219Y-65507966D01*
X131039966Y-65363219D01*
X131039968Y-65363215D01*
X131039971Y-65363213D01*
X131092732Y-65290590D01*
X131160287Y-65197610D01*
X131253220Y-65015219D01*
X131316477Y-64820534D01*
X131348500Y-64618352D01*
X131348500Y-64413648D01*
X131316477Y-64211466D01*
X131253220Y-64016781D01*
X131253218Y-64016778D01*
X131253218Y-64016776D01*
X131219503Y-63950607D01*
X131160287Y-63834390D01*
X131152556Y-63823749D01*
X131039971Y-63668786D01*
X130895213Y-63524028D01*
X130729614Y-63403715D01*
X130723006Y-63400348D01*
X130636917Y-63356483D01*
X130586123Y-63308511D01*
X130569328Y-63240690D01*
X130591865Y-63174555D01*
X130636917Y-63135516D01*
X130729610Y-63088287D01*
X130750770Y-63072913D01*
X130895213Y-62967971D01*
X130895215Y-62967968D01*
X130895219Y-62967966D01*
X131039966Y-62823219D01*
X131039968Y-62823215D01*
X131039971Y-62823213D01*
X131092732Y-62750590D01*
X131160287Y-62657610D01*
X131253220Y-62475219D01*
X131316477Y-62280534D01*
X131348500Y-62078352D01*
X131348500Y-61873648D01*
X131316477Y-61671466D01*
X131253220Y-61476781D01*
X131253218Y-61476778D01*
X131253218Y-61476776D01*
X131219503Y-61410607D01*
X131160287Y-61294390D01*
X131152556Y-61283749D01*
X131039971Y-61128786D01*
X130895213Y-60984028D01*
X130729614Y-60863715D01*
X130723006Y-60860348D01*
X130636917Y-60816483D01*
X130586123Y-60768511D01*
X130569328Y-60700690D01*
X130591865Y-60634555D01*
X130636917Y-60595516D01*
X130729610Y-60548287D01*
X130750770Y-60532913D01*
X130895213Y-60427971D01*
X130895215Y-60427968D01*
X130895219Y-60427966D01*
X131039966Y-60283219D01*
X131039968Y-60283215D01*
X131039971Y-60283213D01*
X131092732Y-60210590D01*
X131160287Y-60117610D01*
X131253220Y-59935219D01*
X131316477Y-59740534D01*
X131348500Y-59538352D01*
X131348500Y-59333648D01*
X131316477Y-59131466D01*
X131253220Y-58936781D01*
X131253218Y-58936778D01*
X131253218Y-58936776D01*
X131198736Y-58829851D01*
X131160287Y-58754390D01*
X131152556Y-58743749D01*
X131039971Y-58588786D01*
X130895213Y-58444028D01*
X130729614Y-58323715D01*
X130723006Y-58320348D01*
X130636917Y-58276483D01*
X130586123Y-58228511D01*
X130569328Y-58160690D01*
X130591865Y-58094555D01*
X130636917Y-58055516D01*
X130729610Y-58008287D01*
X130750770Y-57992913D01*
X130895213Y-57887971D01*
X130895215Y-57887968D01*
X130895219Y-57887966D01*
X131039966Y-57743219D01*
X131039968Y-57743215D01*
X131039971Y-57743213D01*
X131092732Y-57670590D01*
X131160287Y-57577610D01*
X131253220Y-57395219D01*
X131316477Y-57200534D01*
X131348500Y-56998352D01*
X131348500Y-56793648D01*
X131316477Y-56591466D01*
X131253220Y-56396781D01*
X131253218Y-56396778D01*
X131253218Y-56396776D01*
X131212622Y-56317103D01*
X131160287Y-56214390D01*
X131130695Y-56173660D01*
X131039971Y-56048786D01*
X130895213Y-55904028D01*
X130729614Y-55783715D01*
X130723006Y-55780348D01*
X130636917Y-55736483D01*
X130586123Y-55688511D01*
X130569328Y-55620690D01*
X130591865Y-55554555D01*
X130636917Y-55515516D01*
X130729610Y-55468287D01*
X130786509Y-55426948D01*
X130895213Y-55347971D01*
X130895215Y-55347968D01*
X130895219Y-55347966D01*
X131039966Y-55203219D01*
X131039968Y-55203215D01*
X131039971Y-55203213D01*
X131105494Y-55113027D01*
X131160287Y-55037610D01*
X131253220Y-54855219D01*
X131316477Y-54660534D01*
X131348500Y-54458352D01*
X131348500Y-54253648D01*
X131316477Y-54051466D01*
X131253220Y-53856781D01*
X131253218Y-53856778D01*
X131253218Y-53856776D01*
X131207370Y-53766795D01*
X131194474Y-53698126D01*
X131220750Y-53633385D01*
X131277857Y-53593128D01*
X131317855Y-53586500D01*
X141153627Y-53586500D01*
X141220666Y-53606185D01*
G37*
%TD.AperFunction*%
%TA.AperFunction,Conductor*%
G36*
X136033703Y-77080805D02*
G01*
X136040181Y-77086837D01*
X136931181Y-77977837D01*
X136964666Y-78039160D01*
X136967500Y-78065518D01*
X136967500Y-81870684D01*
X136958061Y-81918136D01*
X136898264Y-82062498D01*
X136898261Y-82062510D01*
X136867500Y-82217153D01*
X136867500Y-82374846D01*
X136891046Y-82493219D01*
X136884819Y-82562810D01*
X136841956Y-82617988D01*
X136776066Y-82641232D01*
X136708069Y-82625164D01*
X136681748Y-82605091D01*
X135492252Y-81415595D01*
X135458767Y-81354272D01*
X135463751Y-81284580D01*
X135505623Y-81228647D01*
X135511013Y-81224831D01*
X135638289Y-81139789D01*
X135749789Y-81028289D01*
X135837394Y-80897179D01*
X135897737Y-80751497D01*
X135928500Y-80596842D01*
X135928500Y-80439158D01*
X135928500Y-80439155D01*
X135928499Y-80439153D01*
X135897738Y-80284510D01*
X135897737Y-80284503D01*
X135837939Y-80140136D01*
X135828500Y-80092684D01*
X135828500Y-77174518D01*
X135848185Y-77107479D01*
X135900989Y-77061724D01*
X135970147Y-77051780D01*
X136033703Y-77080805D01*
G37*
%TD.AperFunction*%
%TA.AperFunction,Conductor*%
G36*
X132645636Y-75396185D02*
G01*
X132666278Y-75412819D01*
X133629181Y-76375722D01*
X133662666Y-76437045D01*
X133665500Y-76463403D01*
X133665500Y-77511480D01*
X133645815Y-77578519D01*
X133593011Y-77624274D01*
X133523853Y-77634218D01*
X133460297Y-77605193D01*
X133453819Y-77599161D01*
X132526545Y-76671887D01*
X132411807Y-76595222D01*
X132284332Y-76542421D01*
X132284322Y-76542418D01*
X132148996Y-76515500D01*
X132148994Y-76515500D01*
X132148993Y-76515500D01*
X131209744Y-76515500D01*
X131142705Y-76495815D01*
X131109425Y-76464384D01*
X131108712Y-76463403D01*
X131071396Y-76412041D01*
X131039969Y-76368784D01*
X130895213Y-76224028D01*
X130729614Y-76103715D01*
X130723006Y-76100348D01*
X130636917Y-76056483D01*
X130586123Y-76008511D01*
X130569328Y-75940690D01*
X130591865Y-75874555D01*
X130636917Y-75835516D01*
X130729610Y-75788287D01*
X130777555Y-75753453D01*
X130895213Y-75667971D01*
X130895215Y-75667968D01*
X130895219Y-75667966D01*
X131039966Y-75523219D01*
X131109425Y-75427615D01*
X131164755Y-75384949D01*
X131209744Y-75376500D01*
X132578597Y-75376500D01*
X132645636Y-75396185D01*
G37*
%TD.AperFunction*%
%TD*%
M02*
