M48
; DRILL file {KiCad 9.0.1} date 2025-06-22T03:23:04+0200
; FORMAT={-:-/ absolute / metric / decimal}
; #@! TF.CreationDate,2025-06-22T03:23:04+02:00
; #@! TF.GenerationSoftware,Kicad,Pcbnew,9.0.1
; #@! TF.FileFunction,Plated,1,2,PTH
FMAT,2
METRIC
; #@! TA.AperFunction,Plated,PTH,ViaDrill
T1C0.300
; #@! TA.AperFunction,Plated,PTH,ComponentDrill
T2C0.800
; #@! TA.AperFunction,Plated,PTH,ComponentDrill
T3C1.000
; #@! TA.AperFunction,Plated,PTH,ComponentDrill
T4C1.100
%
G90
G05
T1
X107.95Y-76.962
X107.95Y-82.804
X107.95Y-91.186
X109.474Y-57.404
X109.474Y-58.928
X109.474Y-60.452
X109.474Y-61.976
X109.474Y-63.5
X109.474Y-65.024
X109.474Y-66.548
X109.474Y-68.072
X109.474Y-69.596
X110.998Y-58.928
X110.998Y-60.452
X110.998Y-61.976
X110.998Y-63.5
X110.998Y-65.024
X110.998Y-66.548
X110.998Y-68.072
X110.998Y-69.596
X112.268Y-90.932
X112.522Y-60.452
X112.522Y-61.976
X112.522Y-63.5
X112.522Y-65.024
X112.522Y-66.548
X112.522Y-68.072
X112.522Y-69.596
X114.046Y-60.452
X114.046Y-61.976
X114.046Y-63.5
X114.046Y-65.024
X114.046Y-66.548
X114.046Y-68.072
X114.046Y-69.596
X115.062Y-91.694
X115.57Y-58.928
X115.57Y-60.452
X115.57Y-61.976
X115.57Y-63.5
X115.57Y-65.024
X115.57Y-66.548
X115.57Y-68.072
X115.57Y-69.596
X116.078Y-87.63
X116.586Y-88.964
X116.84Y-91.694
X117.094Y-55.88
X117.094Y-57.404
X117.094Y-58.928
X117.094Y-60.452
X117.094Y-61.976
X117.094Y-63.5
X117.094Y-65.024
X117.094Y-66.548
X117.094Y-68.072
X117.094Y-69.596
X119.126Y-92.964
X121.158Y-93.472
X123.952Y-81.28
X124.714Y-90.424
X125.476Y-60.452
X125.476Y-63.246
X125.476Y-66.04
X125.476Y-68.834
X125.476Y-92.964
X127.0Y-82.55
X127.508Y-86.868
X132.08Y-78.994
X133.604Y-77.216
X133.858Y-85.09
X133.858Y-89.662
X135.128Y-80.518
X135.636Y-55.626
X136.398Y-77.978
X136.398Y-87.376
X137.414Y-74.93
X137.668Y-82.296
X138.176Y-55.626
X138.938Y-87.376
X138.938Y-91.44
X139.7Y-77.724
X139.954Y-74.93
X140.208Y-55.626
X140.208Y-84.328
X141.224Y-85.09
X141.478Y-91.44
X142.24Y-74.93
X142.24Y-77.724
T2
X113.284Y-85.344
X115.824Y-85.344
X118.364Y-85.344
X120.904Y-85.344
T3
X121.412Y-55.626
X123.952Y-55.626
X130.048Y-54.356
X130.048Y-56.896
X130.048Y-59.436
X130.048Y-61.976
X130.048Y-64.516
X130.048Y-67.056
X130.048Y-69.596
X130.048Y-72.136
X130.048Y-74.676
X130.048Y-77.216
X130.048Y-79.756
X130.048Y-82.296
X130.048Y-84.836
X130.048Y-87.376
X130.048Y-89.916
X130.048Y-93.472
X132.588Y-93.472
X135.128Y-93.472
X137.668Y-93.472
X140.208Y-93.472
X142.748Y-93.472
X145.288Y-54.356
X145.288Y-56.896
X145.288Y-59.436
X145.288Y-61.976
X145.288Y-64.516
X145.288Y-67.056
X145.288Y-69.596
X145.288Y-72.136
X145.288Y-74.676
X145.288Y-77.216
X145.288Y-79.756
X145.288Y-82.296
X145.288Y-84.836
X145.288Y-87.376
X145.288Y-89.916
T4
X110.744Y-74.168
X113.284Y-74.168
X115.824Y-74.168
M30
